<svg width="50" height="50" viewBox="0 0 50 50" fill="none" xmlns="http://www.w3.org/2000/svg">
<path d="M20.8985 8.59397C21.9592 9.46991 22.4944 10.5611 22.6564 11.9143C22.67 12.2244 22.6704 12.534 22.6701 12.8444C22.6704 12.9362 22.6707 13.028 22.671 13.1226C22.6718 13.4292 22.6719 13.7359 22.6721 14.0426C22.6725 14.2628 22.673 14.4831 22.6736 14.7034C22.6748 15.3013 22.6755 15.8992 22.6759 16.497C22.6762 16.8709 22.6766 17.2447 22.677 17.6186C22.6782 18.6552 22.6792 19.6918 22.6796 20.7285C22.6796 20.8279 22.6796 20.8279 22.6796 20.9293C22.6796 20.9957 22.6797 21.0621 22.6797 21.1305C22.6797 21.2651 22.6798 21.3996 22.6798 21.5342C22.6798 21.6343 22.6798 21.6343 22.6799 21.7364C22.6803 22.817 22.682 23.8975 22.6842 24.9781C22.6866 26.0894 22.6878 27.2008 22.6879 28.3122C22.688 28.9354 22.6886 29.5586 22.6903 30.1818C22.6919 30.7684 22.6921 31.3549 22.6913 31.9415C22.6912 32.1561 22.6916 32.3707 22.6926 32.5853C22.6993 34.1751 22.6098 35.4293 21.7775 36.8166C22.3898 36.8489 23.0021 36.8811 23.6329 36.9143C23.6326 36.7704 23.6322 36.6265 23.6318 36.4782C23.6234 33.063 23.6169 29.6478 23.613 26.2327C23.6125 25.8124 23.612 25.3922 23.6115 24.9719C23.6114 24.8882 23.6113 24.8046 23.6112 24.7184C23.6095 23.3633 23.6064 22.0081 23.6028 20.653C23.5991 19.2628 23.597 17.8726 23.5962 16.4824C23.5956 15.6243 23.5939 14.7663 23.5908 13.9083C23.5887 13.3202 23.5881 12.732 23.5886 12.1438C23.5888 11.8043 23.5884 11.4649 23.5864 11.1254C23.5844 10.7574 23.5849 10.3895 23.5859 10.0214C23.5848 9.91408 23.5837 9.80674 23.5825 9.69614C23.588 8.99291 23.6853 8.64919 24.1796 8.14041C24.7958 7.64906 25.3112 7.65264 26.0729 7.73638C29.3727 8.16331 32.3815 9.91532 34.4728 12.5002C36.6114 15.2942 37.5273 18.7078 37.0816 22.1911C36.7247 24.6764 35.7407 26.9193 34.0821 28.8088C34.0157 28.8871 33.9492 28.9654 33.8807 29.0461C33.5176 29.4674 33.1381 29.8412 32.7153 30.2019C30.6879 31.9567 29.8355 34.3224 29.4923 36.9143C29.5802 36.9218 29.5802 36.9218 29.67 36.9294C30.4531 37.0046 31.0658 37.2338 31.6407 37.7932C32.2518 38.6209 32.4261 39.406 32.3243 40.4299C32.2299 40.7475 32.0996 41.0228 31.9337 41.3088C31.8773 41.4075 31.8209 41.5062 31.7628 41.6079C31.7225 41.6703 31.6822 41.7328 31.6407 41.7971C31.6991 41.8636 31.7576 41.93 31.8177 41.9985C32.4 42.7805 32.4279 43.5293 32.2889 44.4815C32.0955 45.2219 31.5577 45.8286 30.9259 46.2424C30.246 46.5598 29.5445 46.5228 28.8087 46.4846C28.8073 46.5508 28.8059 46.617 28.8045 46.6852C28.7531 47.6882 28.3837 48.5334 27.6368 49.219C26.9791 49.7146 26.3543 49.932 25.5268 49.9309C25.4548 49.9316 25.3828 49.9323 25.3086 49.9329C25.0718 49.9348 24.8351 49.9352 24.5984 49.9354C24.4328 49.936 24.2671 49.9367 24.1015 49.9373C23.7547 49.9385 23.4078 49.9389 23.061 49.9388C22.6184 49.9387 22.1758 49.9414 21.7332 49.9448C21.3911 49.9469 21.0491 49.9473 20.707 49.9472C20.5439 49.9475 20.3808 49.9483 20.2177 49.9498C18.5926 49.9635 18.5926 49.9635 17.8712 49.5119C17.8079 49.475 17.7445 49.4381 17.6792 49.4C17.0168 48.9993 16.6013 48.284 16.3533 47.5649C16.2738 47.206 16.2859 46.8498 16.3087 46.4846C16.212 46.488 16.1153 46.4914 16.0157 46.4949C14.9668 46.5213 14.2533 46.4473 13.4599 45.7133C12.8818 45.0487 12.6639 44.2862 12.6741 43.4241C12.7286 42.7613 12.9871 42.2264 13.379 41.6994C13.3295 41.6267 13.3295 41.6267 13.2791 41.5526C12.819 40.8518 12.6038 40.1971 12.6954 39.3557C12.8898 38.4972 13.3189 37.7929 14.0626 37.3049C14.2561 37.2346 14.4513 37.1685 14.6485 37.1096C14.6003 37.0366 14.5521 36.9636 14.5024 36.8883C14.4399 36.7922 14.3773 36.696 14.3129 36.5969C14.2505 36.5017 14.1882 36.4066 14.124 36.3085C13.9886 36.076 13.9116 35.9067 13.8673 35.6448C13.7974 35.6493 13.7276 35.6538 13.6556 35.6585C12.2931 35.7078 11.0902 35.2463 10.0312 34.3905C9.035 33.4556 8.34385 32.1476 8.28449 30.7726C8.28306 30.6307 8.28245 30.4888 8.28258 30.3469C8.28252 30.2734 8.28245 30.1999 8.28239 30.1241C8.28741 29.5957 8.34799 29.123 8.4962 28.6135C8.41765 28.5954 8.3391 28.5773 8.25816 28.5586C7.12545 28.1015 6.21353 27.0402 5.66417 25.9768C4.99141 24.358 4.79938 22.5607 5.44759 20.898C6.04043 19.5026 6.94411 18.3943 8.30089 17.676C8.36534 17.676 8.4298 17.676 8.4962 17.676C8.46473 17.5645 8.43326 17.4529 8.40083 17.338C8.06257 15.976 8.27376 14.4773 8.95397 13.2571C9.8357 11.9146 10.9789 11.0649 12.5447 10.684C12.8207 10.6404 13.0814 10.6353 13.3607 10.6387C13.456 10.6395 13.5513 10.6404 13.6495 10.6413C13.7573 10.643 13.7573 10.643 13.8673 10.6448C13.8945 10.5299 13.8945 10.5299 13.9222 10.4128C14.3284 9.38857 15.07 8.59825 16.0585 8.124C17.6892 7.44302 19.4275 7.58169 20.8985 8.59397ZM15.7228 10.5471C15.5968 10.8063 15.5968 10.8063 15.5275 11.0354C15.6251 11.0818 15.6251 11.0818 15.7247 11.1292C16.662 11.6038 17.6655 12.2695 18.0665 13.2815C18.1153 13.6477 18.1153 13.6477 18.0665 13.9651C17.8445 14.2403 17.6903 14.2559 17.3402 14.3069C16.8427 14.237 16.6753 13.993 16.3781 13.6057C15.8437 12.9339 15.1124 12.4522 14.2579 12.3049C13.2194 12.2079 12.2854 12.3889 11.4381 13.019C11.3012 13.1361 11.1667 13.256 11.0353 13.3791C10.9801 13.4302 10.925 13.4813 10.8682 13.534C10.0974 14.336 9.90559 15.2973 9.92481 16.3725C9.95903 16.6813 10.0244 16.9084 10.1564 17.1877C10.2812 17.1837 10.4061 17.1797 10.5348 17.1755C11.6944 17.1792 12.8033 17.5501 13.6678 18.3386C14.1568 18.8392 14.1568 18.8392 14.1725 19.3179C14.0066 19.7878 14.0066 19.7878 13.7696 19.9221C13.3661 19.9634 13.1566 19.9695 12.8152 19.7401C12.7314 19.6612 12.6475 19.5823 12.5611 19.501C11.9273 18.9502 11.3413 18.6801 10.4924 18.717C9.29077 18.8843 8.3127 19.4858 7.57457 20.4409C6.87172 21.4764 6.6416 22.5919 6.73839 23.8284C6.99257 25.0877 7.55011 26.0944 8.59386 26.8557C8.85057 27.0064 9.10157 27.127 9.37511 27.2463C9.4456 27.1517 9.5161 27.057 9.58873 26.9595C10.2412 26.1988 11.3591 25.3877 12.37 25.2604C13.0157 25.2362 13.0157 25.2362 13.2558 25.4309C13.4065 25.6208 13.4553 25.7346 13.4767 25.9768C13.3841 26.2758 13.3085 26.4379 13.086 26.6604C12.9228 26.7218 12.7577 26.778 12.5917 26.8313C11.633 27.1721 10.7864 27.7378 10.3238 28.6715C9.88196 29.7484 9.80905 30.7439 10.2224 31.8533C10.6361 32.7357 11.2981 33.3103 12.14 33.771C12.6151 33.924 13.0778 33.9586 13.5743 33.9846C13.5957 33.895 13.6171 33.8053 13.6392 33.713C13.9028 32.6928 14.2619 31.9676 15.1368 31.3479C15.6289 31.1125 15.9821 31.1602 16.504 31.2502C16.5259 31.3883 16.5458 31.5268 16.5651 31.6653C16.5764 31.7423 16.5877 31.8193 16.5994 31.8987C16.6021 32.1704 16.5591 32.2961 16.4064 32.5198C16.2267 32.651 16.2267 32.651 16.0218 32.7639C15.599 33.0136 15.3919 33.2195 15.2345 33.6916C15.1374 34.5591 15.3482 35.3095 15.8692 36.011C16.4651 36.638 17.2224 36.9483 18.0787 36.9753C18.9623 36.9334 19.6914 36.671 20.3126 36.0354C20.8899 35.2732 21.0257 34.5629 21.0217 33.6267C21.022 33.5334 21.0224 33.4402 21.0228 33.344C21.0238 33.0324 21.0234 32.7208 21.023 32.4092C21.0234 32.1854 21.024 31.9616 21.0245 31.7377C21.0258 31.1304 21.0259 30.5231 21.0257 29.9158C21.0255 29.4086 21.026 28.9014 21.0265 28.3941C21.0276 27.129 21.0276 25.8639 21.0269 24.5988C21.0264 23.5012 21.0275 22.4037 21.0294 21.3062C21.0313 20.178 21.032 19.0499 21.0317 17.9217C21.0315 17.2888 21.0318 16.6559 21.0331 16.023C21.0344 15.4278 21.0342 14.8326 21.0329 14.2373C21.0327 14.0191 21.0329 13.8009 21.0338 13.5827C21.0348 13.2843 21.034 12.986 21.0327 12.6876C21.0335 12.6017 21.0342 12.5158 21.0349 12.4273C21.0269 11.5095 20.7816 10.8269 20.149 10.158C19.4733 9.57206 18.7154 9.33904 17.8365 9.35577C16.93 9.42406 16.3172 9.87068 15.7228 10.5471ZM25.1954 9.47288C25.186 9.61949 25.1833 9.76655 25.1834 9.91346C25.1832 10.0092 25.183 10.105 25.1828 10.2037C25.1831 10.3102 25.1834 10.4167 25.1837 10.5264C25.1836 10.6385 25.1835 10.7507 25.1834 10.8662C25.1833 11.1789 25.1836 11.4915 25.1841 11.8042C25.1845 12.1408 25.1844 12.4775 25.1843 12.8141C25.1842 13.3978 25.1845 13.9815 25.1851 14.5652C25.1859 15.4092 25.1861 16.2532 25.1863 17.0971C25.1865 18.4662 25.1871 19.8354 25.1881 21.2045C25.1889 22.5348 25.1896 23.8651 25.1901 25.1954C25.1901 25.2774 25.1901 25.3593 25.1901 25.4437C25.1903 25.8548 25.1904 26.2658 25.1905 26.6769C25.1915 30.0894 25.1933 33.5018 25.1954 36.9143C26.0655 36.9143 26.9357 36.9143 27.8321 36.9143C27.8704 36.6081 27.9087 36.302 27.9481 35.9866C28.1305 34.6512 28.4912 33.4331 29.1017 32.2268C29.1446 32.1399 29.1875 32.0531 29.2318 31.9636C29.9307 30.6118 30.917 29.5962 32.0027 28.5578C32.982 27.6178 33.8059 26.6382 34.3995 25.4031C34.4311 25.3384 34.4627 25.2737 34.4953 25.2071C34.9683 24.213 35.3163 23.1662 35.4493 22.0705C35.4624 21.9662 35.4755 21.8618 35.489 21.7543C35.722 19.3315 35.195 16.9485 33.9845 14.844C33.9281 14.7459 33.8717 14.6478 33.8136 14.5468C32.283 12.0349 29.9011 10.2792 27.0509 9.57054C26.0899 9.29778 26.0899 9.29778 25.1954 9.47288ZM14.6485 38.9651C14.4155 39.3033 14.3545 39.487 14.3617 39.8989C14.4771 40.3222 14.6413 40.5936 15.0153 40.8323C15.2972 40.9428 15.5271 40.9431 15.8299 40.9436C15.952 40.9443 16.0742 40.945 16.2 40.9457C16.3351 40.9455 16.4702 40.9453 16.6052 40.945C16.7477 40.9454 16.8902 40.9459 17.0326 40.9465C17.4194 40.9478 17.8062 40.9479 18.193 40.9476C18.516 40.9475 18.839 40.948 19.162 40.9485C19.9242 40.9496 20.6864 40.9496 21.4485 40.949C22.2345 40.9484 23.0204 40.9496 23.8063 40.9517C24.4813 40.9534 25.1564 40.954 25.8314 40.9537C26.2344 40.9535 26.6375 40.9538 27.0405 40.9551C27.4197 40.9564 27.7988 40.9562 28.1779 40.9549C28.3169 40.9547 28.4558 40.9549 28.5948 40.9557C28.7849 40.9568 28.975 40.9558 29.165 40.9547C29.3244 40.9548 29.3244 40.9548 29.487 40.9548C29.9134 40.9025 30.2437 40.7527 30.5482 40.4482C30.7005 40.1677 30.7493 39.9691 30.7618 39.6487C30.6187 39.2043 30.4923 38.905 30.0782 38.6721C29.7627 38.5669 29.5335 38.5614 29.2016 38.5601C29.0186 38.559 29.0186 38.559 28.8319 38.558C28.6965 38.5577 28.561 38.5574 28.4256 38.5572C28.2831 38.5565 28.1407 38.5559 27.9982 38.5552C27.5303 38.5532 27.0623 38.5521 26.5943 38.5512C26.4331 38.5508 26.272 38.5504 26.1108 38.55C25.3538 38.5481 24.5968 38.5467 23.8398 38.5459C22.9661 38.5449 22.0924 38.5424 21.2186 38.5384C20.5432 38.5355 19.8678 38.534 19.1923 38.5337C18.789 38.5335 18.3856 38.5326 17.9822 38.5302C17.6027 38.5279 17.2232 38.5275 16.8436 38.5285C16.7045 38.5285 16.5654 38.5279 16.4263 38.5266C15.4509 38.4926 15.4509 38.4926 14.6485 38.9651ZM14.6485 42.8713C14.3932 43.2676 14.2871 43.5736 14.3556 44.0432C14.5548 44.4004 14.6978 44.5969 15.0392 44.8244C15.4005 44.9208 15.7426 44.9348 16.1154 44.9358C16.2334 44.9364 16.3515 44.9369 16.473 44.9375C16.6017 44.9376 16.7304 44.9377 16.8629 44.9378C17.0004 44.9383 17.1379 44.9388 17.2755 44.9393C17.6483 44.9406 18.0212 44.9412 18.3941 44.9417C18.6272 44.9419 18.8603 44.9423 19.0935 44.9428C19.8234 44.9441 20.5533 44.945 21.2833 44.9454C22.125 44.9459 22.9666 44.9476 23.8083 44.9504C24.4596 44.9525 25.1109 44.9535 25.7622 44.9536C26.1509 44.9537 26.5396 44.9543 26.9283 44.9561C27.294 44.9577 27.6596 44.9579 28.0253 44.957C28.2228 44.9569 28.4204 44.9582 28.6179 44.9596C29.3745 44.9562 29.9227 44.935 30.5116 44.4216C30.7248 44.0293 30.7555 43.6988 30.6642 43.2619C30.4955 42.9625 30.2926 42.7344 29.9806 42.5783C29.7862 42.5685 29.5915 42.5652 29.3968 42.5646C29.2102 42.5638 29.2102 42.5638 29.0197 42.5629C28.881 42.5628 28.7423 42.5627 28.6035 42.5626C28.4581 42.5622 28.3126 42.5617 28.1671 42.5611C27.7712 42.5599 27.3753 42.5592 26.9795 42.5588C26.7322 42.5585 26.485 42.5581 26.2377 42.5577C25.4644 42.5563 24.6911 42.5554 23.9178 42.555C23.0246 42.5546 22.1315 42.5529 21.2384 42.55C20.5483 42.5479 19.8583 42.5469 19.1683 42.5468C18.756 42.5467 18.3438 42.5461 17.9315 42.5444C17.5436 42.5428 17.1558 42.5426 16.7679 42.5434C16.6256 42.5435 16.4833 42.5431 16.3409 42.5421C16.1466 42.5409 15.9522 42.5416 15.7578 42.5425C15.649 42.5423 15.5402 42.5422 15.4282 42.542C15.0962 42.5834 14.9154 42.6723 14.6485 42.8713ZM17.8712 46.4846C17.9873 47.2079 17.9873 47.2079 18.3229 47.7419C18.3664 47.794 18.41 47.8462 18.4549 47.8998C19.1757 48.437 19.9948 48.3834 20.8532 48.379C20.9905 48.3792 21.1279 48.3795 21.2653 48.3798C21.552 48.3803 21.8387 48.3796 22.1254 48.3783C22.4914 48.3766 22.8573 48.3776 23.2233 48.3793C23.5066 48.3804 23.7899 48.38 24.0731 48.3793C24.208 48.3791 24.3429 48.3793 24.4778 48.38C25.6472 48.3859 25.6472 48.3859 26.6358 47.8213C27.0161 47.367 27.1485 47.0831 27.1485 46.4846C24.087 46.4846 21.0255 46.4846 17.8712 46.4846Z" fill="#EF4C43"/>
<path d="M28.0247 11.2932C28.2198 11.3807 28.4071 11.4764 28.595 11.5784C28.663 11.6142 28.731 11.65 28.8011 11.6869C29.0002 11.793 29.1975 11.9018 29.3945 12.0118C29.492 12.0655 29.5894 12.1193 29.6898 12.1747C31.8474 13.4559 33.2897 15.6299 33.9119 18.0333C34.4077 20.2646 34.4077 20.2646 34.021 21.0084C33.7341 21.2349 33.5685 21.2891 33.2031 21.2891C32.8585 21.1325 32.7317 21.0214 32.5195 20.7032C32.4838 20.4316 32.4564 20.1641 32.4341 19.8914C32.235 17.8926 31.47 16.0316 29.9805 14.6485C29.9219 14.5906 29.8634 14.5327 29.8031 14.473C28.979 13.6899 27.9754 13.1735 26.9424 12.7152C26.7156 12.5708 26.6505 12.4592 26.5625 12.2071C26.575 11.8512 26.5859 11.6156 26.8127 11.3343C27.2051 11.1633 27.6201 11.1616 28.0247 11.2932Z" fill="#EF4C43"/>
<path d="M39.3386 19.6761C39.4507 19.6749 39.5628 19.6736 39.6783 19.6724C39.7985 19.6732 39.9186 19.6739 40.0424 19.6748C40.1665 19.6744 40.2906 19.674 40.4185 19.6736C40.6806 19.6734 40.9426 19.6739 41.2048 19.6757C41.5403 19.6779 41.8757 19.6767 42.2112 19.6743C42.532 19.6726 42.8527 19.6738 43.1735 19.6748C43.2939 19.674 43.4142 19.6732 43.5382 19.6724C43.65 19.6736 43.7618 19.6748 43.877 19.6761C43.9752 19.6764 44.0735 19.6767 44.1748 19.677C44.5055 19.7404 44.6197 19.8541 44.8241 20.1173C44.9082 20.4534 44.9541 20.6921 44.8546 21.0267C44.696 21.2307 44.5756 21.2903 44.3358 21.3868C44.0808 21.4129 44.0808 21.4129 43.7883 21.4152C43.6784 21.4164 43.5686 21.4177 43.4554 21.4189C43.3372 21.4192 43.219 21.4194 43.0972 21.4196C42.9145 21.4206 42.9145 21.4206 42.728 21.4216C42.4703 21.4226 42.2127 21.4231 41.955 21.423C41.6255 21.423 41.2961 21.4256 40.9666 21.429C40.6514 21.4317 40.3362 21.4316 40.021 21.4318C39.903 21.4332 39.785 21.4346 39.6634 21.4361C39.5533 21.4355 39.4431 21.4349 39.3297 21.4342C39.233 21.4345 39.1364 21.4348 39.0369 21.4351C38.6944 21.3732 38.529 21.2356 38.2812 20.9962C38.2163 20.7795 38.2163 20.7795 38.2201 20.5567C38.2189 20.4832 38.2176 20.4097 38.2163 20.3339C38.3751 19.8035 38.8361 19.6777 39.3386 19.6761Z" fill="#EF4C43"/>
<path d="M38.7695 5.85917C39.0075 6.06059 39.0075 6.06059 39.1601 6.34746C39.1786 6.89409 39.0773 7.15733 38.7126 7.56546C38.5582 7.72371 38.4018 7.88003 38.2438 8.0347C38.1611 8.1179 38.0783 8.20109 37.993 8.28681C37.818 8.46187 37.6421 8.63608 37.4654 8.80949C37.1955 9.075 36.9292 9.34374 36.663 9.61303C36.4923 9.78292 36.3214 9.95262 36.1503 10.1221C36.0709 10.2025 35.9914 10.2828 35.9095 10.3656C35.2828 10.9744 35.2828 10.9744 34.8732 11.0436C34.5098 11.0332 34.3544 10.9832 34.082 10.742C33.9256 10.4291 33.8564 10.2573 33.958 9.91805C34.0923 9.64703 34.2356 9.47764 34.4491 9.26427C34.5244 9.18837 34.5997 9.11247 34.6773 9.03427C34.7994 8.91355 34.7994 8.91355 34.9239 8.79039C35.0075 8.70677 35.091 8.62316 35.1771 8.53701C35.3537 8.36069 35.5306 8.18472 35.7079 8.00909C35.9797 7.73956 36.2502 7.46876 36.5205 7.19775C36.6922 7.02665 36.8639 6.85562 37.0357 6.68468C37.1169 6.6034 37.1981 6.52213 37.2817 6.43839C37.3573 6.36373 37.4329 6.28906 37.5108 6.21213C37.5772 6.14616 37.6437 6.08019 37.7121 6.01222C38.0609 5.71317 38.346 5.73818 38.7695 5.85917Z" fill="#EF4C43"/>
<path d="M35.0586 30.0779C35.2331 30.2071 35.2331 30.2071 35.4204 30.3768C35.4892 30.439 35.558 30.5011 35.6288 30.5652C36.1863 31.0838 36.729 31.6169 37.2703 32.1524C37.42 32.3 37.5703 32.4469 37.7212 32.5933C37.9407 32.8063 38.1583 33.0211 38.3755 33.2365C38.443 33.3013 38.5105 33.3661 38.5801 33.4329C38.8894 33.7435 39.0462 33.9235 39.1623 34.3551C39.1598 34.7164 39.0901 34.8754 38.8672 35.156C38.5488 35.3152 38.342 35.2993 37.9883 35.2537C37.8078 35.1259 37.8078 35.1259 37.6226 34.956C37.5544 34.8937 37.4862 34.8315 37.4159 34.7673C37.0835 34.4535 36.7542 34.137 36.4292 33.8156C36.359 33.7462 36.2888 33.6767 36.2165 33.6052C36.0697 33.4598 35.9231 33.3142 35.7766 33.1685C35.6267 33.0198 35.4764 32.8715 35.3257 32.7236C35.1066 32.5087 34.8889 32.2925 34.6714 32.0761C34.6039 32.0102 34.5363 31.9444 34.4667 31.8766C34.4048 31.8143 34.3428 31.752 34.2789 31.6879C34.2242 31.6338 34.1695 31.5797 34.1132 31.5239C33.9521 31.3032 33.9164 31.1291 33.8867 30.8592C33.9625 30.5697 34.0451 30.4091 34.2529 30.1939C34.5643 30.0296 34.7089 30.0107 35.0586 30.0779Z" fill="#EF4C43"/>
<path d="M24.3591 0.0550385C24.4335 0.0531502 24.5079 0.0512619 24.5846 0.0493164C24.8918 0.116932 24.9986 0.245755 25.1953 0.488388C25.2443 0.751471 25.2443 0.751471 25.2443 1.05544C25.2452 1.16951 25.2461 1.28357 25.2471 1.40109C25.246 1.52388 25.2449 1.64667 25.2438 1.77318C25.2439 1.89959 25.244 2.02599 25.2442 2.15623C25.2443 2.42353 25.2431 2.69078 25.2409 2.95807C25.2381 3.30026 25.2384 3.64236 25.2396 3.98456C25.2405 4.31149 25.239 4.63839 25.2377 4.96532C25.2379 5.08811 25.2382 5.2109 25.2385 5.3374C25.2367 5.5085 25.2367 5.5085 25.2348 5.68305C25.2342 5.78336 25.2337 5.88367 25.2332 5.98702C25.1894 6.29094 25.1177 6.42411 24.9023 6.64073C24.5111 6.7494 24.3079 6.78102 23.938 6.60411C23.7305 6.44542 23.7305 6.44542 23.6328 6.34776C23.6221 6.16357 23.6183 5.97898 23.6171 5.79449C23.6161 5.67618 23.6152 5.55787 23.6142 5.43597C23.6138 5.30709 23.6134 5.17821 23.613 5.04543C23.6124 4.91271 23.6119 4.77999 23.6113 4.64728C23.6103 4.36864 23.6097 4.09001 23.6094 3.81137C23.6088 3.45418 23.6065 3.09702 23.6037 2.73984C23.6019 2.46555 23.6014 2.19127 23.6012 1.91698C23.6008 1.7212 23.599 1.52543 23.5971 1.32966C23.5974 1.21074 23.5977 1.09181 23.598 0.969278C23.5976 0.864397 23.5973 0.759517 23.5969 0.651457C23.6328 0.390732 23.6328 0.390732 23.7685 0.210735C23.974 0.0631473 24.1076 0.0554626 24.3591 0.0550385Z" fill="#EF4C43"/>
</svg>
