<svg width="30" height="30" viewBox="0 0 30 30" fill="none" xmlns="http://www.w3.org/2000/svg">
<path d="M18.0468 4.92185C17.5927 5.17088 17.5927 5.17088 17.3437 5.62498C17.3721 6.89564 17.6679 7.51554 18.5337 8.38057C18.6658 8.50539 18.7979 8.63022 18.934 8.75883C19.0689 8.89176 19.2038 9.0247 19.3428 9.16166C19.7719 9.58288 20.2056 9.99893 20.6396 10.415C20.9324 10.7008 21.2249 10.9869 21.5171 11.2733C22.2318 11.9725 22.9506 12.6671 23.6718 13.3594C23.4038 13.3607 23.1357 13.3621 22.8595 13.3635C20.3351 13.3769 17.8106 13.394 15.2862 13.4146C13.9883 13.4251 12.6905 13.4343 11.3925 13.4405C10.1403 13.4466 8.88814 13.4561 7.63595 13.4679C7.15789 13.4718 6.67981 13.4745 6.20174 13.476C5.53279 13.4782 4.86403 13.4848 4.19513 13.4924C3.99687 13.4921 3.79862 13.4917 3.59436 13.4914C2.80977 13.504 2.21756 13.5363 1.51754 13.9077C1.17183 14.2969 1.17183 14.2969 1.05464 15C1.17183 15.7031 1.17183 15.7031 1.51754 16.0923C2.3859 16.553 3.23522 16.5092 4.19513 16.5076C4.40558 16.51 4.61602 16.5123 4.83285 16.5148C5.52781 16.5219 6.22269 16.524 6.91768 16.5262C7.39978 16.5301 7.88187 16.5344 8.36397 16.5389C9.63239 16.5501 10.9008 16.557 12.1693 16.5632C13.4638 16.5701 14.7583 16.581 16.0528 16.5916C18.5925 16.6118 21.1321 16.6276 23.6718 16.6406C23.4885 16.8178 23.3051 16.9951 23.1162 17.1777C22.4349 17.8377 21.7575 18.5017 21.0812 19.1669C20.7883 19.4539 20.4943 19.7399 20.1993 20.0247C19.7747 20.4351 19.3541 20.8491 18.934 21.264C18.8019 21.3901 18.6698 21.5161 18.5337 21.6459C17.7377 22.4414 17.3734 23.0046 17.3437 24.1406C17.5927 24.6972 17.5927 24.6972 18.0468 25.0781C18.8519 25.17 19.2932 25.1836 19.9781 24.7317C20.2232 24.4882 20.2232 24.4882 20.4733 24.2398C20.6609 24.0567 20.8485 23.8735 21.0418 23.6848C21.3385 23.3838 21.3385 23.3838 21.6412 23.0768C21.8473 22.872 22.0534 22.6673 22.2657 22.4563C22.8117 21.9115 23.3541 21.3635 23.8955 20.8142C24.2282 20.4788 24.5635 20.1462 24.8999 19.8146C25.546 19.1772 26.1871 18.5351 26.8267 17.8912C27.0274 17.6934 27.228 17.4956 27.4348 17.2918C27.6179 17.1042 27.8011 16.9166 27.9898 16.7233C28.1521 16.5599 28.3144 16.3965 28.4816 16.2281C28.9444 15.5269 28.9511 15.1222 28.8281 14.2969C28.4816 13.7718 28.4816 13.7718 27.9898 13.2766C27.7151 12.9952 27.7151 12.9952 27.4348 12.7082C27.2341 12.5104 27.0335 12.3125 26.8267 12.1087C26.5196 11.7996 26.5196 11.7996 26.2063 11.4842C25.6615 10.9382 25.1134 10.3958 24.5642 9.8544C24.2287 9.52174 23.8962 9.18647 23.5646 8.85004C22.9272 8.20393 22.2851 7.56287 21.6412 6.9232C21.4434 6.72254 21.2456 6.52189 21.0418 6.31515C20.8542 6.13199 20.6666 5.94884 20.4733 5.76013C20.3099 5.59783 20.1465 5.43552 19.9781 5.2683C19.295 4.81752 18.8499 4.84012 18.0468 4.92185Z" fill="white"/>
</svg>
