<svg width="30" height="30" viewBox="0 0 30 30" fill="none" xmlns="http://www.w3.org/2000/svg">
<path d="M11.9532 4.92185C12.4073 5.17088 12.4073 5.17088 12.6563 5.62498C12.6279 6.89564 12.3321 7.51554 11.4663 8.38057C11.3342 8.50539 11.2021 8.63022 11.066 8.75883C10.9311 8.89176 10.7962 9.0247 10.6572 9.16166C10.2281 9.58288 9.79442 9.99893 9.3604 10.415C9.06757 10.7008 8.77505 10.9869 8.48286 11.2733C7.76825 11.9725 7.04944 12.6671 6.32817 13.3594C6.59623 13.3607 6.86428 13.3621 7.14046 13.3635C9.66494 13.3769 12.1894 13.394 14.7138 13.4146C16.0117 13.4251 17.3095 13.4343 18.6075 13.4405C19.8597 13.4466 21.1119 13.4561 22.364 13.4679C22.8421 13.4718 23.3202 13.4745 23.7983 13.476C24.4672 13.4782 25.136 13.4848 25.8049 13.4924C26.0031 13.4921 26.2014 13.4917 26.4056 13.4914C27.1902 13.504 27.7824 13.5363 28.4825 13.9077C28.8282 14.2969 28.8282 14.2969 28.9454 15C28.8282 15.7031 28.8282 15.7031 28.4825 16.0923C27.6141 16.553 26.7648 16.5092 25.8049 16.5076C25.5944 16.51 25.384 16.5123 25.1672 16.5148C24.4722 16.5219 23.7773 16.524 23.0823 16.5262C22.6002 16.5301 22.1181 16.5344 21.636 16.5389C20.3676 16.5501 19.0992 16.557 17.8307 16.5632C16.5362 16.5701 15.2417 16.581 13.9472 16.5916C11.4075 16.6118 8.86787 16.6276 6.32817 16.6406C6.51154 16.8178 6.69491 16.9951 6.88384 17.1777C7.56515 17.8377 8.24254 18.5017 8.91883 19.1669C9.21174 19.4539 9.50569 19.7399 9.80071 20.0247C10.2253 20.4351 10.6459 20.8491 11.066 21.264C11.1981 21.3901 11.3302 21.5161 11.4663 21.6459C12.2623 22.4414 12.6266 23.0046 12.6563 24.1406C12.4073 24.6972 12.4073 24.6972 11.9532 25.0781C11.1481 25.17 10.7068 25.1836 10.0219 24.7317C9.77677 24.4882 9.77677 24.4882 9.52668 24.2398C9.33909 24.0567 9.1515 23.8735 8.95823 23.6848C8.66152 23.3838 8.66152 23.3838 8.35881 23.0768C8.15271 22.872 7.94661 22.6673 7.73427 22.4563C7.1883 21.9115 6.64589 21.3635 6.10447 20.8142C5.77181 20.4788 5.43654 20.1462 5.10011 19.8146C4.45399 19.1772 3.81294 18.5351 3.17326 17.8912C2.97261 17.6934 2.77195 17.4956 2.56522 17.2918C2.38206 17.1042 2.19891 16.9166 2.0102 16.7233C1.8479 16.5599 1.68559 16.3965 1.51837 16.2281C1.05565 15.5269 1.04892 15.1222 1.17192 14.2969C1.51837 13.7718 1.51837 13.7718 2.0102 13.2766C2.28493 12.9952 2.28493 12.9952 2.56522 12.7082C2.76587 12.5104 2.96653 12.3125 3.17326 12.1087C3.48039 11.7996 3.48039 11.7996 3.79373 11.4842C4.3385 10.9382 4.88656 10.3958 5.43585 9.8544C5.77125 9.52174 6.10379 9.18647 6.4354 8.85004C7.07283 8.20393 7.71493 7.56287 8.35881 6.9232C8.55662 6.72254 8.75443 6.52189 8.95823 6.31515C9.14582 6.13199 9.33341 5.94884 9.52668 5.76013C9.6901 5.59783 9.85353 5.43552 10.0219 5.2683C10.705 4.81752 11.1501 4.84012 11.9532 4.92185Z" fill="white"/>
</svg>
