<svg width="323" height="140" viewBox="0 0 323 140" fill="none" xmlns="http://www.w3.org/2000/svg">
<g clip-path="url(#clip0_1040_681)">
<path d="M291.355 57.7539H101.85C101.045 57.7539 100.273 58.0733 99.7043 58.6418C99.1353 59.2103 98.8157 59.9813 98.8157 60.7853C98.8157 61.5893 99.1353 62.3603 99.7043 62.9288C100.273 63.4973 101.045 63.8167 101.85 63.8167H107.217V136.337C107.217 137.141 107.537 137.912 108.106 138.48C108.675 139.049 109.447 139.368 110.251 139.368C111.056 139.368 111.828 139.049 112.397 138.48C112.966 137.912 113.285 137.141 113.285 136.337L113.331 63.8167H265.429L279.453 136.337C279.453 137.141 279.773 137.912 280.342 138.48C280.911 139.049 281.682 139.368 282.487 139.368C283.292 139.368 284.063 139.049 284.632 138.48C285.201 137.912 285.521 137.141 285.521 136.337L286.404 63.8167H291.355C292.16 63.8167 292.932 63.4973 293.501 62.9288C294.07 62.3603 294.389 61.5893 294.389 60.7853C294.389 59.9813 294.07 59.2103 293.501 58.6418C292.932 58.0733 292.16 57.7539 291.355 57.7539Z" fill="#CCCCCC"/>
<path d="M134.698 44.2471V57.0841H102.509C101.665 57.1135 100.824 56.9765 100.034 56.681C99.243 56.3855 98.5184 55.9374 97.9011 55.3621C97.2839 54.7868 96.786 54.0957 96.4361 53.3282C96.0861 52.5607 95.8909 51.7318 95.8616 50.8889C95.8322 50.046 95.9693 49.2056 96.265 48.4156C96.5607 47.6257 97.0093 46.9016 97.5851 46.2849C98.1608 45.6681 98.8526 45.1707 99.6207 44.8211C100.389 44.4714 101.218 44.2764 102.062 44.247C102.211 44.2419 102.36 44.2419 102.509 44.247L134.698 44.2471Z" fill="#F2F2F2"/>
<path d="M135.489 56.9848C135.489 57.1157 135.436 57.2413 135.344 57.3338C135.251 57.4264 135.126 57.4785 134.994 57.4785H101.936C100.141 57.4773 98.4202 56.764 97.1516 55.4957C95.883 54.2273 95.1704 52.5075 95.1704 50.7144C95.1704 48.9212 95.883 47.2014 97.1516 45.933C98.4202 44.6646 100.141 43.9514 101.936 43.9502H134.994C135.059 43.95 135.124 43.9627 135.184 43.9874C135.244 44.0122 135.299 44.0485 135.345 44.0944C135.391 44.1402 135.427 44.1947 135.452 44.2547C135.477 44.3147 135.49 44.379 135.49 44.4439C135.49 44.5089 135.477 44.5732 135.452 44.6332C135.427 44.6932 135.391 44.7476 135.345 44.7935C135.299 44.8394 135.244 44.8757 135.184 44.9005C135.124 44.9252 135.059 44.9378 134.994 44.9377H101.936C100.404 44.94 98.9354 45.5496 97.853 46.6327C96.7707 47.7158 96.1627 49.1838 96.1627 50.7144C96.1627 52.2449 96.7707 53.7129 97.853 54.796C98.9354 55.8791 100.404 56.4887 101.936 56.491H134.994C135.126 56.4911 135.251 56.5431 135.344 56.6357C135.436 56.7283 135.489 56.8539 135.489 56.9848Z" fill="#F4B210"/>
<path d="M134.698 47.2092H100.107C100.081 47.2093 100.056 47.1991 100.037 47.1808C100.019 47.1624 100.008 47.1375 100.008 47.1114C100.008 47.0852 100.018 47.0601 100.036 47.0414C100.054 47.0227 100.079 47.0121 100.105 47.0117H134.698C134.724 47.012 134.749 47.0225 134.767 47.041C134.785 47.0595 134.796 47.0844 134.796 47.1105C134.796 47.1365 134.785 47.1614 134.767 47.1799C134.749 47.1984 134.724 47.2089 134.698 47.2092Z" fill="#CCCCCC"/>
<path d="M134.698 49.5793H100.107C100.081 49.5795 100.056 49.5692 100.037 49.5509C100.019 49.5326 100.008 49.5076 100.008 49.4815C100.008 49.4554 100.018 49.4302 100.036 49.4115C100.054 49.3929 100.079 49.3822 100.105 49.3818H134.698C134.724 49.3821 134.749 49.3926 134.767 49.4111C134.785 49.4296 134.796 49.4546 134.796 49.4806C134.796 49.5066 134.785 49.5316 134.767 49.5501C134.749 49.5685 134.724 49.5791 134.698 49.5793Z" fill="#CCCCCC"/>
<path d="M134.698 51.9494H100.107C100.081 51.9496 100.056 51.9394 100.037 51.921C100.019 51.9027 100.008 51.8777 100.008 51.8516C100.008 51.8255 100.018 51.8003 100.036 51.7817C100.054 51.763 100.079 51.7523 100.105 51.752H134.698C134.724 51.7522 134.749 51.7627 134.767 51.7812C134.785 51.7997 134.796 51.8247 134.796 51.8507C134.796 51.8767 134.785 51.9017 134.767 51.9202C134.749 51.9387 134.724 51.9492 134.698 51.9494Z" fill="#CCCCCC"/>
<path d="M134.698 54.3186H100.107C100.081 54.3187 100.056 54.3085 100.037 54.2902C100.019 54.2718 100.008 54.2469 100.008 54.2207C100.008 54.1946 100.018 54.1695 100.036 54.1508C100.054 54.1321 100.079 54.1214 100.105 54.1211H134.698C134.724 54.1214 134.749 54.1319 134.767 54.1504C134.785 54.1688 134.796 54.1938 134.796 54.2198C134.796 54.2459 134.785 54.2708 134.767 54.2893C134.749 54.3078 134.724 54.3183 134.698 54.3186Z" fill="#CCCCCC"/>
<path d="M128.63 30.7217V43.5587H96.4412C94.7374 43.618 93.0799 42.9985 91.8333 41.8367C90.5866 40.6749 89.853 39.0658 89.7937 37.3635C89.7344 35.6612 90.3544 34.0051 91.5172 32.7595C92.68 31.5139 94.2904 30.7809 95.9942 30.7217C96.1431 30.7165 96.2921 30.7165 96.4412 30.7217H128.63Z" fill="#F2F2F2"/>
<path d="M129.421 43.4604C129.421 43.5913 129.369 43.7168 129.276 43.8094C129.183 43.902 129.058 43.954 128.927 43.9541H95.8678C94.0723 43.9541 92.3504 43.2414 91.0808 41.9729C89.8112 40.7044 89.0979 38.9839 89.0979 37.1899C89.0979 35.396 89.8112 33.6755 91.0808 32.407C92.3504 31.1384 94.0723 30.4258 95.8678 30.4258H128.927C128.992 30.4258 129.056 30.4386 129.116 30.4634C129.176 30.4882 129.23 30.5245 129.276 30.5704C129.322 30.6162 129.358 30.6707 129.383 30.7306C129.408 30.7905 129.421 30.8547 129.421 30.9195C129.421 30.9844 129.408 31.0485 129.383 31.1085C129.358 31.1684 129.322 31.2228 129.276 31.2686C129.23 31.3145 129.176 31.3508 129.116 31.3757C129.056 31.4005 128.992 31.4133 128.927 31.4133H95.8678C94.3344 31.4133 92.8639 32.0219 91.7796 33.1052C90.6953 34.1885 90.0862 35.6579 90.0862 37.1899C90.0862 38.722 90.6953 40.1913 91.7796 41.2747C92.8639 42.358 94.3344 42.9666 95.8678 42.9666H128.927C129.058 42.9667 129.183 43.0187 129.276 43.1113C129.369 43.2039 129.421 43.3294 129.421 43.4604Z" fill="#3F3D56"/>
<path d="M128.63 33.6848H94.0393C94.0132 33.6849 93.988 33.6747 93.9694 33.6564C93.9508 33.638 93.9402 33.6131 93.9399 33.587C93.9397 33.5608 93.9498 33.5357 93.9681 33.517C93.9864 33.4983 94.0113 33.4876 94.0375 33.4873H128.63C128.656 33.4876 128.681 33.4981 128.699 33.5166C128.718 33.5351 128.728 33.56 128.728 33.586C128.728 33.6121 128.718 33.637 128.699 33.6555C128.681 33.674 128.656 33.6845 128.63 33.6848Z" fill="#CCCCCC"/>
<path d="M128.63 36.0539H94.0393C94.0132 36.0541 93.988 36.0439 93.9694 36.0255C93.9508 36.0072 93.9402 35.9822 93.9399 35.9561C93.9397 35.93 93.9498 35.9048 93.9681 35.8862C93.9864 35.8675 94.0113 35.8568 94.0375 35.8564H128.63C128.656 35.8567 128.681 35.8672 128.699 35.8857C128.718 35.9042 128.728 35.9292 128.728 35.9552C128.728 35.9812 128.718 36.0062 128.699 36.0247C128.681 36.0432 128.656 36.0537 128.63 36.0539Z" fill="#CCCCCC"/>
<path d="M128.63 38.424H94.0393C94.0132 38.4242 93.988 38.414 93.9694 38.3956C93.9508 38.3773 93.9402 38.3523 93.9399 38.3262C93.9397 38.3001 93.9498 38.2749 93.9681 38.2563C93.9864 38.2376 94.0113 38.2269 94.0375 38.2266H128.63C128.656 38.2268 128.681 38.2373 128.699 38.2558C128.718 38.2743 128.728 38.2993 128.728 38.3253C128.728 38.3513 128.718 38.3763 128.699 38.3948C128.681 38.4133 128.656 38.4238 128.63 38.424Z" fill="#CCCCCC"/>
<path d="M128.63 40.7942H94.0393C94.0132 40.7943 93.988 40.7841 93.9694 40.7658C93.9508 40.7474 93.9402 40.7225 93.9399 40.6963C93.9397 40.6702 93.9498 40.6451 93.9681 40.6264C93.9864 40.6077 94.0113 40.597 94.0375 40.5967H128.63C128.656 40.5969 128.681 40.6075 128.699 40.6259C128.718 40.6444 128.728 40.6694 128.728 40.6954C128.728 40.7214 128.718 40.7464 128.699 40.7649C128.681 40.7834 128.656 40.7939 128.63 40.7942Z" fill="#CCCCCC"/>
<path d="M166.076 103.179V91.9866C166.076 91.4918 165.879 91.0173 165.529 90.6675C165.179 90.3176 164.704 90.1211 164.209 90.1211H121.733C121.238 90.1211 120.763 90.3176 120.413 90.6675C120.063 91.0173 119.866 91.4918 119.866 91.9866V103.179H166.076Z" fill="#CCCCCC"/>
<path d="M166.076 107.376H119.866V121.833H166.076V107.376Z" fill="#CCCCCC"/>
<path d="M119.866 126.031V137.224C119.866 137.719 120.063 138.193 120.413 138.543C120.763 138.893 121.238 139.09 121.733 139.09H164.209C164.704 139.09 165.179 138.893 165.529 138.543C165.879 138.193 166.076 137.719 166.076 137.224V126.031H119.866Z" fill="#CCCCCC"/>
<path d="M142.738 98.515C143.511 98.515 144.138 97.8886 144.138 97.1159C144.138 96.3432 143.511 95.7168 142.738 95.7168C141.964 95.7168 141.337 96.3432 141.337 97.1159C141.337 97.8886 141.964 98.515 142.738 98.515Z" fill="white"/>
<path d="M142.738 117.17C143.511 117.17 144.138 116.544 144.138 115.771C144.138 114.998 143.511 114.372 142.738 114.372C141.964 114.372 141.337 114.998 141.337 115.771C141.337 116.544 141.964 117.17 142.738 117.17Z" fill="white"/>
<path d="M142.813 135.43C143.586 135.43 144.213 134.804 144.213 134.031C144.213 133.258 143.586 132.632 142.813 132.632C142.039 132.632 141.412 133.258 141.412 134.031C141.412 134.804 142.039 135.43 142.813 135.43Z" fill="white"/>
<path d="M160.837 77.3584V90.1954H128.648C126.945 90.2535 125.288 89.6335 124.043 88.4718C122.797 87.3101 122.064 85.7018 122.005 84.0003C121.945 82.2987 122.565 80.6433 123.726 79.3979C124.888 78.1524 126.497 77.4188 128.2 77.3584C128.349 77.3532 128.499 77.3532 128.648 77.3584H160.837Z" fill="#F2F2F2"/>
<path d="M161.627 90.0971C161.627 90.228 161.575 90.3536 161.483 90.4461C161.39 90.5387 161.264 90.5908 161.133 90.5908H128.074C126.279 90.5913 124.557 89.8794 123.288 88.6117C122.018 87.344 121.304 85.6243 121.303 83.8307C121.302 82.0372 122.014 80.3166 123.282 79.0474C124.55 77.7782 126.271 77.0642 128.066 77.0625H161.133C161.198 77.0623 161.263 77.075 161.323 77.0997C161.383 77.1244 161.437 77.1608 161.483 77.2067C161.529 77.2525 161.566 77.307 161.591 77.367C161.616 77.427 161.629 77.4913 161.629 77.5562C161.629 77.6212 161.616 77.6855 161.591 77.7455C161.566 77.8055 161.529 77.8599 161.483 77.9058C161.437 77.9517 161.383 77.988 161.323 78.0128C161.263 78.0375 161.198 78.0501 161.133 78.05H128.074C126.542 78.052 125.074 78.6615 123.991 79.7446C122.908 80.8277 122.3 82.2959 122.3 83.8266C122.3 85.3574 122.908 86.8256 123.991 87.9087C125.074 88.9918 126.542 89.6013 128.074 89.6033H161.133C161.264 89.6034 161.39 89.6554 161.483 89.748C161.575 89.8406 161.627 89.9661 161.627 90.0971Z" fill="#3F3D56"/>
<path d="M160.837 80.3215H126.246C126.22 80.3217 126.195 80.3114 126.176 80.2931C126.158 80.2748 126.147 80.2498 126.147 80.2237C126.146 80.1976 126.157 80.1724 126.175 80.1537C126.193 80.135 126.218 80.1244 126.244 80.124H160.837C160.863 80.1243 160.888 80.1348 160.906 80.1533C160.924 80.1718 160.935 80.1968 160.935 80.2228C160.935 80.2488 160.924 80.2738 160.906 80.2922C160.888 80.3107 160.863 80.3213 160.837 80.3215Z" fill="#CCCCCC"/>
<path d="M160.837 82.6907H126.246C126.22 82.6908 126.195 82.6806 126.176 82.6622C126.158 82.6439 126.147 82.6189 126.147 82.5928C126.146 82.5667 126.157 82.5415 126.175 82.5229C126.193 82.5042 126.218 82.4935 126.244 82.4932H160.837C160.863 82.4934 160.888 82.5039 160.906 82.5224C160.924 82.5409 160.935 82.5659 160.935 82.5919C160.935 82.6179 160.924 82.6429 160.906 82.6614C160.888 82.6799 160.863 82.6904 160.837 82.6907Z" fill="#CCCCCC"/>
<path d="M160.837 85.0608H126.246C126.22 85.0609 126.195 85.0507 126.176 85.0324C126.158 85.014 126.147 84.9891 126.147 84.9629C126.146 84.9368 126.157 84.9117 126.175 84.893C126.193 84.8743 126.218 84.8636 126.244 84.8633H160.837C160.863 84.8635 160.888 84.8741 160.906 84.8925C160.924 84.911 160.935 84.936 160.935 84.962C160.935 84.988 160.924 85.013 160.906 85.0315C160.888 85.05 160.863 85.0605 160.837 85.0608Z" fill="#CCCCCC"/>
<path d="M160.837 87.4309H126.246C126.22 87.431 126.195 87.4208 126.176 87.4025C126.158 87.3841 126.147 87.3592 126.147 87.3331C126.146 87.3069 126.157 87.2818 126.175 87.2631C126.193 87.2444 126.218 87.2337 126.244 87.2334H160.837C160.863 87.2337 160.888 87.2442 160.906 87.2627C160.924 87.2812 160.935 87.3061 160.935 87.3321C160.935 87.3582 160.924 87.3831 160.906 87.4016C160.888 87.4201 160.863 87.4306 160.837 87.4309Z" fill="#CCCCCC"/>
<path d="M123.032 26.4398H108.367C108.228 26.4396 108.09 26.4716 107.965 26.533L104.264 28.3845C104.142 28.4362 104.038 28.5226 103.965 28.6329C103.892 28.7432 103.853 28.8725 103.853 29.0048C103.853 29.137 103.892 29.2663 103.965 29.3766C104.038 29.4869 104.142 29.5733 104.264 29.625L107.965 31.4765C108.09 31.538 108.228 31.5699 108.367 31.5698H123.032C123.235 31.5815 123.433 31.5131 123.585 31.3796C123.737 31.246 123.83 31.058 123.845 30.8562V27.1533C123.83 26.9515 123.737 26.7635 123.585 26.63C123.433 26.4964 123.235 26.4281 123.032 26.4398Z" fill="#3F3D56"/>
<path d="M123.845 27.1533V30.8562C123.83 31.058 123.737 31.246 123.585 31.3796C123.433 31.5131 123.235 31.5815 123.032 31.5698H120.111V26.4398H123.032C123.235 26.4281 123.433 26.4964 123.585 26.63C123.737 26.7635 123.83 26.9516 123.845 27.1533Z" fill="#F4B210"/>
<path d="M35.1071 98.9974C36.9955 99.6607 39.0231 99.8268 40.9944 99.4798C42.9658 99.1329 44.8144 98.2845 46.3624 97.0165C50.3046 93.7105 51.5406 88.2639 52.5462 83.2207C53.5378 78.2483 54.5293 73.276 55.5209 68.3037L49.2932 72.5882C44.8146 75.6694 40.2351 78.8492 37.1342 83.3122C34.0332 87.7751 32.6797 93.8674 35.1712 98.6965" fill="#E6E6E6"/>
<path d="M35.6396 117.057C35.0092 112.47 34.3611 107.823 34.8032 103.187C35.1959 99.0691 36.4532 95.0472 39.013 91.7495C40.3718 90.0024 42.0251 88.5055 43.8987 87.326C44.3872 87.0179 44.8369 87.7915 44.3505 88.0983C41.1086 90.1454 38.6012 93.1683 37.1897 96.731C35.6307 100.693 35.3803 105.012 35.649 109.221C35.8115 111.766 36.1558 114.294 36.5028 116.819C36.5301 116.934 36.513 117.054 36.455 117.156C36.397 117.258 36.3023 117.334 36.1902 117.37C36.0757 117.4 35.9537 117.385 35.8507 117.326C35.7476 117.268 35.6717 117.171 35.6396 117.057Z" fill="#F2F2F2"/>
<path d="M41.7107 108.94C42.5206 110.17 43.6339 111.17 44.9432 111.846C46.2526 112.521 47.714 112.848 49.1865 112.795C52.9709 112.615 56.1259 109.976 58.966 107.471L67.3663 100.06L61.8067 99.7945C57.8085 99.6033 53.7072 99.425 49.8991 100.657C46.091 101.889 42.5789 104.854 41.8826 108.792" fill="#E6E6E6"/>
<path d="M33.8582 119.695C36.8921 114.331 40.4111 108.37 46.6989 106.465C48.4473 105.937 50.2805 105.748 52.0999 105.908C52.6734 105.957 52.5302 106.84 51.9578 106.791C48.908 106.538 45.8642 107.342 43.3386 109.069C40.9084 110.722 39.0161 113.02 37.4146 115.457C36.4336 116.949 35.5548 118.505 34.6759 120.059C34.3951 120.556 33.5741 120.197 33.8582 119.695Z" fill="#F2F2F2"/>
<path d="M28.9972 125.34C29.0994 124.157 29.5246 123.024 30.2266 122.066C30.9286 121.107 31.8804 120.359 32.9784 119.904V116.803H38.1836V120.001C39.2275 120.479 40.1259 121.225 40.7872 122.163C41.4485 123.101 41.849 124.197 41.948 125.34L43.1719 139.556H27.7732L28.9972 125.34Z" fill="#F2F2F2"/>
<path d="M206.017 57.463L204.468 56.8115L203.406 49.0557H189.26L188.109 56.7798L186.724 57.4719C186.657 57.505 186.604 57.5595 186.573 57.6266C186.541 57.6937 186.534 57.7694 186.551 57.8414C186.568 57.9135 186.608 57.9777 186.667 58.0236C186.725 58.0696 186.797 58.0946 186.871 58.0946H205.889C205.965 58.0946 206.039 58.0683 206.097 58.0203C206.156 57.9722 206.196 57.9053 206.211 57.831C206.226 57.7566 206.215 57.6793 206.18 57.6122C206.144 57.5451 206.087 57.4924 206.017 57.463Z" fill="#E6E6E6"/>
<path d="M231.154 50.0877H161.667C161.303 50.0868 160.953 49.9416 160.696 49.6837C160.438 49.4258 160.294 49.0764 160.294 48.7122V38.9219H232.528V48.7122C232.528 49.0764 232.383 49.4258 232.126 49.6837C231.868 49.9416 231.519 50.0868 231.154 50.0877Z" fill="#CCCCCC"/>
<path d="M232.601 43.5486H160.23V1.65813C160.231 1.21851 160.406 0.797048 160.717 0.486197C161.028 0.175346 161.45 0.000491904 161.89 0H230.941C231.381 0.000491895 231.803 0.175346 232.114 0.486197C232.425 0.797048 232.6 1.21851 232.601 1.65813L232.601 43.5486Z" fill="#3F3D56"/>
<path d="M228.278 40.5079H164.553C164.213 40.5076 163.888 40.3728 163.648 40.1331C163.408 39.8935 163.274 39.5685 163.273 39.2296V4.31842C163.274 3.9795 163.408 3.65456 163.648 3.4149C163.888 3.17524 164.213 3.04043 164.553 3.04004H228.278C228.617 3.04043 228.943 3.17524 229.182 3.4149C229.422 3.65456 229.557 3.9795 229.558 4.31842V39.2296C229.557 39.5685 229.422 39.8935 229.182 40.1331C228.943 40.3728 228.617 40.5076 228.278 40.5079Z" fill="white"/>
<path d="M211.494 52.8265C211.905 52.4468 212.395 52.1619 212.929 51.9917C213.462 51.8216 214.027 51.7704 214.582 51.8418C215.138 51.9132 215.671 52.1055 216.144 52.405C216.617 52.7045 217.018 53.104 217.32 53.5754L225.94 52.0442L228.149 57.0509L215.946 59.0424C215.12 59.4966 214.155 59.6322 213.236 59.4236C212.316 59.2149 211.505 58.6765 210.957 57.9103C210.408 57.1441 210.159 56.2034 210.258 55.2664C210.357 54.3294 210.797 53.4613 211.494 52.8265Z" fill="#FFB6B6"/>
<path d="M219.474 59.2194L228.46 59.1075L229.598 59.0921L247.88 58.862C247.88 58.862 252.845 54.1295 257.168 49.2571L256.562 44.8781C255.971 40.5805 253.838 36.6439 250.558 33.8008C244.367 37.9345 240.776 46.1169 240.776 46.1169L229.44 48.8259L228.306 49.0969L221.262 50.7786L219.474 59.2194Z" fill="#EF4C43"/>
<path d="M265.475 86.1348H248.702C248.702 86.8529 230.366 87.4357 230.366 87.4357C229.961 87.74 229.592 88.0891 229.267 88.4764C228.288 89.6428 227.753 91.1172 227.756 92.6394V93.6801C227.757 95.4051 228.443 97.0592 229.664 98.2789C230.884 99.4986 232.54 100.184 234.266 100.185H265.475C267.201 100.183 268.856 99.4975 270.077 98.2779C271.298 97.0584 271.984 95.4048 271.985 93.6801V92.6394C271.983 90.915 271.296 89.2619 270.076 88.0426C268.856 86.8232 267.201 86.1372 265.475 86.1348Z" fill="#E4E4E4"/>
<path d="M253.277 99.9268H246.507V138.974H253.277V99.9268Z" fill="#E4E4E4"/>
<path d="M227.237 138.735C227.237 139.466 237.497 139.018 250.153 139.018C262.809 139.018 273.068 139.466 273.068 138.735C273.068 138.004 262.809 132.208 250.153 132.208C237.497 132.208 227.237 138.004 227.237 138.735Z" fill="#E4E4E4"/>
<path d="M222.689 134.274L217.65 134.274L215.253 114.854L222.689 114.855L222.689 134.274Z" fill="#FFB6B6"/>
<path d="M223.974 139.154L207.726 139.154V138.948C207.726 137.273 208.393 135.666 209.578 134.481C210.764 133.296 212.373 132.63 214.05 132.63H214.05L223.974 132.63L223.974 139.154Z" fill="#2F2E41"/>
<path d="M207.796 134.274L202.757 134.274L200.36 114.854L207.797 114.855L207.796 134.274Z" fill="#FFB6B6"/>
<path d="M209.081 139.154L192.833 139.154V138.948C192.833 137.273 193.5 135.666 194.686 134.481C195.872 133.296 197.48 132.63 199.157 132.63H199.158L209.081 132.63L209.081 139.154Z" fill="#2F2E41"/>
<path d="M252.933 22.4745C257.772 22.4745 261.694 18.5553 261.694 13.7207C261.694 8.88604 257.772 4.9668 252.933 4.9668C248.094 4.9668 244.172 8.88604 244.172 13.7207C244.172 18.5553 248.094 22.4745 252.933 22.4745Z" fill="#FFB6B6"/>
<path d="M267.113 73.6991C267.113 73.6991 270.053 89.2304 258.868 91.2083C247.683 93.1861 231.537 94.5761 231.537 94.5761L224.287 128.376L214.546 127.507C214.546 127.507 215.841 86.8196 219.027 83.6364C222.213 80.4532 242.349 70.9219 242.349 70.9219L267.113 73.6991Z" fill="#2F2E41"/>
<path d="M245.268 67.1895L240.376 72.0927C240.376 72.0927 205.055 77.7773 203.692 85.9285C201.635 98.2349 199.205 124.996 199.205 124.996L209.825 124.2L213.989 93.78L230.981 89.9182L250.313 79.3918L245.268 67.1895Z" fill="#2F2E41"/>
<path d="M261.364 8.49518C260.499 6.86479 259.4 3.61543 257.655 3.01279C256.685 2.69162 255.683 2.47836 254.667 2.37688L251.7 3.51711L253.315 2.26223C253 2.24351 252.686 2.22821 252.372 2.21633L250.37 2.98565L251.394 2.18971C249.528 2.17057 247.602 2.36447 246.155 3.49969C244.922 4.46747 243.701 8.13361 243.503 9.68761C243.292 11.1742 243.366 12.6874 243.721 14.1464L244.228 14.6281C244.406 14.2218 244.539 13.7977 244.626 13.3631C244.808 12.551 245.157 11.7856 245.651 11.1157C246.145 10.4458 246.774 9.88618 247.496 9.4724L247.524 9.45685C248.374 8.97869 249.406 9.00073 250.381 9.0358L255.012 9.20231C256.127 9.24237 257.326 9.31282 258.195 10.0111C258.747 10.5263 259.181 11.1546 259.468 11.853C259.899 12.7235 260.743 16.0066 260.743 16.0066C260.743 16.0066 261.22 15.3869 261.449 15.8481C261.815 14.6447 262.038 13.4021 262.113 12.1462C262.186 10.8848 261.928 9.62626 261.364 8.49518Z" fill="#2F2E41"/>
<path d="M292.007 17.5647C291.448 17.6015 290.904 17.7603 290.414 18.0298C289.923 18.2994 289.497 18.6732 289.166 19.1249C288.836 19.5767 288.608 20.0953 288.5 20.6444C288.392 21.1934 288.405 21.7595 288.54 22.3028L281.494 27.4954L283.608 32.5429L293.455 25.0703C294.353 24.7842 295.115 24.1788 295.597 23.3687C296.079 22.5587 296.246 21.6003 296.068 20.6751C295.889 19.75 295.377 18.9223 294.629 18.3491C293.881 17.7758 292.948 17.4967 292.007 17.5647Z" fill="#FFB6B6"/>
<path d="M290.873 28.1661L273.211 47.7652C273.211 47.7652 264.765 45.0636 258.233 42.1346L255.298 33.1291C254.616 31.0399 254.326 28.8432 254.44 26.6489C263.496 24.2413 274.028 33.1996 274.028 33.1996L287.249 22.8525L290.873 28.1661Z" fill="#EF4C43"/>
<path d="M249.661 75.1465C246.51 74.0589 243.251 72.9343 239.737 72.5122L239.586 72.4939L239.628 72.348C243.266 59.5847 242.358 51.4201 240.575 39.1558C240.196 36.5104 240.683 33.8135 241.964 31.4674C243.245 29.1214 245.25 27.2522 247.682 26.1387L247.703 26.1289L257.741 25.4916L257.764 25.4902L265.064 27.6355C266.115 27.9464 267.034 28.5927 267.681 29.4755C268.329 30.3582 268.668 31.4287 268.649 32.5229C268.57 36.5563 268.737 41.0594 268.915 45.8268C269.313 56.5222 269.725 67.5817 267.388 74.7575L267.375 74.7951L267.344 74.8195C265.195 76.5682 262.503 77.5131 259.732 77.4913C256.455 77.4913 253.111 76.3372 249.661 75.1465Z" fill="#EF4C43"/>
<path d="M322.533 140H0.466764C0.342971 140 0.224249 139.951 0.136714 139.864C0.049179 139.776 0 139.657 0 139.534C0 139.41 0.049179 139.291 0.136714 139.204C0.224249 139.117 0.342971 139.067 0.466764 139.067H322.533C322.657 139.067 322.776 139.117 322.863 139.204C322.951 139.291 323 139.41 323 139.534C323 139.657 322.951 139.776 322.863 139.864C322.776 139.951 322.657 140 322.533 140Z" fill="#CCCCCC"/>
</g>
<defs>
<clipPath id="clip0_1040_681">
<rect width="323" height="140" fill="white"/>
</clipPath>
</defs>
</svg>
