<svg width="31" height="30" viewBox="0 0 31 30" fill="none" xmlns="http://www.w3.org/2000/svg">
<path d="M8.08418 0.769055C10.116 1.52583 11.5985 4.89994 12.5007 6.77291C12.9477 7.77795 13.1499 8.50713 12.9896 9.60939C12.3714 10.4852 11.6366 11.1984 10.8802 11.9531C12.2256 15.0238 14.1798 17.5884 17.3045 19.0064C17.7356 19.1706 18.1745 19.3146 18.6146 19.4531C18.7276 19.3205 18.8406 19.1879 18.957 19.0512C19.179 18.7934 19.179 18.7934 19.4056 18.5303C19.5524 18.359 19.6993 18.1877 19.8505 18.0112C20.4072 17.4154 20.6365 17.3516 21.46 17.2778C22.5379 17.3564 23.2389 17.6648 24.181 18.1641C24.3436 18.2478 24.5062 18.3316 24.6737 18.4178C26.3416 19.2993 28.1706 20.3388 29.3958 21.7969C29.6142 22.8339 29.6128 23.3386 29.0305 24.2331C27.5506 25.9574 24.8612 28.6712 22.5642 29.1724C17.4491 29.2442 12.7618 25.5954 9.23958 22.2656C8.84438 21.8796 8.45309 21.4896 8.0677 21.0938C7.95169 20.9883 7.83567 20.8829 7.71614 20.7742C4.48838 17.7632 1.44107 12.8475 1.12434 8.37892C1.19185 7.02665 1.84845 6.18226 2.67708 5.15626C2.84113 4.94266 3.00518 4.72906 3.17421 4.50899C6.27348 0.571781 6.27348 0.571781 8.08418 0.769055Z" fill="#EF4C43"/>
</svg>
