<svg width="30" height="30" viewBox="0 0 30 30" fill="none" xmlns="http://www.w3.org/2000/svg">
<path d="M28.3594 3.04694C27.534 4.05082 26.6712 4.96966 25.7374 5.87409C24.4683 7.1116 23.3889 8.46582 22.3161 9.87403C21.7969 10.5469 21.7969 10.5469 21.3282 11.0157C21.378 11.6795 21.5103 12.2773 21.7365 12.9035C22.6205 15.404 22.6656 18.4171 21.5626 20.8594C20.2304 23.5278 18.3522 25.3883 15.5558 26.4936C12.8018 27.3515 10.1458 27.1295 7.50008 26.0157C4.9302 24.6281 2.96577 22.4674 2.05269 19.6821C1.33014 16.844 1.53693 13.9107 3.0323 11.3526C3.26661 11.0026 3.50518 10.6553 3.75008 10.3126C3.88543 10.1047 4.02078 9.89684 4.16023 9.68268C6.20849 7.57753 8.91305 6.31756 11.8507 6.2696C13.9967 6.29335 15.9312 6.6763 17.6441 8.01734C18.049 8.25897 18.049 8.25897 18.5038 8.05854C19.0562 7.68609 19.5132 7.27194 19.9952 6.81159C20.4375 6.41341 20.8812 6.01784 21.3282 5.62507C21.4586 5.50928 21.5891 5.39349 21.7235 5.27419C23.9159 3.36896 25.4214 2.63437 28.3594 3.04694Z" fill="#EF4C43" fill-opacity="0.3"/>
<path d="M28.3594 3.04684C27.534 4.05072 26.6712 4.96956 25.7373 5.87399C24.636 6.94981 23.6747 8.09746 22.7475 9.32559C22.1777 10.0773 21.5851 10.7775 20.9409 11.4669C19.7073 12.8415 18.718 14.3738 17.7062 15.9138C17.3768 16.4152 17.0451 16.9151 16.713 17.4147C15.4954 19.2519 14.3052 21.1029 13.1637 22.9886C12.4726 24.1152 12.4726 24.1152 11.9531 24.375C11.8413 24.2054 11.7294 24.0358 11.6142 23.861C11.0885 23.0649 10.5617 22.2695 10.0342 21.4746C9.9392 21.3314 9.84423 21.1882 9.74638 21.0407C8.39637 19.0083 7.01714 17.0043 5.55708 15.0486C4.6875 13.8747 4.6875 13.8747 4.6875 13.3593C5.04639 13.0059 5.04639 13.0059 5.50781 12.6269C5.66008 12.5006 5.81235 12.3743 5.96924 12.2442C6.08767 12.1482 6.2061 12.0521 6.32812 11.9531C7.15836 12.2556 7.82569 12.6119 8.53729 13.1341C8.72385 13.2701 8.91042 13.406 9.10263 13.5461C9.29403 13.6875 9.48542 13.8289 9.68262 13.9746C9.87854 14.1178 10.0745 14.261 10.2763 14.4085C10.758 14.7608 11.2387 15.1142 11.7188 15.4687C12.6677 15.0395 13.1996 14.4215 13.8428 13.623C14.8329 12.4222 15.8515 11.2593 16.9112 10.1196C17.5046 9.48042 18.0759 8.83011 18.6328 8.15915C19.4455 7.22487 20.3673 6.46109 21.3419 5.70004C21.8067 5.33335 22.2592 4.9505 22.6987 4.5538C24.6059 2.9161 25.933 2.77835 28.3594 3.04684Z" fill="#EF4C43"/>
</svg>
