<svg width="35" height="35" viewBox="0 0 35 35" fill="none" xmlns="http://www.w3.org/2000/svg">
<path d="M13.5101 1.95999C7.52507 3.39499 2.73007 8.67999 1.68007 14.945C-0.104925 25.55 9.27508 35 19.9151 33.355C23.3451 32.83 25.9001 31.535 28.4901 29.05C40.3901 17.64 29.5751 -1.92501 13.5101 1.95999ZM19.4251 13.65L23.2751 17.5L19.3551 21.42C16.2051 24.535 15.3301 25.27 14.9801 24.92C14.6301 24.57 15.2601 23.765 18.0251 21L21.5251 17.5L18.0601 14.035C15.0501 11.025 14.2801 9.79999 15.3301 9.79999C15.4701 9.79999 17.3251 11.55 19.4251 13.65Z" fill="white" fill-opacity="0.7"/>
</svg>
