<svg width="40" height="40" viewBox="0 0 40 40" fill="none" xmlns="http://www.w3.org/2000/svg">
<g clip-path="url(#clip0_754_1459)">
<path d="M3.74997 31.5625C5.03124 30.7975 6.07906 29.9353 7.12872 28.8797C7.41012 28.5983 7.69152 28.3168 7.98145 28.0268C8.28241 27.7227 8.58334 27.4185 8.88424 27.1143C9.19671 26.8006 9.50932 26.4871 9.82206 26.1738C10.6403 25.3532 11.4566 24.5307 12.2726 23.7078C13.1073 22.8667 13.9438 22.0273 14.7802 21.1877C16.4177 19.5436 18.0532 17.8974 19.6875 16.25C20.7997 16.7225 21.5053 17.3704 22.3504 18.2269C22.6278 18.5064 22.9053 18.7859 23.1911 19.0738C23.4112 19.2978 23.4112 19.2978 23.6357 19.5263C24.0968 19.9953 24.5597 20.4624 25.0233 20.9289C26.0068 21.9196 26.988 22.9128 27.9687 23.9062C29.1055 25.0578 30.2433 26.2083 31.3837 27.3562C31.8392 27.8158 32.2928 28.2772 32.7464 28.7387C33.0238 29.0181 33.3012 29.2976 33.587 29.5856C33.8303 29.8321 34.0735 30.0787 34.3242 30.3327C35.2604 31.1706 35.9189 31.5273 37.1679 31.6602C38.2517 31.5496 38.8188 31.2703 39.6875 30.625C40.2625 29.4749 40.2661 28.435 40 27.1875C39.4891 26.4766 39.4891 26.4766 38.801 25.7501C38.5446 25.4775 38.2882 25.2049 38.0241 24.9241C37.748 24.6398 37.4719 24.3554 37.1875 24.0625C36.9154 23.7816 36.6434 23.5007 36.3631 23.2113C35.4726 22.3014 34.5754 21.3986 33.6755 20.498C33.3462 20.1677 33.0169 19.8374 32.6876 19.507C32.0041 18.8216 31.3199 18.1368 30.6353 17.4524C29.7591 16.5763 28.8851 15.698 28.0117 14.8192C27.3353 14.1393 26.6575 13.4609 25.9793 12.7828C25.6562 12.4594 25.3336 12.1355 25.0116 11.811C24.5631 11.3595 24.1125 10.9101 23.6617 10.4608C23.2789 10.0773 23.2789 10.0773 22.8883 9.68609C21.9504 8.85157 21.2817 8.4824 20.039 8.32031C18.101 8.55288 16.7948 10.0022 15.4641 11.3349C15.3033 11.4951 15.1425 11.6554 14.9768 11.8204C14.4508 12.3453 13.927 12.8724 13.4033 13.3997C13.0362 13.7671 12.6691 14.1344 12.3018 14.5016C11.5349 15.2689 10.7691 16.0373 10.0041 16.8066C9.02354 17.7924 8.04093 18.7762 7.0576 19.7593C6.30043 20.5166 5.54409 21.2746 4.78802 22.033C4.42588 22.3961 4.06356 22.759 3.70104 23.1218C3.19542 23.6281 2.69084 24.1354 2.18655 24.643C1.89936 24.9314 1.61217 25.2198 1.31628 25.5169C0.0864529 26.8211 -0.136304 27.5963 -0.102573 29.325C-3.44217e-05 30 -3.44515e-05 30 0.585903 30.7812C1.70434 31.5707 2.37385 31.6948 3.74997 31.5625Z" fill="white"/>
</g>
<defs>
<clipPath id="clip0_754_1459">
<rect width="40" height="40" fill="white" transform="matrix(1 0 0 -1 0 40)"/>
</clipPath>
</defs>
</svg>
