<svg width="906" height="891" viewBox="0 0 906 891" fill="none" xmlns="http://www.w3.org/2000/svg">
<g filter="url(#filter0_f_722_1065)">
<path d="M333.648 722.697C425.147 722.697 499.312 649.468 499.312 559.124C499.312 468.798 425.147 395.568 333.648 395.568C242.166 395.568 168 468.798 168 559.124C168 649.468 242.166 722.697 333.648 722.697Z" fill="#EF6A77" fill-opacity="0.2"/>
</g>
<g filter="url(#filter1_f_722_1065)">
<path d="M553.685 702.618C655.813 702.618 738.594 620.96 738.594 520.219C738.594 419.497 655.813 337.839 553.685 337.839C451.577 337.839 368.795 419.497 368.795 520.219C368.795 620.96 451.577 702.618 553.685 702.618Z" fill="#093BCB" fill-opacity="0.2"/>
</g>
<g filter="url(#filter2_f_722_1065)">
<path d="M357.073 506.842C451.807 506.842 528.595 430.991 528.595 337.412C528.595 243.852 451.807 168 357.073 168C262.358 168 185.57 243.852 185.57 337.412C185.57 430.991 262.358 506.842 357.073 506.842Z" fill="#FCA311" fill-opacity="0.2"/>
</g>
<defs>
<filter id="filter0_f_722_1065" x="0.670456" y="228.239" width="665.972" height="661.788" filterUnits="userSpaceOnUse" color-interpolation-filters="sRGB">
<feFlood flood-opacity="0" result="BackgroundImageFix"/>
<feBlend mode="normal" in="SourceGraphic" in2="BackgroundImageFix" result="shape"/>
<feGaussianBlur stdDeviation="83.6648" result="effect1_foregroundBlur_722_1065"/>
</filter>
<filter id="filter1_f_722_1065" x="201.466" y="170.51" width="704.457" height="699.437" filterUnits="userSpaceOnUse" color-interpolation-filters="sRGB">
<feFlood flood-opacity="0" result="BackgroundImageFix"/>
<feBlend mode="normal" in="SourceGraphic" in2="BackgroundImageFix" result="shape"/>
<feGaussianBlur stdDeviation="83.6648" result="effect1_foregroundBlur_722_1065"/>
</filter>
<filter id="filter2_f_722_1065" x="18.24" y="0.670456" width="677.685" height="673.501" filterUnits="userSpaceOnUse" color-interpolation-filters="sRGB">
<feFlood flood-opacity="0" result="BackgroundImageFix"/>
<feBlend mode="normal" in="SourceGraphic" in2="BackgroundImageFix" result="shape"/>
<feGaussianBlur stdDeviation="83.6648" result="effect1_foregroundBlur_722_1065"/>
</filter>
</defs>
</svg>
