<svg width="249" height="200" viewBox="0 0 249 200" fill="none" xmlns="http://www.w3.org/2000/svg">
<g clip-path="url(#clip0_1039_601)">
<path d="M141.785 176.935C140.07 174.533 137.748 172.776 134.829 172.118C132.283 171.545 129.666 171.642 127.078 171.662L94.3602 171.915C91.5581 171.936 88.8714 174.364 89.0016 177.273C89.1308 180.158 91.3566 182.655 94.3602 182.632C103.944 182.558 113.528 182.484 123.113 182.41C125.372 182.393 127.633 182.352 129.893 182.359C130.4 182.361 130.905 182.388 131.412 182.393C131.535 182.395 131.624 182.394 131.686 182.391C131.702 182.396 131.715 182.4 131.736 182.406C132 182.478 132.271 182.528 132.537 182.597C132.444 182.6 132.71 182.766 132.843 182.822C132.862 182.858 132.901 182.922 132.966 183.021C133.057 183.192 133.327 183.711 133.338 183.695C133.743 184.719 134.077 185.77 134.338 186.84C134.961 189.201 135.098 189.694 135.187 191.908C135.301 194.705 137.571 197.4 140.546 197.267C143.352 197.141 146.026 194.908 145.905 191.908C145.7 186.853 144.813 181.174 141.785 176.935Z" fill="#E6E6E6"/>
<path d="M96.2834 189.027C95.6689 185.303 95.0661 181.577 94.4396 177.855C93.804 174.079 92.5057 170.622 89.5674 168.143C88.7823 167.481 87.9682 166.863 87.1508 166.247C86.8633 166.03 86.5763 165.813 86.2922 165.592C86.2752 165.579 86.2644 165.57 86.2497 165.559C86.2185 165.532 86.181 165.5 86.1306 165.458C84.906 164.421 83.7226 163.339 82.5954 162.188C81.5945 161.166 80.6372 160.1 79.7237 158.991C79.4954 158.714 79.2701 158.435 79.0477 158.153C79.0094 158.104 78.8033 157.838 78.6676 157.664C78.5413 157.49 78.3106 157.176 78.2719 157.121C78.012 156.754 77.7568 156.383 77.5062 156.009C75.7995 153.452 74.3216 150.749 73.0898 147.932C72.9676 147.653 72.8483 147.372 72.732 147.089C72.7007 147.003 72.6603 146.892 72.6067 146.745C72.3585 146.062 72.1107 145.38 71.8837 144.689C71.4015 143.222 70.9869 141.733 70.6399 140.223C70.4684 139.477 70.3139 138.727 70.1766 137.974C70.1058 137.587 70.0396 137.198 69.9779 136.809C69.9678 136.745 69.9076 136.325 69.8721 136.088C69.846 135.849 69.7972 135.427 69.7907 135.362C69.7515 134.97 69.7166 134.578 69.6862 134.185C69.6177 133.3 69.5714 132.415 69.5472 131.528C69.506 129.951 69.5343 128.375 69.6319 126.798C69.6875 125.912 69.7667 125.029 69.8641 124.147C69.87 124.093 69.8746 124.05 69.8789 124.011C69.8848 123.972 69.8916 123.927 69.8998 123.871C69.9719 123.384 70.0478 122.897 70.1327 122.412C70.4541 120.57 70.8721 118.747 71.385 116.949C71.6278 116.098 71.8916 115.255 72.1763 114.418C72.3032 114.047 72.4341 113.677 72.5691 113.309C72.5603 113.332 72.965 112.299 72.9704 112.264C74.5763 108.47 77.2029 105.011 77.2065 100.701C77.209 97.7824 74.7401 94.987 71.8479 95.1219C70.406 95.1762 69.0414 95.7881 68.0417 96.8288C67.0421 97.8695 66.4856 99.2576 66.4894 100.701C66.4894 100.766 66.489 100.822 66.4889 100.876C66.4619 100.967 66.4393 101.043 66.4191 101.11C66.1059 101.791 65.7222 102.437 65.3785 103.101C64.4372 104.917 63.6338 106.793 62.8706 108.697C61.6212 111.796 60.6648 115.006 60.0141 118.285C58.5996 125.467 58.4898 132.846 59.6899 140.067C61.7676 152.731 68.6192 164.854 78.1445 173.002C78.9711 173.709 79.8179 174.392 80.6727 175.062C81.0264 175.339 81.383 175.611 81.7415 175.881C81.9109 176.009 82.6128 176.562 82.3041 176.294C82.968 176.861 83.2475 177.146 83.418 177.563C83.4427 177.66 83.4764 177.79 83.522 177.969C83.6422 178.439 83.7564 178.909 83.8512 179.386C84.6803 183.556 85.2566 187.796 85.9491 191.994C86.4252 194.877 89.9754 196.754 92.5409 195.89C95.5269 194.884 96.7935 192.117 96.2834 189.027Z" fill="#E6E6E6"/>
<path d="M142.327 199.843C140.077 199.849 137.916 198.962 136.319 197.377C134.721 195.791 133.818 193.637 133.807 191.387V185.274C127.408 185.991 105.493 185.825 99.2111 184.815V191.142C99.1943 193.391 98.2892 195.542 96.6932 197.126C95.0971 198.71 92.9396 199.599 90.691 199.599C88.4423 199.599 86.2847 198.71 84.6887 197.126C83.0927 195.542 82.1876 193.391 82.1708 191.142V178.72C73.6626 173.993 66.5699 167.082 61.6245 158.699C56.6791 150.316 54.0603 140.765 54.0383 131.033C54.0383 114.344 61.6016 98.7759 74.7889 88.3203C83.3632 81.499 93.7809 77.3968 104.704 76.5403C106.187 76.4241 107.678 76.3652 109.138 76.3652C114.279 76.3652 137.477 77.1595 143.298 78.834L156.57 65.6648C156.765 65.4685 157.014 65.3349 157.285 65.2808C157.557 65.2267 157.838 65.2547 158.093 65.3611C158.351 65.4635 158.571 65.6413 158.726 65.8712C158.88 66.1011 158.962 66.3724 158.959 66.6494V68.7432L161.543 66.1838C161.738 65.9874 161.987 65.8535 162.258 65.7993C162.529 65.7451 162.811 65.7731 163.066 65.8797C163.324 65.982 163.544 66.1599 163.699 66.3899C163.853 66.6199 163.935 66.8913 163.932 67.1684V90.5669C170.592 96.5706 175.668 104.124 178.71 112.559C181.752 120.993 182.667 130.048 181.372 138.92C180.078 147.793 176.616 156.209 171.291 163.423C165.966 170.637 158.944 176.427 150.847 180.278V191.387C150.836 193.637 149.933 195.791 148.336 197.377C146.739 198.962 144.578 199.849 142.327 199.843ZM134.477 184.515V191.387C134.494 193.458 135.328 195.438 136.799 196.896C138.269 198.355 140.256 199.173 142.327 199.173C144.398 199.173 146.385 198.355 147.856 196.896C149.326 195.438 150.161 193.458 150.178 191.387V179.855L150.369 179.764C159.454 175.453 167.167 168.708 172.651 160.279C179.639 149.522 182.545 136.619 180.843 123.905C179.141 111.191 172.945 99.5062 163.374 90.9655L163.263 90.8656V67.1684C163.265 67.0244 163.223 66.8832 163.143 66.7637C163.063 66.6442 162.948 66.5522 162.813 66.5001C162.68 66.443 162.532 66.4276 162.39 66.4559C162.248 66.4842 162.117 66.5548 162.016 66.6585L158.289 70.3494V66.6494C158.292 66.5054 158.25 66.3641 158.169 66.2446C158.089 66.1251 157.974 66.0331 157.84 65.981C157.706 65.9241 157.558 65.9088 157.416 65.9373C157.273 65.9658 157.143 66.0367 157.041 66.1406L143.485 79.5918L143.292 79.5315C137.882 77.838 114.318 77.035 109.138 77.035C107.696 77.035 106.222 77.0932 104.757 77.2082C93.9662 78.0541 83.6751 82.1066 75.2051 88.845C62.179 99.1729 54.7081 114.55 54.7081 131.033C54.7304 140.679 57.3352 150.144 62.252 158.444C67.1687 166.744 74.2181 173.575 82.6678 178.23L82.8406 178.325V191.142C82.8579 193.213 83.6926 195.193 85.1629 196.651C86.6333 198.109 88.6202 198.927 90.6909 198.927C92.7617 198.927 94.7486 198.109 96.219 196.651C97.6893 195.193 98.524 193.213 98.5413 191.142V184.013L98.9381 184.088C104.583 185.15 128.354 185.318 134.099 184.564L134.477 184.515Z" fill="#3F3D56"/>
<path d="M96.9236 39.8935L59.8356 51.0393C58.656 51.3952 57.6659 52.2049 57.0828 53.2903C56.4997 54.3758 56.3714 55.6484 56.726 56.8284C57.0806 58.0085 57.8891 58.9995 58.9739 59.5838C60.0588 60.1681 61.3312 60.2978 62.5116 59.9445L94.9676 50.1886L95.6476 49.9843C95.7852 46.4807 96.7357 43.057 98.424 39.9839C98.2121 39.8886 97.9857 39.8297 97.7542 39.8097C97.4745 39.7827 97.1923 39.8111 96.9236 39.8935Z" fill="#EF4C43"/>
<path d="M61.8703 62.3209C61.378 62.3197 60.8985 62.1638 60.4995 61.8753C60.1006 61.5867 59.8025 61.1801 59.6472 60.7129L57.328 53.7146C57.2312 53.4224 57.1928 53.1139 57.2152 52.8068C57.2375 52.4998 57.3202 52.2001 57.4584 51.925C57.5965 51.6498 57.7876 51.4046 58.0205 51.2033C58.2535 51.002 58.5238 50.8486 58.8161 50.7518L89.002 40.748C89.2942 40.6511 89.6026 40.6127 89.9097 40.6351C90.2167 40.6574 90.5164 40.74 90.7915 40.8782C91.0666 41.0163 91.3119 41.2073 91.5132 41.4402C91.7145 41.6731 91.868 41.9434 91.9648 42.2356L94.284 49.2339C94.477 49.8095 94.4383 50.4376 94.1762 50.9852C93.914 51.5327 93.449 51.9568 92.8797 52.1675C92.8518 52.1779 92.8237 52.1878 92.7952 52.1971L62.6101 62.2005C62.3715 62.2801 62.1217 62.3207 61.8703 62.3209Z" fill="#2F2E41"/>
<path d="M118.401 27.4648C112.309 27.4672 106.456 29.8401 102.083 34.0813C97.709 38.3225 95.1573 44.0991 94.9675 50.1885C94.9608 50.4263 94.9575 50.6674 94.9575 50.9086C94.9575 55.5453 96.3325 60.0779 98.9085 63.9332C101.485 67.7885 105.146 70.7933 109.43 72.5677C113.713 74.3421 118.427 74.8064 122.975 73.9018C127.523 72.9972 131.7 70.7644 134.978 67.4858C138.257 64.2071 140.49 60.0298 141.394 55.4822C142.299 50.9346 141.835 46.2208 140.06 41.937C138.286 37.6533 135.281 33.9919 131.426 31.4158C127.571 28.8398 123.038 27.4648 118.401 27.4648ZM118.401 73.6824C112.363 73.6762 106.574 71.2747 102.305 67.0052C98.035 62.7356 95.6336 56.9466 95.6273 50.9086C95.6273 50.5971 95.634 50.289 95.6474 49.9842C95.8288 45.5231 97.3175 41.2138 99.9284 37.592C102.539 33.9702 106.157 31.1958 110.332 29.6137C114.507 28.0316 119.055 27.7117 123.411 28.6936C127.766 29.6756 131.737 31.9162 134.829 35.1368C137.921 38.3574 139.999 42.4159 140.803 46.8076C141.607 51.1993 141.102 55.7306 139.352 59.8379C137.601 63.9452 134.682 67.4473 130.957 69.9088C127.232 72.3703 122.866 73.6826 118.401 73.6824Z" fill="#3F3D56"/>
<path d="M138.161 50.909C138.161 56.1496 136.079 61.1756 132.374 64.8813C128.668 68.5869 123.642 70.6687 118.401 70.6687C113.161 70.6687 108.135 68.5869 104.429 64.8813C100.723 61.1756 98.6416 56.1496 98.6416 50.909C98.6416 50.2828 98.6717 49.6665 98.7286 49.057C99.2048 43.9993 101.611 39.3192 105.447 35.9887C109.283 32.6581 114.254 30.9329 119.328 31.1712C124.403 31.4095 129.191 33.5931 132.697 37.2686C136.204 40.944 138.161 45.829 138.161 50.909Z" fill="#E6E6E6"/>
<path d="M124.286 52.2222C123.807 51.5925 123.177 51.0937 122.454 50.772C121.562 50.3963 120.642 50.0939 119.701 49.8678V44.4891C121.147 44.7071 122.503 45.3255 123.616 46.2742L124.708 43.9466C124.08 43.3871 123.359 42.9417 122.578 42.6304C121.712 42.2797 120.803 42.0466 119.875 41.9371V39.2109H117.346V41.9639C116.37 42.0736 115.428 42.3898 114.583 42.8916C113.82 43.3433 113.178 43.973 112.711 44.7269C112.266 45.4627 112.035 46.3084 112.045 47.1684C112.001 48.1004 112.271 49.0201 112.812 49.7807C113.309 50.4392 113.966 50.9602 114.721 51.2945C115.626 51.6813 116.563 51.9916 117.521 52.2222V57.3765C115.814 57.2478 114.188 56.599 112.862 55.5177L111.77 57.8487C112.512 58.4618 113.355 58.9401 114.262 59.262C115.256 59.6176 116.294 59.834 117.347 59.905V62.6078H119.875V59.8548C121.279 59.7013 122.597 59.0974 123.629 58.1334C124.084 57.6972 124.443 57.1713 124.684 56.589C124.925 56.0068 125.043 55.3808 125.029 54.7508C125.071 53.8485 124.809 52.9581 124.286 52.2222ZM117.521 49.2984C116.905 49.1116 116.332 48.8043 115.836 48.3942C115.639 48.2193 115.484 48.0031 115.381 47.761C115.278 47.519 115.23 47.2571 115.24 46.9943C115.222 46.3977 115.441 45.8184 115.849 45.3833C116.302 44.9269 116.887 44.6236 117.521 44.5159V49.2984ZM121.288 56.4253C120.861 56.8635 120.305 57.1534 119.701 57.2525V52.8183C120.278 52.9732 120.818 53.2432 121.288 53.6121C121.467 53.7643 121.608 53.9548 121.703 54.1693C121.797 54.3839 121.842 54.617 121.834 54.8512C121.858 55.426 121.663 55.9883 121.288 56.4253Z" fill="#F4B210"/>
<path d="M62.9465 90.6845C62.4288 90.6837 61.9258 90.512 61.5156 90.1962C61.1053 89.8804 60.8108 89.438 60.6775 88.9377L59.4149 84.1585C59.2568 83.5578 59.3435 82.919 59.6558 82.3821C59.9682 81.8452 60.4807 81.4541 61.0811 81.2946L100.916 70.7685C101.517 70.6117 102.155 70.6993 102.692 71.0122C103.229 71.3251 103.62 71.8378 103.779 72.4382L104.849 76.4872L104.649 76.5027C94.4323 77.2971 84.6573 81.0011 76.4801 87.1766L76.422 87.2048L63.5413 90.6074C63.3472 90.6586 63.1473 90.6845 62.9465 90.6845Z" fill="#2F2E41"/>
<path d="M56.3491 114.291C51.6763 113.6 47.2073 111.911 43.2467 109.337C41.2845 108.062 39.4681 106.577 37.8299 104.906C36.213 103.257 34.6662 101.383 33.8653 99.1864C33.0948 97.1544 33.1345 94.904 33.9762 92.9004C34.8065 90.9091 36.3926 89.3282 38.3866 88.5045C40.3926 87.7045 42.8162 87.619 44.7684 88.4951C45.6987 88.9028 46.5038 89.5508 47.1009 90.3725C47.3784 90.7513 47.5839 91.178 47.7071 91.6312C47.8215 92.0418 47.8319 92.4745 47.7374 92.8901C47.6229 93.3051 47.421 93.6908 47.1453 94.0214C46.8695 94.352 46.5263 94.6198 46.1386 94.8068C45.2853 95.2446 44.3607 95.5266 43.4084 95.6395C42.4505 95.7701 41.0745 95.8889 40.3044 95.12C40.1459 94.9679 40.0212 94.7841 39.9385 94.5806C39.8806 94.4247 39.8608 94.2573 39.8808 94.0922C39.8695 94.165 39.9272 93.9341 39.9239 93.9433C39.9118 93.9774 39.859 94.0606 39.934 93.9328C39.9574 93.8906 39.9835 93.85 40.0121 93.8112C39.9866 93.8441 39.9307 93.899 40.0305 93.8048C40.113 93.7145 40.2191 93.649 40.3367 93.6158C40.3831 93.6023 40.4301 93.5915 40.4766 93.5788C40.5947 93.5465 40.3588 93.5806 40.4797 93.5767C40.5263 93.5752 40.5735 93.5764 40.62 93.5743C40.7386 93.5689 40.5031 93.5419 40.6167 93.5705C40.6608 93.5816 40.7045 93.5924 40.748 93.6061C40.8424 93.6359 40.6811 93.5368 40.7451 93.611C40.8201 93.6978 40.6663 93.5264 40.7516 93.6106C40.794 93.6522 40.834 93.6963 40.8714 93.7426C41.0193 93.8886 41.2187 93.9705 41.4265 93.9705C41.6343 93.9705 41.8337 93.8886 41.9816 93.7426C42.1245 93.5931 42.2042 93.3943 42.2042 93.1875C42.2042 92.9807 42.1245 92.7819 41.9816 92.6324C41.2075 91.6728 39.6784 91.9099 38.8953 92.7209C37.8966 93.7553 38.2921 95.3946 39.2636 96.2971C40.3633 97.3188 41.9209 97.3898 43.3355 97.2185C44.531 97.104 45.6961 96.7747 46.7748 96.2466C47.8465 95.7199 48.6848 94.8144 49.1272 93.7052C49.3269 93.1133 49.3987 92.4857 49.3377 91.8639C49.2767 91.2422 49.0843 90.6404 48.7734 90.0986C47.5244 87.7505 44.9381 86.5466 42.3818 86.3381C41.0657 86.235 39.7422 86.3939 38.4879 86.8057C37.2336 87.2175 36.0734 87.8739 35.0745 88.737C33.1491 90.4704 31.9635 92.8774 31.7628 95.4603C31.5397 98.1383 32.5787 100.739 34.0935 102.9C35.6794 105.096 37.5719 107.053 39.7131 108.712C43.8993 112.054 48.8097 114.37 54.0513 115.474C54.6748 115.603 55.3016 115.713 55.9317 115.805C56.1323 115.853 56.3437 115.824 56.5232 115.722C56.7026 115.62 56.8364 115.454 56.8974 115.256C56.9513 115.056 56.9239 114.842 56.8213 114.661C56.7187 114.48 56.5491 114.347 56.3491 114.291Z" fill="#3F3D56"/>
<path d="M131.163 80.1714C124.317 80.0748 117.492 80.2485 110.689 80.6926C108.364 80.8445 106.352 81.6664 106.352 83.0478C106.352 84.2027 108.348 85.5557 110.689 85.4028C117.489 84.9588 124.313 84.7851 131.163 84.8816C136.747 84.9604 136.744 80.2502 131.163 80.1714Z" fill="#CCCCCC"/>
<path d="M121.044 84.6487C120.304 84.6487 102.924 84.6211 102.924 82.2203C102.924 79.8196 120.304 79.792 121.044 79.792C121.784 79.792 139.165 79.8196 139.165 82.2203C139.165 84.6211 121.784 84.6487 121.044 84.6487ZM103.603 82.2203C104.079 82.9481 110.468 83.9789 121.044 83.9789C131.621 83.9789 138.01 82.9481 138.485 82.2203C138.01 81.4925 131.621 80.4618 121.044 80.4618C110.468 80.4618 104.079 81.4925 103.603 82.2203Z" fill="#3F3D56"/>
<path d="M176.189 147.762C180.036 147.655 184.825 147.522 188.514 144.827C189.612 143.992 190.515 142.926 191.158 141.705C191.801 140.485 192.17 139.138 192.238 137.759C192.313 135.631 191.544 133.773 190.073 132.53C188.146 130.902 185.333 130.52 182.3 131.411L185.442 108.454L183.136 108.138L179.443 135.127L181.368 134.243C183.601 133.219 186.666 132.698 188.57 134.308C189.038 134.728 189.402 135.251 189.635 135.836C189.868 136.42 189.962 137.05 189.912 137.678C189.855 138.703 189.579 139.705 189.1 140.614C188.622 141.524 187.954 142.319 187.14 142.947C184.27 145.044 180.453 145.315 176.124 145.436L176.189 147.762Z" fill="#3F3D56"/>
<path d="M169.813 110.434H157.276V112.761H169.813V110.434Z" fill="#3F3D56"/>
<path d="M68.6195 101.39C68.0615 101.389 67.5223 101.188 67.0987 100.825C66.675 100.462 66.3944 99.9596 66.3073 99.4085L65.5421 94.525C65.4465 93.9108 65.5985 93.2838 65.9647 92.7815C66.3308 92.2792 66.8813 91.9427 67.4953 91.8459L108.197 85.4683C108.812 85.3728 109.439 85.5248 109.941 85.8909C110.443 86.2571 110.78 86.8076 110.876 87.4215L111.642 92.3052C111.737 92.9194 111.585 93.5464 111.219 94.0487C110.853 94.5509 110.302 94.8874 109.688 94.9843L68.9863 101.362C68.865 101.381 68.7423 101.39 68.6195 101.39Z" fill="#2F2E41"/>
<path d="M51.775 44.1599C61.2083 44.1599 68.8554 36.5127 68.8554 27.0794C68.8554 17.6462 61.2083 9.99902 51.775 9.99902C42.3417 9.99902 34.6946 17.6462 34.6946 27.0794C34.6946 36.5127 42.3417 44.1599 51.775 44.1599Z" fill="#EF4C43"/>
<path d="M61.4455 31.4987C61.9914 31.3077 62.4901 31.0021 62.908 30.6024C63.1845 30.3174 63.3954 29.9754 63.5258 29.6004C63.6563 29.2253 63.7031 28.8263 63.6631 28.4312C63.6399 28.1496 63.5519 27.8772 63.4059 27.6353C63.26 27.3933 63.0601 27.1884 62.8218 27.0366C62.2037 26.6564 61.3869 26.6708 60.5622 27.0531L60.467 20.3857L59.7973 20.3953L59.9092 28.2334L60.419 27.8991C61.0102 27.5119 61.8597 27.2312 62.4709 27.6072C62.622 27.7067 62.7482 27.8397 62.8396 27.996C62.9309 28.1522 62.985 28.3274 62.9977 28.5079C63.0258 28.8022 62.9903 29.0992 62.8934 29.3785C62.7965 29.6579 62.6406 29.9131 62.4363 30.1268C61.7102 30.8472 60.6355 31.0886 59.4089 31.3094L59.5276 31.9685C60.1797 31.8695 60.8215 31.7123 61.4455 31.4987Z" fill="#2F2E41"/>
<path d="M67.3642 19.9178L63.7974 20.458L63.8976 21.1202L67.4645 20.58L67.3642 19.9178Z" fill="#2F2E41"/>
<path d="M56.1054 21.6219L52.5386 22.1621L52.6389 22.8243L56.2057 22.2841L56.1054 21.6219Z" fill="#2F2E41"/>
<path d="M63.0624 101.092C62.4482 101.09 61.8489 100.902 61.3442 100.552C60.8396 100.202 60.4537 99.7059 60.2377 99.1308L48.4612 67.5927C47.0218 63.7248 47.1755 59.4438 48.8886 55.689C50.6016 51.9342 53.7342 49.0123 57.5989 47.5643L67.1746 43.9888C67.5448 43.8496 67.939 43.785 68.3343 43.7987C68.7297 43.8124 69.1184 43.9042 69.4781 44.0687C69.837 44.2291 70.1603 44.4593 70.4291 44.746C70.698 45.0327 70.907 45.3701 71.0439 45.7385L92.8588 86.9271C93.0004 87.2985 93.0672 87.6942 93.0553 88.0915C93.0434 88.4889 92.953 88.8799 92.7894 89.2422C92.6258 89.6044 92.3922 89.9308 92.1019 90.2024C91.8117 90.474 91.4706 90.6855 91.0983 90.8248L64.1158 100.9C63.779 101.027 63.4222 101.091 63.0624 101.092Z" fill="#2F2E41"/>
<path d="M64.2693 45.0728L85.9142 74.0177L71.268 45.3766C71.1471 45.0425 70.9615 44.7354 70.7218 44.4729C70.4821 44.2105 70.1931 43.9979 69.8713 43.8471C69.5494 43.6964 69.201 43.6106 68.846 43.5946C68.4909 43.5785 68.1362 43.6326 67.8021 43.7537L64.2693 45.0728Z" fill="#E6E6E6"/>
<path d="M98.5413 67.0549L59.8943 64.5654C59.2851 64.5262 58.6896 64.3674 58.1418 64.098C57.594 63.8286 57.1047 63.454 56.7017 62.9955C56.2987 62.537 55.9899 62.0036 55.7931 61.4258C55.5962 60.848 55.5151 60.2371 55.5543 59.6279C55.5935 59.0187 55.7524 58.4233 56.0217 57.8755C56.2911 57.3277 56.6657 56.8383 57.1242 56.4353C57.5827 56.0323 58.1161 55.7236 58.6939 55.5267C59.2717 55.3298 59.8827 55.2487 60.4918 55.2879L99.1389 57.7772C99.4242 57.7955 99.703 57.8699 99.9596 57.996C100.216 58.1222 100.445 58.2976 100.634 58.5123C100.823 58.727 100.967 58.9768 101.06 59.2474C101.152 59.518 101.19 59.8041 101.171 60.0894L100.854 65.0224C100.817 65.5985 100.552 66.1363 100.118 66.5175C99.6848 66.8987 99.1175 67.092 98.5413 67.0549Z" fill="#EF4C43"/>
<path d="M88.2141 68.6506C88.1631 68.6506 88.1119 68.649 88.0607 68.6457L56.3258 66.6016C56.0186 66.5818 55.7182 66.5017 55.4419 66.3659C55.1657 66.2301 54.9188 66.0411 54.7156 65.8099C54.5123 65.5787 54.3566 65.3097 54.2573 65.0182C54.158 64.7268 54.1171 64.4187 54.1369 64.1115L54.6796 55.6857C54.6994 55.3785 54.7795 55.0782 54.9154 54.8019C55.0513 54.5256 55.2402 54.2788 55.4715 54.0756C55.7027 53.8724 55.9718 53.7166 56.2632 53.6174C56.5546 53.5181 56.8627 53.4772 57.17 53.4971L88.9047 55.541C89.5249 55.5816 90.1037 55.8666 90.514 56.3335C90.9243 56.8003 91.1327 57.4108 91.0935 58.0311L90.5509 66.457C90.521 66.9085 90.3614 67.3417 90.0914 67.7048C89.8213 68.0678 89.4522 68.3452 89.0283 68.5036C88.7679 68.601 88.4922 68.6508 88.2141 68.6506Z" fill="#2F2E41"/>
<path d="M51.579 15.7208C53.826 13.7883 56.9117 15.5171 59.4885 15.2145C61.9538 14.9249 63.9005 12.7135 64.3978 10.3642C64.978 7.62326 63.5553 4.87727 61.4584 3.16836C59.1618 1.29669 56.1159 0.75938 53.2295 1.10565C49.9214 1.50252 46.896 3.04456 44.1813 4.90974C41.5609 6.65433 39.1512 8.69625 37.0003 10.9948C35.0742 13.122 33.4422 15.6576 32.9211 18.5201C32.4476 21.1215 32.8092 24.0043 34.347 26.208C35.1625 27.3376 36.2553 28.2379 37.52 28.8221C38.8387 29.4696 40.2454 29.9326 41.5229 30.6647C43.4546 31.7717 45.332 34.067 44.7269 36.4556C44.5972 36.9774 44.3412 37.4593 43.9814 37.8589C43.5492 38.3387 42.7695 37.7046 43.2029 37.2235C43.9641 36.3785 43.9341 35.2516 43.5284 34.2427C43.046 33.1059 42.1919 32.1666 41.1059 31.5788C39.7686 30.8142 38.2921 30.3422 36.9215 29.6458C35.6096 29.0096 34.4708 28.0659 33.6021 26.8949C31.9616 24.6152 31.4709 21.6483 31.8429 18.9036C32.2455 15.9335 33.7716 13.2345 35.6846 10.9728C37.7664 8.5114 40.3237 6.42789 42.9362 4.55614C45.7394 2.54773 48.8364 0.849764 52.2635 0.235636C55.2342 -0.296717 58.4542 0.0310331 61.052 1.64994C63.4768 3.16108 65.3362 5.76055 65.5212 8.6652C65.5875 9.98681 65.3006 11.3022 64.6898 12.4761C64.079 13.65 63.1665 14.6399 62.046 15.344C60.8964 16.032 59.5598 16.3416 58.2247 16.2293C56.7975 16.1379 55.3688 15.7009 53.9325 15.8222C53.2825 15.8617 52.6631 16.1119 52.1682 16.5351C51.6772 16.9573 51.0921 16.1396 51.579 15.7208Z" fill="#2F2E41"/>
<path d="M248.131 200H0.868932C0.763372 199.999 0.662241 199.957 0.587706 199.882C0.513171 199.808 0.471313 199.706 0.471313 199.601C0.471313 199.495 0.513171 199.394 0.587706 199.319C0.662241 199.245 0.763372 199.202 0.868932 199.202H248.131C248.237 199.202 248.338 199.244 248.413 199.319C248.488 199.394 248.53 199.495 248.53 199.601C248.53 199.707 248.488 199.808 248.413 199.883C248.338 199.958 248.237 200 248.131 200Z" fill="#3F3D56"/>
</g>
<defs>
<clipPath id="clip0_1039_601">
<rect width="248.06" height="200" fill="white" transform="translate(0.470215)"/>
</clipPath>
</defs>
</svg>
