<svg width="575" height="498" viewBox="0 0 575 498" fill="none" xmlns="http://www.w3.org/2000/svg">
<g clip-path="url(#clip0_722_1069)">
<path d="M454.059 41.3004C453.413 40.8696 452.759 40.461 452.113 40.0451C433.433 28.0982 413.411 18.3928 392.461 11.1291L387.604 78.1417H356.808V1.34688C354.87 0.945789 352.916 0.566978 350.963 0.210449V78.1417H314.367C294.22 78.1417 274.898 70.1385 260.653 55.8927C246.407 41.6469 238.404 22.3255 238.404 2.17886C236.443 2.60224 234.497 3.05526 232.551 3.53806V78.1417H202.743L198.116 14.2413C176.587 22.4982 156.147 33.3563 137.254 46.574C136.927 46.7969 136.6 47.0271 136.281 47.25C134.639 48.4012 133.02 49.5748 131.408 50.7633V306.417H219.255L217.703 284.913L209.161 166.85H381.179L372.637 284.913L371.084 306.417H457.958V43.8853C456.666 43.0088 455.366 42.1471 454.059 41.3004ZM232.551 147.353H207.75L203.167 83.9947H232.551V147.353ZM350.963 147.353H309.308V146.098C309.308 145.494 309.189 144.897 308.958 144.339C308.727 143.782 308.388 143.275 307.961 142.849C307.534 142.423 307.027 142.085 306.47 141.854C305.912 141.624 305.314 141.506 304.711 141.507H286.602C285.999 141.507 285.402 141.626 284.845 141.856C284.288 142.087 283.782 142.425 283.356 142.851C282.929 143.277 282.591 143.784 282.361 144.341C282.13 144.898 282.011 145.495 282.012 146.098V147.353H238.404V83.9947H350.963V147.353ZM356.808 147.353V83.9947H387.18L382.597 147.353H356.808Z" fill="white"/>
<path d="M549.462 464.848L550.043 451.794C556.096 448.558 562.847 446.849 569.71 446.815C560.264 454.538 561.444 469.424 555.041 479.808C553.019 483.032 550.297 485.759 547.078 487.788C543.858 489.817 540.223 491.095 536.443 491.528L528.539 496.368C527.454 490.321 527.693 484.111 529.24 478.166C530.786 472.221 533.603 466.682 537.496 461.93C539.707 459.286 542.241 456.931 545.04 454.92C546.933 459.912 549.462 464.848 549.462 464.848Z" fill="white"/>
<path d="M125.379 450.543L106.304 444.767C103.802 434.604 103.819 423.984 106.354 413.828C114.209 430.696 136.653 434.558 149.588 447.933C153.59 452.136 156.596 457.185 158.382 462.707C160.167 468.229 160.687 474.082 159.904 479.832L164.079 493.336C154.734 492.662 145.647 489.97 137.444 485.445C129.24 480.921 122.115 474.671 116.559 467.128C113.484 462.865 110.958 458.232 109.041 453.339C117.131 452.421 125.379 450.543 125.379 450.543Z" fill="white"/>
<path d="M534.62 494.233C534.617 494.628 534.46 495.007 534.181 495.288C534.044 495.425 533.88 495.533 533.701 495.607C533.521 495.681 533.328 495.719 533.134 495.718H527.162C526.967 495.719 526.773 495.681 526.593 495.607C526.412 495.532 526.248 495.423 526.11 495.285C525.972 495.147 525.863 494.983 525.788 494.802C525.714 494.622 525.676 494.428 525.677 494.233V313.636C525.677 309.655 524.34 306.424 522.698 306.416H75.1879C73.5389 306.424 72.2094 309.655 72.2019 313.636V493.126C72.2007 493.495 72.0625 493.851 71.8141 494.124C71.5658 494.397 71.2249 494.568 70.8575 494.604C69.6542 494.723 68.451 494.827 67.2551 494.924C67.2254 494.924 67.1957 494.931 67.166 494.931C66.5123 494.99 65.8587 495.035 65.2051 495.087H65.1976C64.856 494.47 64.5291 493.839 64.1949 493.208C64.0878 492.993 64.0318 492.757 64.0315 492.517V304.27C64.0315 303.171 64.0761 302.064 64.1503 300.972C64.2563 299.473 64.4423 297.98 64.7074 296.501C65.9627 289.6 68.8001 284.928 72.0237 284.913H525.855C526.325 284.916 526.79 285.015 527.222 285.203C527.855 285.483 528.428 285.884 528.908 286.384C529.559 287.061 530.116 287.823 530.564 288.649C532.154 291.45 533.29 295.624 533.691 300.482C533.691 300.526 533.699 300.571 533.699 300.615C533.802 301.819 533.855 303.044 533.847 304.27L533.951 320.187L534.018 329.68L534.219 359.465L534.293 370.042L534.62 494.233Z" fill="white"/>
<path d="M574.116 497.561L369.297 497.79C369.063 497.789 368.839 497.695 368.674 497.53C368.508 497.364 368.416 497.139 368.416 496.905C368.416 496.671 368.508 496.446 368.674 496.281C368.839 496.115 369.063 496.021 369.297 496.021L574.116 495.792C574.35 495.793 574.574 495.887 574.739 496.052C574.905 496.218 574.998 496.443 574.998 496.677C574.998 496.911 574.905 497.136 574.739 497.301C574.574 497.467 574.35 497.561 574.116 497.561Z" fill="#CACACA"/>
<path d="M319.886 232.148H283.611C283.098 232.149 282.606 232.354 282.244 232.717C281.881 233.08 281.678 233.573 281.678 234.086V291.39H321.824V234.086C321.824 233.831 321.774 233.579 321.677 233.344C321.579 233.109 321.437 232.895 321.257 232.715C321.077 232.535 320.863 232.393 320.628 232.295C320.393 232.198 320.141 232.148 319.886 232.148ZM301.871 264.708C300.736 264.703 299.65 264.25 298.848 263.447C298.045 262.645 297.593 261.559 297.587 260.424V253.815C297.587 252.679 298.039 251.589 298.842 250.786C299.645 249.983 300.735 249.531 301.871 249.531C303.007 249.531 304.096 249.983 304.9 250.786C305.703 251.589 306.154 252.679 306.154 253.815V260.424C306.149 261.559 305.696 262.645 304.894 263.447C304.092 264.25 303.005 264.703 301.871 264.708Z" fill="#1F2850"/>
<path d="M379.955 142.718H224.892C223.56 142.72 222.283 143.25 221.341 144.192C220.399 145.134 219.868 146.411 219.866 147.743V252.381C219.868 253.713 220.398 254.991 221.34 255.933C222.282 256.875 223.56 257.405 224.892 257.407H379.955C381.288 257.405 382.565 256.875 383.508 255.933C384.45 254.991 384.98 253.713 384.981 252.381V147.743C384.979 146.411 384.449 145.134 383.507 144.192C382.565 143.25 381.288 142.72 379.955 142.718Z" fill="#2B376C"/>
<path d="M378.659 146.347H226.185C225.472 146.348 224.788 146.633 224.284 147.138C223.78 147.643 223.497 148.327 223.497 149.04V251.084C223.498 251.797 223.782 252.479 224.286 252.983C224.79 253.487 225.472 253.771 226.185 253.772H378.659C379.371 253.771 380.054 253.487 380.558 252.983C381.061 252.479 381.345 251.797 381.346 251.084V149.04C381.346 148.327 381.063 147.643 380.559 147.138C380.055 146.633 379.372 146.348 378.659 146.347Z" fill="white"/>
<path d="M281.554 289.557V295.086C281.555 295.372 281.669 295.647 281.871 295.85C282.074 296.052 282.348 296.166 282.635 296.167H320.868C321.154 296.165 321.428 296.051 321.63 295.849C321.833 295.646 321.947 295.372 321.949 295.086V289.557H281.554Z" fill="#2B376C"/>
<path d="M348.962 298.091H258.248C258 298.091 257.755 298.035 257.531 297.928C257.306 297.822 257.109 297.666 256.952 297.473C256.796 297.281 256.685 297.055 256.626 296.814C256.568 296.572 256.564 296.321 256.615 296.078L258.023 289.393C258.103 289.019 258.309 288.684 258.606 288.443C258.903 288.202 259.273 288.07 259.656 288.068H347.554C347.937 288.07 348.307 288.202 348.604 288.443C348.901 288.684 349.107 289.019 349.187 289.393L350.595 296.078C350.646 296.321 350.642 296.572 350.584 296.814C350.526 297.055 350.414 297.281 350.258 297.473C350.101 297.666 349.904 297.822 349.679 297.928C349.455 298.035 349.21 298.091 348.962 298.091Z" fill="#1F2850"/>
<path d="M262.731 289.272H260.662C260.462 289.272 260.3 289.434 260.3 289.635V290.586C260.3 290.786 260.462 290.948 260.662 290.948H262.731C262.931 290.948 263.094 290.786 263.094 290.586V289.635C263.094 289.434 262.931 289.272 262.731 289.272Z" fill="#2B376C"/>
<path d="M268.319 289.272H266.25C266.05 289.272 265.888 289.434 265.888 289.635V290.586C265.888 290.786 266.05 290.948 266.25 290.948H268.319C268.519 290.948 268.681 290.786 268.681 290.586V289.635C268.681 289.434 268.519 289.272 268.319 289.272Z" fill="#2B376C"/>
<path d="M273.907 289.272H271.838C271.638 289.272 271.475 289.434 271.475 289.635V290.586C271.475 290.786 271.638 290.948 271.838 290.948H273.907C274.107 290.948 274.269 290.786 274.269 290.586V289.635C274.269 289.434 274.107 289.272 273.907 289.272Z" fill="#2B376C"/>
<path d="M279.494 289.272H277.426C277.225 289.272 277.063 289.434 277.063 289.635V290.586C277.063 290.786 277.225 290.948 277.426 290.948H279.494C279.695 290.948 279.857 290.786 279.857 290.586V289.635C279.857 289.434 279.695 289.272 279.494 289.272Z" fill="#2B376C"/>
<path d="M285.082 289.272H283.013C282.813 289.272 282.651 289.434 282.651 289.635V290.586C282.651 290.786 282.813 290.948 283.013 290.948H285.082C285.282 290.948 285.445 290.786 285.445 290.586V289.635C285.445 289.434 285.282 289.272 285.082 289.272Z" fill="#2B376C"/>
<path d="M290.67 289.272H288.601C288.401 289.272 288.239 289.434 288.239 289.635V290.586C288.239 290.786 288.401 290.948 288.601 290.948H290.67C290.87 290.948 291.033 290.786 291.033 290.586V289.635C291.033 289.434 290.87 289.272 290.67 289.272Z" fill="#2B376C"/>
<path d="M296.258 289.272H294.189C293.989 289.272 293.826 289.434 293.826 289.635V290.586C293.826 290.786 293.989 290.948 294.189 290.948H296.258C296.458 290.948 296.62 290.786 296.62 290.586V289.635C296.62 289.434 296.458 289.272 296.258 289.272Z" fill="#2B376C"/>
<path d="M301.846 289.272H299.777C299.577 289.272 299.414 289.434 299.414 289.635V290.586C299.414 290.786 299.577 290.948 299.777 290.948H301.846C302.046 290.948 302.208 290.786 302.208 290.586V289.635C302.208 289.434 302.046 289.272 301.846 289.272Z" fill="#2B376C"/>
<path d="M307.433 289.272H305.365C305.164 289.272 305.002 289.434 305.002 289.635V290.586C305.002 290.786 305.164 290.948 305.365 290.948H307.433C307.634 290.948 307.796 290.786 307.796 290.586V289.635C307.796 289.434 307.634 289.272 307.433 289.272Z" fill="#2B376C"/>
<path d="M313.021 289.272H310.952C310.752 289.272 310.59 289.434 310.59 289.635V290.586C310.59 290.786 310.752 290.948 310.952 290.948H313.021C313.221 290.948 313.384 290.786 313.384 290.586V289.635C313.384 289.434 313.221 289.272 313.021 289.272Z" fill="#2B376C"/>
<path d="M318.609 289.272H316.54C316.34 289.272 316.177 289.434 316.177 289.635V290.586C316.177 290.786 316.34 290.948 316.54 290.948H318.609C318.809 290.948 318.971 290.786 318.971 290.586V289.635C318.971 289.434 318.809 289.272 318.609 289.272Z" fill="#2B376C"/>
<path d="M324.197 289.272H322.128C321.928 289.272 321.765 289.434 321.765 289.635V290.586C321.765 290.786 321.928 290.948 322.128 290.948H324.197C324.397 290.948 324.559 290.786 324.559 290.586V289.635C324.559 289.434 324.397 289.272 324.197 289.272Z" fill="#2B376C"/>
<path d="M329.784 289.272H327.716C327.515 289.272 327.353 289.434 327.353 289.635V290.586C327.353 290.786 327.515 290.948 327.716 290.948H329.784C329.985 290.948 330.147 290.786 330.147 290.586V289.635C330.147 289.434 329.985 289.272 329.784 289.272Z" fill="#2B376C"/>
<path d="M335.372 289.272H333.304C333.103 289.272 332.941 289.434 332.941 289.635V290.586C332.941 290.786 333.103 290.948 333.304 290.948H335.372C335.572 290.948 335.735 290.786 335.735 290.586V289.635C335.735 289.434 335.572 289.272 335.372 289.272Z" fill="#2B376C"/>
<path d="M340.96 289.272H338.891C338.691 289.272 338.529 289.434 338.529 289.635V290.586C338.529 290.786 338.691 290.948 338.891 290.948H340.96C341.16 290.948 341.323 290.786 341.323 290.586V289.635C341.323 289.434 341.16 289.272 340.96 289.272Z" fill="#2B376C"/>
<path d="M346.548 289.272H344.479C344.279 289.272 344.116 289.434 344.116 289.635V290.586C344.116 290.786 344.279 290.948 344.479 290.948H346.548C346.748 290.948 346.91 290.786 346.91 290.586V289.635C346.91 289.434 346.748 289.272 346.548 289.272Z" fill="#2B376C"/>
<path d="M262.665 292.066H260.596C260.396 292.066 260.234 292.228 260.234 292.429V293.38C260.234 293.58 260.396 293.742 260.596 293.742H262.665C262.865 293.742 263.028 293.58 263.028 293.38V292.429C263.028 292.228 262.865 292.066 262.665 292.066Z" fill="#2B376C"/>
<path d="M268.253 292.066H266.184C265.984 292.066 265.822 292.228 265.822 292.429V293.38C265.822 293.58 265.984 293.742 266.184 293.742H268.253C268.453 293.742 268.615 293.58 268.615 293.38V292.429C268.615 292.228 268.453 292.066 268.253 292.066Z" fill="#2B376C"/>
<path d="M273.841 292.066H271.772C271.572 292.066 271.409 292.228 271.409 292.429V293.38C271.409 293.58 271.572 293.742 271.772 293.742H273.841C274.041 293.742 274.203 293.58 274.203 293.38V292.429C274.203 292.228 274.041 292.066 273.841 292.066Z" fill="#2B376C"/>
<path d="M279.428 292.066H277.36C277.159 292.066 276.997 292.228 276.997 292.429V293.38C276.997 293.58 277.159 293.742 277.36 293.742H279.428C279.629 293.742 279.791 293.58 279.791 293.38V292.429C279.791 292.228 279.629 292.066 279.428 292.066Z" fill="#2B376C"/>
<path d="M285.016 292.066H282.948C282.747 292.066 282.585 292.228 282.585 292.429V293.38C282.585 293.58 282.747 293.742 282.948 293.742H285.016C285.216 293.742 285.379 293.58 285.379 293.38V292.429C285.379 292.228 285.216 292.066 285.016 292.066Z" fill="#2B376C"/>
<path d="M290.604 292.066H288.535C288.335 292.066 288.173 292.228 288.173 292.429V293.38C288.173 293.58 288.335 293.742 288.535 293.742H290.604C290.804 293.742 290.966 293.58 290.966 293.38V292.429C290.966 292.228 290.804 292.066 290.604 292.066Z" fill="#2B376C"/>
<path d="M296.192 292.066H294.123C293.923 292.066 293.76 292.228 293.76 292.429V293.38C293.76 293.58 293.923 293.742 294.123 293.742H296.192C296.392 293.742 296.554 293.58 296.554 293.38V292.429C296.554 292.228 296.392 292.066 296.192 292.066Z" fill="#2B376C"/>
<path d="M301.779 292.066H299.711C299.51 292.066 299.348 292.228 299.348 292.429V293.38C299.348 293.58 299.51 293.742 299.711 293.742H301.779C301.98 293.742 302.142 293.58 302.142 293.38V292.429C302.142 292.228 301.98 292.066 301.779 292.066Z" fill="#2B376C"/>
<path d="M307.367 292.066H305.299C305.098 292.066 304.936 292.228 304.936 292.429V293.38C304.936 293.58 305.098 293.742 305.299 293.742H307.367C307.568 293.742 307.73 293.58 307.73 293.38V292.429C307.73 292.228 307.568 292.066 307.367 292.066Z" fill="#2B376C"/>
<path d="M312.955 292.066H310.886C310.686 292.066 310.524 292.228 310.524 292.429V293.38C310.524 293.58 310.686 293.742 310.886 293.742H312.955C313.155 293.742 313.318 293.58 313.318 293.38V292.429C313.318 292.228 313.155 292.066 312.955 292.066Z" fill="#2B376C"/>
<path d="M318.543 292.066H316.474C316.274 292.066 316.112 292.228 316.112 292.429V293.38C316.112 293.58 316.274 293.742 316.474 293.742H318.543C318.743 293.742 318.905 293.58 318.905 293.38V292.429C318.905 292.228 318.743 292.066 318.543 292.066Z" fill="#2B376C"/>
<path d="M324.13 292.066H322.062C321.862 292.066 321.699 292.228 321.699 292.429V293.38C321.699 293.58 321.862 293.742 322.062 293.742H324.13C324.331 293.742 324.493 293.58 324.493 293.38V292.429C324.493 292.228 324.331 292.066 324.13 292.066Z" fill="#2B376C"/>
<path d="M329.718 292.066H327.65C327.449 292.066 327.287 292.228 327.287 292.429V293.38C327.287 293.58 327.449 293.742 327.65 293.742H329.718C329.919 293.742 330.081 293.58 330.081 293.38V292.429C330.081 292.228 329.919 292.066 329.718 292.066Z" fill="#2B376C"/>
<path d="M335.306 292.066H333.237C333.037 292.066 332.875 292.228 332.875 292.429V293.38C332.875 293.58 333.037 293.742 333.237 293.742H335.306C335.506 293.742 335.669 293.58 335.669 293.38V292.429C335.669 292.228 335.506 292.066 335.306 292.066Z" fill="#2B376C"/>
<path d="M340.894 292.066H338.825C338.625 292.066 338.463 292.228 338.463 292.429V293.38C338.463 293.58 338.625 293.742 338.825 293.742H340.894C341.094 293.742 341.257 293.58 341.257 293.38V292.429C341.257 292.228 341.094 292.066 340.894 292.066Z" fill="#2B376C"/>
<path d="M346.482 292.066H344.413C344.213 292.066 344.05 292.228 344.05 292.429V293.38C344.05 293.58 344.213 293.742 344.413 293.742H346.482C346.682 293.742 346.844 293.58 346.844 293.38V292.429C346.844 292.228 346.682 292.066 346.482 292.066Z" fill="#2B376C"/>
<path d="M309.044 295.418H287.418C287.218 295.418 287.055 295.581 287.055 295.781V296.732C287.055 296.932 287.218 297.095 287.418 297.095H309.044C309.244 297.095 309.406 296.932 309.406 296.732V295.781C309.406 295.581 309.244 295.418 309.044 295.418Z" fill="#2B376C"/>
<path d="M370.996 160.407H228.328C228.179 160.404 228.038 160.343 227.934 160.237C227.83 160.131 227.772 159.988 227.772 159.84C227.772 159.691 227.83 159.549 227.934 159.443C228.038 159.337 228.179 159.276 228.328 159.272H370.996C371.145 159.276 371.286 159.337 371.39 159.443C371.494 159.549 371.552 159.691 371.552 159.84C371.552 159.988 371.494 160.131 371.39 160.237C371.286 160.343 371.145 160.404 370.996 160.407Z" fill="#CACACA"/>
<path d="M238.039 156.376C239.876 156.376 241.364 154.854 241.364 152.977C241.364 151.099 239.876 149.578 238.039 149.578C236.203 149.578 234.714 151.099 234.714 152.977C234.714 154.854 236.203 156.376 238.039 156.376Z" fill="#2B376C"/>
<path d="M249.525 156.376C251.362 156.376 252.85 154.854 252.85 152.977C252.85 151.099 251.362 149.578 249.525 149.578C247.689 149.578 246.2 151.099 246.2 152.977C246.2 154.854 247.689 156.376 249.525 156.376Z" fill="#2B376C"/>
<path d="M261.012 156.376C262.848 156.376 264.337 154.854 264.337 152.977C264.337 151.099 262.848 149.578 261.012 149.578C259.175 149.578 257.687 151.099 257.687 152.977C257.687 154.854 259.175 156.376 261.012 156.376Z" fill="#2B376C"/>
<path d="M364.081 150.42H355.922C355.76 150.423 355.606 150.49 355.493 150.605C355.379 150.721 355.316 150.876 355.316 151.038C355.316 151.2 355.379 151.355 355.493 151.471C355.606 151.586 355.76 151.653 355.922 151.656H364.081C364.242 151.653 364.396 151.586 364.51 151.471C364.623 151.355 364.686 151.2 364.686 151.038C364.686 150.876 364.623 150.721 364.51 150.605C364.396 150.49 364.242 150.423 364.081 150.42Z" fill="#2B376C"/>
<path d="M364.081 152.739H355.922C355.76 152.742 355.606 152.809 355.493 152.924C355.379 153.04 355.316 153.195 355.316 153.357C355.316 153.519 355.379 153.674 355.493 153.789C355.606 153.905 355.76 153.971 355.922 153.975H364.081C364.242 153.971 364.396 153.905 364.51 153.789C364.623 153.674 364.686 153.519 364.686 153.357C364.686 153.195 364.623 153.04 364.51 152.924C364.396 152.809 364.242 152.742 364.081 152.739Z" fill="#2B376C"/>
<path d="M364.081 155.055H355.922C355.76 155.058 355.606 155.125 355.493 155.24C355.379 155.356 355.316 155.511 355.316 155.673C355.316 155.835 355.379 155.99 355.493 156.106C355.606 156.221 355.76 156.288 355.922 156.291H364.081C364.242 156.288 364.396 156.221 364.51 156.106C364.623 155.99 364.686 155.835 364.686 155.673C364.686 155.511 364.623 155.356 364.51 155.24C364.396 155.125 364.242 155.058 364.081 155.055Z" fill="#2B376C"/>
<path d="M311.059 193.553H293.231C291.892 193.553 290.807 194.638 290.807 195.977V195.977C290.807 197.316 291.892 198.402 293.231 198.402H311.059C312.398 198.402 313.483 197.316 313.483 195.977V195.977C313.483 194.638 312.398 193.553 311.059 193.553Z" fill="#EF4C43"/>
<path d="M322.575 203.251H281.715C280.376 203.251 279.29 204.336 279.29 205.675V205.675C279.29 207.014 280.376 208.1 281.715 208.1H322.575C323.914 208.1 325 207.014 325 205.675C325 204.336 323.914 203.251 322.575 203.251Z" fill="white"/>
<path d="M322.575 212.949H281.715C280.376 212.949 279.29 214.034 279.29 215.373C279.29 216.713 280.376 217.798 281.715 217.798H322.575C323.914 217.798 325 216.713 325 215.373C325 214.034 323.914 212.949 322.575 212.949Z" fill="white"/>
<path d="M229.721 305.384H185.155C183.579 305.384 182.067 306.01 180.953 307.124C179.839 308.239 179.213 309.75 179.213 311.326C179.213 312.902 179.839 314.413 180.953 315.528C182.067 316.642 183.579 317.268 185.155 317.268H201.496V363.32H213.38V317.268H229.721C231.297 317.268 232.808 316.642 233.922 315.528C235.037 314.413 235.663 312.902 235.663 311.326C235.663 309.75 235.037 308.239 233.922 307.124C232.808 306.01 231.297 305.384 229.721 305.384Z" fill="#2B376C"/>
<path d="M259.135 388.824H139.934C128.378 388.782 117.222 384.584 108.506 376.997C99.7895 369.41 94.0934 358.94 92.4584 347.5L88.2389 331.979C79.5056 299.817 66.2029 269.075 48.7376 240.691C40.7548 227.727 36.6461 215.178 45.9783 203.095C46.0577 202.993 46.1359 202.891 46.2127 202.791C53.6977 193.049 90.9529 190.94 103.098 190.53C103.578 190.513 104.059 190.505 104.543 190.505H178.685C179.169 190.505 179.65 190.513 180.13 190.53C186.677 190.721 193.05 192.68 198.574 196.201C204.097 199.721 208.564 204.671 211.501 210.526C214.636 216.503 216.093 223.217 215.72 229.956C215.346 236.694 213.156 243.206 209.38 248.8C183.336 287.923 175.362 312.454 183.526 328.34C191.422 343.706 215.628 351.562 259.703 353.063C271.547 353.466 276.983 362.689 277.021 371.087C277.058 379.269 271.832 388.301 260.27 388.801C259.894 388.816 259.516 388.824 259.135 388.824Z" fill="#2B376C"/>
<path d="M160.183 494.669H204.749C206.325 494.669 207.837 494.043 208.951 492.928C210.066 491.814 210.692 490.303 210.692 488.727C210.692 487.151 210.066 485.639 208.951 484.525C207.837 483.41 206.325 482.784 204.749 482.784H188.409V382.511H176.524V482.784H160.183C158.607 482.784 157.096 483.41 155.982 484.525C154.867 485.639 154.241 487.151 154.241 488.727C154.241 490.303 154.867 491.814 155.982 492.928C157.096 494.043 158.607 494.669 160.183 494.669Z" fill="#2B376C"/>
<path d="M156.624 194.227L157.558 199.904C158 202.657 159.601 222.102 158.415 224.422C158.311 220.091 150.245 213.281 145.018 214.836L136.816 216.658L131.726 217.791L127.583 218.699L115.543 221.33C115.522 221.19 115.507 221.041 115.486 220.902C115.457 220.725 115.429 220.549 115.393 220.375C115.169 219.245 114.76 218.161 114.183 217.165C114.122 218.499 113.728 219.797 113.037 220.94C113.018 220.97 113.002 221.001 112.988 221.034C112.774 221.38 112.538 221.712 112.282 222.027C112.27 222.036 112.259 222.045 112.25 222.056C112.25 222.056 109.776 182.623 110.035 182.259C110.225 182 110.416 181.749 110.616 181.503C110.814 181.25 111.007 181.006 111.214 180.759C111.241 180.736 111.263 180.708 111.281 180.677C111.861 179.991 112.476 179.333 113.122 178.708C113.312 178.526 113.509 178.341 113.707 178.157C116.719 175.37 120.317 173.294 124.238 172.082C124.68 171.946 125.14 171.822 125.607 171.696C126.068 171.579 126.538 171.467 127.011 171.371L127.171 171.338C127.397 171.292 127.631 171.251 127.858 171.212C128.144 171.162 128.43 171.118 128.711 171.083C132.359 170.558 136.075 170.767 139.641 171.698C139.648 171.696 139.65 171.703 139.657 171.702C142.633 172.48 145.463 173.74 148.032 175.432C152.476 178.366 154.206 183.153 155.435 188.527C155.866 190.372 156.228 192.292 156.624 194.227Z" fill="#1F2850"/>
<path d="M200.52 454.243L208.197 458.414L228.521 430.313L217.189 424.159L200.52 454.243Z" fill="#FFB6B6"/>
<path d="M204.215 444.23L218.153 448.595L215.934 454.434L225.491 468.305C225.964 468.99 226.204 469.808 226.179 470.639C226.153 471.471 225.862 472.272 225.349 472.927C224.835 473.581 224.126 474.055 223.324 474.278C222.523 474.5 221.671 474.461 220.893 474.166L204.668 468.002L204.066 461.163L200.78 466.524L194.662 464.2L204.215 444.23Z" fill="#1F2850"/>
<path d="M244.006 328.558C242.781 328.857 241.505 328.883 240.268 328.635C239.032 328.387 237.865 327.871 236.849 327.123C235.834 326.375 234.995 325.413 234.391 324.306C233.787 323.199 233.434 321.972 233.355 320.714L167.872 297.156L179.889 286.698L242.043 311.444C244.166 311.453 246.213 312.24 247.794 313.656C249.376 315.072 250.384 317.02 250.626 319.129C250.868 321.239 250.328 323.364 249.108 325.102C247.888 326.839 246.073 328.069 244.006 328.558Z" fill="#FFB6B6"/>
<path d="M149.579 238.794C149.579 238.794 138.55 239.037 137.569 251.629C136.589 264.22 160.654 295.364 164.382 300.5C168.111 305.636 209.525 311.958 209.525 311.958L223.604 301.737C208.81 292.152 195.31 284.802 186.25 285.133L149.579 238.794Z" fill="#EF4C43"/>
<path d="M136.052 294.352L138.74 305.899C138.74 305.899 138.766 316.546 140.652 318.51C142.524 320.464 183.699 316.54 183.699 316.54C183.699 316.54 179.334 299.383 179.392 286.4L136.052 294.352Z" fill="#FFB6B6"/>
<path d="M223.036 442.053L208.18 433.883C207.898 414.553 219.525 388.393 233.315 360.993C202.473 366.298 173.377 367.997 148.21 361.58C144.078 360.489 140.541 357.816 138.365 354.139C136.188 350.462 135.545 346.075 136.576 341.928C136.674 341.521 136.787 341.118 136.916 340.72C139.928 331.53 133.174 325.769 139.386 315.662C155.724 310.082 171.245 308.506 185.437 313.433L194.33 333.095L238.408 327.392C240.537 327.137 242.696 327.306 244.76 327.89C246.824 328.474 248.752 329.46 250.432 330.792C252.113 332.124 253.514 333.776 254.553 335.652C255.593 337.528 256.251 339.591 256.489 341.722C256.549 342.201 256.587 342.681 256.606 343.164C247.693 384.946 237.699 422.542 223.036 442.053Z" fill="#1F2850"/>
<path d="M138.093 214.558C148.062 212.518 154.49 202.783 152.45 192.814C150.411 182.845 140.676 176.418 130.707 178.457C120.738 180.497 114.31 190.232 116.35 200.201C118.389 210.17 128.125 216.598 138.093 214.558Z" fill="#FFB6B6"/>
<path d="M130.069 221.246L147.049 220.244C147.765 220.202 148.477 220.384 149.085 220.765C149.692 221.146 150.166 221.707 150.439 222.37L155.238 234.003L175.181 250.487C175.181 250.487 183.078 260.535 183.096 273.512C183.114 286.489 185.897 316.526 185.897 316.526C185.897 316.526 174.373 300.305 167.26 304.619C166.05 305.353 165.625 306.854 164.357 307.613C163.725 307.991 162.264 307.623 161.626 308.002C151.824 313.821 141.602 319.505 140.647 318.508C138.772 316.551 136.497 306.551 136.497 306.551L120.954 249.442C120.111 246.437 119.944 243.283 120.464 240.206C120.984 237.129 122.178 234.205 123.961 231.644C125.047 230.115 126.185 228.978 127.242 228.79C129.616 228.284 128.354 222.964 130.069 221.246Z" fill="#EF4C43"/>
<path d="M274.514 478.434L281.682 473.451L265.444 442.816L254.866 450.171L274.514 478.434Z" fill="#FFB6B6"/>
<path d="M275.598 457.879L264.364 467.92C246.503 448.017 232.999 420.104 221.556 388.405C191.574 379.623 168.963 365.462 149.224 348.647C142.528 342.981 137.508 335.701 143.219 328.799C143.486 328.477 143.765 328.164 144.055 327.863C150.798 320.933 167.899 322.254 177.914 315.905L200.287 339.819L198.88 346.231L240.904 360.466C242.926 361.174 244.787 362.276 246.381 363.708C247.975 365.14 249.27 366.873 250.191 368.807C251.112 370.742 251.641 372.84 251.747 374.98C251.853 377.12 251.534 379.26 250.809 381.276C250.652 381.732 250.475 382.18 250.279 382.621L275.598 457.879Z" fill="#1F2850"/>
<path d="M270.335 476.414L281.809 467.378L285.374 472.507L302.219 472.456C303.051 472.453 303.862 472.716 304.534 473.207C305.205 473.698 305.702 474.391 305.952 475.184C306.202 475.978 306.192 476.831 305.924 477.618C305.655 478.405 305.141 479.086 304.458 479.561L290.207 489.468L284.224 486.102L286.791 491.842L281.418 495.577L270.335 476.414Z" fill="#1F2850"/>
<path d="M155.144 365.171C153.983 364.679 152.944 363.937 152.1 363C151.257 362.062 150.629 360.951 150.262 359.745C149.894 358.538 149.796 357.266 149.973 356.017C150.15 354.768 150.599 353.574 151.288 352.517L112.847 294.506L128.732 293.299L163.792 350.274C165.49 351.549 166.661 353.403 167.084 355.483C167.507 357.564 167.151 359.728 166.085 361.564C165.019 363.4 163.316 364.782 161.3 365.447C159.283 366.112 157.093 366.014 155.144 365.171Z" fill="#FFB6B6"/>
<path d="M133.041 236.775C133.041 236.775 124.051 230.381 115.743 239.893C107.435 249.405 108.128 288.757 108.05 295.104C108.026 297.091 110.895 301.379 114.849 306.332C116.624 308.555 118.617 310.913 120.665 313.257C121.851 314.613 120.829 317.436 122.019 318.754C123.203 320.065 126.598 319.871 127.724 321.088C133.067 326.864 137.408 331.26 137.408 331.26L154.804 331.474C155 318.542 146.145 306.999 134.767 295.843L133.041 236.775Z" fill="#EF4C43"/>
<path d="M157.428 187.558C156.746 187.894 156.085 188.219 155.435 188.527C152.828 189.808 150.133 190.904 147.372 191.806C146.912 190.557 146.211 189.409 145.309 188.43C145.54 189.782 145.422 191.171 144.967 192.465C140.787 193.501 136.4 193.331 132.312 191.977C134.985 196.926 136.96 207.356 136.816 216.658C136.754 221.576 136.088 226.178 134.634 229.485L132.766 223.802C132.593 221.772 132.245 219.761 131.726 217.791C130.473 212.262 129.304 215.959 127.583 218.699L115.543 221.329C115.522 221.19 115.507 221.041 115.486 220.901C115.457 220.725 115.429 220.549 115.393 220.375C115.169 219.245 114.76 218.161 114.183 217.165C114.122 218.499 113.728 219.797 113.037 220.94C113.018 220.97 113.002 221.001 112.988 221.033C112.774 221.38 112.538 221.711 112.282 222.027C112.27 222.035 112.259 222.045 112.25 222.056C104.477 223.097 99.0278 183.012 110.037 182.266C110.357 182.245 110.417 181.756 110.616 181.503C110.814 181.25 111.007 181.006 111.214 180.759C111.241 180.736 111.263 180.708 111.281 180.677C111.869 179.996 112.478 179.341 113.122 178.708C113.312 178.525 113.509 178.341 113.707 178.157C116.728 175.383 120.325 173.312 124.239 172.089C124.682 171.953 125.14 171.822 125.607 171.696C126.068 171.579 126.538 171.467 127.011 171.37L127.171 171.338C127.397 171.292 127.631 171.251 127.858 171.212C128.144 171.162 128.43 171.118 128.711 171.083C129.766 171.615 130.669 172.406 131.335 173.382L139.027 171.808C139.23 171.766 139.436 171.732 139.642 171.705L139.657 171.702C149.26 170.093 155.434 177.814 157.428 187.558Z" fill="#1F2850"/>
<path d="M115.506 180.471C113.859 181.66 112.127 182.884 110.117 183.179C108.107 183.473 105.755 182.502 105.199 180.548C104.519 178.16 106.675 175.985 108.614 174.433L114.761 169.51C115.887 168.512 117.157 167.69 118.53 167.074C119.219 166.77 119.968 166.626 120.721 166.651C121.473 166.676 122.211 166.87 122.878 167.219C123.539 167.665 124.074 168.273 124.434 168.985C124.793 169.696 124.964 170.488 124.931 171.285C124.843 172.881 124.316 174.422 123.408 175.738C122.267 177.517 120.778 179.046 119.03 180.234C117.283 181.422 115.313 182.244 113.239 182.651" fill="#1F2850"/>
<path d="M162.129 308.355H117.563C115.987 308.355 114.475 308.981 113.361 310.096C112.247 311.21 111.621 312.721 111.621 314.297C111.621 315.873 112.247 317.385 113.361 318.499C114.475 319.613 115.987 320.24 117.563 320.24H133.904V366.291H145.788V320.24H162.129C163.705 320.24 165.216 319.613 166.331 318.499C167.445 317.385 168.071 315.873 168.071 314.297C168.071 312.721 167.445 311.21 166.331 310.096C165.216 308.981 163.705 308.355 162.129 308.355Z" fill="#2B376C"/>
<path d="M326.774 496.819L0.884408 497.047C0.650294 497.046 0.426005 496.953 0.260701 496.787C0.0953964 496.621 0.00256348 496.397 0.00256348 496.162C0.00256348 495.928 0.0953964 495.704 0.260701 495.538C0.426005 495.372 0.650294 495.279 0.884408 495.278L326.774 495.05C327.008 495.05 327.232 495.144 327.398 495.31C327.563 495.475 327.656 495.7 327.656 495.934C327.656 496.168 327.563 496.393 327.398 496.559C327.232 496.724 327.008 496.818 326.774 496.819Z" fill="#CACACA"/>
<path d="M421.611 398.168L428.865 406.074L462.813 381.853L452.105 370.185L421.611 398.168Z" fill="#FFB6B6"/>
<path d="M436.626 409.357V409.349L435.891 401.454L435.557 401.298L433.603 400.369L424.385 396.009L424.192 395.801L422.343 393.781L412.1 403.184L425.975 418.307L435.49 428.676L435.809 428.379C437.113 427.184 438.169 425.744 438.915 424.141C439.662 422.538 440.086 420.804 440.162 419.037C440.238 417.27 439.964 415.506 439.358 413.845C438.751 412.184 437.823 410.659 436.626 409.357Z" fill="#1F2850"/>
<path d="M384.024 477.038L394.291 480.157L411.207 442.039L396.054 437.436L384.024 477.038Z" fill="#FFB6B6"/>
<path d="M410.607 485.572C409.779 484.009 408.649 482.626 407.282 481.504C405.915 480.382 404.339 479.543 402.645 479.036L397.987 472.611L397.623 472.641L385.316 473.77L385.041 473.688L382.426 472.893L378.386 486.196L411.491 496.253L411.617 495.83C412.134 494.138 412.31 492.36 412.137 490.6C411.964 488.84 411.444 487.131 410.607 485.572Z" fill="#1F2850"/>
<path d="M468.685 277.462C468.685 277.462 534.235 340.751 492.795 360.341H479.987C479.987 360.341 476.138 346.667 467.326 335.135C466.116 333.552 461.583 333.873 460.324 332.33C452.637 322.906 444.303 314.813 438.547 315.135L439.924 358.864L442.152 374.462C443.322 382.525 410.301 452.93 410.301 452.93L389.545 444.773C389.545 444.773 411.17 386.784 411.423 378.424L394.094 286.503L468.685 277.462Z" fill="#1F2850"/>
<path d="M474.151 280.583C473.817 281.06 473.38 281.456 472.873 281.742C472.038 282.214 471.133 282.55 470.192 282.737C455.433 286.087 407.22 293.032 394.704 289.719C393.167 289.318 392.164 288.753 391.837 288.011C390.79 285.664 390.924 275.748 391.54 263.774C391.652 261.531 394.125 259.102 394.274 256.755C394.378 254.995 392.157 253.338 392.275 251.548C393.093 239.441 394.147 227.104 394.853 219.305C395.299 214.291 395.603 211.157 395.603 211.157L387.99 163.151L388.346 162.565L388.747 162.364L413.296 150.212L414.633 146.796C415.02 145.812 415.694 144.967 416.566 144.37C417.439 143.773 418.47 143.451 419.528 143.446L435.698 143.379C436.537 143.374 437.365 143.57 438.113 143.95C438.861 144.33 439.507 144.883 439.998 145.563L444.381 151.631L473.349 170.2L473.237 170.542L459.645 211.907L459.578 215.13V215.138L459.073 241.06L460.476 244.574L458.894 250.338C458.894 250.338 459.622 257.074 463.522 262.081C467.057 266.626 471.559 271.365 473.594 275.213V275.22C474.723 277.345 475.102 279.187 474.151 280.583Z" fill="#F4B210"/>
<path d="M495.942 356.582L492.439 361.009C492.439 361.009 460.215 383.553 459.108 385.66L454.016 390.479L441.694 377.307L448.102 369.275C453.23 362.848 459.855 357.775 467.398 354.502L477.219 345.789L495.942 356.582Z" fill="#1F2850"/>
<path d="M475.467 293.307L469.599 236.507L468.05 213.131L484.475 210.161C484.475 210.161 483.824 226.876 485.976 236.307C488.099 245.613 486.257 292.06 486.126 293.302C487.332 294.381 488.183 295.8 488.565 297.372C488.947 298.945 488.842 300.596 488.265 302.108C487.688 303.62 486.666 304.921 485.334 305.839C484.001 306.757 482.421 307.249 480.803 307.25C479.185 307.251 477.605 306.76 476.272 305.843C474.938 304.926 473.915 303.626 473.336 302.115C472.758 300.604 472.652 298.953 473.033 297.38C473.413 295.807 474.262 294.387 475.467 293.307Z" fill="#FFB6B6"/>
<path d="M491.489 248.278L470.378 252.648L468.532 245.289L466.38 243.006L462.08 220.482L455.911 207.289L457.515 162.17L473.183 170.48L473.202 170.494C475.598 173.096 477.25 176.819 479.996 180.555C488.649 192.326 489.609 220.931 489.347 236.6C489.342 236.857 489.601 237.128 489.912 237.414C491.385 238.766 492.347 240.586 492.634 242.565C492.921 244.544 492.517 246.562 491.489 248.278Z" fill="#F4B210"/>
<path d="M379.87 295.535L385.738 238.736L387.286 215.359L370.862 212.389C370.862 212.389 371.513 229.104 369.361 238.535C367.238 247.841 369.079 294.288 369.211 295.53C368.004 296.609 367.154 298.028 366.772 299.601C366.39 301.173 366.495 302.824 367.071 304.336C367.648 305.848 368.671 307.149 370.003 308.067C371.336 308.985 372.915 309.477 374.533 309.478C376.152 309.479 377.732 308.988 379.065 308.071C380.398 307.155 381.422 305.855 382 304.343C382.579 302.832 382.685 301.181 382.304 299.608C381.924 298.035 381.075 296.615 379.87 295.535Z" fill="#FFB6B6"/>
<path d="M399.428 209.515L394.853 219.305L393.256 222.714L388.955 245.235L386.809 247.515L384.959 254.876L384.09 254.697L368.418 251.452L363.85 250.508C362.82 248.793 362.415 246.774 362.701 244.794C362.988 242.814 363.95 240.994 365.424 239.642C365.736 239.359 365.996 239.084 365.989 238.825C365.729 223.16 366.687 194.556 375.34 182.783C378.089 179.047 379.738 175.325 382.137 172.726C382.144 172.718 382.144 172.711 382.151 172.711L387.99 163.151L388.346 162.565L388.747 162.364L399.428 209.515Z" fill="#F4B210"/>
<path d="M427.146 138.776C439.028 138.776 448.661 129.143 448.661 117.261C448.661 105.379 439.028 95.7461 427.146 95.7461C415.264 95.7461 405.631 105.379 405.631 117.261C405.631 129.143 415.264 138.776 427.146 138.776Z" fill="#FFB6B6"/>
<path d="M451.333 107.823C451.259 104.153 450.843 99.4592 448.273 95.7156C446.104 92.5663 441.729 90.0706 437.651 91.3184C437.697 90.503 437.516 89.6909 437.127 88.9723C436.739 88.2538 436.16 87.6569 435.453 87.2481C433.908 86.3048 432.051 86.1339 430.409 85.9779C426.272 85.5917 421.986 85.1906 417.797 85.9854C413.095 86.8767 409.248 89.2981 407.25 92.6331L407.205 92.7371L406.797 94.7129C406.742 94.9779 406.631 95.2279 406.471 95.4459C406.31 95.6638 406.105 95.8445 405.868 95.9756C405.631 96.1085 405.368 96.1874 405.097 96.2067C404.826 96.2259 404.554 96.1851 404.301 96.087C404.024 95.9831 403.724 95.9532 403.432 96.0005C403.14 96.0478 402.865 96.1705 402.634 96.3566C402.404 96.5426 402.226 96.7855 402.119 97.0613C402.011 97.3371 401.977 97.6362 402.021 97.9291L402.132 98.7164L400.951 98.4936C400.655 98.4362 400.348 98.459 400.063 98.5596C399.779 98.6602 399.526 98.835 399.331 99.0659C399.137 99.2968 399.007 99.5755 398.957 99.8732C398.906 100.171 398.935 100.477 399.042 100.759L399.369 101.658C399.125 101.661 398.884 101.713 398.661 101.812C398.437 101.91 398.236 102.052 398.069 102.23C397.831 102.489 397.68 102.817 397.64 103.166C397.6 103.516 397.672 103.87 397.846 104.176C399.17 106.435 401.046 108.321 403.298 109.657C404.311 110.268 405.403 110.735 406.544 111.046C406.782 111.113 407.027 111.173 407.279 111.225C416.399 113.19 425.801 113.472 435.022 112.057C434.479 113.876 434.27 115.778 434.405 117.672C434.702 120.041 436.091 121.995 437.948 122.648C438.369 122.791 438.801 122.895 439.241 122.96C439.662 123.029 440.076 123.13 440.481 123.265C441.078 123.484 441.607 123.856 442.015 124.345C442.422 124.834 442.692 125.422 442.799 126.049C442.906 126.676 442.846 127.321 442.624 127.917C442.402 128.513 442.027 129.04 441.536 129.445C441.536 129.445 443.482 131.057 443.727 130.975C444.684 130.552 445.484 129.841 446.015 128.94C449.721 123.607 451.511 116.506 451.333 107.823Z" fill="#1F2850"/>
</g>
<defs>
<clipPath id="clip0_722_1069">
<rect width="575" height="497.579" fill="white" transform="translate(0 0.210449)"/>
</clipPath>
</defs>
</svg>
