<svg width="30" height="30" viewBox="0 0 30 30" fill="none" xmlns="http://www.w3.org/2000/svg">
<path d="M8.71347 6.96679C8.90604 6.9656 9.0986 6.9644 9.297 6.96316C9.93306 6.95991 10.5691 6.96013 11.2051 6.96067C11.6476 6.95976 12.0902 6.95874 12.5327 6.95763C13.46 6.95588 14.3874 6.95595 15.3148 6.95718C16.5027 6.95854 17.6906 6.95457 18.8786 6.94913C19.7925 6.94568 20.7063 6.94547 21.6201 6.9462C22.0581 6.94608 22.4961 6.94486 22.9341 6.9425C23.5467 6.9396 24.1592 6.94119 24.7718 6.94391C24.9524 6.94211 25.133 6.94032 25.3191 6.93848C26.3773 6.94884 27.0568 7.07028 27.8906 7.73429C28.5753 8.44539 28.6834 8.94232 28.6922 9.91771C28.6978 10.2909 28.6978 10.2909 28.7035 10.6716C28.7035 10.9392 28.7036 11.2068 28.7036 11.4825C28.7063 11.8968 28.7063 11.8968 28.709 12.3196C28.7116 12.9039 28.7122 13.4883 28.7112 14.0726C28.7109 14.9657 28.7207 15.8583 28.7311 16.7513C28.7323 17.3193 28.7329 17.8872 28.7329 18.4551C28.7368 18.7218 28.7406 18.9884 28.7446 19.2631C28.7265 21.3316 28.7265 21.3316 28.0431 22.1961C27.0312 23.0728 26.1078 23.0057 24.8325 23.0102C24.6403 23.0117 24.4482 23.0132 24.2502 23.0148C23.614 23.0194 22.9778 23.0222 22.3416 23.0245C22.1242 23.0255 21.9068 23.0264 21.6829 23.0274C20.5324 23.0323 19.3819 23.0356 18.2314 23.0378C17.0437 23.0404 15.8561 23.0485 14.6684 23.0578C13.7546 23.0639 12.8407 23.0659 11.9269 23.0667C11.4891 23.0679 11.0513 23.0706 10.6135 23.075C10.0003 23.0807 9.38736 23.0804 8.77413 23.0788C8.594 23.0818 8.41388 23.0848 8.2283 23.0879C7.01333 23.0762 6.32902 22.794 5.39062 22.0312C4.73131 21.192 4.85608 20.2385 4.92188 19.2187C5.07656 19.064 5.23125 18.9093 5.39062 18.7499C5.88867 18.8378 5.88867 18.8378 6.32812 18.9843C6.32812 19.4484 6.32812 19.9124 6.32812 20.3905C7.82986 19.1829 9.29374 17.954 10.7135 16.6506C11.2672 16.1565 11.8386 15.6929 12.4219 15.2343C12.0502 14.2073 11.2438 13.6244 10.4297 12.9491C10.2837 12.8261 10.1378 12.7031 9.98737 12.5763C8.78443 11.5664 7.56456 10.5779 6.32812 9.60929C6.32812 10.0734 6.32812 10.5374 6.32812 11.0155C5.88867 11.162 5.88867 11.162 5.39062 11.2499C4.92188 10.7812 4.92188 10.7812 4.83398 9.90226C4.86008 8.87692 5.18641 8.28504 5.85938 7.49992C6.73244 6.88543 7.6878 6.9635 8.71347 6.96679ZM7.73438 8.43742C8.5588 9.42673 9.1497 10.0917 10.1221 10.8544C10.9914 11.5492 11.8348 12.257 12.6562 13.0077C13.0463 13.3599 13.437 13.7114 13.8281 14.0624C14.052 14.2636 14.2759 14.4648 14.5065 14.6722C14.8451 14.9649 14.8451 14.9649 15.1904 15.2636C15.395 15.4431 15.5995 15.6225 15.8102 15.8074C16.3723 16.2196 16.3723 16.2196 16.9858 16.1846C17.7692 15.8577 18.3015 15.3526 18.8965 14.7655C19.145 14.5288 19.394 14.2926 19.6436 14.0569C19.7683 13.9389 19.8931 13.8208 20.0217 13.6992C20.5642 13.1994 21.1342 12.7374 21.709 12.2753C23.2091 11.0665 24.6531 9.79993 26.0156 8.43742C19.9828 8.43742 13.95 8.43742 7.73438 8.43742ZM25.4736 10.8691C25.1762 11.1262 24.8787 11.3831 24.581 11.6399C24.43 11.7702 24.2789 11.9005 24.1233 12.0348C23.0463 12.9581 21.9521 13.8609 20.8594 14.7655C21.2153 15.6654 21.7449 16.0956 22.5 16.6845C23.6238 17.5764 24.6882 18.5096 25.7364 19.4887C26.2834 19.9843 26.2834 19.9843 27.1875 20.3905C27.1875 16.8327 27.1875 13.2749 27.1875 9.60929C26.612 9.60929 25.9135 10.4861 25.4736 10.8691ZM13.8281 15.9374C13.5684 16.1799 13.5684 16.1799 13.3035 16.4272C11.8994 17.7302 10.4784 18.9786 8.97125 20.1626C8.36049 20.6586 8.36049 20.6586 7.73438 21.5624C13.7672 21.5624 19.8 21.5624 26.0156 21.5624C24.4463 19.9931 22.8068 18.5231 21.1084 17.0946C20.8984 16.9179 20.6884 16.7412 20.4721 16.5591C19.9382 16.1043 19.9382 16.1043 19.2188 16.1718C18.7823 16.4907 18.7823 16.4907 18.3398 16.8896C17.6461 17.4225 17.4231 17.5724 16.5234 17.6366C15.4581 17.2561 14.6845 16.6647 13.8281 15.9374Z" fill="white"/>
<path d="M3.18604 15.6718C3.57713 15.6713 3.57713 15.6713 3.97614 15.6708C4.24956 15.6717 4.52298 15.6727 4.80469 15.6736C5.07811 15.6727 5.35153 15.6718 5.63324 15.6708C5.89397 15.6711 6.15471 15.6714 6.42334 15.6718C6.66338 15.672 6.90341 15.6723 7.15073 15.6726C7.73438 15.7029 7.73438 15.7029 8.20312 15.9373C8.12578 16.324 8.04844 16.7107 7.96875 17.1091C5.88047 17.1091 3.79219 17.1091 1.64062 17.1091C1.56328 16.7224 1.48594 16.3357 1.40625 15.9373C2.02499 15.6279 2.49393 15.6725 3.18604 15.6718Z" fill="white"/>
<path d="M3.28125 12.8906C4.82812 12.8906 6.375 12.8906 7.96875 12.8906C8.04609 13.2773 8.12344 13.6641 8.20312 14.0625C7.43404 14.447 6.58643 14.3303 5.74219 14.3262C5.55819 14.3271 5.3742 14.328 5.18463 14.3289C3.80937 14.3266 3.80937 14.3266 3.28125 14.0625C3.28125 13.6758 3.28125 13.2891 3.28125 12.8906Z" fill="white"/>
</svg>
