<svg width="282" height="143" viewBox="0 0 282 143" fill="none" xmlns="http://www.w3.org/2000/svg">
<path opacity="0.875" fill-rule="evenodd" clip-rule="evenodd" d="M124 1.99967C137 0.500109 141.5 0.500109 156 1.99967C217.163 12.5185 255.663 47.8519 271.5 108C273.155 115.917 274.155 123.917 274.5 132C276.102 129.126 278.269 128.126 281 129C281 129.667 281 130.333 281 131C278.609 133.394 275.943 135.394 273 137C270.094 135.603 267.594 133.603 265.5 131C264.899 129.535 265.399 128.535 267 128C268.314 128.813 269.481 129.813 270.5 131C268.017 82.8587 246.184 46.3587 205 21.4997C152.604 -4.7268 102.937 -0.393467 56 34.4997C28.3227 58.3522 12.656 88.5188 9.00004 125C8.79957 127 8.66671 128 9.00004 130C13.071 134.054 13.7377 138.721 9.00004 142C7.50004 142.5 6.50004 142.5 5.00004 142C3.33337 141 2.00004 139.667 1.00004 138C0.499986 136.5 0.5 135.5 1.00004 134C1.98128 132.191 3.48128 130.857 5.50004 130C9.16274 80.8039 31.996 43.6372 74 18.4997C89.8283 10.0565 106.495 4.55647 124 1.99967Z" fill="#F4B210"/>
</svg>
