<svg width="282" height="143" viewBox="0 0 282 143" fill="none" xmlns="http://www.w3.org/2000/svg">
<path opacity="0.875" fill-rule="evenodd" clip-rule="evenodd" d="M124 141C137 142.5 141.5 142.5 156 141C217.163 130.482 255.663 95.1481 271.5 35.0003C273.155 27.0833 274.155 19.0833 274.5 11.0003C276.102 13.8743 278.269 14.8744 281 14.0004C281 13.3333 281 12.6673 281 12.0003C278.609 9.60634 275.943 7.60634 273 6.00034C270.094 7.39734 267.594 9.39734 265.5 12.0003C264.899 13.4653 265.399 14.4653 267 15.0003C268.314 14.1873 269.481 13.1873 270.5 12.0003C268.017 60.1413 246.184 96.6413 205 121.5C152.604 147.727 102.937 143.393 56 108.5C28.3227 84.6478 12.656 54.4812 9.00004 18.0003C8.79957 16 8.66671 15.0003 9.00004 13.0003C13.071 8.94633 13.7377 4.27934 9.00004 1.00034C7.50004 0.5 6.50004 0.5 5.00004 1.00034C3.33337 2.00034 2.00004 3.33333 1.00004 5.00034C0.499986 6.5 0.5 7.5 1.00004 9.00034C1.98128 10.8093 3.48128 12.1433 5.50004 13.0003C9.16274 62.1961 31.996 99.3628 74 124.5C89.8283 132.944 106.495 138.444 124 141Z" fill="#F4B210"/>
</svg>
