<svg width="543" height="438" viewBox="0 0 543 438" fill="none" xmlns="http://www.w3.org/2000/svg">
<g clip-path="url(#clip0_629_373)">
<path d="M502.402 397.709C484.61 412.059 462.935 426.596 441.625 433.45C435.482 435.484 429.143 436.783 422.726 437.322C416.727 437.833 410.69 437.337 404.837 435.852C389.458 431.8 375.192 424.704 361.39 416.415C356.88 413.702 352.422 410.865 347.991 407.966C340.757 403.231 333.595 398.33 326.413 393.547C325.338 392.822 324.269 392.111 323.194 391.407H323.188C321.454 390.254 319.716 389.118 317.974 387.997C317.668 387.797 317.362 387.604 317.049 387.404C313.758 385.291 310.41 383.228 307.006 381.212C306.589 380.971 306.172 380.722 305.755 380.48C299.169 376.611 292.4 373.102 285.474 369.968C280.926 367.939 276.318 366.11 271.665 364.55H271.659C269.88 363.956 268.094 363.397 266.302 362.886C260.928 361.324 255.452 360.189 249.918 359.49C242.294 358.512 234.582 358.577 226.973 359.683C226.458 359.759 225.949 359.835 225.435 359.925C204.841 363.418 186.047 375.193 165.362 377.968C164.691 378.058 164.026 378.141 163.355 378.203C163.068 378.23 162.781 378.265 162.495 378.285C156.484 378.83 150.434 378.673 144.456 377.816C127.753 375.483 111.487 368.242 96.8438 359.117C62.6106 337.782 34.8488 304.989 17.9701 267.011C15.0716 260.503 12.4983 253.837 10.2607 247.043C4.0044 228.201 0.559068 208.441 0.0486896 188.475C-1.53491 119.203 35.6308 49.7021 93.9828 18.3719C152.341 -12.9582 229.11 -2.59767 276.175 45.533C304.725 74.7303 321.246 114.295 342.732 149.642C364.218 184.983 394.756 218.743 434.144 223.892C454.209 226.515 475.207 221.441 494.438 228.04C505.087 231.699 514.171 238.698 521.49 247.616C526.41 253.667 530.527 260.402 533.728 267.633C536.074 272.86 537.978 278.297 539.417 283.881C539.685 284.909 539.932 285.938 540.173 286.966C549.753 328.408 534.445 371.852 502.402 397.709Z" fill="#F2F2F2"/>
<path d="M181.928 322.687H120.67C111.492 322.687 104.052 330.567 104.052 340.288V340.288C104.052 350.009 111.492 357.889 120.67 357.889H181.928C191.106 357.889 198.546 350.009 198.546 340.288C198.546 330.567 191.106 322.687 181.928 322.687Z" fill="#2B376C"/>
<path d="M163.355 348.916V378.203C157.062 378.847 150.72 378.718 144.456 377.816V348.916H163.355Z" fill="#2B376C"/>
<path d="M226.973 359.683C226.458 359.759 225.95 359.835 225.435 359.925C204.841 363.418 186.047 375.193 165.362 377.968C164.691 378.058 164.026 378.141 163.355 378.203C163.068 378.23 162.782 378.265 162.495 378.285C157.444 373.047 152.394 367.469 147.649 361.692C145.075 358.565 142.586 355.376 140.246 352.146C134.172 343.808 129.024 335.235 125.622 326.814C125.968 322.776 123.596 313.437 122.462 306.286L122.455 306.279C121.973 303.277 121.712 300.668 121.953 298.99C123.335 289.313 130.797 290.424 133.091 280.94C135.16 279.121 137.363 277.48 139.679 276.033C140.064 275.791 140.455 275.55 140.859 275.308L165.753 257.086L175.268 266.97L189.748 282.017L205.441 298.314L192.12 312.567C192.12 312.567 203.251 326.158 216.265 344.277C219.759 349.143 223.388 354.341 226.973 359.683Z" fill="#1F2850"/>
<path d="M441.625 348.916V433.45C435.482 435.484 429.143 436.783 422.726 437.322V348.916H441.625Z" fill="#2B376C"/>
<path d="M466.064 342.013H404.805C395.627 342.013 388.187 349.893 388.187 359.614V359.614C388.187 369.335 395.627 377.216 404.805 377.216H466.064C475.242 377.216 482.682 369.335 482.682 359.614C482.682 349.893 475.242 342.013 466.064 342.013Z" fill="#2B376C"/>
<path d="M317.049 387.404C313.758 385.291 310.41 383.228 307.006 381.212C306.589 380.97 306.172 380.722 305.755 380.48L307.997 379.466L314.045 376.712L314.103 376.684L314.168 376.919L317.049 387.404Z" fill="#FFB6B6"/>
<path d="M326.414 393.547C325.338 392.822 324.27 392.111 323.194 391.407H323.188C321.454 390.254 319.716 389.118 317.974 387.997C317.668 387.797 317.362 387.604 317.049 387.404C313.758 385.291 310.41 383.228 307.006 381.212C306.589 380.97 306.172 380.722 305.755 380.48C299.169 376.611 292.4 373.102 285.475 369.968C280.926 367.939 276.318 366.11 271.665 364.55H271.659L268.003 358.068L251.548 328.878L247.931 322.465C247.931 322.465 235.594 326.331 218.136 330.037C211.782 331.39 204.757 332.716 197.386 333.834C189.507 335.021 181.244 335.967 173.032 336.422C169.116 336.643 165.212 336.754 161.367 336.719C151.429 336.65 141.882 335.663 133.521 333.316C130.732 330.541 122.325 326.766 116.303 323.308H116.297C113.768 321.858 111.67 320.471 110.568 319.235C104.221 312.126 109.643 306.583 103.999 298.825C103.923 295.978 104.061 293.13 104.41 290.307C104.469 289.838 104.527 289.361 104.599 288.878L106.378 256.879L119.594 255.029L139.705 252.213L161.491 249.162L163.889 269.054C163.889 269.054 180.853 268.143 202.345 268.447C236.865 268.944 283.057 272.589 289.313 288.229C289.9 289.7 290.486 291.184 291.073 292.668C292.467 296.215 293.849 299.782 295.217 303.366C300.177 316.343 304.908 329.444 309.229 341.827C311.914 349.53 314.442 356.957 316.769 363.908C318.639 369.499 320.372 374.786 321.956 379.652C323.403 384.097 324.713 388.19 325.879 391.863C326.062 392.435 326.238 393.001 326.414 393.547Z" fill="#1F2850"/>
<path d="M204.838 199.666L163.094 162.116L190.253 133.004L209.201 165.875L279.436 180.624C281.547 178.94 284.076 177.944 286.713 177.756C289.351 177.569 291.982 178.198 294.288 179.567C296.593 180.937 298.472 182.987 299.697 185.468C300.921 187.949 301.437 190.754 301.183 193.54C300.928 196.327 299.913 198.974 298.263 201.161C296.612 203.347 294.396 204.977 291.885 205.853C289.375 206.728 286.678 206.811 284.124 206.091C281.569 205.372 279.268 203.88 277.5 201.799L204.838 199.666Z" fill="#FFB8B8"/>
<path d="M126.201 112.766C121.377 129.389 167.323 169.034 167.323 169.034C167.833 165.044 193.883 199.456 195.655 196.339C200.692 187.482 206.234 165.588 212.049 162.789C215.375 161.189 196.297 138.946 196.297 138.946C196.297 138.946 186.566 125.31 173.717 108.027C170.171 103.07 165.497 99.1433 160.132 96.6136C154.767 94.0839 148.885 93.033 143.033 93.5587C143.033 93.5587 131.026 96.143 126.201 112.766Z" fill="#F4B210"/>
<path d="M146.516 75.9664C162.109 75.9664 174.749 62.5779 174.749 46.0623C174.749 29.5467 162.109 16.1582 146.516 16.1582C130.923 16.1582 118.282 29.5467 118.282 46.0623C118.282 62.5779 130.923 75.9664 146.516 75.9664Z" fill="#FFB8B8"/>
<path d="M160.632 95.7311C166.715 99.5611 170.354 106.598 172.442 113.759C176.309 127.017 178.637 140.724 179.374 154.578L181.58 196.055L208.903 284.369C185.223 305.592 96.214 289.193 96.214 289.193C96.214 289.193 93.4817 288.228 96.214 285.334C98.9462 282.44 101.606 285.004 98.8739 282.11C96.1416 279.216 98.0251 282.44 98.9359 279.546C99.8467 276.652 98.9359 278.581 98.0252 277.617C97.1144 276.652 105.076 267.97 105.076 267.97L97.7898 217.277L88.6821 115.024C99.6113 100.554 121.591 92.0244 121.591 92.0244L127.271 81.1968L155.667 83.6029L160.632 95.7311Z" fill="#F4B210"/>
<path d="M169.79 30.1747C171.984 31.9082 173.61 34.3271 174.438 37.0906C174.757 32.5744 174.777 28.0401 174.499 23.5208C174.166 20.3452 172.055 19.6308 169.611 18.8031C167.404 18.0553 164.907 17.2106 164.235 14.1277C155.36 4.98307 139.911 5.44419 129.337 8.63399C123.519 10.3893 120.172 12.6445 119.872 13.9656L119.81 14.2375L119.574 14.3627C115.089 16.7377 114.216 24.2375 114.274 30.1107C114.383 41.1763 117.99 53.7439 120.023 54.7649C120.13 54.8189 120.157 54.7978 120.204 54.7567C123.264 52.1666 126.997 54.9535 128.637 56.4685C129.605 49.591 132.721 43.2554 137.487 38.4735C142.253 33.6915 148.394 30.7392 154.931 30.0878C157.065 29.8693 159.183 29.4933 161.268 28.9623C162.325 28.6725 163.413 28.5214 164.505 28.5124C166.386 28.4821 168.23 29.0622 169.79 30.1747Z" fill="#1F2850"/>
<path d="M134.214 244.72L125.577 240.035C125.115 239.686 124.786 239.172 124.651 238.587C124.517 238.003 124.585 237.386 124.844 236.851C125.103 236.315 125.536 235.896 126.062 235.67C126.589 235.444 127.175 235.426 127.713 235.62L136.349 240.305C136.812 240.654 137.141 241.168 137.275 241.752C137.41 242.337 137.341 242.954 137.082 243.489C136.823 244.025 136.391 244.444 135.864 244.67C135.338 244.896 134.752 244.914 134.214 244.72Z" fill="#EF4C43"/>
<path d="M105.147 232.168L90.9397 176.147L128.906 168.534L126.864 206.987L176.749 261.391C179.39 261.277 182.005 261.979 184.276 263.411C186.547 264.844 188.375 266.946 189.538 269.46C190.7 271.974 191.147 274.792 190.823 277.571C190.5 280.349 189.42 282.968 187.716 285.108C186.012 287.247 183.756 288.816 181.225 289.621C178.694 290.427 175.996 290.435 173.46 289.645C170.924 288.854 168.661 287.299 166.945 285.17C165.229 283.04 164.135 280.428 163.797 277.652L105.147 232.168Z" fill="#FFB8B8"/>
<path d="M87.0545 113.335C74.1673 124.111 90.708 184.385 90.708 184.385C93.269 181.408 96.2449 225.403 99.3751 223.905C108.272 219.647 124.578 204.966 130.864 206.163C134.459 206.847 130.692 177.063 130.692 177.063C130.692 177.063 130 159.985 128.698 138.031C128.438 131.817 126.699 125.773 123.641 120.463C120.583 115.152 116.306 110.748 111.209 107.659C111.209 107.659 99.9417 102.559 87.0545 113.335Z" fill="#F4B210"/>
<path d="M533.728 267.633L17.9702 267.011C15.0717 260.503 12.4984 253.837 10.2607 247.043L521.49 247.616C526.41 253.667 530.527 260.402 533.728 267.633Z" fill="#2B376C"/>
<path d="M369.457 412.459C366.792 413.826 364.103 415.145 361.39 416.415C356.88 413.702 352.422 410.865 347.991 407.966L364.426 400.318L369.457 412.459Z" fill="#FFB6B6"/>
<path d="M489.29 317.344C486.618 321.14 483.861 324.861 481.02 328.505C478.4 331.867 475.711 335.164 472.952 338.396C471.811 339.736 470.658 341.068 469.478 342.386C467.308 344.85 465.09 347.273 462.825 349.654C458.745 351.014 450.482 353.409 441.625 355.646C435.18 357.268 428.422 358.807 422.726 359.787C419.538 360.393 416.312 360.758 413.075 360.878C409.23 360.912 405.326 360.802 401.41 360.581C396.991 360.332 392.566 359.946 388.194 359.449C376.822 358.186 365.808 356.219 356.306 354.196C352.826 353.464 349.555 352.719 346.544 351.994C340.842 350.634 336.072 349.364 332.618 348.398C328.727 347.321 326.511 346.624 326.511 346.624L316.769 363.908L311.712 372.874L307.997 379.466L307.006 381.212C306.589 380.971 306.172 380.722 305.755 380.481C299.169 376.611 292.4 373.103 285.475 369.968C280.926 367.939 276.318 366.11 271.665 364.55H271.659C269.88 363.956 268.094 363.397 266.302 362.886C266.862 361.292 267.429 359.686 268.003 358.068C269.072 355.052 270.162 352.008 271.274 348.936C273.679 342.283 276.169 335.532 278.73 328.816C280.828 323.301 282.966 317.806 285.129 312.388C286.126 309.889 288.153 307.694 290.988 305.769C292.343 304.864 293.756 304.061 295.217 303.367C303.331 299.453 315.283 296.906 328.453 295.27C329.542 295.139 330.637 295.008 331.738 294.884C342.641 293.669 354.208 293.041 365.026 292.751C370.442 292.606 375.668 292.55 380.53 292.544C382.1 292.544 383.627 292.548 385.111 292.557H385.118C389.126 292.578 392.814 292.64 396.059 292.709C396.692 292.723 397.304 292.744 397.904 292.758H397.91C398.314 292.764 398.712 292.778 399.103 292.785C406.2 292.978 410.553 293.213 410.553 293.213L412.241 279.187L412.586 276.357L412.912 273.665V273.659L412.951 273.32L413.218 273.313L417.911 273.217L457.351 272.402L478.895 271.954L475.481 287.456L469.843 313.037C470.417 317.082 489.485 313.913 489.29 317.344Z" fill="#1F2850"/>
<path d="M374.319 409.905C372.709 410.775 371.087 411.631 369.458 412.459C366.792 413.826 364.103 415.144 361.39 416.414C356.88 413.702 352.422 410.865 347.991 407.966C340.757 403.231 333.595 398.33 326.414 393.547C325.338 392.822 324.27 392.111 323.194 391.407H323.188C320.229 386.755 317.212 381.909 314.168 376.919C314.123 376.85 314.084 376.781 314.045 376.712C313.263 375.442 312.485 374.162 311.712 372.874C306.843 364.798 301.949 356.377 297.198 347.777L309.229 341.827L331.594 330.769L335.452 328.864L346.544 351.994L356.437 372.625L358.639 377.216L374.319 409.905Z" fill="#1F2850"/>
<path d="M377.69 298.858L434.713 240.612L450.518 193.214L427.205 182.477C415.231 194.626 402.287 232.467 402.287 232.467L363.047 285.343C362.741 285.454 362.436 285.571 362.135 285.712C360.368 286.538 358.831 287.832 357.674 289.47C356.517 291.108 355.779 293.035 355.53 295.064C355.281 297.093 355.531 299.155 356.255 301.052C356.979 302.949 358.152 304.616 359.662 305.892C361.172 307.168 362.967 308.01 364.874 308.336C366.781 308.663 368.735 308.462 370.548 307.755C372.36 307.048 373.97 305.858 375.221 304.299C376.472 302.74 377.322 300.866 377.69 298.858Z" fill="#FFB8B8"/>
<path d="M420.645 187.769L450.216 197.712L450.327 197.692C461.333 195.739 470.466 176.7 476.189 161.072C478.072 155.917 478.037 150.197 476.091 145.069C474.145 139.94 470.433 135.786 465.705 133.445C462.207 131.744 458.329 131.112 454.509 131.623C450.69 132.133 447.082 133.765 444.092 136.334L428.907 149.475L420.645 187.769Z" fill="#EF4C43"/>
<path d="M489.171 318.043L489.344 317.8C498.57 304.84 485.951 272.745 484.043 268.091L492.622 265.399L491.127 248.099L490.407 240.385L497.077 233.676L497.099 233.505L501.686 198.929L507.688 176.045C509.95 167.393 509.998 158.26 507.827 149.583C505.655 140.906 501.343 132.997 495.332 126.668L483.062 113.766L468.362 89.3956L443.716 88.7217L434.853 105.397C426.611 107.179 419.221 111.966 413.969 118.926C408.717 125.886 405.936 134.576 406.112 143.484L406.946 187.877L398.103 242.881L397.855 252.872L389.175 262.574L390.779 272.382L384.287 275.121L381.109 289.058C379.896 290.666 371.884 301.393 371.811 304.383C371.8 304.832 372.102 305.274 372.762 305.774C377.948 309.704 406.935 318.22 419.981 313.1C433.877 307.652 488.339 317.885 488.888 317.989L489.171 318.043Z" fill="#EF4C43"/>
<path d="M453.887 81.2508C471.92 81.2508 486.539 65.7672 486.539 46.6672C486.539 27.5671 471.92 12.0835 453.887 12.0835C435.854 12.0835 421.235 27.5671 421.235 46.6672C421.235 65.7672 435.854 81.2508 453.887 81.2508Z" fill="#FFB8B8"/>
<path d="M449.903 81.7135C454.96 81.797 460.014 81.4229 465.01 80.5953C469.962 79.5286 481.041 70.9297 484.129 65.7552C486.424 61.9106 487.891 55.907 488.718 51.5479C489.832 45.7795 489.79 39.8275 488.594 34.0776C487.398 28.3276 485.075 22.9078 481.775 18.1691C480.507 16.187 478.757 14.6048 476.71 13.5897C476.528 13.5146 476.342 13.448 476.153 13.3911C473.17 12.5597 470.489 10.8029 468.455 8.34614C468.061 7.84925 467.633 7.38307 467.176 6.95125C464.877 4.89667 462.152 3.44741 459.223 2.72194C454.496 1.3819 447.655 2.71207 438.889 6.67934C434.486 8.67257 429.67 7.95122 425.965 7.10001C425.757 7.05749 425.543 7.07335 425.342 7.14601C425.142 7.21867 424.963 7.3456 424.824 7.51416C423.247 9.0815 421.17 9.95883 419.008 9.96981C417.683 10.0314 416.294 11.9734 414.615 14.5059C414.234 15.0808 413.789 15.7517 413.468 16.1598L413.425 15.3758L412.676 16.2504C411.499 17.625 410.669 19.2929 410.264 21.0987C409.859 22.9044 409.892 24.7894 410.36 26.578C410.828 28.3667 411.715 30.0008 412.94 31.3282C414.165 32.6556 415.687 33.6332 417.365 34.1699C418.697 34.5452 420.061 34.7756 421.438 34.8573C422.271 34.9368 423.134 35.0189 423.96 35.1708C426.612 35.746 429.078 37.0398 431.117 38.9259C433.156 40.8119 434.699 43.2258 435.594 45.9318C435.806 46.5573 436.151 47.1229 436.602 47.5849C437.052 48.0469 437.598 48.393 438.195 48.5965C438.792 48.8 439.425 48.8554 440.046 48.7584C440.667 48.6614 441.258 48.4147 441.774 48.0373C442.635 47.3273 443.645 46.8484 444.719 46.6414C445.792 46.4343 446.897 46.5054 447.939 46.8484C448.839 47.3786 449.54 48.2206 449.924 49.2332C450.39 50.3612 451.163 51.3166 452.144 51.9773C455.5 53.81 455.732 61.9286 454.526 68.6965C453.364 75.2202 451.068 79.9395 448.941 80.1727C447.304 80.3521 447.117 80.4753 446.999 80.7819L446.893 81.0564L447.077 81.3132C447.981 81.6604 448.945 81.7969 449.903 81.7135Z" fill="#1F2850"/>
<path d="M428.754 177.313L416.164 150.728C397.89 152.05 361.621 174.429 361.621 174.429L292.999 189.839C290.967 189.011 288.764 188.765 286.613 189.126C284.462 189.487 282.438 190.441 280.746 191.894C279.054 193.346 277.753 195.245 276.974 197.399C276.195 199.553 275.966 201.886 276.309 204.164C276.652 206.442 277.555 208.584 278.929 210.375C280.302 212.165 282.096 213.541 284.131 214.363C286.165 215.186 288.369 215.426 290.519 215.06C292.669 214.694 294.691 213.734 296.379 212.277L383.67 205.65L428.754 177.313Z" fill="#FFB8B8"/>
<path d="M423.676 181.678L456.556 155.798L462.348 133.691C463.47 129.347 463.422 124.757 462.211 120.44C460.999 116.123 458.671 112.25 455.491 109.261C451.154 105.239 445.537 103.111 439.776 103.308C434.014 103.505 428.538 106.012 424.455 110.321C412.082 123.402 397.969 141.651 401.001 154.306L401.032 154.434L423.676 181.678Z" fill="#EF4C43"/>
<path d="M382.973 250.901H294.996V263.326H382.973V250.901Z" fill="white"/>
<path d="M158.142 250.901H70.1638V263.326H158.142V250.901Z" fill="white"/>
<path d="M168.415 191.152V250.309C168.415 251.063 168.698 251.786 169.201 252.319C169.705 252.852 170.387 253.151 171.099 253.152H253.866C254.578 253.151 255.26 252.852 255.764 252.319C256.267 251.786 256.55 251.063 256.55 250.309V191.152C256.549 190.399 256.265 189.677 255.762 189.145C255.259 188.613 254.577 188.313 253.866 188.312H171.099C170.388 188.313 169.706 188.613 169.203 189.145C168.7 189.677 168.416 190.399 168.415 191.152Z" fill="#2B376C"/>
<path d="M170.356 191.888V249.579C170.357 249.982 170.508 250.368 170.777 250.653C171.046 250.938 171.411 251.098 171.791 251.099H253.177C253.557 251.098 253.922 250.938 254.191 250.653C254.46 250.368 254.611 249.982 254.612 249.579V191.888C254.612 191.485 254.461 191.098 254.192 190.813C253.923 190.527 253.558 190.367 253.177 190.366H171.791C171.41 190.367 171.045 190.527 170.776 190.813C170.507 191.098 170.356 191.485 170.356 191.888Z" fill="white"/>
<path d="M166.684 261.846C166.835 262.047 167.028 262.21 167.247 262.321C167.467 262.432 167.707 262.489 167.95 262.488H256.574C256.817 262.488 257.056 262.43 257.275 262.319C257.493 262.209 257.686 262.048 257.839 261.849C257.991 261.649 258.1 261.416 258.157 261.167C258.214 260.917 258.218 260.658 258.168 260.406L256.793 253.485C256.736 253.203 256.613 252.94 256.436 252.721C256.258 252.502 256.032 252.333 255.777 252.23C255.593 252.154 255.397 252.115 255.199 252.115H169.32C169.122 252.115 168.926 252.154 168.742 252.23C168.487 252.333 168.261 252.502 168.083 252.721C167.906 252.94 167.783 253.203 167.726 253.485L166.351 260.406C166.302 260.657 166.306 260.917 166.364 261.166C166.421 261.415 166.531 261.647 166.684 261.846Z" fill="#1F2850"/>
<path d="M252.158 255.096H254.251C254.427 255.096 254.569 254.945 254.569 254.759V253.698C254.569 253.512 254.427 253.361 254.251 253.361H252.158C251.982 253.361 251.84 253.512 251.84 253.698V254.759C251.84 254.945 251.982 255.096 252.158 255.096Z" fill="#2B376C"/>
<path d="M246.699 255.096H248.792C248.968 255.096 249.11 254.945 249.11 254.759V253.698C249.11 253.512 248.968 253.361 248.792 253.361H246.699C246.523 253.361 246.381 253.512 246.381 253.698V254.759C246.381 254.945 246.523 255.096 246.699 255.096Z" fill="#2B376C"/>
<path d="M241.239 255.096H243.333C243.508 255.096 243.651 254.945 243.651 254.759V253.698C243.651 253.512 243.508 253.361 243.333 253.361H241.239C241.064 253.361 240.921 253.512 240.921 253.698V254.759C240.921 254.945 241.064 255.096 241.239 255.096Z" fill="#2B376C"/>
<path d="M235.78 255.096H237.873C238.049 255.096 238.192 254.945 238.192 254.759V253.698C238.192 253.512 238.049 253.361 237.873 253.361H235.78C235.604 253.361 235.462 253.512 235.462 253.698V254.759C235.462 254.945 235.604 255.096 235.78 255.096Z" fill="#2B376C"/>
<path d="M230.321 255.096H232.414C232.59 255.096 232.732 254.945 232.732 254.759V253.698C232.732 253.512 232.59 253.361 232.414 253.361H230.321C230.145 253.361 230.003 253.512 230.003 253.698V254.759C230.003 254.945 230.145 255.096 230.321 255.096Z" fill="#2B376C"/>
<path d="M224.862 255.096H226.955C227.131 255.096 227.273 254.945 227.273 254.759V253.698C227.273 253.512 227.131 253.361 226.955 253.361H224.862C224.686 253.361 224.544 253.512 224.544 253.698V254.759C224.544 254.945 224.686 255.096 224.862 255.096Z" fill="#2B376C"/>
<path d="M219.403 255.096H221.496C221.672 255.096 221.814 254.945 221.814 254.759V253.698C221.814 253.512 221.672 253.361 221.496 253.361H219.403C219.227 253.361 219.085 253.512 219.085 253.698V254.759C219.085 254.945 219.227 255.096 219.403 255.096Z" fill="#2B376C"/>
<path d="M213.944 255.096H216.037C216.213 255.096 216.355 254.945 216.355 254.759V253.698C216.355 253.512 216.213 253.361 216.037 253.361H213.944C213.768 253.361 213.625 253.512 213.625 253.698V254.759C213.625 254.945 213.768 255.096 213.944 255.096Z" fill="#2B376C"/>
<path d="M208.484 255.096H210.578C210.753 255.096 210.896 254.945 210.896 254.759V253.698C210.896 253.512 210.753 253.361 210.578 253.361H208.484C208.309 253.361 208.166 253.512 208.166 253.698V254.759C208.166 254.945 208.309 255.096 208.484 255.096Z" fill="#2B376C"/>
<path d="M203.025 255.096H205.118C205.294 255.096 205.437 254.945 205.437 254.759V253.698C205.437 253.512 205.294 253.361 205.118 253.361H203.025C202.849 253.361 202.707 253.512 202.707 253.698V254.759C202.707 254.945 202.849 255.096 203.025 255.096Z" fill="#2B376C"/>
<path d="M197.566 255.096H199.659C199.835 255.096 199.978 254.945 199.978 254.759V253.698C199.978 253.512 199.835 253.361 199.659 253.361H197.566C197.39 253.361 197.248 253.512 197.248 253.698V254.759C197.248 254.945 197.39 255.096 197.566 255.096Z" fill="#2B376C"/>
<path d="M192.107 255.096H194.2C194.376 255.096 194.518 254.945 194.518 254.759V253.698C194.518 253.512 194.376 253.361 194.2 253.361H192.107C191.931 253.361 191.789 253.512 191.789 253.698V254.759C191.789 254.945 191.931 255.096 192.107 255.096Z" fill="#2B376C"/>
<path d="M186.648 255.096H188.741C188.917 255.096 189.059 254.945 189.059 254.759V253.698C189.059 253.512 188.917 253.361 188.741 253.361H186.648C186.472 253.361 186.33 253.512 186.33 253.698V254.759C186.33 254.945 186.472 255.096 186.648 255.096Z" fill="#2B376C"/>
<path d="M181.188 255.096H183.282C183.457 255.096 183.6 254.945 183.6 254.759V253.698C183.6 253.512 183.457 253.361 183.282 253.361H181.188C181.013 253.361 180.87 253.512 180.87 253.698V254.759C180.87 254.945 181.013 255.096 181.188 255.096Z" fill="#2B376C"/>
<path d="M175.729 255.096H177.823C177.998 255.096 178.141 254.945 178.141 254.759V253.698C178.141 253.512 177.998 253.361 177.823 253.361H175.729C175.554 253.361 175.411 253.512 175.411 253.698V254.759C175.411 254.945 175.554 255.096 175.729 255.096Z" fill="#2B376C"/>
<path d="M170.27 255.096H172.363C172.539 255.096 172.682 254.945 172.682 254.759V253.698C172.682 253.512 172.539 253.361 172.363 253.361H170.27C170.095 253.361 169.952 253.512 169.952 253.698V254.759C169.952 254.945 170.095 255.096 170.27 255.096Z" fill="#2B376C"/>
<path d="M252.222 257.987H254.316C254.491 257.987 254.634 257.836 254.634 257.65V256.589C254.634 256.403 254.491 256.252 254.316 256.252H252.222C252.047 256.252 251.904 256.403 251.904 256.589V257.65C251.904 257.836 252.047 257.987 252.222 257.987Z" fill="#2B376C"/>
<path d="M246.763 257.987H248.856C249.032 257.987 249.175 257.836 249.175 257.65V256.589C249.175 256.403 249.032 256.252 248.856 256.252H246.763C246.587 256.252 246.445 256.403 246.445 256.589V257.65C246.445 257.836 246.587 257.987 246.763 257.987Z" fill="#2B376C"/>
<path d="M241.304 257.987H243.397C243.573 257.987 243.715 257.836 243.715 257.65V256.589C243.715 256.403 243.573 256.252 243.397 256.252H241.304C241.128 256.252 240.986 256.403 240.986 256.589V257.65C240.986 257.836 241.128 257.987 241.304 257.987Z" fill="#2B376C"/>
<path d="M235.845 257.987H237.938C238.114 257.987 238.256 257.836 238.256 257.65V256.589C238.256 256.403 238.114 256.252 237.938 256.252H235.845C235.669 256.252 235.527 256.403 235.527 256.589V257.65C235.527 257.836 235.669 257.987 235.845 257.987Z" fill="#2B376C"/>
<path d="M230.386 257.987H232.479C232.655 257.987 232.797 257.836 232.797 257.65V256.589C232.797 256.403 232.655 256.252 232.479 256.252H230.386C230.21 256.252 230.068 256.403 230.068 256.589V257.65C230.068 257.836 230.21 257.987 230.386 257.987Z" fill="#2B376C"/>
<path d="M224.926 257.987H227.02C227.195 257.987 227.338 257.836 227.338 257.65V256.589C227.338 256.403 227.195 256.252 227.02 256.252H224.926C224.751 256.252 224.608 256.403 224.608 256.589V257.65C224.608 257.836 224.751 257.987 224.926 257.987Z" fill="#2B376C"/>
<path d="M219.467 257.987H221.561C221.736 257.987 221.879 257.836 221.879 257.65V256.589C221.879 256.403 221.736 256.252 221.561 256.252H219.467C219.292 256.252 219.149 256.403 219.149 256.589V257.65C219.149 257.836 219.292 257.987 219.467 257.987Z" fill="#2B376C"/>
<path d="M214.008 257.987H216.101C216.277 257.987 216.419 257.836 216.419 257.65V256.589C216.419 256.403 216.277 256.252 216.101 256.252H214.008C213.832 256.252 213.69 256.403 213.69 256.589V257.65C213.69 257.836 213.832 257.987 214.008 257.987Z" fill="#2B376C"/>
<path d="M208.549 257.987H210.642C210.818 257.987 210.96 257.836 210.96 257.65V256.589C210.96 256.403 210.818 256.252 210.642 256.252H208.549C208.373 256.252 208.231 256.403 208.231 256.589V257.65C208.231 257.836 208.373 257.987 208.549 257.987Z" fill="#2B376C"/>
<path d="M203.09 257.987H205.183C205.359 257.987 205.501 257.836 205.501 257.65V256.589C205.501 256.403 205.359 256.252 205.183 256.252H203.09C202.914 256.252 202.772 256.403 202.772 256.589V257.65C202.772 257.836 202.914 257.987 203.09 257.987Z" fill="#2B376C"/>
<path d="M197.631 257.987H199.724C199.9 257.987 200.042 257.836 200.042 257.65V256.589C200.042 256.403 199.9 256.252 199.724 256.252H197.631C197.455 256.252 197.312 256.403 197.312 256.589V257.65C197.312 257.836 197.455 257.987 197.631 257.987Z" fill="#2B376C"/>
<path d="M192.171 257.987H194.265C194.44 257.987 194.583 257.836 194.583 257.65V256.589C194.583 256.403 194.44 256.252 194.265 256.252H192.171C191.996 256.252 191.853 256.403 191.853 256.589V257.65C191.853 257.836 191.996 257.987 192.171 257.987Z" fill="#2B376C"/>
<path d="M186.712 257.987H188.805C188.981 257.987 189.124 257.836 189.124 257.65V256.589C189.124 256.403 188.981 256.252 188.805 256.252H186.712C186.536 256.252 186.394 256.403 186.394 256.589V257.65C186.394 257.836 186.536 257.987 186.712 257.987Z" fill="#2B376C"/>
<path d="M181.253 257.987H183.346C183.522 257.987 183.665 257.836 183.665 257.65V256.589C183.665 256.403 183.522 256.252 183.346 256.252H181.253C181.077 256.252 180.935 256.403 180.935 256.589V257.65C180.935 257.836 181.077 257.987 181.253 257.987Z" fill="#2B376C"/>
<path d="M175.794 257.987H177.887C178.063 257.987 178.205 257.836 178.205 257.65V256.589C178.205 256.403 178.063 256.252 177.887 256.252H175.794C175.618 256.252 175.476 256.403 175.476 256.589V257.65C175.476 257.836 175.618 257.987 175.794 257.987Z" fill="#2B376C"/>
<path d="M170.335 257.987H172.428C172.604 257.987 172.746 257.836 172.746 257.65V256.589C172.746 256.403 172.604 256.252 172.428 256.252H170.335C170.159 256.252 170.016 256.403 170.016 256.589V257.65C170.016 257.836 170.159 257.987 170.335 257.987Z" fill="#2B376C"/>
<path d="M206.911 261.456H228.112C228.287 261.456 228.43 261.305 228.43 261.119V260.059C228.43 259.873 228.287 259.722 228.112 259.722H206.911C206.735 259.722 206.593 259.873 206.593 260.059V261.119C206.593 261.305 206.735 261.456 206.911 261.456Z" fill="#2B376C"/>
</g>
<defs>
<clipPath id="clip0_629_373">
<rect width="543" height="437" fill="white" transform="translate(0 0.5)"/>
</clipPath>
</defs>
</svg>
