<svg width="70" height="70" viewBox="0 0 70 70" fill="none" xmlns="http://www.w3.org/2000/svg">
<g clip-path="url(#clip0_617_1975)">
<path d="M6.18687 1.49427C6.90906 1.48727 6.90906 1.48727 7.64584 1.48014C8.17258 1.48063 8.69933 1.48113 9.24203 1.48164C9.79795 1.47796 10.3539 1.47429 10.9266 1.47051C12.7688 1.4601 14.6109 1.45798 16.4531 1.4568C17.7317 1.45329 19.0102 1.44961 20.2887 1.44577C22.9708 1.43922 25.6528 1.4372 28.3349 1.43785C31.7732 1.43796 35.2114 1.42303 38.6497 1.40419C41.291 1.39203 43.9323 1.38981 46.5736 1.39039C47.8413 1.3891 49.109 1.38425 50.3766 1.3758C52.1494 1.3651 53.9216 1.36823 55.6944 1.37483C56.2189 1.36868 56.7434 1.36253 57.2838 1.3562C59.5683 1.37783 60.8984 1.43258 62.896 2.61416C64.8621 4.80705 65.2143 6.271 65.235 9.20838C65.2424 9.85067 65.2497 10.493 65.2573 11.1547C65.2616 12.1913 65.2616 12.1913 65.266 13.2488C65.2782 14.3341 65.2905 15.4194 65.303 16.5047C65.3278 18.7952 65.3431 21.0858 65.36 23.3764C65.3744 25.2654 65.3908 27.1544 65.4127 29.0433C65.4286 30.4602 65.4398 31.877 65.4457 33.2939C65.453 33.9328 65.4603 34.5716 65.4679 35.2298C65.4739 36.0761 65.4739 36.0761 65.48 36.9394C65.4935 38.3784 65.4935 38.3784 66.7187 39.3749C66.9039 42.8326 66.9039 42.8326 66.1718 44.2968C67.065 45.2346 67.8309 45.9482 68.9574 46.6039C69.9999 47.578 69.9999 47.578 70.2135 49.1738C70.1881 49.7638 70.1628 50.3539 70.1366 50.9618C70.1169 51.5561 70.0971 52.1504 70.0768 52.7626C70.0514 53.2174 70.026 53.672 69.9999 54.1405C68.9171 54.6819 67.8343 55.2233 66.7187 55.7811C66.744 56.1837 66.7694 56.5862 66.7956 57.0009C66.9582 61.3976 66.9582 61.3976 65.6933 63.5058C63.8442 65.1373 62.7854 65.1404 60.3612 65.1122C59.5385 65.1048 59.5385 65.1048 58.6992 65.0972C58.2777 65.0909 57.8561 65.0846 57.4218 65.078C56.8804 66.1608 56.339 67.2436 55.7812 68.3593C53.5636 68.5476 51.429 68.6573 49.2187 68.3593C47.8173 66.7528 47.8173 66.7528 47.0312 65.078C46.219 64.8073 46.219 64.8073 45.3905 64.5311C45.2101 64.7116 45.0296 64.8921 44.8437 65.078C42.9875 65.3692 41.6393 65.4783 40.0136 64.435C39.1015 63.5399 39.1015 63.5399 37.7343 61.2499C37.9147 59.2647 38.0952 57.2796 38.2812 55.2343C34.1304 55.2343 29.9796 55.2343 25.703 55.2343C25.5226 54.3319 25.3421 53.4296 25.1561 52.4999C25.703 51.953 25.703 51.953 27.6705 51.8996C28.4844 51.9033 29.2983 51.9098 30.1122 51.9188C30.5271 51.9213 30.9419 51.9238 31.3694 51.9263C32.3973 51.9328 33.4252 51.9426 34.453 51.953C34.4305 51.3552 34.4079 50.7574 34.3847 50.1415C34.453 48.1249 34.453 48.1249 35.5468 46.4843C36.9823 46.1083 36.9823 46.1083 38.2812 45.9374C38.1648 45.4118 38.1648 45.4118 38.0462 44.8757C37.4082 41.1208 37.4082 41.1208 38.3324 39.2724C39.5439 37.789 40.5682 36.824 42.3485 36.0936C44.1322 36.0936 45.8234 36.3309 47.578 36.6405C47.6344 36.2119 47.6908 35.7833 47.7489 35.3417C48.1249 33.9061 48.1249 33.9061 49.7655 32.8124C52.011 32.494 54.0382 32.4957 56.0888 33.496C56.8749 34.453 56.8749 34.453 56.8749 36.6405C59.3112 36.3698 59.3112 36.3698 61.7968 36.0936C61.7968 31.7624 61.7968 27.4311 61.7968 22.9686C42.4866 22.9686 23.1765 22.9686 3.28115 22.9686C1.11059 38.5787 1.11059 38.5787 5.46865 51.4061C6.5722 51.6793 6.5722 51.6793 7.78218 51.686C8.44044 51.7151 8.44044 51.7151 9.11199 51.7447C9.56774 51.7571 10.0235 51.7694 10.4931 51.7821C10.9552 51.8008 11.4173 51.8195 11.8934 51.8387C13.0328 51.8838 14.1726 51.9193 15.3124 51.953C15.8935 52.9784 15.8935 52.9784 16.4061 54.1405C16.2257 54.5015 16.0452 54.8624 15.8593 55.2343C14.0137 55.2982 12.1685 55.3368 10.3222 55.371C9.8019 55.3893 9.28165 55.4076 8.74562 55.4265C5.55678 55.4708 3.55807 55.2986 1.09365 53.0468C-0.294008 51.0329 -0.161861 48.9021 -0.158987 46.5465C-0.162661 46.1141 -0.166334 45.6816 -0.170119 45.2361C-0.1805 43.8078 -0.182645 42.3797 -0.183821 40.9514C-0.187336 39.957 -0.191015 38.9626 -0.194852 37.9682C-0.2014 35.8838 -0.203428 33.7995 -0.20278 31.7152C-0.202669 29.0474 -0.217599 26.38 -0.236437 23.7124C-0.248612 21.6584 -0.250816 19.6045 -0.250238 17.5504C-0.251527 16.5671 -0.256354 15.5838 -0.26482 14.6005C-0.275566 13.2234 -0.272382 11.8469 -0.265799 10.4698C-0.271945 10.0657 -0.278091 9.66165 -0.284424 9.24532C-0.25064 6.45678 0.422049 4.87509 2.1874 2.73427C3.8874 1.60094 4.25908 1.50272 6.18687 1.49427ZM3.28115 7.10927C3.28115 11.2601 3.28115 15.4108 3.28115 19.6874C22.5913 19.6874 41.9015 19.6874 61.7968 19.6874C63.0546 8.33062 63.0546 8.33062 60.1562 4.92177C59.0814 4.59562 59.0814 4.59562 57.873 4.64399C57.4084 4.63783 56.9437 4.63166 56.465 4.6253C55.957 4.62973 55.449 4.63416 54.9256 4.63872C54.3893 4.63489 53.8529 4.63105 53.3003 4.6271C51.5238 4.61746 49.7477 4.62386 47.9711 4.63124C46.739 4.62977 45.5069 4.62765 44.2748 4.6249C41.6911 4.62167 39.1075 4.62637 36.5238 4.63658C33.2079 4.64905 29.8924 4.64187 26.5765 4.62877C24.0319 4.62087 21.4873 4.62338 18.9427 4.62905C17.7199 4.63051 16.4971 4.62871 15.2743 4.62362C13.5667 4.61808 11.8598 4.62652 10.1523 4.63872C9.64433 4.63429 9.13632 4.62986 8.61292 4.6253C8.14828 4.63147 7.68365 4.63764 7.20493 4.64399C6.59942 4.64523 6.59942 4.64523 5.98168 4.64649C4.59018 4.89032 4.59018 4.89032 3.28115 7.10927ZM50.8593 36.0936C50.848 36.511 50.8367 36.9283 50.8251 37.3583C50.3124 38.828 50.3124 38.828 48.6034 39.8534C46.5139 40.6278 44.8267 40.409 42.6562 39.9218C42.0222 40.8686 42.0222 40.8686 41.5624 42.1093C41.7147 42.7353 41.7147 42.7353 41.87 43.3739C42.2247 45.5529 41.5527 46.7928 40.4687 48.6718C38.9989 49.1845 38.9989 49.1845 37.7343 49.2186C37.7343 50.121 37.7343 51.0233 37.7343 51.953C38.1516 51.9643 38.5689 51.9756 38.9989 51.9872C40.4687 52.4999 40.4687 52.4999 41.4599 54.2772C42.0329 56.0867 42.2596 57.2082 42.1093 59.0624C42.1093 59.7843 42.1093 60.5061 42.1093 61.2499C43.6694 61.3313 43.6694 61.3313 44.7838 60.9273C46.2684 60.6387 47.1256 60.971 48.5351 61.4892C48.9721 61.6464 49.4092 61.8036 49.8595 61.9655C50.1894 62.0903 50.5194 62.2151 50.8593 62.3436C50.8593 63.246 50.8593 64.1483 50.8593 65.078C51.7616 65.078 52.664 65.078 53.5937 65.078C53.6952 64.6607 53.7967 64.2434 53.9013 63.8134C55.0215 61.7191 56.2952 61.3921 58.5155 60.703C59.7118 60.8739 59.7118 60.8739 60.703 61.2499C61.4249 61.2499 62.1468 61.2499 62.8905 61.2499C62.9967 59.2217 62.9967 59.2217 62.5594 57.9751C62.2774 56.5368 62.6125 55.8808 63.2665 54.5849C63.4491 54.2049 63.6317 53.8249 63.8198 53.4334C64.6998 52.2786 65.3088 52.1519 66.7187 51.953C66.7187 51.0507 66.7187 50.1483 66.7187 49.2186C65.8163 49.2186 64.914 49.2186 63.9843 49.2186C63.6783 48.2647 63.3844 47.3069 63.0956 46.3475C62.9306 45.8146 62.7657 45.2817 62.5957 44.7326C62.3151 43.0298 62.5019 42.4288 63.4374 41.0155C62.7155 40.6546 61.9937 40.2936 61.2499 39.9218C61.0694 40.1022 60.889 40.2827 60.703 40.4686C58.3877 40.246 56.1657 40.0193 54.1405 38.828C53.6962 37.3925 53.6962 37.3925 53.5937 36.0936C52.6913 36.0936 51.789 36.0936 50.8593 36.0936Z" fill="#EF4C43"/>
<path d="M56.4649 42.7246C58.6595 44.2209 60.2774 45.6204 61.0514 48.1848C61.5322 51.1835 61.1548 53.6969 59.6095 56.3281C57.557 58.436 55.3877 59.5208 52.4253 59.667C49.474 59.5317 47.7052 58.7204 45.5958 56.6549C43.698 54.4498 43.5015 52.1926 43.5813 49.3704C43.9122 46.9282 44.9144 45.1927 46.7622 43.5748C49.8386 41.5286 53.0462 41.5412 56.4649 42.7246ZM48.1251 47.0312C46.8541 48.7863 46.7712 50.3754 47.0313 52.5C48.1944 54.3276 49.2911 55.706 51.4063 56.3281C53.5907 56.2816 54.5071 55.9256 56.2257 54.5507C57.4722 52.9837 57.9688 52.2994 57.9688 50.3125C57.1249 48.0915 56.2888 46.4954 54.1407 45.3906C51.6177 45.0685 50.1314 45.4707 48.1251 47.0312Z" fill="#EF4C43"/>
<path d="M46.963 6.97276C47.9348 6.95584 47.9348 6.95584 48.9262 6.93858C49.5515 6.93576 50.1768 6.93294 50.821 6.93004C51.6774 6.92237 51.6774 6.92237 52.5511 6.91455C54.8993 7.2025 56.3197 8.19466 57.9689 9.84386C58.3162 12.8708 58.3162 12.8708 57.9689 14.2189C56.5347 15.9894 55.7208 16.859 53.4527 17.2984C52.7936 17.298 52.1346 17.2976 51.4555 17.2972C50.3732 17.2988 50.3732 17.2988 49.2691 17.3004C48.8961 17.2935 48.5231 17.2867 48.1389 17.2797C46.9981 17.2609 45.8597 17.2684 44.7189 17.279C39.1807 17.2384 39.1807 17.2384 37.537 15.9085C36.044 14.0049 35.8568 12.8092 36.0939 10.3907C38.7888 6.20891 42.436 6.99234 46.963 6.97276ZM39.3751 11.4845C39.5556 12.2064 39.736 12.9282 39.922 13.672C44.6142 13.672 49.3064 13.672 54.1407 13.672C54.3212 12.9501 54.5017 12.2282 54.6876 11.4845C53.2855 10.0824 52.7387 10.2502 50.7933 10.2455C49.9584 10.2434 49.9584 10.2434 49.1067 10.2412C48.5234 10.2454 47.94 10.2497 47.339 10.254C46.7577 10.2498 46.1765 10.2456 45.5777 10.2412C44.7418 10.2433 44.7418 10.2433 43.889 10.2455C43.3776 10.2467 42.8662 10.2479 42.3393 10.2492C40.8736 10.3026 40.8736 10.3026 39.3751 11.4845Z" fill="#EF4C43"/>
<path d="M27.3439 7.65613C28.6769 8.51062 28.6769 8.51062 29.5314 9.84363C29.9168 12.5415 29.9527 13.5866 28.4376 15.8593C26.165 17.3743 25.1199 17.3384 22.422 16.953C20.5941 15.7813 20.2937 14.9827 19.7218 12.8856C19.6833 10.6945 19.9433 9.8745 21.3282 8.203C23.2721 6.67566 25.0398 7.08011 27.3439 7.65613ZM24.6095 10.3905C24.0681 10.6612 24.0681 10.6612 23.5157 10.9374C23.6962 11.8397 23.8767 12.7421 24.0626 13.6718C24.7845 13.4913 25.5064 13.3108 26.2501 13.1249C26.0599 12.0446 26.0599 12.0446 25.7032 10.9374C25.3423 10.7569 24.9814 10.5764 24.6095 10.3905Z" fill="#EF4C43"/>
<path d="M15.3125 7.65621C16.6455 8.5107 16.6455 8.5107 17.5 9.84371C17.8883 12.5616 17.9327 13.5894 16.3721 15.8593C14.3485 17.2371 13.342 17.3395 10.9375 16.9531C9.06035 15.8921 8.36628 15.2346 7.65625 13.1933C7.65625 11.0751 8.13602 9.96437 9.29688 8.20308C11.201 6.63896 13.0274 7.08493 15.3125 7.65621ZM12.5781 10.3906C12.0367 10.6613 12.0367 10.6613 11.4844 10.9375C11.6648 11.8398 11.8453 12.7421 12.0312 13.6718C12.7531 13.4914 13.475 13.3109 14.2188 13.125C14.0285 12.0447 14.0285 12.0447 13.6719 10.9375C13.3109 10.757 12.95 10.5765 12.5781 10.3906Z" fill="#EF4C43"/>
<path d="M27.3437 31.1719C29.648 31.4425 30.6531 32.0193 32.1631 33.7695C32.659 34.3236 32.659 34.3236 33.165 34.8889C34.0843 36.3832 34.1985 37.101 33.9062 38.8281C33.0453 40.191 33.0453 40.191 31.8896 41.4941C31.5153 41.9326 31.141 42.3711 30.7553 42.8229C29.5312 43.75 29.5312 43.75 28.0167 43.6176C27.6141 43.4808 27.2116 43.344 26.7969 43.2031C26.9984 41.3891 27.17 40.6374 28.5059 39.3408C29.658 38.396 29.658 38.396 29.5312 37.1875C29.0178 35.9966 29.0178 35.9966 27.8223 35.0342C27.4839 34.662 27.1455 34.2897 26.7969 33.9062C26.9336 32.4023 26.9336 32.4023 27.3437 31.1719Z" fill="#EF4C43"/>
<path d="M13.5458 31.3044C14.1496 31.5095 14.1496 31.5095 14.7656 31.7188C14.4751 34.1878 13.4715 35.7365 12.0312 37.7344C12.4936 38.2195 12.9561 38.7045 13.4325 39.2042C14.7798 40.7974 14.7798 40.7974 14.663 42.588C14.5164 42.9715 14.3698 43.355 14.2187 43.7501C11.9145 43.4795 10.9094 42.9026 9.39935 41.1524C8.90341 40.5983 8.90341 40.5983 8.39746 40.033C7.47812 38.5388 7.36391 37.8209 7.65618 36.0938C8.51708 34.7309 8.51708 34.7309 9.67278 33.4278C10.2343 32.7701 10.2343 32.7701 10.8071 32.0991C12.0312 31.1719 12.0312 31.1719 13.5458 31.3044Z" fill="#EF4C43"/>
<path d="M21.3281 30.0781C22.4219 30.2148 22.4219 30.2148 23.5156 30.625C24.1274 32.4604 23.9862 33.0638 23.537 34.8996C23.353 35.6615 23.353 35.6615 23.1653 36.4388C23.0328 36.9678 22.9002 37.4969 22.7637 38.042C22.6354 38.5732 22.5071 39.1044 22.3749 39.6516C21.4147 43.5768 21.4147 43.5768 20.7812 44.8438C19.8789 44.6633 18.9766 44.4828 18.0469 44.2969C18.5123 32.8939 18.5123 32.8939 21.3281 30.0781Z" fill="#EF4C43"/>
<path d="M19.6875 51.9531C20.8154 52.1924 20.8154 52.1924 21.875 52.5C22.0555 53.2219 22.2359 53.9438 22.4219 54.6875C21.5195 54.868 20.6172 55.0484 19.6875 55.2344C19.4785 54.3287 19.2971 53.4163 19.1406 52.5C19.3211 52.3195 19.5016 52.1391 19.6875 51.9531Z" fill="#EF4C43"/>
</g>
<defs>
<clipPath id="clip0_617_1975">
<rect width="70" height="70" fill="white"/>
</clipPath>
</defs>
</svg>
