<svg width="80" height="80" viewBox="0 0 80 80" fill="none" xmlns="http://www.w3.org/2000/svg">
<g clip-path="url(#clip0_763_5960)">
<path d="M30.116 8.45162C11.4285 12.5141 -0.384034 30.8266 3.86597 49.0141C5.99097 58.0141 12.1785 66.3891 19.9285 70.8266C25.241 73.8891 32.6785 75.5766 38.9285 75.1391C46.866 74.5766 57.116 70.2016 55.366 68.0766C54.741 67.3266 54.366 67.3891 52.616 68.4516C50.241 69.9516 43.866 72.2016 42.1785 72.2016C41.241 72.2016 41.616 71.4516 44.116 68.5766C45.866 66.5766 47.3035 64.7016 47.3035 64.5141C47.3035 64.2641 46.741 64.0766 46.116 64.0766C45.4285 64.0766 43.366 65.7016 41.4285 67.6391L37.9285 71.2641V66.5766C37.9285 62.5766 37.741 61.7641 36.6785 61.0766C35.491 60.3266 35.4285 60.4516 35.4285 65.7641L35.366 71.2641L33.116 68.7641C31.9285 67.3891 29.9285 64.8266 28.8035 63.1391L26.6785 60.0141L30.0535 59.3891C33.0535 58.8266 33.366 58.6391 32.741 57.7641C32.1785 56.9516 31.241 56.8266 28.491 57.0766L24.991 57.3266L23.6785 54.0141C22.0535 49.8891 21.0535 46.1391 21.0535 44.2016C21.0535 42.8891 21.3035 42.8266 25.6785 42.8266C30.0535 42.8266 31.0535 42.3891 31.0535 40.5766C31.0535 40.4516 28.741 40.3266 25.866 40.3266H20.6785L21.116 36.3891C21.366 34.2016 22.1785 30.8266 22.9285 28.8266C24.241 25.3266 24.366 25.2016 26.3035 25.5766C27.366 25.7641 29.866 26.0766 31.866 26.3266L35.4285 26.7016V30.7016C35.4285 32.8891 35.6785 34.7016 35.9285 34.7016C37.1785 34.7016 37.9285 32.9516 37.9285 29.9516V26.7641L41.741 26.3266C48.4285 25.6391 48.241 25.5766 49.8035 29.3266C50.991 32.3891 52.5535 34.0141 53.4285 33.1391C53.616 33.0141 53.116 31.1391 52.366 29.0141C51.5535 26.9516 51.0535 25.1391 51.1785 25.0766C51.6785 24.7641 60.241 22.2016 60.8035 22.2016C62.491 22.2016 66.8035 31.7641 67.616 37.5141L68.0535 40.3266H63.991C60.241 40.3266 59.9285 40.4516 60.241 41.5766C60.5535 42.6391 61.116 42.8266 64.3035 42.8266H68.0535L67.616 45.7641C67.366 47.4516 66.616 50.3891 65.9285 52.4516C64.8035 55.6391 64.8035 56.2016 65.5535 57.0141C66.366 57.8266 66.6785 57.4516 67.8035 54.2641C70.8035 46.2016 71.116 40.7641 69.1785 33.0766C66.366 22.2641 58.616 13.7016 47.9285 9.82662C43.4285 8.20162 34.491 7.45162 30.116 8.45162ZM48.6785 12.8266C52.0535 14.0766 57.9285 18.1391 58.366 19.5141C58.616 20.2016 57.5535 20.5766 50.366 22.5766C49.616 22.7641 48.8035 22.0141 47.741 20.1391C46.866 18.6391 44.866 16.0141 43.3035 14.2641C41.741 12.5141 40.4285 10.9516 40.4285 10.7641C40.4285 10.2641 44.991 11.4516 48.6785 12.8266ZM29.991 13.5766C28.6785 15.0766 26.6785 17.5766 25.5535 19.2016C24.4285 20.8891 23.1785 22.2016 22.8035 22.2016C21.4285 22.2016 14.8035 20.1391 14.8035 19.7016C14.8035 19.2016 17.0535 17.2016 19.741 15.3266C22.3035 13.5766 28.866 11.0141 30.991 11.0141C32.366 10.9516 32.3035 11.0766 29.991 13.5766ZM35.4285 18.2016V24.2016L31.241 23.7641C28.866 23.5141 26.741 23.1391 26.491 23.0141C26.241 22.8266 26.741 21.7016 27.6785 20.4516C29.241 18.2641 34.866 12.2016 35.241 12.2016C35.366 12.2016 35.4285 14.8891 35.4285 18.2016ZM44.5535 20.0141L46.6785 23.1391L44.366 23.5766C43.0535 23.8266 41.0535 24.0141 39.991 24.0141L37.9285 24.0766V17.9516L37.991 11.8891L40.241 14.3891C41.4285 15.7641 43.4285 18.2641 44.5535 20.0141ZM17.366 23.5141C19.741 24.2641 21.6785 24.8891 21.6785 24.9516C21.6785 25.0141 21.116 26.7016 20.366 28.7641C19.6785 30.8266 18.866 34.1391 18.6785 36.2641L18.241 40.0141L11.741 40.2016L5.30347 40.3891L5.67847 37.5141C6.55347 31.8266 10.866 22.2016 12.491 22.2016C12.8035 22.2016 14.991 22.7641 17.366 23.5141ZM18.5535 44.7641C18.5535 45.8266 19.4285 49.2641 20.4285 52.3266C21.491 55.4516 22.241 58.0141 22.1785 58.0766C22.0535 58.1391 19.9285 58.8266 17.4285 59.6391C13.0535 61.0141 12.8035 61.0141 11.616 59.9516C9.99097 58.4516 7.55347 53.2641 6.36597 48.7641C4.80347 42.5141 4.49097 42.8266 11.991 42.8266H18.5535V44.7641ZM25.616 63.0141C26.491 64.5141 28.5535 67.2016 30.1785 69.0141C31.741 70.7641 32.991 72.3266 32.866 72.4516C32.366 72.8891 25.6785 70.8891 22.5535 69.3891C18.9285 67.6391 14.3035 63.7641 14.9285 63.1391C15.3035 62.7641 22.366 60.5141 23.6785 60.3891C23.866 60.3266 24.8035 61.5141 25.616 63.0141Z" fill="white"/>
<path d="M41.1784 34.8889C34.5534 37.3264 30.7409 44.3264 32.3659 51.0764C34.1159 58.6389 43.2409 63.5139 50.0534 60.7014C52.0534 59.8889 52.3034 59.8889 53.4909 61.2014C54.2409 61.9514 54.8034 63.0139 54.8034 63.5139C54.8034 64.8889 69.8659 79.5139 71.8034 80.0139C74.8034 80.7639 77.8659 78.2639 77.9284 75.0764C77.9284 73.5764 76.5534 71.8889 69.9909 65.2014C65.6159 60.8264 61.6159 57.2014 61.0534 57.2014C60.4284 57.2014 59.4909 56.6389 58.8659 55.9514C57.8659 54.8889 57.8659 54.4514 58.5534 51.8889C61.5534 41.2014 51.3659 31.2014 41.1784 34.8889ZM49.6159 37.5139C52.7409 38.8264 54.1159 40.1389 55.4909 43.1389C57.8659 48.2639 56.3659 53.6389 51.7409 56.8264C46.7409 60.3264 40.1159 59.3889 36.6784 54.6389C30.0534 45.4514 39.3659 33.2639 49.6159 37.5139ZM57.8034 60.1389C57.2409 60.8264 56.8659 60.7639 55.6784 59.6389C54.4909 58.5764 54.3659 58.0764 54.9284 57.3889C55.4909 56.7014 55.8659 56.7639 57.0534 57.8889C58.2409 58.9514 58.3659 59.4514 57.8034 60.1389ZM75.4284 75.3264C75.4284 76.5764 74.1784 77.8264 72.9909 77.8264C72.4284 77.8264 68.8659 74.7014 64.9909 70.8264L57.9284 63.8264L59.6159 62.0764L61.3034 60.3264L68.3659 67.3264C72.2409 71.2014 75.4284 74.8264 75.4284 75.3264Z" fill="white"/>
</g>
<defs>
<clipPath id="clip0_763_5960">
<rect width="80" height="80" fill="white"/>
</clipPath>
</defs>
</svg>
