<svg width="70" height="70" viewBox="0 0 70 70" fill="none" xmlns="http://www.w3.org/2000/svg">
<g clip-path="url(#clip0_617_1946)">
<path d="M28.9844 9.20892e-05C28.9844 0.721967 28.9844 1.44384 28.9844 2.18759C28.5361 2.23482 28.0877 2.28206 27.6258 2.33072C27.0365 2.40756 26.4471 2.4844 25.8399 2.56357C25.2562 2.63336 24.6725 2.70315 24.0711 2.77506C21.904 3.44036 21.3067 4.01544 20.2344 6.01572C19.9831 7.81543 20.0274 9.56942 20.0977 11.3819C20.1125 12.1068 20.1125 12.1068 20.1276 12.8463C20.1533 14.0332 20.1925 15.2199 20.2344 16.4063C22.5472 16.4541 24.8598 16.4832 27.1729 16.5089C27.8282 16.5226 28.4834 16.5364 29.1585 16.5505C30.1076 16.5585 30.1076 16.5585 31.0758 16.5666C31.9479 16.5794 31.9479 16.5794 32.8375 16.5926C34.7001 16.3779 35.6922 15.8805 37.1876 14.7657C37.5485 14.2243 37.9094 13.6829 38.2813 13.1251C39.0032 13.3056 39.7251 13.486 40.4688 13.672C40.7395 15.0255 40.7395 15.0255 41.0157 16.4063C42.0985 16.677 42.0985 16.677 43.2032 16.9532C43.0227 13.8853 42.8422 10.8173 42.6563 7.65634C41.393 7.11494 40.1297 6.57353 38.8282 6.01572C38.0421 4.27255 38.0421 4.27255 37.7344 2.73447C34.7567 2.46376 34.7567 2.46376 31.7188 2.18759C31.7188 1.46572 31.7188 0.743842 31.7188 9.20892e-05C32.7663 -0.0591998 33.8148 -0.101507 34.8633 -0.136627C35.7389 -0.174694 35.7389 -0.174694 36.6321 -0.213531C38.6504 0.0478999 39.2366 0.606582 40.4688 2.18759C40.879 3.41806 40.879 3.41806 41.0157 4.37509C41.4217 4.32998 41.8278 4.28486 42.2462 4.23837C43.7501 4.37509 43.7501 4.37509 44.9186 5.13773C46.467 7.30294 46.2433 9.39758 46.2452 11.9972C46.2198 16.3728 46.2198 16.3728 48.1251 20.2345C48.1251 20.7759 48.1251 21.3173 48.1251 21.8751C48.8357 21.83 49.5462 21.7849 50.2784 21.7384C53.8513 21.7384 56.5118 23.1354 59.4727 25.0196C63.1174 28.6644 64.1425 32.2337 64.1589 37.3134C64.1035 40.2767 63.6523 42.5154 61.7969 44.8438C61.3232 45.2337 60.8495 45.6235 60.3614 46.0252C58.5712 48.1658 58.7449 49.7042 58.8917 52.3976C58.904 52.8286 58.9163 53.2597 58.929 53.7039C58.9611 54.7614 59.0101 55.8184 59.0626 56.8751C58.1602 57.0556 57.2579 57.236 56.3282 57.422C56.3282 54.8954 56.3282 52.3688 56.3282 49.7657C53.6212 50.3071 53.6212 50.3071 50.8594 50.8595C50.8594 55.0103 50.8594 59.161 50.8594 63.4376C51.9422 63.7083 51.9422 63.7083 53.0469 63.9845C53.0469 65.2478 53.0469 66.511 53.0469 67.8126C53.9493 67.6321 54.8516 67.4517 55.7813 67.2657C55.9618 64.9196 56.1422 62.5735 56.3282 60.1563C57.0501 60.1563 57.7719 60.1563 58.5157 60.1563C59.5334 61.1741 59.1811 62.7925 59.1993 64.1554C59.2134 64.7849 59.2275 65.4144 59.242 66.063C59.0373 68.0591 58.9019 68.6634 57.4219 70.0001C55.7603 70.2141 54.2967 70.2879 52.6345 70.2658C51.9007 70.2689 51.9007 70.2689 51.1521 70.2721C49.5326 70.2761 47.9137 70.2644 46.2943 70.2522C45.1713 70.2509 44.0482 70.2504 42.9252 70.2507C40.5708 70.2489 38.2167 70.2399 35.8624 70.2252C32.8396 70.2066 29.817 70.2024 26.7941 70.2033C24.4751 70.203 22.1562 70.197 19.8372 70.189C18.7224 70.1856 17.6075 70.1834 16.4926 70.1826C14.937 70.1802 13.3816 70.1707 11.8261 70.159C11.3622 70.1595 10.8982 70.16 10.4202 70.1605C7.23465 70.1253 7.23465 70.1253 6.01569 68.9063C5.89956 67.3757 5.84946 65.9006 5.8512 64.369C5.84886 63.9171 5.84651 63.4651 5.8441 62.9995C5.84095 62.0415 5.84069 61.0834 5.84306 60.1254C5.84478 58.6657 5.83199 57.2067 5.81809 55.7472C5.81684 54.8158 5.81646 53.8844 5.81702 52.953C5.81198 52.5188 5.80695 52.0846 5.80176 51.6372C5.82754 48.5165 6.40989 46.1951 8.59626 43.8249C8.91772 43.5633 9.23918 43.3018 9.57038 43.0323C10.0526 42.6294 10.0526 42.6294 10.5445 42.2184C11.4844 41.5626 11.4844 41.5626 13.1251 41.0157C13.6821 40.1105 14.2287 39.1987 14.7657 38.2813C16.3863 37.2009 16.7783 37.0433 18.6002 36.9612C19.0144 36.94 19.4285 36.9189 19.8553 36.8971C20.2849 36.8801 20.7146 36.8632 21.1573 36.8458C21.5933 36.8246 22.0293 36.8035 22.4785 36.7817C23.5532 36.7302 24.6282 36.6849 25.7032 36.6407C25.7032 35.7384 25.7032 34.836 25.7032 33.9063C25.2295 33.7541 25.2295 33.7541 24.7462 33.5987C22.9844 32.4731 22.0936 30.9144 21.3282 28.9845C21.3282 28.2626 21.3282 27.5407 21.3282 26.797C20.9109 26.7406 20.4935 26.6842 20.0635 26.6261C18.4042 26.2016 17.8774 26.0419 16.9532 24.6095C16.5357 22.4874 16.2789 20.917 16.6755 18.7925C17.1151 15.8809 16.935 12.9688 16.8357 10.0318C16.7739 6.30073 17.4714 4.09314 19.8926 1.1622C22.4237 -0.858803 25.9408 -0.203119 28.9844 9.20892e-05ZM36.9141 18.2734C34.2915 19.4618 31.9008 19.4492 29.0528 19.5167C28.2534 19.5447 28.2534 19.5447 27.4378 19.5733C26.1305 19.6182 24.8234 19.6561 23.5157 19.6876C23.3019 24.5104 23.2633 27.776 26.421 31.6163C28.6309 33.4151 30.6018 34.0351 33.4278 34.0089C34.5647 33.885 34.5647 33.885 35.5469 33.3595C36.3017 32.1951 36.7257 31.056 37.1833 29.7471C37.7758 28.3393 38.4268 27.615 39.5118 26.5577C40.9546 24.9901 41.29 23.867 41.3917 21.7384C41.266 19.8237 41.1857 19.3257 39.8536 17.8761C38.2612 17.3066 38.2612 17.3066 36.9141 18.2734ZM20.2344 19.6876C19.8735 20.0485 19.5126 20.4095 19.1407 20.7813C19.3159 22.2048 19.3159 22.2048 19.6876 23.5157C20.229 23.6962 20.7704 23.8767 21.3282 24.0626C21.3282 22.6188 21.3282 21.1751 21.3282 19.6876C20.9673 19.6876 20.6063 19.6876 20.2344 19.6876ZM43.2032 19.6876C43.2032 20.7704 43.2032 21.8532 43.2032 22.9688C43.9251 22.7884 44.6469 22.6079 45.3907 22.422C45.2102 21.5196 45.0297 20.6173 44.8438 19.6876C44.3024 19.6876 43.761 19.6876 43.2032 19.6876ZM40.5714 28.3351C38.194 31.7993 37.3165 34.6813 37.7344 38.8282C37.9149 39.3696 38.0954 39.911 38.2813 40.4688C40.1626 39.6626 41.4211 38.8345 42.6563 37.1876C42.987 35.8115 43.2124 34.4324 43.4467 33.0369C43.8596 31.243 44.6068 30.2369 45.9376 28.9845C47.5959 27.9754 48.7929 27.7656 50.7227 27.8224C51.1598 27.8322 51.5969 27.8421 52.0472 27.8523C52.3771 27.865 52.707 27.8776 53.0469 27.8907C53.44 28.8478 53.44 28.8478 53.5938 30.0782C52.6919 31.3063 51.6535 32.2915 50.5689 33.3595C49.6153 34.3954 49.6153 34.3954 49.9195 35.6837C50.0492 35.9995 50.1789 36.3153 50.3126 36.6407C51.8894 35.9983 52.6487 35.3869 53.8331 34.1114C55.2344 32.8126 55.2344 32.8126 56.6892 32.7314C57.1115 32.7582 57.5337 32.785 57.9688 32.8126C58.1661 35.5857 58.2761 37.6667 57.0118 40.1954C55.2533 42.1493 55.2533 42.1493 53.5938 42.6563C52.9058 42.6902 52.2177 42.724 51.5089 42.7589C48.621 43.0298 47.1697 44.902 45.3907 47.0313C46.782 48.4226 47.3553 48.3033 49.2872 48.3302C53.5236 48.2306 56.0828 46.9301 58.9942 43.8868C61.2652 41.0869 62.0003 38.5072 61.6944 34.9317C60.782 30.5805 58.7253 28.3029 55.2344 25.7032C50.3602 22.6681 44.3341 24.5723 40.5714 28.3351ZM45.9376 32.2657C45.0553 34.0302 45.0691 35.8267 45.3907 37.7345C46.7023 39.5476 47.6168 40.2958 49.7315 41.0157C51.815 41.0157 52.9403 40.487 54.6876 39.3751C55.0485 38.8337 55.4094 38.2923 55.7813 37.7345C55.6008 37.1931 55.4204 36.6517 55.2344 36.0938C54.693 36.7875 54.693 36.7875 54.1407 37.4952C52.5001 38.8282 52.5001 38.8282 51.3444 38.888C50.2622 38.742 49.1915 38.5163 48.1251 38.2813C47.1135 35.5356 47.1135 35.5356 47.0313 33.9063C47.7546 32.3646 48.6282 31.3783 49.7657 30.0782C48.0355 30.0782 47.2016 31.1637 45.9376 32.2657ZM27.8907 35.547C27.8907 36.0884 27.8907 36.6298 27.8907 37.1876C30.2368 37.1876 32.5829 37.1876 35.0001 37.1876C35.0001 36.8267 35.0001 36.4657 35.0001 36.0938C32.654 35.9134 30.3079 35.7329 27.8907 35.547ZM16.4063 40.4688C16.351 42.1194 16.3299 43.7571 16.3337 45.4078C16.3332 45.9034 16.3326 46.399 16.3321 46.9096C16.3317 47.9597 16.3327 49.0097 16.335 50.0597C16.3379 51.6729 16.335 53.2859 16.3315 54.8991C16.3319 55.9166 16.3326 56.9342 16.3337 57.9518C16.3326 58.4377 16.3315 58.9236 16.3303 59.4242C16.1188 61.6046 16.1188 61.6046 16.9532 63.4376C17.9038 63.4974 18.8568 63.5191 19.8092 63.5257C20.7235 63.5336 20.7235 63.5336 21.6564 63.5416C22.32 63.544 22.9836 63.5463 23.6674 63.5487C24.6819 63.5534 24.6819 63.5534 25.717 63.5581C27.1509 63.5633 28.5849 63.5669 30.0188 63.569C31.493 63.5714 32.9671 63.579 34.4413 63.5914C36.5581 63.608 38.6746 63.6138 40.7914 63.617C41.4539 63.6238 42.1164 63.6305 42.799 63.6375C43.716 63.635 43.716 63.635 44.6514 63.6325C45.1914 63.6345 45.7314 63.6365 46.2877 63.6386C46.7136 63.5723 47.1394 63.5059 47.5782 63.4376C48.7463 61.6854 48.8043 61.2523 48.7787 59.2442C48.7735 58.5119 48.7735 58.5119 48.7681 57.7648C48.7589 57.2569 48.7497 56.749 48.7403 56.2257C48.7354 55.7114 48.7304 55.1972 48.7253 54.6673C48.7125 53.3979 48.6945 52.1287 48.6719 50.8595C48.2426 50.7396 47.8133 50.6198 47.371 50.4963C43.1359 49.218 39.7399 48.0267 37.5196 44.0142C37.2853 43.528 37.0509 43.0419 36.8094 42.541C36.5708 42.0501 36.3321 41.5592 36.0862 41.0534C35.8193 40.4933 35.8193 40.4933 35.5469 39.922C32.9089 39.9085 30.2709 39.8985 27.6329 39.8919C26.7348 39.8892 25.8367 39.8854 24.9386 39.8807C23.6504 39.8741 22.3622 39.871 21.074 39.8686C20.6701 39.8657 20.2662 39.8629 19.8501 39.86C17.9706 39.6889 17.9706 39.6889 16.4063 40.4688ZM43.2032 39.922C42.34 40.7735 42.34 40.7735 41.4942 41.836C41.1995 42.1913 40.9049 42.5466 40.6013 42.9127C40.3771 43.189 40.1529 43.4654 39.9219 43.7501C41.2755 44.8329 41.2755 44.8329 42.6563 45.9376C43.7391 44.6743 44.8219 43.411 45.9376 42.1095C45.192 40.9939 45.192 40.9939 44.2969 39.922C43.936 39.922 43.5751 39.922 43.2032 39.922ZM12.0313 44.297C9.03934 47.4349 8.06286 49.8643 8.07715 54.2689C8.0774 54.64 8.07765 55.0112 8.07791 55.3935C8.07956 56.173 8.08384 56.9525 8.09064 57.732C8.10068 58.9297 8.10185 60.1271 8.10172 61.3249C7.75759 64.8372 7.75759 64.8372 8.75006 67.8126C9.66125 67.8348 10.5733 67.836 11.4844 67.8126C11.6649 66.5493 11.8454 65.286 12.0313 63.9845C12.8434 63.7138 12.8434 63.7138 13.6719 63.4376C13.6719 57.1212 13.6719 50.8048 13.6719 44.297C13.1305 44.297 12.5891 44.297 12.0313 44.297ZM13.6719 66.172C13.8524 66.7134 14.0329 67.2548 14.2188 67.8126C26.1298 67.8126 38.0407 67.8126 50.3126 67.8126C50.493 67.2712 50.6735 66.7298 50.8594 66.172C38.5876 66.172 26.3157 66.172 13.6719 66.172Z" fill="#EF4C43"/>
<path d="M30.1144 51.3528C30.7901 51.3623 30.7901 51.3623 31.4795 51.372C31.9314 51.3769 32.3832 51.3819 32.8488 51.387C33.1978 51.3933 33.5467 51.3997 33.9062 51.4062C34.2139 52.4658 34.2139 52.4658 34.4531 53.5937C33.9062 54.1406 33.9062 54.1406 32.8958 54.194C31.7743 54.1762 30.6528 54.1584 29.5312 54.1406C29.1703 53.4187 28.8094 52.6968 28.4375 51.9531C28.9844 51.4062 28.9844 51.4062 30.1144 51.3528Z" fill="#EF4C43"/>
</g>
<defs>
<clipPath id="clip0_617_1946">
<rect width="70" height="70" fill="white"/>
</clipPath>
</defs>
</svg>
