<svg width="50" height="50" viewBox="0 0 50 50" fill="none" xmlns="http://www.w3.org/2000/svg">
<g clip-path="url(#clip0_754_1245)">
<path d="M16.1694 0.745296C16.3799 0.74487 16.5902 0.741323 16.8007 0.737618C17.7383 0.729986 18.4719 0.853477 19.2627 1.38574C19.8173 1.95301 20.3062 2.61651 20.3163 3.43537C20.315 3.52639 20.3138 3.6174 20.3125 3.71117C20.4097 3.69752 20.5068 3.68386 20.607 3.66979C22.9078 3.34649 25.2087 3.02419 27.5098 2.703C28.9476 2.5023 30.3853 2.30091 31.8229 2.0983C32.9225 1.94334 34.0221 1.7892 35.1219 1.63573C35.7491 1.54817 36.3762 1.46023 37.0032 1.37138C37.5973 1.28722 38.1914 1.20409 38.7857 1.1217C39.004 1.09125 39.2222 1.06044 39.4404 1.02923C42.7973 0.549687 42.7973 0.549687 43.7446 1.11108C44.3797 1.61334 44.7075 2.26013 44.8059 3.05736C44.8135 3.124 44.821 3.19065 44.8288 3.25931C44.8375 3.3315 44.8462 3.40369 44.8552 3.47807C44.8844 3.72182 44.9127 3.96566 44.941 4.20952C44.9621 4.38724 44.9833 4.56496 45.0046 4.74267C45.0634 5.23627 45.1214 5.72997 45.1793 6.22369C45.2425 6.762 45.3065 7.30022 45.3704 7.83845C45.4845 8.79962 45.598 9.76085 45.7114 10.7221C45.8908 12.2429 46.0718 13.7634 46.2529 15.284C46.5918 18.1284 46.9292 20.973 47.2653 23.8178C47.312 24.2129 47.3587 24.608 47.4054 25.0031C47.4147 25.0815 47.4239 25.16 47.4335 25.2408C47.5863 26.5333 47.7398 27.8257 47.8936 29.1181C48.0542 30.4675 48.214 31.817 48.3731 33.1665C48.47 33.9884 48.5675 34.8101 48.6657 35.6318C48.7324 36.1898 48.7983 36.7479 48.8636 37.306C48.9011 37.626 48.939 37.9459 48.9776 38.2657C49.2424 40.4636 49.2424 40.4636 49.261 41.5224C49.2643 41.6232 49.2643 41.6232 49.2677 41.7261C49.2653 42.3312 49.0308 42.8156 48.6568 43.2787C47.778 44.0455 46.6989 44.2191 45.5784 44.414C45.4473 44.4374 45.3162 44.461 45.1851 44.4846C44.9128 44.5334 44.6404 44.5816 44.3679 44.6293C44.0192 44.6903 43.6706 44.7525 43.3221 44.8151C43.0525 44.8635 42.7828 44.9115 42.5131 44.9594C42.3222 44.9933 42.1314 45.0273 41.9405 45.0613C41.8248 45.0816 41.709 45.1018 41.5897 45.1227C41.488 45.1406 41.3863 45.1585 41.2815 45.1769C41.0156 45.2151 41.0156 45.2151 40.625 45.2151C40.627 45.3037 40.6291 45.3924 40.6312 45.4837C40.6378 45.8146 40.6427 46.1454 40.6464 46.4763C40.6484 46.6192 40.651 46.762 40.6544 46.9048C40.6592 47.1109 40.6614 47.3168 40.6631 47.523C40.6652 47.6467 40.6672 47.7705 40.6693 47.898C40.6026 48.4163 40.3849 48.6914 40.0044 49.0376C39.5264 49.3425 38.957 49.2726 38.4103 49.2686C38.2212 49.2695 38.2212 49.2695 38.0282 49.2704C37.6788 49.2721 37.3294 49.2713 36.98 49.27C36.603 49.2692 36.2259 49.2705 35.8489 49.2716C35.1105 49.2733 34.3721 49.273 33.6337 49.2718C33.0336 49.271 32.4335 49.2708 31.8334 49.2713C31.748 49.2713 31.6627 49.2714 31.5747 49.2714C31.4012 49.2716 31.2277 49.2717 31.0542 49.2718C29.4274 49.2729 27.8005 49.2717 26.1736 49.2696C24.7776 49.2678 23.3816 49.2681 21.9856 49.2699C20.3646 49.272 18.7435 49.2728 17.1225 49.2716C16.9497 49.2715 16.7768 49.2714 16.604 49.2713C16.5189 49.2712 16.4339 49.2711 16.3463 49.2711C15.7469 49.2707 15.1475 49.2713 14.5481 49.2722C13.8177 49.2733 13.0873 49.273 12.3568 49.2709C11.9841 49.2699 11.6115 49.2695 11.2387 49.2708C10.8348 49.2722 10.431 49.2705 10.0271 49.2686C9.90912 49.2695 9.79116 49.2703 9.66962 49.2712C9.05495 49.2654 8.66769 49.2476 8.20309 48.8284C8.04263 48.6413 7.93877 48.4562 7.81247 48.2424C7.74411 48.2845 7.67576 48.3265 7.60533 48.3698C7.31903 48.5384 7.02891 48.6912 6.73214 48.8406C6.5824 48.9165 6.5824 48.9165 6.42964 48.9939C5.56514 49.3911 4.30635 49.3665 3.41183 49.0603C2.23253 48.5438 1.48089 47.814 0.971188 46.6326C0.603856 45.6551 0.643311 44.388 1.02917 43.4233C1.07625 43.3378 1.12333 43.2524 1.17184 43.1643C1.20312 43.1024 1.23439 43.0405 1.26661 42.9767C1.59401 42.4048 1.97877 42.1121 2.54006 41.7764C4.74976 40.4541 7.08491 38.5362 7.81752 35.9684C8.31351 33.7702 8.30588 31.4727 8.30418 29.2304C8.30418 29.1082 8.30418 29.1082 8.30417 28.9835C8.30267 26.862 8.24345 24.7431 8.16528 22.6232C8.12035 21.3922 8.0895 20.1614 8.0685 18.9298C8.06626 18.7988 8.06626 18.7988 8.06398 18.6651C8.05509 18.1395 8.04667 17.6139 8.0384 17.0883C8.02631 16.3238 8.01353 15.5593 8.0003 14.7948C7.99889 14.7126 7.99748 14.6304 7.99603 14.5458C7.97631 13.4128 7.94847 12.2804 7.91329 11.1478C7.90622 10.9184 7.8994 10.689 7.89268 10.4596C7.89051 10.3858 7.88834 10.312 7.88611 10.2359C7.88182 10.0898 7.87753 9.94357 7.87325 9.79738C7.86086 9.38016 7.84662 8.96306 7.83095 8.54595C7.81971 8.23415 7.81102 7.92227 7.80187 7.61039C7.79705 7.49989 7.79223 7.38939 7.78726 7.27554C7.77199 6.6687 7.79043 6.31805 8.20309 5.85961C8.68162 5.44206 9.05282 5.41523 9.65802 5.43084C9.73956 5.43139 9.82109 5.43195 9.9051 5.43252C10.1638 5.43469 10.4224 5.43959 10.6811 5.44457C10.8572 5.44653 11.0333 5.44832 11.2095 5.44991C11.6397 5.45421 12.0698 5.46094 12.5 5.46899C12.4969 5.37016 12.4969 5.37016 12.4938 5.26934C12.4856 4.96562 12.4805 4.66193 12.4756 4.35815C12.4723 4.25454 12.469 4.15094 12.4656 4.0442C12.4541 3.10468 12.6571 2.31394 13.3102 1.61462C14.167 0.844286 15.0553 0.745044 16.1694 0.745296ZM14.4592 2.90551C14.0859 3.49379 14.0343 4.05478 14.0503 4.73046C14.0543 4.97417 14.0583 5.21789 14.0625 5.46899C14.5781 5.46899 15.0937 5.46899 15.625 5.46899C15.625 4.95336 15.625 4.43774 15.625 3.90649C16.1406 3.90649 16.6562 3.90649 17.1875 3.90649C17.1875 4.42211 17.1875 4.93774 17.1875 5.46899C17.7031 5.46899 18.2187 5.46899 18.75 5.46899C18.8449 4.09844 18.8449 4.09844 18.3311 2.87347C17.7963 2.37586 17.1188 2.30756 16.4184 2.31347C16.35 2.31402 16.2816 2.31457 16.2112 2.31514C15.5369 2.33091 14.936 2.39307 14.4592 2.90551ZM39.5253 2.71058C39.3154 2.73951 39.1055 2.76837 38.8956 2.79717C38.3282 2.87521 37.761 2.95414 37.1937 3.03323C36.6 3.11586 36.0062 3.19767 35.4123 3.27957C34.2889 3.43462 33.1656 3.59041 32.0424 3.74648C30.7631 3.92417 29.4838 4.10104 28.2044 4.27785C25.5736 4.64142 22.943 5.00603 20.3125 5.37133C20.3125 5.40356 20.3125 5.43578 20.3125 5.46899C20.4116 5.46913 20.5107 5.46927 20.6128 5.46942C23.0237 5.47299 25.4345 5.4788 27.8454 5.48695C29.0113 5.49084 30.1771 5.494 31.343 5.49545C32.3591 5.49672 33.3752 5.49935 34.3913 5.50362C34.9294 5.50583 35.4674 5.50736 36.0055 5.50726C36.5119 5.50718 37.0183 5.50893 37.5248 5.51207C37.7106 5.5129 37.8965 5.51307 38.0824 5.51252C38.3363 5.51188 38.59 5.51362 38.8439 5.51596C38.9174 5.5152 38.9909 5.51445 39.0667 5.51366C39.567 5.52183 39.8545 5.63326 40.2343 5.95727C40.5164 6.34061 40.5641 6.6132 40.5649 7.08518C40.5654 7.1484 40.5659 7.21162 40.5664 7.27675C40.5677 7.48888 40.567 7.70095 40.5662 7.91308C40.5668 8.06657 40.5674 8.22006 40.5682 8.37355C40.57 8.79556 40.5699 9.21755 40.5696 9.63956C40.5695 10.0946 40.5711 10.5495 40.5725 11.0045C40.5748 11.7929 40.5759 12.5813 40.5764 13.3697C40.577 14.5096 40.5792 15.6494 40.5819 16.7893C40.5861 18.6386 40.589 20.4879 40.5911 22.3372C40.5932 24.1338 40.5958 25.9303 40.5993 27.7269C40.5995 27.8376 40.5998 27.9483 40.6 28.0624C40.6011 28.6178 40.6022 29.1733 40.6033 29.7287C40.6124 34.3374 40.6194 38.9462 40.625 43.5549C41.0244 43.4884 41.4239 43.4219 41.8234 43.3554C41.9588 43.3328 42.0943 43.3103 42.2297 43.2877C43.2581 43.1166 44.2861 42.9443 45.3125 42.7615C45.38 42.7499 45.4476 42.7383 45.5172 42.7263C45.7177 42.6919 45.9179 42.6562 46.1181 42.6203C46.2314 42.6004 46.3447 42.5805 46.4615 42.56C46.9466 42.4382 47.2772 42.3168 47.5586 41.8948C47.6517 40.9531 47.5058 39.9958 47.3937 39.0609C47.3757 38.9065 47.3578 38.752 47.3399 38.5975C47.2911 38.1763 47.2413 37.7552 47.1913 37.3341C47.1375 36.8787 47.0845 36.4232 47.0313 35.9677C46.9273 35.0769 46.8225 34.1861 46.7173 33.2954C46.6319 32.5716 46.5467 31.8477 46.4617 31.1238C46.4496 31.0207 46.4375 30.9175 46.425 30.8112C46.4004 30.6016 46.3758 30.392 46.3512 30.1824C46.1207 28.2193 45.8893 26.2563 45.6575 24.2934C45.4455 22.4974 45.2347 20.7013 45.0244 18.9052C44.8084 17.0598 44.5915 15.2146 44.3739 13.3694C44.2517 12.3339 44.1299 11.2983 44.0089 10.2627C43.9059 9.38162 43.8022 8.50064 43.6975 7.61977C43.6441 7.17038 43.5911 6.72095 43.539 6.27142C43.4913 5.85992 43.4426 5.44854 43.3931 5.03724C43.3754 4.88846 43.358 4.73964 43.341 4.59077C43.3179 4.38829 43.2935 4.18601 43.2687 3.98372C43.2555 3.87134 43.2422 3.75897 43.2286 3.64319C43.1377 3.18887 43.0102 2.77611 42.6757 2.44164C41.666 2.28255 40.5265 2.57 39.5253 2.71058ZM14.0625 7.03149C14.0545 7.40995 14.0487 7.78824 14.0442 8.16674C14.0417 8.27362 14.0392 8.38049 14.0367 8.49061C14.0264 9.26784 14.0264 9.26784 14.3554 9.96117C14.6329 10.0999 14.8295 10.0895 15.1367 10.0588C15.4148 9.84086 15.5127 9.71216 15.625 9.37524C15.633 9.19495 15.6355 9.01439 15.6345 8.83393C15.634 8.67673 15.634 8.67673 15.6335 8.51636C15.6327 8.40703 15.6319 8.2977 15.6311 8.18505C15.6306 8.07459 15.6302 7.96412 15.6297 7.85031C15.6286 7.57737 15.6268 7.30443 15.625 7.03149C15.1093 7.03149 14.5937 7.03149 14.0625 7.03149ZM9.37497 7.03149C9.37497 16.1516 9.37497 25.2717 9.37497 34.6682C9.87167 34.2425 10.1323 34.0109 10.4763 33.5093C11.8522 31.6718 13.724 30.8147 15.839 30.0959C15.9133 30.0703 15.9877 30.0447 16.0643 30.0183C20.0467 28.6557 24.0393 28.7044 28.2031 28.7918C29.2208 28.8127 30.2385 28.8192 31.2565 28.825C33.3379 28.8371 35.4188 28.8662 37.5 28.9065C37.5 29.4221 37.5 29.9377 37.5 30.469C32.0215 30.469 26.5429 30.469 20.8984 30.469C19.7866 33.8044 19.7866 33.8044 18.6523 37.2073C17.2012 38.9149 15.8484 40.43 14.1975 41.9023C13.5365 42.4944 12.8907 43.1033 12.2454 43.7124C12.1937 43.7613 12.1419 43.8101 12.0886 43.8604C11.9856 43.9577 11.8825 44.0551 11.7795 44.1525C11.4823 44.4328 11.1815 44.7084 10.8767 44.9804C10.6461 45.187 10.4189 45.3974 10.191 45.6069C10.0661 45.7148 10.0661 45.7148 9.93877 45.8249C9.67492 46.0593 9.67492 46.0593 9.37497 46.4846C9.37497 46.8713 9.37497 47.258 9.37497 47.6565C19.1718 47.6565 28.9687 47.6565 39.0625 47.6565C39.0625 34.2502 39.0625 20.844 39.0625 7.03149C32.875 7.03149 26.6875 7.03149 20.3125 7.03149C20.3125 8.06274 20.3125 9.09399 20.3125 10.1565C19.7968 10.1565 19.2812 10.1565 18.75 10.1565C18.75 9.12524 18.75 8.09399 18.75 7.03149C18.2343 7.03149 17.7187 7.03149 17.1875 7.03149C17.1849 7.24096 17.1824 7.45043 17.1798 7.66625C17.1761 7.87151 17.1717 8.07675 17.1672 8.28199C17.1645 8.42347 17.1624 8.56497 17.161 8.70647C17.1518 9.59922 17.1424 10.3265 16.5287 11.0377C16.4742 11.0812 16.4197 11.1248 16.3635 11.1697C16.3092 11.2147 16.255 11.2598 16.1991 11.3062C15.5661 11.7194 14.8918 11.6868 14.1601 11.6213C13.5541 11.4619 13.1312 11.0653 12.7929 10.5471C12.5962 10.142 12.5682 9.79692 12.5572 9.34892C12.5537 9.22721 12.5502 9.1055 12.5466 8.98011C12.5433 8.8265 12.54 8.6729 12.5366 8.51464C12.5245 8.0252 12.5124 7.53576 12.5 7.03149C11.4687 7.03149 10.4375 7.03149 9.37497 7.03149ZM18.2983 31.2014C18.1786 31.2422 18.1786 31.2422 18.0565 31.2838C17.9953 31.305 17.9341 31.3261 17.8711 31.3479C18.0238 31.6724 18.1849 31.891 18.457 32.1291C18.5215 32.1291 18.5859 32.1291 18.6523 32.1291C18.749 31.7746 18.8457 31.4202 18.9453 31.0549C18.7044 31.0549 18.526 31.1233 18.2983 31.2014ZM15.3686 32.178C15.2489 32.2188 15.2489 32.2188 15.1268 32.2604C15.0656 32.2815 15.0044 32.3027 14.9414 32.3245C15.098 32.7131 15.3693 32.976 15.6616 33.2659C15.7129 33.3174 15.7642 33.3689 15.817 33.4219C15.9251 33.5301 16.0335 33.6381 16.142 33.7459C16.3087 33.9115 16.4742 34.0781 16.6397 34.2448C16.7449 34.3499 16.8502 34.4549 16.9555 34.5599C17.0052 34.6099 17.0548 34.6599 17.106 34.7115C17.346 34.9793 17.346 34.9793 17.6757 35.0588C17.7724 34.7043 17.8691 34.3498 17.9687 33.9846C17.6948 33.7058 17.4202 33.4277 17.145 33.1501C17.0514 33.0556 16.958 32.9609 16.8648 32.8659C16.731 32.7298 16.5964 32.5942 16.4619 32.4587C16.3811 32.3769 16.3003 32.2951 16.2171 32.2108C15.9073 31.9351 15.7365 32.0519 15.3686 32.178ZM13.0345 33.4261C12.9462 33.5147 12.9462 33.5147 12.8561 33.605C12.7884 33.6724 12.7208 33.7398 12.6511 33.8092C12.5769 33.8841 12.5027 33.959 12.4263 34.0361C12.3482 34.1142 12.27 34.1923 12.1895 34.2728C11.9301 34.5323 11.6715 34.7925 11.4128 35.0527C11.2336 35.2323 11.0543 35.4118 10.875 35.5913C10.4506 36.0164 10.0267 36.4419 9.60295 36.8676C9.12061 37.3521 8.63772 37.836 8.15477 38.32C7.16115 39.3156 6.16822 40.312 5.17575 41.3088C5.31502 41.599 5.45095 41.8033 5.6801 42.0307C5.74265 42.0932 5.8052 42.1557 5.86964 42.2202C5.93699 42.2865 6.00434 42.3528 6.07373 42.4212C6.14281 42.49 6.2119 42.5588 6.28308 42.6297C6.50352 42.8491 6.72463 43.0677 6.94577 43.2864C7.09547 43.4351 7.24514 43.5839 7.39476 43.7327C7.76135 44.0971 8.12849 44.461 8.49606 44.8245C8.79467 44.6911 8.99985 44.5402 9.23025 44.3091C9.29653 44.2431 9.3628 44.1771 9.43108 44.109C9.50273 44.0367 9.57437 43.9643 9.64819 43.8898C9.72445 43.8136 9.80071 43.7373 9.87928 43.6588C10.1313 43.4067 10.3825 43.1539 10.6338 42.9011C10.8084 42.7262 10.983 42.5513 11.1576 42.3764C11.5702 41.9632 11.9824 41.5494 12.3944 41.1355C12.8635 40.6642 13.3332 40.1935 13.8029 39.7228C14.7689 38.7547 15.7343 37.7859 16.6992 36.8166C16.5605 36.5279 16.4248 36.3223 16.1979 36.0948C16.136 36.0323 16.0741 35.9697 16.0103 35.9053C15.9436 35.839 15.8768 35.7726 15.8081 35.7043C15.7394 35.6355 15.6708 35.5667 15.6001 35.4958C15.4552 35.3507 15.3101 35.206 15.1647 35.0614C14.9415 34.8393 14.7194 34.6161 14.4973 34.3928C14.3565 34.2521 14.2156 34.1114 14.0747 33.9709C13.9746 33.8702 13.9746 33.8702 13.8724 33.7675C13.8105 33.7061 13.7486 33.6448 13.6848 33.5817C13.6303 33.5273 13.5758 33.473 13.5197 33.417C13.3172 33.2502 13.2341 33.2587 13.0345 33.4261ZM3.33249 43.1155C2.69274 43.7774 2.42622 44.1864 2.39254 45.1174C2.42318 45.9881 2.63359 46.4199 3.26535 47.0095C3.88936 47.5543 4.41856 47.6047 5.23106 47.5878C6.18352 47.5055 6.69773 46.8643 7.32418 46.1916C7.1931 45.9002 7.04815 45.6957 6.82293 45.4698C6.76101 45.4073 6.69909 45.3447 6.6353 45.2803C6.56856 45.214 6.50183 45.1476 6.43307 45.0793C6.36445 45.0105 6.29583 44.9417 6.22512 44.8708C6.08023 44.7257 5.93509 44.581 5.78972 44.4364C5.56652 44.2143 5.34439 43.9911 5.12234 43.7678C4.98151 43.6271 4.84063 43.4864 4.69967 43.3459C4.59957 43.2452 4.59957 43.2452 4.49745 43.1425C4.43553 43.0811 4.37361 43.0198 4.30981 42.9567C4.25532 42.9023 4.20083 42.848 4.14468 42.792C3.79732 42.5058 3.58906 42.8627 3.33249 43.1155Z" fill="#EF4C43"/>
<path d="M21.875 8.59375C27.0312 8.59375 32.1875 8.59375 37.5 8.59375C37.5 13.75 37.5 18.9062 37.5 24.2188C32.3438 24.2188 27.1875 24.2188 21.875 24.2188C21.875 19.0625 21.875 13.9062 21.875 8.59375ZM23.4375 10.1562C23.4375 14.2812 23.4375 18.4062 23.4375 22.6562C23.7275 22.6562 24.0176 22.6562 24.3164 22.6562C24.3311 22.5677 24.3458 22.4792 24.3609 22.388C24.4173 22.0535 24.4754 21.7194 24.5346 21.3855C24.5596 21.242 24.5841 21.0985 24.6078 20.9548C24.854 19.4695 25.3318 18.1435 26.5972 17.2138C26.7767 17.1004 26.962 16.9962 27.1484 16.8945C27.1223 16.8301 27.0961 16.7656 27.0691 16.6992C27.0308 16.6025 26.9926 16.5059 26.9531 16.4062C26.9008 16.2995 26.8484 16.1927 26.7944 16.0828C26.5082 15.3092 26.5394 14.2794 26.825 13.5132C27.2081 12.7162 27.7737 12.2322 28.5908 11.9026C29.4415 11.6701 30.4478 11.7071 31.2458 12.0907C32.0223 12.5435 32.479 13.1983 32.7148 14.0625C32.738 14.322 32.752 14.5664 32.7515 14.8254C32.7515 14.9286 32.7515 14.9286 32.7516 15.0338C32.7413 15.5265 32.6582 15.9001 32.4192 16.3284C32.3181 16.5153 32.2701 16.6874 32.2266 16.8945C32.2891 16.9348 32.3517 16.9751 32.4162 17.0166C33.5692 17.7865 34.3233 18.7419 34.6181 20.1225C34.6852 20.4698 34.7446 20.8181 34.8022 21.167C34.8276 21.3122 34.8532 21.4574 34.8789 21.6026C34.9407 21.9535 35.0003 22.3048 35.0586 22.6562C35.3486 22.6562 35.6387 22.6562 35.9375 22.6562C35.9375 18.5312 35.9375 14.4062 35.9375 10.1562C31.8125 10.1562 27.6875 10.1562 23.4375 10.1562ZM28.3813 14.0259C28.1661 14.4729 28.1448 14.8443 28.2227 15.332C28.4502 15.8045 28.7267 16.0811 29.1992 16.3086C29.687 16.3864 30.0583 16.3651 30.5054 16.1499C30.8554 15.8332 31.1128 15.5796 31.1897 15.0978C31.2147 14.5428 31.1461 14.1944 30.7617 13.7695C30.3369 13.3851 29.9885 13.3165 29.4334 13.3415C28.9516 13.4184 28.698 13.6759 28.3813 14.0259ZM27.0683 18.9243C26.191 19.9978 26.1695 21.3057 25.9766 22.6562C28.4258 22.6562 30.875 22.6562 33.3984 22.6562C33.2018 20.4595 33.2018 20.4595 32.0171 18.6829C30.5495 17.6704 28.3969 17.6214 27.0683 18.9243Z" fill="#EF4C43"/>
<path d="M26.5625 39.8438C30.1719 39.8438 33.7812 39.8438 37.5 39.8438C37.5 41.9062 37.5 43.9688 37.5 46.0938C33.8906 46.0938 30.2813 46.0938 26.5625 46.0938C26.5625 44.0312 26.5625 41.9688 26.5625 39.8438ZM28.125 41.4062C28.125 42.4375 28.125 43.4688 28.125 44.5312C30.7031 44.5312 33.2812 44.5312 35.9375 44.5312C35.9375 43.5 35.9375 42.4688 35.9375 41.4062C33.3594 41.4062 30.7812 41.4062 28.125 41.4062Z" fill="#EF4C43"/>
<path d="M10.9375 25.7812C19.7031 25.7812 28.4688 25.7812 37.5 25.7812C37.5 26.2969 37.5 26.8125 37.5 27.3438C28.7344 27.3438 19.9688 27.3438 10.9375 27.3438C10.9375 26.8281 10.9375 26.3125 10.9375 25.7812Z" fill="#EF4C43"/>
<path d="M10.9375 22.6562C14.0312 22.6562 17.125 22.6562 20.3125 22.6562C20.3125 23.1719 20.3125 23.6875 20.3125 24.2188C17.2188 24.2188 14.125 24.2188 10.9375 24.2188C10.9375 23.7031 10.9375 23.1875 10.9375 22.6562Z" fill="#EF4C43"/>
<path d="M10.9375 19.5312C14.0312 19.5312 17.125 19.5312 20.3125 19.5312C20.3125 20.0469 20.3125 20.5625 20.3125 21.0938C17.2188 21.0938 14.125 21.0938 10.9375 21.0938C10.9375 20.5781 10.9375 20.0625 10.9375 19.5312Z" fill="#EF4C43"/>
<path d="M10.9375 16.4062C14.0312 16.4062 17.125 16.4062 20.3125 16.4062C20.3125 16.9219 20.3125 17.4375 20.3125 17.9688C17.2188 17.9688 14.125 17.9688 10.9375 17.9688C10.9375 17.4531 10.9375 16.9375 10.9375 16.4062Z" fill="#EF4C43"/>
<path d="M10.9375 13.2812C14.0312 13.2812 17.125 13.2812 20.3125 13.2812C20.3125 13.7969 20.3125 14.3125 20.3125 14.8438C17.2188 14.8438 14.125 14.8438 10.9375 14.8438C10.9375 14.3281 10.9375 13.8125 10.9375 13.2812Z" fill="#EF4C43"/>
<path d="M18.75 44.5312C20.8125 44.5312 22.875 44.5312 25 44.5312C25 45.0469 25 45.5625 25 46.0938C22.9375 46.0938 20.875 46.0938 18.75 46.0938C18.75 45.5781 18.75 45.0625 18.75 44.5312Z" fill="#EF4C43"/>
<path d="M18.75 41.4062C20.8125 41.4062 22.875 41.4062 25 41.4062C25 41.9219 25 42.4375 25 42.9688C22.9375 42.9688 20.875 42.9688 18.75 42.9688C18.75 42.4531 18.75 41.9375 18.75 41.4062Z" fill="#EF4C43"/>
</g>
<defs>
<clipPath id="clip0_754_1245">
<rect width="50" height="50" fill="white"/>
</clipPath>
</defs>
</svg>
