<svg width="609" height="389" viewBox="0 0 609 389" fill="none" xmlns="http://www.w3.org/2000/svg">
<path d="M192.176 20.3784C212.194 2.55634 243.615 -1.09718 272.212 0.321731C362.048 4.7841 443.146 48.1671 513.293 97.2395C538.649 115 563.683 134.145 580.172 158.609C613.751 208.408 603.773 277.393 557.111 318.411C541.24 332.374 521.99 343.088 502.24 352.554C467.111 369.424 429.207 382.962 389.337 386.828C360.904 389.57 332.121 387.342 303.859 383.51C224.886 372.783 147.372 349.093 82.4052 308.568C53.9105 290.794 27.0537 268.695 15.3077 239.94C3.56167 211.184 11.0794 174.738 40.1772 157.718C52.211 150.678 66.5954 147.505 80.6851 144.516C101.415 140.122 122.488 135.79 141.197 126.858C160.522 117.632 183.405 99.7826 179.574 79.3626C175.476 57.4483 172.179 38.2005 192.176 20.3784Z" fill="#F2F2F2"/>
<path d="M566.477 209.535L564.676 223.878L560.206 259.502H470.399C471.101 251.518 472.059 240.025 473.084 227.618C473.185 226.379 473.291 225.132 473.391 223.878C475.96 192.691 478.77 157.399 478.77 157.399L490.577 159.598L513.484 163.858L522.818 165.593L547.814 170.247C560.276 172.563 568.849 190.607 566.477 209.535Z" fill="#F2F2F2"/>
<path d="M498.547 99.6873L509.591 119.013L488.365 134.056L479.31 110.301L498.547 99.6873Z" fill="#FFB6B6"/>
<path d="M484.487 117.97C499.598 117.97 511.847 105.721 511.847 90.611C511.847 75.5009 499.598 63.2517 484.487 63.2517C469.377 63.2517 457.128 75.5009 457.128 90.611C457.128 105.721 469.377 117.97 484.487 117.97Z" fill="#FFB6B6"/>
<path d="M482.523 96.7274C480.351 93.4212 481.203 91.6919 479.384 90.4768C479.384 90.4768 478.653 89.9878 473.415 89.7091C472.242 81.2687 470.778 80.2451 470.778 80.2451C469.091 79.0654 466.587 79.4487 465.029 80.1702C461.735 81.6962 462.117 84.9924 459.898 85.6232C456.834 86.4946 451.259 81.5824 450.71 75.9589C450.262 71.3717 453.217 66.9164 454.389 67.1521C455.551 67.3858 458.334 63.8334 459.836 63.8882C460.862 63.9256 465.055 62.1034 466.183 62.2459C467.414 62.4015 471.475 64.5207 471.644 64.0365C472.82 60.672 472.475 59.7384 473.472 58.7759C475.241 57.0704 478.133 58.2581 482.671 58.8957C492.007 60.2077 493.636 57.1292 498.421 59.2158C500.838 60.2699 502.86 63.1125 506.806 68.7547C512.325 76.6452 515.084 80.5905 515.102 85.1921C515.12 89.8849 512.848 89.587 511.849 96.5344C510.738 104.268 513.099 107.804 510.52 110.317C508.527 112.258 504.475 112.719 502.346 111.015C498.701 108.097 503.471 101.057 499.438 95.9128C496.962 92.7552 491.983 91.3503 489.702 92.9111C487.123 94.6759 488.544 99.8559 486.731 100.347C485.178 100.768 482.901 97.3036 482.523 96.7274Z" fill="#1F2850"/>
<path d="M546.255 204.484C545.492 217.532 542.461 221.651 541.399 237.061C541.167 240.444 541.028 244.371 541.028 249.054C541.028 250.248 541.035 251.402 541.035 252.53C541.035 254.931 540.989 257.2 540.709 259.502C540.498 261.339 540.133 263.19 539.529 265.14H480.604C480.597 265.127 480.597 265.114 480.59 265.101C480.245 263.602 480.026 262.169 479.861 260.796C479.807 260.358 479.761 259.927 479.721 259.502C479.668 259.004 479.622 258.514 479.576 258.029C479.396 256.099 479.217 254.275 478.792 252.53C478.222 250.122 477.187 247.853 475.064 245.664C474.196 244.769 473.327 244.073 472.478 243.462C472.312 243.349 472.152 243.237 471.986 243.124C469.638 241.512 467.416 240.351 465.492 237.061C465.459 237.014 465.433 236.961 465.406 236.915C465.074 236.338 464.212 234.825 463.588 232.809C462.931 230.713 462.534 228.079 463.25 225.386C464.955 219.004 471.27 218.368 476.431 211.92C476.988 211.223 477.539 210.454 478.063 209.598C480.398 205.803 481.028 202.46 481.771 198.487C481.89 197.843 481.996 197.206 482.083 196.59C482.149 196.125 482.209 195.668 482.255 195.216C482.666 191.429 482.467 188.165 481.983 185.246C480.405 175.687 475.748 169.77 479.038 161.193C480.073 158.5 481.539 156.477 483.018 154.745C486.149 151.077 489.366 148.696 488.809 143.96C488.245 139.183 484.623 138.526 484.219 134.354C484.013 132.245 484.703 130.022 485.997 127.84V127.833C490.136 120.808 500.471 114.341 507.038 114.546C508.252 114.58 509.327 114.851 510.222 115.375C513.466 117.286 512.113 121.458 517.081 127.309C520.776 131.654 524.955 133.392 526.541 134.215C532.822 137.492 537.93 147.157 541.399 159.515C541.426 159.608 541.453 159.701 541.479 159.8C543.622 167.542 545.135 176.331 545.884 185.246C546.202 189.021 546.388 192.815 546.428 196.57C546.461 199.568 546.395 202.169 546.255 204.484Z" fill="#EF4C43"/>
<path d="M502.129 249.187L500.928 252.53L500.172 254.626L498.421 259.502L496.391 265.14H483.343L485.532 259.502L486.547 256.875L488.232 252.53L491.058 245.233L502.129 249.187Z" fill="#FFB6B6"/>
<path d="M541.605 158.374C541.572 158.805 541.526 159.283 541.479 159.8C540.962 165.067 539.741 174.493 537.957 185.246C537.015 190.918 535.914 196.961 534.673 202.964C532.007 215.919 528.69 228.676 524.942 237.061C524.272 238.573 523.582 239.94 522.879 241.147C522.342 242.069 521.777 242.978 521.187 243.873C519.277 246.812 517.134 249.598 514.912 252.198C514.826 252.311 514.726 252.417 514.627 252.53C514.269 252.954 513.897 253.373 513.526 253.79C511.708 255.84 509.851 257.75 508.053 259.502C505.864 261.638 503.754 263.529 501.864 265.14H480.676L480.59 265.1L477.539 263.747C477.539 263.747 478.408 262.726 479.861 260.795C480.159 260.404 480.477 259.973 480.823 259.502C481.247 258.925 481.705 258.288 482.195 257.598C483.217 256.152 484.378 254.454 485.625 252.53C488.04 248.808 490.792 244.231 493.572 238.931C493.891 238.314 494.215 237.691 494.54 237.061C494.547 237.041 494.561 237.021 494.567 237.001C495.118 235.926 495.662 234.818 496.205 233.691C500.816 224.099 502.136 216.138 502.514 213.558C503.045 209.91 503.781 204.808 503.582 199.196C503.449 195.495 502.912 191.581 501.632 187.694V187.687C501.366 186.872 501.068 186.056 500.73 185.246C500.126 183.794 499.409 182.361 498.56 180.948C494.813 174.726 491.768 174.467 489.346 167.687C488.63 165.677 487.005 161.14 487.502 156.351V156.344C487.562 155.754 487.661 155.157 487.794 154.559V154.553C487.827 154.387 487.874 154.215 487.921 154.049C488.298 152.583 488.922 151.13 489.87 149.75C491.721 147.07 494.248 145.478 496.51 144.53L496.518 144.523C499.131 143.435 501.386 143.203 501.824 143.163C511.516 142.301 519.031 150.447 523.138 154.898C524.723 156.616 526.176 158.056 527.503 159.229C537.831 168.45 540.663 162.559 541.399 159.515C541.512 159.044 541.572 158.639 541.605 158.374Z" fill="#EF4C43"/>
<path d="M541.638 158.029C541.638 158.062 541.632 158.175 541.605 158.361C541.618 158.261 541.625 158.162 541.632 158.069C541.632 158.049 541.632 158.036 541.638 158.029Z" fill="#EF4C43"/>
<path d="M488.955 298.003H133.365C130.062 298.003 127.369 300.689 127.369 303.993C127.369 307.303 130.062 309.99 133.365 309.99H488.955C492.258 309.99 494.945 307.303 494.945 303.993C494.945 300.689 492.258 298.003 488.955 298.003Z" fill="#E6E6E6"/>
<path d="M410.043 328.968H212.271C208.967 328.968 206.281 331.655 206.281 334.958C206.281 338.262 208.967 340.955 212.271 340.955H410.043C413.346 340.955 416.039 338.262 416.039 334.958C416.039 331.655 413.346 328.968 410.043 328.968Z" fill="#E6E6E6"/>
<path d="M172.934 100.959L195.344 91.5276L204.956 111.233L181.406 120.845L172.934 100.959Z" fill="#FFB6B6"/>
<path opacity="0.1" d="M172.934 100.959L195.344 91.5276L204.956 111.233L181.406 120.845L172.934 100.959Z" fill="black"/>
<path d="M176.12 93.45L198.228 118.923C198.228 118.923 182.848 167.465 167.469 171.79C152.089 176.116 123.733 197.263 123.733 197.263L88.1672 174.193L105.469 148.721C105.469 148.721 147.283 91.5276 158.337 91.5276C169.391 91.5276 176.12 93.45 176.12 93.45Z" fill="#F4B210"/>
<path d="M146.249 259.502H94.7854L91.5316 255.152L78.2475 237.394L75.1908 233.309C75.1908 233.309 63.656 212.162 66.0591 192.937C68.4622 173.712 93.4541 169.387 93.4541 169.387H94.4826L125.078 196.272L123.252 221.293L132.941 237.394L146.249 259.502Z" fill="#1F2850"/>
<path d="M105.325 259.502H91.5316V239.076L105.325 259.502Z" fill="#1F2850"/>
<path d="M402.835 228.493L401.119 237.394L396.861 259.502H311.316C311.984 254.547 312.898 247.415 313.873 239.715C313.969 238.946 314.07 238.172 314.166 237.394C316.613 218.04 319.29 196.138 319.29 196.138L330.536 197.503L352.356 200.146L361.247 201.223L385.057 204.111C396.928 205.548 405.094 216.747 402.835 228.493Z" fill="#F2F2F2"/>
<path d="M523.897 259.502H477.498C478.205 258.671 478.604 258.19 478.604 258.19L492.513 255.893L521.171 251.163C521.171 251.163 522.479 254.542 523.897 259.502Z" fill="#1F2850"/>
<path d="M327.087 110.572L347.265 139.108L312.068 140.159L308.29 113.342L327.087 110.572Z" fill="#FFB6B6"/>
<path opacity="0.1" d="M327.087 110.572L347.265 139.108L312.068 140.159L308.29 113.342L327.087 110.572Z" fill="black"/>
<path d="M227.578 169.696C224.989 162.228 219.037 157.51 214.284 159.158C209.531 160.806 207.778 168.196 210.369 175.668C211.363 178.666 213.061 181.383 215.32 183.591L226.69 215.098L241.361 209.447L228.595 178.987C229.003 175.853 228.654 172.668 227.578 169.696Z" fill="#FFB6B6"/>
<path d="M364.163 155.156L364.136 184.238L361.43 194.98L355.864 217.073L351.813 237.394L348.795 252.533L347.718 257.94C346.906 258.483 346.098 259.002 345.291 259.502H274.991C270.998 257.104 268.763 255.239 268.763 255.239C268.763 255.239 269.868 254.201 271.132 252.533C273.266 249.717 275.847 245.103 274.266 240.696C273.934 239.773 273.848 238.648 273.949 237.394C274.593 229.118 283.272 215.122 283.272 215.122L281.475 194.35L280.687 185.247L286.244 140.862L304.358 130.332L307.486 130.03L338.356 128.362L351.115 129.097L351.696 129.256L364.163 155.156Z" fill="#CCCCCC"/>
<path d="M365.534 259.502H350.155L349.477 252.533L349.463 252.394L353.817 252.096L365.145 251.322L365.342 255.494L365.496 258.695L365.534 259.502Z" fill="#FFB6B6"/>
<path d="M369.32 162.187L375.781 200.093L370.509 237.394L369.687 243.2L368.235 253.451L367.788 256.604L367.803 256.945L367.913 259.502H349.65L348.977 252.533L348.92 251.908L347.545 237.634L347.521 237.394L344.604 207.125L350.323 185.247L350.746 183.637V183.632L353.234 146.173L351.307 129.15L351.288 128.991C351.326 129.016 351.36 129.04 351.398 129.064C351.499 129.126 351.6 129.189 351.696 129.256C362.923 136.379 369.614 148.875 369.32 162.187Z" fill="#CCCCCC"/>
<path d="M292.787 148.126L285.764 140.862C285.764 140.862 270.729 147.64 269.98 151.4C269.231 155.16 242.685 210.389 242.685 210.389L231.136 179.544L216.104 189.581C216.104 189.581 228.166 237.469 239.447 239.717C250.728 241.966 288.536 183.037 288.536 183.037L292.787 148.126Z" fill="#CCCCCC"/>
<path d="M594.127 237.045H14.8666C6.66762 237.045 0 244.227 0 253.049C0 261.871 6.66761 269.045 14.8666 269.045H594.127C602.326 269.045 609 261.871 609 253.049C609 244.226 602.326 237.045 594.127 237.045Z" fill="#E6E6E6"/>
<path d="M360.963 194.269L359.899 243.89C359.796 248.693 355.873 252.533 351.069 252.533H259.79C255.099 252.533 251.226 248.866 250.97 244.183L248.257 194.562C247.981 189.502 252.009 185.247 257.077 185.247H352.132C357.084 185.247 361.069 189.318 360.963 194.269Z" fill="#2B376C"/>
<path d="M213.607 112.937C225.669 112.937 235.446 103.159 235.446 91.098C235.446 79.0368 225.669 69.2593 213.607 69.2593C201.546 69.2593 191.769 79.0368 191.769 91.098C191.769 103.159 201.546 112.937 213.607 112.937Z" fill="#FFB6B6"/>
<path d="M177.081 148.24L179.484 174.193L195.825 240.037L181.707 244.985L157.856 173.232L154.562 144.395L177.081 148.24Z" fill="#FFB6B6"/>
<path d="M170.581 194.269L169.517 243.89C169.414 248.693 165.491 252.533 160.687 252.533H69.4077C64.7168 252.533 60.8441 248.866 60.588 244.183L57.8754 194.562C57.5987 189.502 61.6273 185.247 66.695 185.247H161.75C166.702 185.247 170.687 189.318 170.581 194.269Z" fill="#2B376C"/>
<path d="M198.427 252.869C207.952 252.869 215.674 249.453 215.674 245.24C215.674 241.027 207.952 237.612 198.427 237.612C188.901 237.612 181.18 241.027 181.18 245.24C181.18 249.453 188.901 252.869 198.427 252.869Z" fill="#FFB6B6"/>
<path d="M143.198 152.208L153.05 99.698C153.05 99.698 180.445 95.8531 181.406 104.985C182.368 114.116 180.719 158.744 180.719 158.744L143.198 152.208Z" fill="#F4B210"/>
<path d="M204.792 94.5317C204.792 94.5317 218.301 89.7102 224 87.116C229.698 84.5219 241.019 102.616 241.271 93.06C241.523 83.5037 237.611 79.4963 237.611 79.4963C237.611 79.4963 236.634 58.5907 215.572 61.2044C215.572 61.2044 220.205 50.7451 204.998 49.1278C189.791 47.5104 166.133 84.233 168.252 89.721C170.37 95.209 172.91 99.7461 166.899 105.614C160.888 111.482 149.632 144.599 158.196 153.51C166.76 162.422 167.322 166.289 161.454 171.833C155.586 177.377 141.717 189.432 156.713 191.524C171.709 193.617 155.341 192.054 166.521 182.22C177.701 172.386 194.015 172.788 187.924 157.01C181.832 141.232 192.415 118.622 191.091 115.192C189.767 111.762 194.058 89.9813 194.058 89.9813C194.058 89.9813 204.045 88.514 204.792 94.5317Z" fill="#1F2850"/>
<path d="M316.298 120.901C329.428 120.901 340.071 110.257 340.071 97.1275C340.071 83.998 329.428 73.3545 316.298 73.3545C303.169 73.3545 292.525 83.998 292.525 97.1275C292.525 110.257 303.169 120.901 316.298 120.901Z" fill="#FFB6B6"/>
<path d="M318.196 65.1662C317.508 65.5678 316.586 64.9602 316.366 64.1949C316.145 63.4295 316.402 62.6169 316.657 61.8622L317.94 58.0631C318.849 55.3687 319.815 52.5801 321.785 50.5293C324.759 47.4339 329.485 46.6465 333.739 47.217C339.202 47.9496 344.593 50.9079 347.133 55.7998C349.673 60.6918 348.592 67.5178 344.001 70.5699C350.543 78.0681 352.824 86.4244 352.464 96.3687C352.104 106.313 341.267 115.465 334.2 122.47C332.622 121.514 331.187 117.03 332.055 115.401C332.923 113.773 331.679 111.886 332.754 110.386C333.829 108.885 334.728 111.274 333.641 109.782C332.956 108.841 335.632 106.676 334.613 106.112C329.683 103.387 328.043 97.2425 324.947 92.537C321.212 86.8613 314.821 83.0176 308.056 82.3799C304.33 82.0287 300.395 82.6649 297.34 84.8281C294.286 86.9913 292.309 90.857 293.017 94.5321C291.183 92.6697 290.27 89.9403 290.614 87.3491C290.959 84.7579 292.553 82.3618 294.81 81.0431C293.438 76.5049 294.613 71.2845 297.799 67.7727C300.984 64.2608 313.905 64.8589 318.555 65.7832L318.196 65.1662Z" fill="#1F2850"/>
<path d="M318.918 82.5178C325.077 83.1827 329.524 88.5179 333.279 93.4449C335.444 96.2847 337.711 99.4209 337.656 102.991C337.602 106.601 335.188 109.697 334.035 113.117C332.15 118.709 333.987 125.361 338.475 129.192C334.04 130.034 329.247 126.709 328.481 122.261C327.59 117.083 331.515 112.085 331.05 106.851C330.641 102.24 327.007 98.6917 323.918 95.2441C320.829 91.7965 317.928 87.2217 319.349 82.8162L318.918 82.5178Z" fill="#1F2850"/>
<path d="M410.996 240.065C404.895 243.535 401.741 249.496 403.95 253.378C406.159 257.26 412.894 257.593 418.996 254.121C421.453 252.768 423.55 250.846 425.111 248.516L450.774 233.487L443.465 221.594L418.942 237.673C416.14 237.824 413.416 238.645 410.996 240.065Z" fill="#FFB6B6"/>
<path d="M497.887 129.859C497.12 129.555 490.391 127.006 484.247 130.371C477.19 134.236 476.1 143.058 475.718 146.153C474.835 153.301 477.437 154.903 477.986 162.14C479.014 175.679 481.723 160.234 477.396 166.414C475.898 168.553 460.602 201.703 452.166 208.196C435.759 220.824 425.34 229.718 425.34 229.718L437.234 242.638C437.234 242.638 456.029 237.63 472.642 226.844C489.682 215.779 498.202 210.247 504.794 199.424C505.361 198.492 518.944 175.427 511.649 149.922C509.986 144.104 506.937 133.445 497.887 129.859Z" fill="#EF4C43"/>
<path d="M559.305 194.269L558.241 243.89C558.139 248.693 554.215 252.533 549.411 252.533H458.132C453.441 252.533 449.568 248.866 449.312 244.183L446.6 194.562C446.323 189.502 450.351 185.247 455.419 185.247H550.474C555.426 185.247 559.411 189.318 559.305 194.269Z" fill="#2B376C"/>
</svg>
