<svg width="80" height="80" viewBox="0 0 80 80" fill="none" xmlns="http://www.w3.org/2000/svg">
<path d="M45.625 1.25C44.9375 1.9375 44.375 2.875 44.375 3.3125C44.375 4.5 40 6.5 39.1875 5.6875C38.8125 5.3125 37.625 5 36.5 5C35 5 33.9375 5.625 31.9375 7.8125C29.3125 10.625 28.875 12.25 30.0625 14.25C31 15.8125 29.1875 20 27.5 20C25.5625 20 24.375 22.375 24.375 26.375C24.375 30.125 25.6875 32.5 27.8125 32.5C29.125 32.5 30.75 36.6875 30 38.125C28.875 40.25 29.375 41.5625 32.375 44.5625C35.375 47.5625 36.625 48 38.75 46.875C40.1875 46.125 44.375 47.75 44.375 49.0625C44.375 51.1875 46.75 52.5 50.625 52.5C54.5 52.5 56.875 51.1875 56.875 49.0625C56.875 47.6875 61.25 46 62.625 46.8125C64.6875 48.0625 66.375 47.5 69.125 44.75C71.875 42 72.75 39.25 71.25 37.75C70.375 36.875 72.1875 32.5 73.4375 32.5C75.625 32.5 76.875 30.125 76.875 26.0625C76.875 21.9375 75.8125 20 73.625 20C72.3125 20 70.5625 15.6875 71.3125 14.25C72.4375 12.125 71.875 10.25 69.1875 7.625C66.5 5 64.6875 4.4375 62.625 5.5625C61.125 6.375 56.875 4.5625 56.875 3.125C56.875 1.0625 54.8125 0 50.75 0C47.6875 0 46.625 0.25 45.625 1.25ZM53.75 4.6875C53.75 6 54.375 6.5625 57.9375 8.125C61.625 9.8125 62.1875 9.9375 63.125 9.0625C64.5625 7.75 65.125 7.875 67.125 9.9375C68.75 11.6875 68.8125 11.8125 67.875 13.25C66.9375 14.6875 66.9375 15.0625 68.75 18.9375C70.3125 22.5 70.875 23.125 72.1875 23.125C73.625 23.125 73.75 23.3125 73.75 26.25C73.75 29.3125 73.6875 29.375 71.875 29.375C70.375 29.375 69.9375 29.6875 69.625 31.0625C69.375 32.0625 68.625 33.875 68 35.1875C66.875 37.375 66.875 37.6875 67.75 38.6875C69.125 40.1875 69 40.75 66.875 42.8125C65.0625 44.5625 65 44.5625 63.75 43.4375C62.5625 42.3125 62.375 42.3125 60.25 43.3125C57.125 44.8125 56.875 44.6875 56.875 41.5625C56.875 38.9375 57.125 38.4375 60.1875 35.4375C65.3125 30.4375 66.25 24.875 63.125 18.75C61.75 16 58.3125 13.125 56.5 13.125C54.25 13.125 53.75 14.375 53.75 20.125C53.75 24.8125 53.5625 25.8125 52.5 26.875C51 28.375 50.625 28.375 49 27.25C48 26.5 47.75 25.375 47.5 19.875L47.1875 13.4375L45.25 13.25C40.8125 12.8125 35.6875 21.125 36.625 27.3125C37.125 30.625 40.0625 35.375 42.5 36.75C44.1875 37.6875 44.375 38.125 44.375 41.0625C44.375 42.875 44.25 44.375 44.0625 44.375C43.9375 44.375 42.8125 43.9375 41.625 43.3125C39.625 42.375 39.3125 42.375 37.9375 43.3125C36.5 44.25 36.3125 44.1875 34.375 42.1875C32.3125 40.0625 32.3125 40 33.4375 38.75C34.5 37.5625 34.5625 37.3125 33.625 35.75C33.125 34.8125 32.3125 33 31.9375 31.75C31.3125 29.9375 30.8125 29.4375 29.5 29.25C27.9375 29.0625 27.8125 28.8125 27.625 26.0625C27.4375 23.3125 27.5 23.125 28.9375 23.125C30.8125 23.125 31.1875 22.625 33.0625 17.9375C34.4375 14.4375 34.5 14.25 33.375 13.0625C32.3125 11.875 32.375 11.8125 34.0625 10C36.125 7.875 36.6875 7.75 38.125 9.0625C39.0625 9.9375 39.625 9.8125 43.3125 8.125C46.875 6.5625 47.5 6 47.5 4.6875C47.5 3.25 47.6875 3.125 50.625 3.125C53.5625 3.125 53.75 3.25 53.75 4.6875ZM45.5625 28C46 28.8125 47.3125 29.875 48.5625 30.375C50.5 31.25 50.9375 31.1875 53 30.1875C56.0625 28.6875 56.875 26.875 56.875 21.375C56.875 18.9375 57.125 16.875 57.4375 16.875C58.4375 16.875 60.5625 20 61.3125 22.5C62.6875 27 60.625 31.9375 56.25 34.6875L53.75 36.25V42.875V49.4375L50.8125 49.25L47.8125 49.0625L47.625 42.5L47.4375 35.9375L45.125 34.6875C39.1875 31.4375 37.75 23.1875 42.3125 18.375L44.0625 16.5625L44.375 21.5625C44.5625 24.3125 45.125 27.25 45.5625 28Z" fill="white"/>
<path d="M4.5 53.3125C3.1875 54.6875 3.125 55.375 3.125 64.1875C3.125 76.25 3.3125 76.5625 10.1875 76.5625C14.1875 76.5625 15.125 76.375 16.375 75.125C17.25 74.375 18.6875 73.75 19.625 73.75C20.5625 73.75 26.5625 75.125 32.875 76.875C39.1875 78.5625 45.1875 80 46.125 80C49.25 80 56.875 75.5 56.875 73.6875C56.875 72.1875 54.8125 72.5625 51.4375 74.625C49.4375 75.875 47.125 76.875 46.375 76.875C45.5625 76.875 39.6875 75.5 33.25 73.75C26.8125 72.0625 20.625 70.625 19.5625 70.625H17.5V64.5V58.375L23.3125 56.9375C30.375 55.125 32.5 55.375 37 58.75C40.1875 61.1875 40.375 61.25 45.5 61.25C51.125 61.25 53.125 61.875 53.125 63.75C53.125 66.375 51.625 66.875 43.4375 66.875C35.625 66.875 34.125 67.3125 35.625 69.0625C36.6875 70.375 50.5625 70.375 53.0625 69.125C54.75 68.1875 56.25 65.8125 56.25 63.875C56.25 62.6875 67.6875 56.25 69.8125 56.25C71.1875 56.25 72.5 57.375 72.5 58.5625C72.5 59 70.8125 60.6875 68.75 62.3125C66.6875 63.875 65 65.5625 65 66.0625C65 67.875 66.9375 67.5 70.4375 65C75.9375 61.0625 76.875 58.5 74 55.0625C71.5625 52.1875 69.1875 52.4375 61.3125 56.5625C55.125 59.75 54.6875 59.875 53.0625 59C51.9375 58.4375 49.375 58.125 46.0625 58.125C41.5 58.125 40.6875 57.9375 39.625 56.8125C37.875 54.8125 32.5625 52.5 29.625 52.5C28.1875 52.5 25.25 53.0625 23.125 53.75C18.25 55.3125 18.25 55.3125 16.5 53.4375C15.1875 52.0625 14.5625 51.875 10.4375 51.875C6.4375 51.875 5.6875 52.0625 4.5 53.3125ZM14.25 64.1875L14.0625 73.4375H10.3125H6.5625L6.375 65.0625C6.3125 60.4375 6.375 56.25 6.5 55.8125C6.75 55.25 8.0625 55 10.625 55H14.4375L14.25 64.1875Z" fill="white"/>
<path d="M60 68.7499C58.875 69.4374 59.75 71.3749 61.0625 71.1249C61.6875 70.9999 62.25 70.4999 62.375 69.9374C62.625 68.7499 61.1875 67.9999 60 68.7499Z" fill="white"/>
</svg>
