<svg width="20" height="20" viewBox="0 0 20 20" fill="none" xmlns="http://www.w3.org/2000/svg">
<g clip-path="url(#clip0_754_1440)">
<path d="M5.16724 0.512459C6.52176 1.01698 7.51014 3.26638 8.11157 4.51503C8.40956 5.18505 8.54439 5.67117 8.4375 6.40601C8.02536 6.98987 7.53549 7.46535 7.03125 7.96851C7.92816 10.0156 9.23099 11.7253 11.3141 12.6707C11.6015 12.7802 11.8941 12.8761 12.1875 12.9685C12.2628 12.8801 12.3382 12.7917 12.4158 12.7006C12.5638 12.5287 12.5638 12.5287 12.7148 12.3533C12.8127 12.2391 12.9106 12.1249 13.0115 12.0072C13.3826 11.6101 13.5355 11.5675 14.0845 11.5183C14.803 11.5707 15.2704 11.7763 15.8984 12.1091C16.0068 12.165 16.1152 12.2208 16.2269 12.2783C17.3388 12.8659 18.5582 13.559 19.375 14.531C19.5206 15.2224 19.5196 15.5588 19.1315 16.1552C18.1449 17.3047 16.3519 19.1139 14.8206 19.448C11.4105 19.4959 8.28563 17.0633 5.9375 14.8435C5.67404 14.5862 5.41317 14.3261 5.15625 14.0623C5.07891 13.992 5.00156 13.9217 4.92188 13.8493C2.77003 11.8419 0.738496 8.56479 0.527344 5.5857C0.572347 4.68419 1.01008 4.12126 1.5625 3.43726C1.67187 3.29486 1.78124 3.15246 1.89392 3.00575C3.9601 0.380943 3.9601 0.380943 5.16724 0.512459Z" fill="white"/>
</g>
<defs>
<clipPath id="clip0_754_1440">
<rect width="20" height="20" fill="white"/>
</clipPath>
</defs>
</svg>
