<svg width="50" height="50" viewBox="0 0 50 50" fill="none" xmlns="http://www.w3.org/2000/svg">
<g clip-path="url(#clip0_754_1275)">
<path d="M13.3503 -0.0133736C13.4891 -0.014117 13.4892 -0.014117 13.6308 -0.0148753C13.7322 -0.0149239 13.8337 -0.0149725 13.9382 -0.0150226C14.0461 -0.0154506 14.1541 -0.0158785 14.2654 -0.0163194C14.6285 -0.0176274 14.9916 -0.0182304 15.3548 -0.0188284C15.6146 -0.0195999 15.8745 -0.0204069 16.1343 -0.0212483C16.9151 -0.0236416 17.6959 -0.0250715 18.4767 -0.0263323C18.6974 -0.0266949 18.918 -0.0270829 19.1387 -0.02748C20.5098 -0.0299449 21.8809 -0.0320979 23.252 -0.0333129C23.5695 -0.0335989 23.887 -0.0338882 24.2045 -0.0341825C24.2834 -0.0342554 24.3623 -0.0343282 24.4436 -0.0344033C25.7209 -0.0356381 26.9983 -0.0388815 28.2756 -0.0429522C29.5879 -0.0471001 30.9002 -0.049397 32.2126 -0.0499067C32.949 -0.0502395 33.6855 -0.0513805 34.4219 -0.0546042C35.0493 -0.0573462 35.6767 -0.0584095 36.3041 -0.0573195C36.6239 -0.0568149 36.9436 -0.0573518 37.2634 -0.0595134C37.6111 -0.0617352 37.9587 -0.0609164 38.3064 -0.0593685C38.4061 -0.0607241 38.5058 -0.0620798 38.6085 -0.0634766C39.5778 -0.0529002 40.4813 0.262608 41.1793 0.952274C41.2262 0.997683 41.2731 1.04309 41.3213 1.08988C41.4815 1.24587 41.6391 1.40419 41.7969 1.56251C41.9225 1.68575 42.0483 1.80883 42.1742 1.93178C42.6103 2.35891 43.0428 2.78964 43.475 3.22076C43.553 3.29852 43.6311 3.37629 43.7115 3.45641C44.1232 3.86673 44.5347 4.27732 44.946 4.68815C45.3691 5.11074 45.7932 5.53241 46.2174 5.95388C46.5455 6.28021 46.873 6.6072 47.2004 6.93437C47.3564 7.09015 47.5128 7.24569 47.6693 7.40097C47.888 7.61797 48.1057 7.83589 48.3232 8.05405C48.3872 8.11713 48.4512 8.1802 48.5171 8.24519C49.5044 9.24145 49.8356 10.2225 49.8439 11.6218C49.8433 11.7614 49.8426 11.901 49.8419 12.0406C49.8423 12.191 49.8427 12.3414 49.8433 12.4918C49.8445 12.903 49.8439 13.3142 49.843 13.7255C49.8423 14.1697 49.8434 14.614 49.8442 15.0583C49.8455 15.9279 49.8452 16.7974 49.8443 17.6669C49.8437 18.3738 49.8436 19.0806 49.8439 19.7874C49.844 19.8881 49.844 19.9888 49.8441 20.0925C49.8441 20.2971 49.8442 20.5016 49.8443 20.7062C49.8452 22.6232 49.8442 24.5403 49.8426 26.4573C49.8413 28.1015 49.8416 29.7457 49.8429 31.3899C49.8445 33.3002 49.8451 35.2105 49.8442 37.1208C49.8441 37.3245 49.844 37.5283 49.8439 37.7321C49.8439 37.8324 49.8438 37.9326 49.8438 38.0359C49.8435 38.7417 49.844 39.4475 49.8446 40.1534C49.8455 41.0137 49.8452 41.8741 49.8437 42.7345C49.8429 43.1733 49.8426 43.6121 49.8436 44.0509C49.8445 44.453 49.844 44.855 49.8424 45.257C49.8421 45.4021 49.8422 45.5472 49.843 45.6923C49.8489 47.0044 49.6705 48.048 48.7416 49.0212C48.0459 49.6635 47.3452 50.0115 46.3951 50.0131C46.2762 50.0135 46.1573 50.014 46.0348 50.0144C45.9026 50.0144 45.7705 50.0144 45.6384 50.0144C45.4982 50.0147 45.3579 50.0151 45.2177 50.0155C44.8319 50.0164 44.4461 50.0168 44.0603 50.0171C43.6443 50.0174 43.2284 50.0184 42.8125 50.0192C41.8077 50.0212 40.803 50.0221 39.7983 50.023C39.3251 50.0234 38.8519 50.024 38.3788 50.0245C36.8058 50.0261 35.2329 50.0276 33.66 50.0283C33.2518 50.0285 32.8436 50.0286 32.4354 50.0288C32.334 50.0289 32.2325 50.0289 32.128 50.029C30.4846 50.0298 28.8412 50.0323 27.1978 50.0354C25.5105 50.0387 23.8231 50.0404 22.1358 50.0407C21.1885 50.0409 20.2412 50.0418 19.2938 50.0443C18.487 50.0464 17.6802 50.0472 16.8734 50.0462C16.4619 50.0458 16.0504 50.046 15.6389 50.0479C15.2618 50.0496 14.8847 50.0495 14.5076 50.048C14.3715 50.0478 14.2355 50.0482 14.0995 50.0493C12.8178 50.0596 11.8964 49.7587 10.968 48.8647C10.0853 47.9114 10.0342 46.8201 10.0244 45.5858C10.0228 45.4361 10.0201 45.2865 10.0164 45.1369C10.0111 44.9197 10.0089 44.7027 10.0075 44.4855C10.0053 44.419 10.0031 44.3526 10.0008 44.2841C10.0024 43.9104 10.0512 43.7593 10.2876 43.4637C10.5469 43.2617 10.5469 43.2617 10.8399 43.2007C11.2366 43.2833 11.3677 43.4375 11.6211 43.75C11.6793 44.0694 11.6793 44.0694 11.6764 44.429C11.677 44.4934 11.6775 44.5579 11.6781 44.6242C11.6797 44.8293 11.6782 45.0342 11.676 45.2393C11.6304 46.6215 11.6304 46.6215 12.2508 47.8097C12.9036 48.3843 13.5316 48.4499 14.38 48.4492C14.4837 48.4494 14.4837 48.4494 14.5894 48.4495C14.8197 48.4497 15.05 48.4491 15.2803 48.4486C15.4459 48.4486 15.6115 48.4486 15.777 48.4486C16.2257 48.4487 16.6744 48.4481 17.1231 48.4474C17.5923 48.4468 18.0615 48.4467 18.5307 48.4466C19.4188 48.4463 20.307 48.4455 21.1951 48.4445C22.2064 48.4434 23.2177 48.4429 24.229 48.4424C26.3089 48.4414 28.3888 48.4397 30.4688 48.4375C30.3923 48.3619 30.3159 48.2864 30.2372 48.2085C29.5162 47.4955 28.7964 46.7815 28.0775 46.0664C27.7078 45.6989 27.3379 45.3317 26.9671 44.9653C26.6091 44.6116 26.2521 44.2569 25.8957 43.9015C25.7598 43.7663 25.6235 43.6314 25.4868 43.4968C25.2951 43.308 25.1047 43.1179 24.9145 42.9275C24.858 42.8725 24.8015 42.8174 24.7433 42.7606C24.3864 42.4001 24.1877 42.0837 24.0235 41.6016C24.036 41.341 24.036 41.341 24.0784 41.095C24.0968 40.6932 24.0226 40.4933 23.7637 40.1978C23.4745 39.8997 23.1675 39.6249 22.8516 39.3555C22.465 39.493 22.1238 39.6815 21.7698 39.8855C20.9157 40.3772 20.0703 40.7847 19.1406 41.1133C19.0368 41.1502 18.9329 41.1871 18.8259 41.2251C15.2231 42.4171 11.2315 41.9901 7.85474 40.323C4.51271 38.5968 1.99543 35.5525 0.819752 31.9935C-0.346058 28.2218 0.0766571 24.2523 1.8677 20.7581C3.58226 17.5283 6.6003 15.096 10.0586 13.9648C11.4965 13.5271 12.9261 13.3401 14.4287 13.3484C14.4975 13.3486 14.5663 13.3488 14.6372 13.349C15.6775 13.3541 16.6657 13.4029 17.6758 13.6719C17.7865 13.6994 17.7865 13.6994 17.8993 13.7275C20.1284 14.2906 22.0697 15.3241 23.8281 16.7969C23.8975 16.8542 23.9669 16.9114 24.0383 16.9704C24.5043 17.3649 24.904 17.792 25.293 18.2617C25.353 18.3316 25.4131 18.4015 25.475 18.4734C27.9618 21.4487 28.9939 25.2358 28.6899 29.0742C28.4508 31.4878 27.5738 33.8576 26.1719 35.8398C26.3105 36.006 26.4505 36.1703 26.5934 36.3327C26.7578 36.5234 26.7578 36.5234 26.8826 36.6959C27.1169 36.9893 27.2628 37.0974 27.6425 37.1536C27.8611 37.1646 28.0801 37.1697 28.299 37.1681C28.9815 37.2526 29.4487 37.8181 29.914 38.284C29.983 38.3524 30.052 38.4207 30.123 38.4911C30.3499 38.7161 30.5761 38.9419 30.8022 39.1678C30.9602 39.3252 31.1183 39.4826 31.2764 39.64C31.6072 39.9697 31.9376 40.2997 32.2678 40.63C32.6902 41.0524 33.1139 41.4735 33.5379 41.8942C33.8647 42.2187 34.1905 42.5442 34.5161 42.8699C34.6719 43.0255 34.8281 43.1807 34.9845 43.3357C35.2035 43.5527 35.4212 43.771 35.6387 43.9897C35.703 44.0529 35.7674 44.1161 35.8336 44.1813C36.5342 44.8914 36.9042 45.7162 36.9446 46.7163C36.93 47.3655 36.7179 47.9617 36.4258 48.5352C37.6856 48.5269 38.9454 48.5176 40.2052 48.5071C40.7902 48.5022 41.3752 48.4977 41.9602 48.494C42.525 48.4904 43.0898 48.4858 43.6546 48.4807C43.8698 48.4789 44.085 48.4774 44.3003 48.4762C44.6023 48.4746 44.9043 48.4717 45.2063 48.4686C45.2948 48.4684 45.3833 48.4682 45.4745 48.468C46.262 48.4577 46.9229 48.3572 47.5586 47.8516C48.0421 47.3412 48.1687 46.8347 48.1701 46.1425C48.1708 46.0158 48.1716 45.8891 48.1723 45.7586C48.1721 45.6187 48.172 45.4788 48.1717 45.3389C48.1722 45.1897 48.1728 45.0406 48.1735 44.8914C48.175 44.4819 48.1753 44.0724 48.1755 43.6628C48.1758 43.2211 48.1773 42.7793 48.1787 42.3376C48.1808 41.5723 48.1823 40.8071 48.1833 40.0418C48.1847 38.9354 48.1872 37.829 48.19 36.7225C48.1944 34.9275 48.198 33.1324 48.201 31.3373C48.204 29.5935 48.2073 27.8497 48.2112 26.1059C48.2115 25.9984 48.2117 25.8909 48.2119 25.7802C48.2132 25.241 48.2144 24.7018 48.2156 24.1626C48.2257 19.6891 48.2344 15.2156 48.2422 10.7422C48.1097 10.7435 48.1097 10.7435 47.9744 10.7448C47.1383 10.7527 46.3023 10.7586 45.4661 10.7624C45.0364 10.7645 44.6066 10.7672 44.1768 10.7717C43.7615 10.7759 43.3461 10.7782 42.9307 10.7793C42.7729 10.78 42.615 10.7814 42.4572 10.7835C41.4737 10.7962 40.5969 10.7788 39.7831 10.1555C39.6953 10.0531 39.6953 10.0531 39.6057 9.94874C39.5454 9.88202 39.4851 9.8153 39.423 9.74656C38.8865 8.85698 38.9257 7.887 38.9363 6.88401C38.9368 6.72995 38.9372 6.57589 38.9375 6.42184C38.9386 6.01951 38.9415 5.61721 38.9447 5.21489C38.9478 4.8031 38.9491 4.3913 38.9506 3.9795C38.9537 3.17382 38.9587 2.36817 38.9649 1.56251C35.756 1.55804 32.5471 1.55459 29.3382 1.55253C28.9593 1.55229 28.5804 1.55204 28.2015 1.55178C28.126 1.55173 28.0506 1.55168 27.9729 1.55162C26.7518 1.55077 25.5307 1.54923 24.3096 1.54744C23.0564 1.54561 21.8032 1.54453 20.55 1.54413C19.7769 1.54386 19.0038 1.54302 18.2306 1.54143C17.6376 1.54027 17.0445 1.54015 16.4515 1.54042C16.2083 1.54036 15.9652 1.53997 15.7221 1.53922C15.3901 1.53825 15.0581 1.53849 14.7261 1.53902C14.6299 1.53845 14.5338 1.53788 14.4347 1.5373C13.6273 1.5408 12.9577 1.62902 12.3047 2.14844C11.7709 2.71192 11.6897 3.28068 11.6954 4.03445C11.6952 4.11377 11.695 4.19308 11.6948 4.27479C11.6944 4.44615 11.6945 4.61751 11.695 4.78887C11.6955 5.06022 11.6946 5.33153 11.6933 5.60288C11.6897 6.37405 11.6878 7.14521 11.6889 7.91639C11.6895 8.38881 11.6877 8.86118 11.6845 9.3336C11.6837 9.51336 11.6838 9.69312 11.6849 9.87288C11.6863 10.1242 11.6847 10.3753 11.6824 10.6266C11.6841 10.7377 11.6841 10.7377 11.6859 10.851C11.6791 11.2373 11.6341 11.4093 11.3915 11.7161C11.1328 11.9141 11.1328 11.9141 10.8399 11.9751C10.439 11.8916 10.3111 11.7459 10.0586 11.4258C10.0113 11.1364 9.99356 10.9036 9.99853 10.6149C9.99799 10.5345 9.99745 10.4541 9.99689 10.3712C9.99574 10.1058 9.99811 9.84064 10.0006 9.57528C10.0008 9.39002 10.0008 9.20476 10.0006 9.0195C10.0008 8.63111 10.0026 8.24278 10.0057 7.8544C10.0095 7.35868 10.01 6.86304 10.0093 6.36732C10.009 5.98451 10.0101 5.60173 10.0118 5.21893C10.0125 5.0363 10.0128 4.85366 10.0127 4.67103C10.0137 3.24507 10.0875 2.06239 11.1218 0.978858C11.7657 0.384261 12.4615 -0.010842 13.3503 -0.0133736ZM40.5274 2.63673C40.5206 3.3651 40.5154 4.09347 40.5122 4.82187C40.5107 5.16014 40.5086 5.49838 40.5053 5.83664C40.5015 6.22594 40.5 6.61523 40.4988 7.00455C40.4972 7.12542 40.4957 7.24629 40.4942 7.37083C40.4825 8.1746 40.4825 8.1746 40.8203 8.88672C41.1399 9.1861 41.3609 9.21568 41.7932 9.21295C41.9691 9.21292 41.9691 9.21292 42.1486 9.21289C42.2747 9.21137 42.4009 9.20986 42.5308 9.2083C42.6617 9.20776 42.7925 9.20734 42.9233 9.20705C43.2669 9.20593 43.6104 9.20306 43.954 9.19981C44.3048 9.19681 44.6557 9.19547 45.0066 9.194C45.6945 9.19086 46.3824 9.18586 47.0703 9.17969C46.6918 8.72717 46.2994 8.29692 45.8816 7.88062C45.8245 7.82337 45.7674 7.76612 45.7086 7.70714C45.5223 7.52038 45.3356 7.33398 45.1489 7.1476C45.0186 7.01723 44.8883 6.88684 44.758 6.75643C44.4862 6.48451 44.2142 6.21276 43.9422 5.94113C43.5926 5.59216 43.2435 5.24275 42.8946 4.89321C42.6263 4.62454 42.3577 4.3561 42.0891 4.08774C41.9602 3.95888 41.8313 3.82996 41.7026 3.70096C41.5235 3.52166 41.3441 3.34266 41.1647 3.16375C41.1112 3.11003 41.0576 3.05632 41.0025 3.00098C40.7991 2.74971 40.7991 2.74971 40.5274 2.63673ZM11.0352 15.332C10.9638 15.3524 10.8925 15.3729 10.8189 15.3939C8.91531 15.961 7.0146 16.9822 5.66408 18.457C5.42782 18.6945 5.19052 18.9308 4.95226 19.1662C2.63603 21.5715 1.69919 24.8826 1.73685 28.1532C1.75811 28.9425 1.87373 29.7003 2.0508 30.4688C2.06652 30.537 2.08224 30.6053 2.09844 30.6756C2.85651 33.8201 4.89425 36.6213 7.62598 38.345C9.55606 39.5221 11.6986 40.2286 13.9649 40.332C14.04 40.3361 14.1152 40.3401 14.1926 40.3442C17.3206 40.4295 20.4178 39.2605 22.7539 37.207C22.8371 37.1368 22.9203 37.0665 23.0061 36.9942C25.3115 35.0039 26.8046 32.0168 27.1244 28.9963C27.3424 25.5227 26.5104 22.2132 24.2584 19.5011C22.0657 17.0485 19.1843 15.1976 15.8203 14.9414C14.1918 14.853 12.6096 14.8814 11.0352 15.332ZM25 37.1094C24.892 37.2313 24.7842 37.3534 24.6765 37.4756C24.5865 37.5776 24.5865 37.5776 24.4946 37.6816C24.3297 37.8751 24.176 38.0779 24.0235 38.2813C24.3457 38.6035 24.668 38.9258 25 39.2578C25.3582 39.0787 25.534 38.9404 25.8057 38.6597C25.9092 38.5536 25.9092 38.5536 26.0147 38.4453C26.0666 38.3912 26.1185 38.337 26.1719 38.2813C25.8127 37.8392 25.4482 37.4615 25 37.1094ZM27.3087 39.2471C27.259 39.2961 27.2093 39.345 27.1582 39.3954C27.0534 39.4991 26.949 39.6032 26.845 39.7077C26.6852 39.8676 26.5235 40.0252 26.3615 40.1829C26.26 40.2838 26.1587 40.3849 26.0575 40.4861C25.9844 40.5568 25.9844 40.5568 25.9098 40.6289C25.7589 40.7773 25.7589 40.7773 25.586 41.0156C25.6191 41.3273 25.7295 41.4889 25.9472 41.7071C26.0032 41.7639 26.0592 41.8207 26.1169 41.8792C26.1786 41.9404 26.2404 42.0015 26.304 42.0645C26.3688 42.1298 26.4335 42.1951 26.5003 42.2624C26.715 42.4784 26.9307 42.6933 27.1466 42.9081C27.2961 43.0579 27.4457 43.2077 27.5951 43.3575C27.9089 43.6717 28.2231 43.9853 28.5377 44.2985C28.9405 44.6997 29.342 45.1022 29.7431 45.505C30.0518 45.8148 30.3612 46.1238 30.6708 46.4327C30.8191 46.5808 30.9672 46.7291 31.115 46.8776C31.3221 47.0854 31.5301 47.2923 31.7384 47.4989C31.7991 47.5603 31.8599 47.6216 31.9225 47.6848C32.4038 48.1592 32.8958 48.5078 33.5938 48.5352C34.2359 48.3974 34.7097 48.1567 35.1319 47.644C35.3262 47.1971 35.4642 46.6871 35.2869 46.2144C35.0334 45.6816 34.712 45.3012 34.2937 44.8893C34.2275 44.8225 34.1612 44.7557 34.093 44.6869C33.8755 44.4682 33.6567 44.251 33.4378 44.0338C33.2857 43.8817 33.1337 43.7296 32.9817 43.5774C32.6641 43.2596 32.3458 42.9425 32.027 42.6259C31.6177 42.2194 31.21 41.8114 30.8027 41.4029C30.4895 41.0891 30.1756 40.7759 29.8615 40.463C29.7108 40.3128 29.5603 40.1623 29.41 40.0116C29.2006 39.8019 28.9902 39.5932 28.7796 39.3847C28.7173 39.322 28.6551 39.2593 28.591 39.1947C28.0267 38.64 27.8288 38.7272 27.3087 39.2471Z" fill="#EF4C43"/>
<path d="M17.7733 16.6993C17.8414 16.7203 17.9095 16.7412 17.9797 16.7628C20.8845 17.6899 23.2223 19.79 24.632 22.4727C25.9922 25.2008 26.1568 28.3675 25.2318 31.2562C24.2705 34.071 22.2824 36.3711 19.6349 37.7198C16.8173 39.0988 13.6593 39.356 10.6768 38.3635C9.41255 37.9075 8.26927 37.271 7.22647 36.4259C7.08541 36.3117 7.08541 36.3117 6.94151 36.1951C4.97242 34.4982 3.73404 32.1532 3.23401 29.6247C3.22078 29.2459 3.28109 29.1015 3.51553 28.8087C3.8085 28.6134 3.8085 28.6134 4.1503 28.6317C4.49733 28.7123 4.5728 28.7401 4.78506 29.004C4.87255 29.2792 4.94795 29.5483 5.01699 29.828C5.40342 31.2935 6.02181 32.5736 6.9335 33.7892C6.99997 33.7207 7.06643 33.6522 7.13491 33.5817C7.23032 33.4878 7.32596 33.3943 7.42178 33.3009C7.46911 33.2528 7.51645 33.2047 7.56521 33.1552C8.53929 32.2336 10.164 31.8647 11.4814 31.8258C11.5597 31.8292 11.638 31.8326 11.7187 31.8361C11.7335 31.2209 11.7335 31.2209 11.4829 30.6802C11.3645 30.5733 11.2449 30.4677 11.1243 30.3632C10.6464 29.8843 10.1744 29.0236 10.1439 28.3387C10.148 28.2682 10.152 28.1977 10.1562 28.1251C10.0816 28.103 10.0071 28.0808 9.93033 28.058C9.6061 27.8996 9.52559 27.7655 9.37491 27.4415C9.26213 27.0137 9.2615 26.589 9.26085 26.1495C9.26036 26.0337 9.26036 26.0337 9.25986 25.9156C9.25937 25.7525 9.25914 25.5894 9.25915 25.4263C9.25894 25.1796 9.25717 24.933 9.25531 24.6864C9.25078 23.4203 9.26949 22.1654 10.1573 21.1656C10.8321 20.5297 11.616 20.1097 12.5551 20.1016C12.6428 20.1006 12.7305 20.0997 12.8209 20.0987C12.915 20.0983 13.0091 20.0979 13.1061 20.0975C13.2036 20.0969 13.3011 20.0964 13.4016 20.0958C13.6079 20.0949 13.8142 20.0942 14.0205 20.0938C14.3349 20.0929 14.6492 20.0899 14.9636 20.0868C15.1643 20.0861 15.3651 20.0856 15.5658 20.0853C15.6593 20.0841 15.7528 20.0828 15.8491 20.0816C16.4809 20.0837 16.9764 20.1508 17.4766 20.5713C17.745 20.899 17.942 21.1419 17.9687 21.5821C18.0371 21.5902 18.1056 21.5983 18.1762 21.6066C18.6626 21.7335 18.9637 21.9678 19.2687 22.3634C19.4814 22.7415 19.5429 23.0374 19.5469 23.4675C19.5478 23.5497 19.5488 23.6318 19.5497 23.7165C19.5504 23.8485 19.5504 23.8485 19.551 23.9831C19.5515 24.0744 19.5521 24.1656 19.5527 24.2597C19.5536 24.4526 19.5542 24.6455 19.5546 24.8384C19.5556 25.1326 19.5586 25.4268 19.5617 25.7211C19.5623 25.9088 19.5628 26.0965 19.5632 26.2841C19.5644 26.3717 19.5656 26.4593 19.5669 26.5496C19.5651 27.0501 19.5212 27.4007 19.2382 27.8321C19.1576 27.8885 19.0771 27.9449 18.994 28.003C18.7257 28.2445 18.6984 28.3368 18.6095 28.6744C18.3792 29.5445 17.9354 30.1791 17.24 30.7443C17.0088 31.0718 17.066 31.3438 17.0897 31.7384C17.1782 31.7531 17.1782 31.7531 17.2684 31.7681C20.1542 32.2532 20.1542 32.2532 20.996 32.9103C21.0826 32.9727 21.1692 33.0352 21.2585 33.0995C21.4946 33.3101 21.6191 33.5181 21.7773 33.7892C21.8417 33.7892 21.9062 33.7892 21.9726 33.7892C23.6156 31.6986 24.3875 29.0593 24.0932 26.4105C23.7107 23.7519 22.4204 21.4952 20.3071 19.8335C18.0402 18.222 15.4411 17.6237 12.6853 18.0333C10.2795 18.4734 7.95263 19.9077 6.54731 21.9133C5.7542 23.0898 5.25195 24.3255 4.90179 25.699C4.87737 25.7946 4.85295 25.8903 4.82779 25.9889C4.80752 26.0737 4.78725 26.1586 4.76637 26.246C4.67861 26.4893 4.59996 26.6024 4.39444 26.7579C3.97995 26.8193 3.77837 26.7987 3.41787 26.5809C3.11754 26.1023 3.21455 25.7343 3.32022 25.1954C3.34036 25.0887 3.3605 24.9819 3.38125 24.8719C3.8464 22.8324 4.92925 21.1331 6.34756 19.629C6.4134 19.5558 6.47924 19.4825 6.54707 19.407C7.86016 18.0028 9.70015 17.1234 11.5233 16.6017C11.6273 16.5703 11.7313 16.539 11.8384 16.5067C13.7156 16.0341 15.9272 16.1292 17.7733 16.6993ZM11.2426 22.339C10.8715 22.9065 10.8306 23.3895 10.8356 24.0503C10.8362 24.1552 10.8368 24.2601 10.8374 24.3682C10.8382 24.4478 10.8389 24.5274 10.8397 24.6095C11.2288 24.6168 11.6177 24.6221 12.0068 24.6256C12.2034 24.6278 12.3999 24.6315 12.5964 24.6352C13.2927 24.6405 13.8232 24.6182 14.453 24.3165C14.5571 24.273 14.6612 24.2294 14.7685 24.1845C14.9618 24.1013 15.1551 24.0179 15.3483 23.9343C15.9254 23.713 16.461 23.7186 17.0714 23.7245C17.1577 23.7249 17.244 23.7254 17.3329 23.7258C17.5448 23.727 17.7568 23.7287 17.9687 23.7306C17.9203 23.4405 17.9203 23.4405 17.871 23.1446C17.7598 23.1299 17.7598 23.1299 17.6463 23.1149C17.3355 23.056 17.0802 22.9938 16.7968 22.8517C16.6538 22.5981 16.6 22.3832 16.5492 22.0975C16.5214 21.8568 16.5214 21.8568 16.3085 21.6798C16.0163 21.6578 15.7335 21.6478 15.441 21.647C15.3543 21.6463 15.2676 21.6457 15.1782 21.645C14.9941 21.644 14.8101 21.6436 14.626 21.6436C14.3463 21.6432 14.0667 21.6396 13.787 21.6359C13.6079 21.6354 13.4289 21.635 13.2499 21.6348C13.1669 21.6334 13.084 21.632 12.9986 21.6305C12.2749 21.636 11.7669 21.8375 11.2426 22.339ZM15.3319 25.5861C15.1595 25.6584 14.9866 25.7296 14.8131 25.7997C14.6989 25.8471 14.6989 25.8471 14.5823 25.8954C14.1105 26.0643 13.6561 26.0909 13.1572 26.1052C13.0907 26.1073 13.0242 26.1093 12.9556 26.1114C12.7447 26.1177 12.5338 26.1235 12.3229 26.1293C12.1793 26.1335 12.0357 26.1377 11.892 26.142C11.5413 26.1525 11.1905 26.1624 10.8397 26.172C10.8397 26.3653 10.8397 26.5587 10.8397 26.7579C10.9163 26.7821 10.9928 26.8063 11.0717 26.8312C11.3752 26.9757 11.4014 27.04 11.5233 27.3439C11.5671 27.5283 11.6075 27.7135 11.6454 27.8993C11.8574 28.765 12.2593 29.3402 12.976 29.8642C13.6603 30.2479 14.372 30.2552 15.1366 30.1759C15.9085 29.9581 16.4423 29.457 16.8944 28.8087C17.14 28.3483 17.2349 27.8529 17.3217 27.342C17.3956 27.1077 17.485 27.0082 17.6757 26.8556C17.7724 26.8234 17.869 26.7911 17.9687 26.7579C17.9687 26.2745 17.9687 25.7911 17.9687 25.2931C16.9575 25.1246 16.2619 25.1547 15.3319 25.5861ZM13.2812 31.6407C13.2489 31.9308 13.2167 32.2208 13.1835 32.5196C13.7468 32.8356 14.2313 32.9779 14.8681 32.8309C15.237 32.7328 15.237 32.7328 15.5272 32.5196C15.495 32.2296 15.4628 31.9396 15.4296 31.6407C14.7206 31.6407 14.0116 31.6407 13.2812 31.6407ZM10.3087 33.6183C10.1727 33.6483 10.1727 33.6483 10.0339 33.6789C9.27352 33.8575 8.75268 34.0961 8.30069 34.7657C8.2644 34.895 8.23111 35.0251 8.20303 35.1564C10.5614 36.884 13.0816 37.7108 16.0136 37.28C17.7018 36.9846 19.2468 36.299 20.6054 35.254C20.5073 34.7197 20.3913 34.4069 19.9401 34.076C19.0598 33.6201 17.8874 33.2942 16.8944 33.3986C16.6615 33.5194 16.4915 33.6562 16.2971 33.8315C15.6933 34.3338 14.7536 34.4087 13.9983 34.3576C13.2298 34.2494 12.3743 33.9566 11.8163 33.3986C11.2971 33.3573 10.8103 33.4997 10.3087 33.6183Z" fill="#EF4C43"/>
<path d="M17.3927 4.63708C17.5416 4.63655 17.6906 4.63585 17.8395 4.63501C18.2422 4.63323 18.6449 4.63391 19.0477 4.63515C19.4701 4.63615 19.8926 4.63522 20.315 4.63461C21.0243 4.6339 21.7335 4.63484 22.4428 4.6367C23.2616 4.63882 24.0803 4.63814 24.8991 4.63598C25.6034 4.63421 26.3077 4.63396 27.012 4.63498C27.4321 4.63559 27.8522 4.63568 28.2722 4.63438C28.6673 4.63325 29.0623 4.63405 29.4573 4.6363C29.6018 4.63681 29.7464 4.63667 29.8909 4.6358C30.6725 4.63156 31.2739 4.63436 31.9336 5.07825C32.3734 5.63085 32.4379 6.06941 32.4417 6.75557C32.4422 6.83397 32.4428 6.91236 32.4434 6.99314C32.4443 7.15903 32.4449 7.32493 32.4453 7.49083C32.4462 7.74353 32.4493 7.99615 32.4524 8.24884C32.453 8.41026 32.4535 8.57169 32.4539 8.73311C32.4551 8.8082 32.4563 8.8833 32.4575 8.96067C32.4553 9.49614 32.356 9.90736 31.9824 10.317C31.5129 10.6825 31.2193 10.7545 30.6329 10.756C30.5701 10.7563 30.5072 10.7566 30.4425 10.7569C30.2315 10.7578 30.0206 10.7579 29.8096 10.758C29.6585 10.7585 29.5074 10.759 29.3563 10.7595C28.9455 10.7608 28.5347 10.7614 28.1239 10.7619C27.8672 10.7621 27.6105 10.7625 27.3539 10.763C26.5509 10.7643 25.7479 10.7653 24.9449 10.7656C24.018 10.7661 23.091 10.7678 22.164 10.7706C21.4476 10.7727 20.7311 10.7737 20.0146 10.7738C19.5866 10.774 19.1587 10.7745 18.7308 10.7763C18.3282 10.7779 17.9256 10.7781 17.5229 10.7772C17.3753 10.7772 17.2277 10.7776 17.0801 10.7785C16.8782 10.7798 16.6764 10.7792 16.4745 10.7782C16.3617 10.7783 16.2488 10.7785 16.1325 10.7786C15.7145 10.73 15.3859 10.5875 15.0737 10.3029C14.5255 9.5988 14.62 8.85842 14.6142 8.00577C14.6126 7.83311 14.6099 7.66045 14.6062 7.48783C14.6008 7.2376 14.5987 6.98753 14.5973 6.73726C14.5951 6.66104 14.5929 6.58482 14.5906 6.50629C14.5924 6.01337 14.7038 5.67859 14.9554 5.25644C15.6544 4.56944 16.4726 4.63157 17.3927 4.63708ZM16.2109 6.25012C16.2109 7.21692 16.2109 8.18372 16.2109 9.17981C21.0449 9.17981 25.8789 9.17981 30.8593 9.17981C30.8593 8.21302 30.8593 7.24622 30.8593 6.25012C26.0254 6.25012 21.1914 6.25012 16.2109 6.25012Z" fill="#EF4C43"/>
<path d="M31.974 18.9308C32.0838 18.9301 32.1936 18.9294 32.3067 18.9287C32.4272 18.9284 32.5478 18.9282 32.672 18.9279C32.8623 18.9269 32.8623 18.9269 33.0565 18.926C33.4774 18.9239 33.8983 18.9229 34.3192 18.9219C34.4642 18.9215 34.6091 18.9211 34.7541 18.9207C35.4349 18.9189 36.1157 18.9175 36.7965 18.9167C37.5824 18.9157 38.3682 18.9131 39.1541 18.9092C39.7616 18.9062 40.3691 18.9048 40.9766 18.9045C41.3394 18.9042 41.7022 18.9034 42.065 18.9009C42.4698 18.8982 42.8744 18.8986 43.2791 18.8993C43.3993 18.898 43.5194 18.8968 43.6432 18.8955C43.7536 18.8962 43.8639 18.8969 43.9776 18.8976C44.0733 18.8973 44.169 18.8971 44.2675 18.8969C44.6069 18.9591 44.7729 19.0995 45.0194 19.3358C45.0809 19.5311 45.0809 19.5311 45.0744 19.7264C45.0745 19.7909 45.0746 19.8554 45.0748 19.9218C44.9945 20.2053 44.8549 20.3217 44.6288 20.5077C44.3729 20.5571 44.3729 20.5571 44.0766 20.558C43.9077 20.5598 43.9077 20.5598 43.7355 20.5617C43.6124 20.5611 43.4893 20.5604 43.3625 20.5598C43.2313 20.5605 43.1001 20.5613 42.9688 20.5623C42.6127 20.5645 42.2566 20.5642 41.9005 20.5634C41.6032 20.5629 41.3059 20.5636 41.0086 20.5643C40.3073 20.566 39.606 20.5656 38.9047 20.564C38.1811 20.5623 37.4576 20.5639 36.734 20.567C36.1127 20.5696 35.4914 20.5704 34.8701 20.5695C34.4991 20.569 34.1281 20.5693 33.757 20.5713C33.4081 20.5731 33.0593 20.5725 32.7105 20.5701C32.5214 20.5693 32.3323 20.571 32.1432 20.5728C32.0307 20.5715 31.9181 20.5703 31.8022 20.569C31.7044 20.569 31.6066 20.5689 31.5058 20.5689C31.1521 20.4843 31.0497 20.3212 30.8593 20.0194C30.8108 19.6799 30.8178 19.5066 30.9875 19.2076C31.2806 18.9145 31.5809 18.9325 31.974 18.9308Z" fill="#EF4C43"/>
<path d="M31.5058 27.771C31.6036 27.771 31.7014 27.7709 31.8022 27.7708C31.9147 27.7696 32.0273 27.7684 32.1432 27.7671C32.2663 27.7682 32.3894 27.7694 32.5162 27.7705C32.6475 27.77 32.7787 27.7693 32.9099 27.7684C33.2661 27.7666 33.6221 27.7679 33.9783 27.7698C34.351 27.7714 34.7237 27.7705 35.0964 27.7701C35.7223 27.7696 36.3481 27.7712 36.974 27.7739C37.6976 27.777 38.4212 27.777 39.1448 27.7753C39.8409 27.7738 40.537 27.7744 41.2331 27.7761C41.5293 27.7768 41.8255 27.7767 42.1218 27.776C42.4706 27.7752 42.8194 27.7764 43.1683 27.7791C43.3574 27.7801 43.5464 27.7791 43.7355 27.7782C43.8481 27.7794 43.9606 27.7806 44.0766 27.7819C44.1744 27.7822 44.2722 27.7825 44.3729 27.7828C44.7016 27.8462 44.818 27.9596 45.0195 28.2228C45.0653 28.5894 45.0714 28.8125 44.8913 29.1383C44.597 29.4217 44.3009 29.4072 43.9129 29.4084C43.8048 29.409 43.6968 29.4095 43.5855 29.4101C43.467 29.4102 43.3484 29.4103 43.2262 29.4104C43.039 29.4111 43.039 29.4111 42.848 29.4119C42.5054 29.4132 42.1627 29.4138 41.8201 29.4142C41.606 29.4145 41.3919 29.4149 41.1778 29.4154C40.5076 29.4167 39.8375 29.4176 39.1674 29.418C38.3942 29.4184 37.621 29.4202 36.8478 29.423C36.2499 29.4251 35.652 29.4261 35.0541 29.4262C34.6971 29.4263 34.3402 29.4269 33.9832 29.4286C33.5848 29.4306 33.1865 29.4301 32.7881 29.4295C32.6701 29.4304 32.5521 29.4313 32.4306 29.4322C31.417 29.4272 31.417 29.4272 30.957 29.1017C30.8176 28.8231 30.829 28.6296 30.8593 28.3205C31.049 28.0177 31.1518 27.8556 31.5058 27.771Z" fill="#EF4C43"/>
<path d="M32.0606 23.3268C32.1679 23.3264 32.2753 23.3259 32.3859 23.3255C32.5037 23.3256 32.6215 23.3256 32.7428 23.3257C32.8669 23.3253 32.9909 23.325 33.1187 23.3247C33.4591 23.3238 33.7995 23.3236 34.1399 23.3235C34.424 23.3234 34.7082 23.3231 34.9924 23.3227C35.6629 23.3219 36.3335 23.3217 37.004 23.3217C37.6956 23.3218 38.3871 23.3208 39.0787 23.3192C39.6725 23.318 40.2664 23.3174 40.8602 23.3175C41.2148 23.3175 41.5694 23.3172 41.9241 23.3162C42.3196 23.3151 42.7152 23.3155 43.1108 23.3161C43.2282 23.3156 43.3456 23.315 43.4666 23.3145C43.5745 23.3149 43.6824 23.3153 43.7935 23.3157C43.887 23.3156 43.9805 23.3156 44.0769 23.3155C44.3634 23.3424 44.5685 23.4036 44.8242 23.5352C45.0664 23.8985 45.0648 24.0818 45.0195 24.5117C44.8185 24.7754 44.7018 24.8883 44.373 24.9518C44.2752 24.952 44.1774 24.9523 44.0766 24.9526C43.9078 24.9545 43.9078 24.9545 43.7356 24.9564C43.6125 24.9557 43.4894 24.9551 43.3626 24.9544C43.2314 24.9551 43.1001 24.956 42.9689 24.957C42.6128 24.9592 42.2567 24.9589 41.9006 24.958C41.6033 24.9575 41.306 24.9582 41.0087 24.959C40.3074 24.9606 39.6061 24.9603 38.9048 24.9586C38.1812 24.957 37.4577 24.9585 36.7341 24.9617C36.1128 24.9643 35.4915 24.965 34.8702 24.9642C34.4992 24.9637 34.1281 24.9639 33.7571 24.9659C33.4082 24.9677 33.0594 24.9671 32.7106 24.9647C32.5215 24.964 32.3324 24.9657 32.1433 24.9674C32.0308 24.9662 31.9182 24.965 31.8023 24.9637C31.7045 24.9636 31.6067 24.9636 31.5059 24.9635C31.1522 24.879 31.0501 24.7156 30.8594 24.4141C30.8105 24.115 30.8105 24.115 30.8594 23.8281C31.2052 23.3869 31.5208 23.3277 32.0606 23.3268Z" fill="#EF4C43"/>
<path d="M32.0334 32.1665C32.134 32.1657 32.134 32.1657 32.2367 32.1648C32.4573 32.1637 32.6778 32.1661 32.8984 32.1686C33.0522 32.1688 33.206 32.1688 33.3598 32.1686C33.6817 32.1687 34.0036 32.1706 34.3254 32.1736C34.7378 32.1775 35.1501 32.1779 35.5624 32.1772C35.8799 32.1769 36.1973 32.1781 36.5147 32.1798C36.6668 32.1804 36.8188 32.1808 36.9709 32.1807C37.1834 32.1808 37.3958 32.1829 37.6082 32.1856C37.7291 32.1864 37.8499 32.1872 37.9744 32.1881C38.3051 32.2296 38.4425 32.281 38.6719 32.5195C38.7572 32.8544 38.8017 33.095 38.7025 33.429C38.5417 33.6357 38.4285 33.6936 38.1837 33.7891C37.8842 33.8145 37.8842 33.8145 37.5285 33.8159C37.4635 33.8164 37.3985 33.8169 37.3316 33.8174C37.1172 33.8188 36.903 33.8187 36.6887 33.8184C36.5393 33.8188 36.39 33.8192 36.2406 33.8197C35.9278 33.8204 35.615 33.8204 35.3021 33.8199C34.9017 33.8193 34.5013 33.821 34.1009 33.8233C33.7925 33.8247 33.4842 33.8248 33.1758 33.8245C33.0282 33.8245 32.8806 33.825 32.733 33.826C32.5263 33.8272 32.3198 33.8266 32.1132 33.8254C31.9957 33.8255 31.8783 33.8256 31.7573 33.8256C31.4151 33.7855 31.231 33.7016 30.9571 33.4961C30.816 33.214 30.8226 33.0277 30.8594 32.7149C31.2202 32.2544 31.456 32.1655 32.0334 32.1665Z" fill="#EF4C43"/>
</g>
<defs>
<clipPath id="clip0_754_1275">
<rect width="50" height="50" fill="white"/>
</clipPath>
</defs>
</svg>
