<svg width="575" height="420" viewBox="0 0 575 420" fill="none" xmlns="http://www.w3.org/2000/svg">
<g clip-path="url(#clip0_722_956)">
<path d="M334.937 74.4033C345.713 74.4033 354.449 65.653 354.449 54.8589C354.449 44.0648 345.713 35.3145 334.937 35.3145C324.16 35.3145 315.424 44.0648 315.424 54.8589C315.424 65.653 324.16 74.4033 334.937 74.4033Z" fill="#F2F2F2"/>
<path d="M486.302 364.465C515.306 342.338 529.158 305.156 520.486 269.686C520.27 268.805 520.043 267.926 519.804 267.048C514.054 245.994 499.83 225.984 479.099 219.256C461.691 213.608 442.691 217.952 424.531 215.705C388.882 211.296 361.244 182.405 341.797 152.155C322.351 121.906 307.405 88.046 281.565 63.0556C238.971 21.8631 169.489 12.9943 116.679 39.8075C63.8686 66.6208 30.229 126.108 31.6637 185.395C33.0984 244.682 68.237 301.364 119.267 331.438C138.013 342.485 159.695 350.312 181.273 347.573C199.996 345.197 217.008 335.12 235.643 332.129C264.941 327.425 294.053 340.693 319.393 356.155C344.734 371.617 369.211 389.943 398.008 397.111C425.969 404.071 460.61 384.066 486.302 364.465Z" fill="#F2F2F2"/>
<path d="M444.632 41.0525C443.996 40.6279 443.353 40.2253 442.717 39.8154C424.338 28.0421 404.639 18.4776 384.027 11.3194L379.248 77.3587H348.949V1.67926C347.042 1.28399 345.12 0.910677 343.198 0.559326V77.3587H307.192C287.37 77.3587 268.36 69.4717 254.344 55.4329C240.328 41.394 232.454 22.3531 232.454 2.49916C230.525 2.91639 228.61 3.36283 226.695 3.83862V77.3587H197.369L192.816 14.3864C171.634 22.5234 151.524 33.2238 132.935 46.2496C132.613 46.4692 132.292 46.6961 131.978 46.9157C130.363 48.0502 128.77 49.2068 127.184 50.3779V302.318H213.614L212.087 281.127L203.683 164.779H372.926L364.522 281.127L362.995 302.318H448.468V43.5998C447.197 42.7361 445.918 41.887 444.632 41.0525ZM226.695 145.565H202.294L197.785 83.1267H226.695V145.565ZM343.198 145.565H302.215V144.328C302.215 143.733 302.098 143.144 301.871 142.595C301.643 142.045 301.31 141.546 300.89 141.126C300.47 140.706 299.971 140.373 299.422 140.146C298.873 139.919 298.285 139.803 297.692 139.804H279.875C279.282 139.804 278.694 139.921 278.146 140.148C277.598 140.375 277.1 140.708 276.681 141.128C276.262 141.548 275.929 142.047 275.702 142.596C275.475 143.145 275.358 143.733 275.359 144.328V145.565H232.454V83.1267H343.198V145.565ZM348.949 145.565V83.1267H378.831L374.322 145.565H348.949Z" fill="#2B376C"/>
<path d="M0 318.452C6.34856 325.986 13.2152 333.067 20.5498 339.642L554.45 340.374C561.785 333.799 568.651 326.718 575 319.184L0 318.452Z" fill="#2B376C"/>
<path d="M362.055 250.597V313.331C362.056 314.131 362.373 314.897 362.938 315.462C363.502 316.028 364.267 316.346 365.065 316.346H457.879C458.677 316.346 459.442 316.028 460.007 315.462C460.571 314.897 460.888 314.131 460.889 313.331V250.597C460.887 249.799 460.569 249.033 460.005 248.469C459.441 247.904 458.676 247.587 457.879 247.586H365.065C364.268 247.587 363.503 247.904 362.939 248.469C362.375 249.033 362.057 249.799 362.055 250.597Z" fill="#2B376C"/>
<path d="M364.232 251.378V312.557C364.233 312.984 364.403 313.394 364.704 313.696C365.006 313.998 365.415 314.168 365.841 314.169H457.106C457.533 314.168 457.941 313.998 458.243 313.696C458.545 313.394 458.714 312.984 458.715 312.557V251.378C458.715 250.95 458.546 250.54 458.244 250.237C457.942 249.935 457.533 249.764 457.106 249.763H365.841C365.414 249.764 365.005 249.935 364.703 250.237C364.402 250.54 364.232 250.95 364.232 251.378Z" fill="#EF4C43"/>
<path d="M360.114 325.566C360.284 325.779 360.5 325.952 360.746 326.069C360.992 326.187 361.262 326.248 361.534 326.246H460.916C461.188 326.246 461.456 326.185 461.701 326.068C461.947 325.951 462.163 325.78 462.334 325.569C462.505 325.357 462.627 325.11 462.691 324.846C462.755 324.581 462.759 324.306 462.703 324.039L461.161 316.699C461.097 316.4 460.959 316.121 460.76 315.889C460.561 315.657 460.308 315.478 460.022 315.369C459.815 315.287 459.595 315.246 459.373 315.246H363.071C362.849 315.246 362.629 315.287 362.422 315.369C362.136 315.478 361.883 315.657 361.684 315.889C361.485 316.121 361.347 316.4 361.283 316.699L359.741 324.039C359.686 324.305 359.691 324.581 359.755 324.845C359.82 325.109 359.943 325.355 360.114 325.566Z" fill="#1F2850"/>
<path d="M455.963 318.407H458.31C458.508 318.407 458.667 318.248 458.667 318.05V316.925C458.667 316.728 458.508 316.568 458.31 316.568H455.963C455.766 316.568 455.606 316.728 455.606 316.925V318.05C455.606 318.248 455.766 318.407 455.963 318.407Z" fill="#2B376C"/>
<path d="M449.841 318.407H452.189C452.386 318.407 452.545 318.248 452.545 318.05V316.925C452.545 316.728 452.386 316.568 452.189 316.568H449.841C449.644 316.568 449.485 316.728 449.485 316.925V318.05C449.485 318.248 449.644 318.407 449.841 318.407Z" fill="#2B376C"/>
<path d="M443.719 318.407H446.067C446.264 318.407 446.424 318.248 446.424 318.05V316.925C446.424 316.728 446.264 316.568 446.067 316.568H443.719C443.522 316.568 443.363 316.728 443.363 316.925V318.05C443.363 318.248 443.522 318.407 443.719 318.407Z" fill="#2B376C"/>
<path d="M437.598 318.407H439.945C440.142 318.407 440.302 318.248 440.302 318.05V316.925C440.302 316.728 440.142 316.568 439.945 316.568H437.598C437.401 316.568 437.241 316.728 437.241 316.925V318.05C437.241 318.248 437.401 318.407 437.598 318.407Z" fill="#2B376C"/>
<path d="M431.476 318.407H433.823C434.02 318.407 434.18 318.248 434.18 318.05V316.925C434.18 316.728 434.02 316.568 433.823 316.568H431.476C431.279 316.568 431.119 316.728 431.119 316.925V318.05C431.119 318.248 431.279 318.407 431.476 318.407Z" fill="#2B376C"/>
<path d="M425.354 318.407H427.701C427.898 318.407 428.058 318.248 428.058 318.05V316.925C428.058 316.728 427.898 316.568 427.701 316.568H425.354C425.157 316.568 424.997 316.728 424.997 316.925V318.05C424.997 318.248 425.157 318.407 425.354 318.407Z" fill="#2B376C"/>
<path d="M419.232 318.407H421.58C421.777 318.407 421.936 318.248 421.936 318.05V316.925C421.936 316.728 421.777 316.568 421.58 316.568H419.232C419.035 316.568 418.876 316.728 418.876 316.925V318.05C418.876 318.248 419.035 318.407 419.232 318.407Z" fill="#2B376C"/>
<path d="M413.11 318.407H415.458C415.655 318.407 415.815 318.248 415.815 318.05V316.925C415.815 316.728 415.655 316.568 415.458 316.568H413.11C412.913 316.568 412.754 316.728 412.754 316.925V318.05C412.754 318.248 412.913 318.407 413.11 318.407Z" fill="#2B376C"/>
<path d="M406.989 318.407H409.336C409.533 318.407 409.693 318.248 409.693 318.05V316.925C409.693 316.728 409.533 316.568 409.336 316.568H406.989C406.792 316.568 406.632 316.728 406.632 316.925V318.05C406.632 318.248 406.792 318.407 406.989 318.407Z" fill="#2B376C"/>
<path d="M400.867 318.407H403.214C403.411 318.407 403.571 318.248 403.571 318.05V316.925C403.571 316.728 403.411 316.568 403.214 316.568H400.867C400.67 316.568 400.51 316.728 400.51 316.925V318.05C400.51 318.248 400.67 318.407 400.867 318.407Z" fill="#2B376C"/>
<path d="M394.745 318.407H397.092C397.289 318.407 397.449 318.248 397.449 318.05V316.925C397.449 316.728 397.289 316.568 397.092 316.568H394.745C394.548 316.568 394.388 316.728 394.388 316.925V318.05C394.388 318.248 394.548 318.407 394.745 318.407Z" fill="#2B376C"/>
<path d="M388.623 318.407H390.97C391.168 318.407 391.327 318.248 391.327 318.05V316.925C391.327 316.728 391.168 316.568 390.97 316.568H388.623C388.426 316.568 388.266 316.728 388.266 316.925V318.05C388.266 318.248 388.426 318.407 388.623 318.407Z" fill="#2B376C"/>
<path d="M382.501 318.407H384.849C385.046 318.407 385.205 318.248 385.205 318.05V316.925C385.205 316.728 385.046 316.568 384.849 316.568H382.501C382.304 316.568 382.145 316.728 382.145 316.925V318.05C382.145 318.248 382.304 318.407 382.501 318.407Z" fill="#2B376C"/>
<path d="M376.38 318.407H378.727C378.924 318.407 379.084 318.248 379.084 318.05V316.925C379.084 316.728 378.924 316.568 378.727 316.568H376.38C376.183 316.568 376.023 316.728 376.023 316.925V318.05C376.023 318.248 376.183 318.407 376.38 318.407Z" fill="#2B376C"/>
<path d="M370.258 318.407H372.605C372.802 318.407 372.962 318.248 372.962 318.05V316.925C372.962 316.728 372.802 316.568 372.605 316.568H370.258C370.061 316.568 369.901 316.728 369.901 316.925V318.05C369.901 318.248 370.061 318.407 370.258 318.407Z" fill="#2B376C"/>
<path d="M364.136 318.407H366.483C366.68 318.407 366.84 318.248 366.84 318.05V316.925C366.84 316.728 366.68 316.568 366.483 316.568H364.136C363.939 316.568 363.779 316.728 363.779 316.925V318.05C363.779 318.248 363.939 318.407 364.136 318.407Z" fill="#2B376C"/>
<path d="M456.035 321.473H458.383C458.58 321.473 458.74 321.313 458.74 321.116V319.991C458.74 319.794 458.58 319.634 458.383 319.634H456.035C455.838 319.634 455.679 319.794 455.679 319.991V321.116C455.679 321.313 455.838 321.473 456.035 321.473Z" fill="#2B376C"/>
<path d="M449.914 321.473H452.261C452.458 321.473 452.618 321.313 452.618 321.116V319.991C452.618 319.794 452.458 319.634 452.261 319.634H449.914C449.717 319.634 449.557 319.794 449.557 319.991V321.116C449.557 321.313 449.717 321.473 449.914 321.473Z" fill="#2B376C"/>
<path d="M443.792 321.473H446.139C446.336 321.473 446.496 321.313 446.496 321.116V319.991C446.496 319.794 446.336 319.634 446.139 319.634H443.792C443.595 319.634 443.435 319.794 443.435 319.991V321.116C443.435 321.313 443.595 321.473 443.792 321.473Z" fill="#2B376C"/>
<path d="M437.67 321.473H440.017C440.214 321.473 440.374 321.313 440.374 321.116V319.991C440.374 319.794 440.214 319.634 440.017 319.634H437.67C437.473 319.634 437.313 319.794 437.313 319.991V321.116C437.313 321.313 437.473 321.473 437.67 321.473Z" fill="#2B376C"/>
<path d="M431.548 321.473H433.896C434.093 321.473 434.252 321.313 434.252 321.116V319.991C434.252 319.794 434.093 319.634 433.896 319.634H431.548C431.351 319.634 431.191 319.794 431.191 319.991V321.116C431.191 321.313 431.351 321.473 431.548 321.473Z" fill="#2B376C"/>
<path d="M425.426 321.473H427.774C427.971 321.473 428.13 321.313 428.13 321.116V319.991C428.13 319.794 427.971 319.634 427.774 319.634H425.426C425.229 319.634 425.07 319.794 425.07 319.991V321.116C425.07 321.313 425.229 321.473 425.426 321.473Z" fill="#2B376C"/>
<path d="M419.305 321.473H421.652C421.849 321.473 422.009 321.313 422.009 321.116V319.991C422.009 319.794 421.849 319.634 421.652 319.634H419.305C419.108 319.634 418.948 319.794 418.948 319.991V321.116C418.948 321.313 419.108 321.473 419.305 321.473Z" fill="#2B376C"/>
<path d="M413.183 321.473H415.53C415.727 321.473 415.887 321.313 415.887 321.116V319.991C415.887 319.794 415.727 319.634 415.53 319.634H413.183C412.986 319.634 412.826 319.794 412.826 319.991V321.116C412.826 321.313 412.986 321.473 413.183 321.473Z" fill="#2B376C"/>
<path d="M407.061 321.473H409.408C409.605 321.473 409.765 321.313 409.765 321.116V319.991C409.765 319.794 409.605 319.634 409.408 319.634H407.061C406.864 319.634 406.704 319.794 406.704 319.991V321.116C406.704 321.313 406.864 321.473 407.061 321.473Z" fill="#2B376C"/>
<path d="M400.939 321.473H403.287C403.484 321.473 403.643 321.313 403.643 321.116V319.991C403.643 319.794 403.484 319.634 403.287 319.634H400.939C400.742 319.634 400.582 319.794 400.582 319.991V321.116C400.582 321.313 400.742 321.473 400.939 321.473Z" fill="#2B376C"/>
<path d="M394.817 321.473H397.165C397.362 321.473 397.521 321.313 397.521 321.116V319.991C397.521 319.794 397.362 319.634 397.165 319.634H394.817C394.62 319.634 394.461 319.794 394.461 319.991V321.116C394.461 321.313 394.62 321.473 394.817 321.473Z" fill="#2B376C"/>
<path d="M388.696 321.473H391.043C391.24 321.473 391.4 321.313 391.4 321.116V319.991C391.4 319.794 391.24 319.634 391.043 319.634H388.696C388.498 319.634 388.339 319.794 388.339 319.991V321.116C388.339 321.313 388.498 321.473 388.696 321.473Z" fill="#2B376C"/>
<path d="M382.574 321.473H384.921C385.118 321.473 385.278 321.313 385.278 321.116V319.991C385.278 319.794 385.118 319.634 384.921 319.634H382.574C382.377 319.634 382.217 319.794 382.217 319.991V321.116C382.217 321.313 382.377 321.473 382.574 321.473Z" fill="#2B376C"/>
<path d="M376.452 321.473H378.799C378.996 321.473 379.156 321.313 379.156 321.116V319.991C379.156 319.794 378.996 319.634 378.799 319.634H376.452C376.255 319.634 376.095 319.794 376.095 319.991V321.116C376.095 321.313 376.255 321.473 376.452 321.473Z" fill="#2B376C"/>
<path d="M370.33 321.473H372.677C372.874 321.473 373.034 321.313 373.034 321.116V319.991C373.034 319.794 372.874 319.634 372.677 319.634H370.33C370.133 319.634 369.973 319.794 369.973 319.991V321.116C369.973 321.313 370.133 321.473 370.33 321.473Z" fill="#2B376C"/>
<path d="M364.208 321.473H366.556C366.753 321.473 366.912 321.313 366.912 321.116V319.991C366.912 319.794 366.753 319.634 366.556 319.634H364.208C364.011 319.634 363.851 319.794 363.851 319.991V321.116C363.851 321.313 364.011 321.473 364.208 321.473Z" fill="#2B376C"/>
<path d="M405.224 325.152H428.998C429.195 325.152 429.355 324.992 429.355 324.795V323.67C429.355 323.473 429.195 323.313 428.998 323.313H405.224C405.027 323.313 404.868 323.473 404.868 323.67V324.795C404.868 324.992 405.027 325.152 405.224 325.152Z" fill="#2B376C"/>
<path d="M380.037 263.148H377.959C377.329 263.148 376.818 263.66 376.818 264.291C376.818 264.922 377.329 265.433 377.959 265.433H380.037C380.667 265.433 381.178 264.922 381.178 264.291C381.178 263.66 380.667 263.148 380.037 263.148Z" fill="white"/>
<path d="M403.804 263.148H401.726C401.096 263.148 400.585 263.66 400.585 264.291C400.585 264.922 401.096 265.433 401.726 265.433H403.804C404.434 265.433 404.945 264.922 404.945 264.291C404.945 263.66 404.434 263.148 403.804 263.148Z" fill="white"/>
<path d="M410.538 263.148H408.46C407.83 263.148 407.32 263.66 407.32 264.291C407.32 264.922 407.83 265.433 408.46 265.433H410.538C411.169 265.433 411.679 264.922 411.679 264.291C411.679 263.66 411.169 263.148 410.538 263.148Z" fill="white"/>
<path d="M397.339 262.957H384.424C383.793 262.957 383.283 263.469 383.283 264.1C383.283 264.731 383.793 265.243 384.424 265.243H397.339C397.97 265.243 398.48 264.731 398.48 264.1C398.48 263.469 397.97 262.957 397.339 262.957Z" fill="white"/>
<path d="M429.029 262.957H416.114C415.483 262.957 414.973 263.469 414.973 264.1C414.973 264.731 415.483 265.243 416.114 265.243H429.029C429.66 265.243 430.17 264.731 430.17 264.1C430.17 263.469 429.66 262.957 429.029 262.957Z" fill="white"/>
<path d="M386.375 268.306H384.297C383.667 268.306 383.156 268.818 383.156 269.449C383.156 270.08 383.667 270.591 384.297 270.591H386.375C387.005 270.591 387.516 270.08 387.516 269.449C387.516 268.818 387.005 268.306 386.375 268.306Z" fill="white"/>
<path d="M410.142 268.306H408.064C407.434 268.306 406.923 268.818 406.923 269.449C406.923 270.08 407.434 270.591 408.064 270.591H410.142C410.772 270.591 411.283 270.08 411.283 269.449C411.283 268.818 410.772 268.306 410.142 268.306Z" fill="white"/>
<path d="M416.877 268.306H414.798C414.168 268.306 413.658 268.818 413.658 269.449C413.658 270.08 414.168 270.591 414.798 270.591H416.877C417.507 270.591 418.017 270.08 418.017 269.449C418.017 268.818 417.507 268.306 416.877 268.306Z" fill="white"/>
<path d="M403.678 268.115H390.762C390.132 268.115 389.621 268.627 389.621 269.258C389.621 269.889 390.132 270.401 390.762 270.401H403.678C404.308 270.401 404.818 269.889 404.818 269.258C404.818 268.627 404.308 268.115 403.678 268.115Z" fill="white"/>
<path d="M435.368 268.115H422.452C421.822 268.115 421.311 268.627 421.311 269.258C421.311 269.889 421.822 270.401 422.452 270.401H435.368C435.998 270.401 436.508 269.889 436.508 269.258C436.508 268.627 435.998 268.115 435.368 268.115Z" fill="white"/>
<path d="M392.713 273.464H390.635C390.005 273.464 389.494 273.975 389.494 274.607C389.494 275.238 390.005 275.749 390.635 275.749H392.713C393.343 275.749 393.854 275.238 393.854 274.607C393.854 273.975 393.343 273.464 392.713 273.464Z" fill="white"/>
<path d="M416.48 273.464H414.402C413.772 273.464 413.261 273.975 413.261 274.607C413.261 275.238 413.772 275.749 414.402 275.749H416.48C417.11 275.749 417.621 275.238 417.621 274.607C417.621 273.975 417.11 273.464 416.48 273.464Z" fill="white"/>
<path d="M423.214 273.464H421.136C420.506 273.464 419.995 273.975 419.995 274.607C419.995 275.238 420.506 275.749 421.136 275.749H423.214C423.845 275.749 424.355 275.238 424.355 274.607C424.355 273.975 423.845 273.464 423.214 273.464Z" fill="white"/>
<path d="M410.016 273.273H397.1C396.469 273.273 395.959 273.785 395.959 274.416C395.959 275.047 396.469 275.559 397.1 275.559H410.016C410.646 275.559 411.156 275.047 411.156 274.416C411.156 273.785 410.646 273.273 410.016 273.273Z" fill="white"/>
<path d="M441.706 273.273H428.79C428.159 273.273 427.649 273.785 427.649 274.416C427.649 275.047 428.159 275.559 428.79 275.559H441.706C442.336 275.559 442.846 275.047 442.846 274.416C442.846 273.785 442.336 273.273 441.706 273.273Z" fill="white"/>
<path d="M399.051 278.622H396.973C396.343 278.622 395.832 279.133 395.832 279.764C395.832 280.396 396.343 280.907 396.973 280.907H399.051C399.681 280.907 400.192 280.396 400.192 279.764C400.192 279.133 399.681 278.622 399.051 278.622Z" fill="white"/>
<path d="M422.818 278.622H420.74C420.11 278.622 419.599 279.133 419.599 279.764C419.599 280.396 420.11 280.907 420.74 280.907H422.818C423.448 280.907 423.959 280.396 423.959 279.764C423.959 279.133 423.448 278.622 422.818 278.622Z" fill="white"/>
<path d="M429.552 278.622H427.474C426.844 278.622 426.333 279.133 426.333 279.764C426.333 280.396 426.844 280.907 427.474 280.907H429.552C430.183 280.907 430.693 280.396 430.693 279.764C430.693 279.133 430.183 278.622 429.552 278.622Z" fill="white"/>
<path d="M416.354 278.431H403.438C402.807 278.431 402.297 278.943 402.297 279.574C402.297 280.205 402.807 280.717 403.438 280.717H416.354C416.984 280.717 417.494 280.205 417.494 279.574C417.494 278.943 416.984 278.431 416.354 278.431Z" fill="white"/>
<path d="M403.804 299.132H401.726C401.096 299.132 400.585 299.644 400.585 300.275C400.585 300.906 401.096 301.418 401.726 301.418H403.804C404.434 301.418 404.945 300.906 404.945 300.275C404.945 299.644 404.434 299.132 403.804 299.132Z" fill="white"/>
<path d="M410.538 299.132H408.46C407.83 299.132 407.32 299.644 407.32 300.275C407.32 300.906 407.83 301.418 408.46 301.418H410.538C411.169 301.418 411.679 300.906 411.679 300.275C411.679 299.644 411.169 299.132 410.538 299.132Z" fill="white"/>
<path d="M429.029 299.323H416.114C415.483 299.323 414.973 299.834 414.973 300.465C414.973 301.097 415.483 301.608 416.114 301.608H429.029C429.66 301.608 430.17 301.097 430.17 300.465C430.17 299.834 429.66 299.323 429.029 299.323Z" fill="white"/>
<path d="M380.037 299.132H377.959C377.329 299.132 376.818 299.644 376.818 300.275C376.818 300.906 377.329 301.418 377.959 301.418H380.037C380.667 301.418 381.178 300.906 381.178 300.275C381.178 299.644 380.667 299.132 380.037 299.132Z" fill="white"/>
<path d="M397.339 299.323H384.424C383.793 299.323 383.283 299.834 383.283 300.465C383.283 301.097 383.793 301.608 384.424 301.608H397.339C397.97 301.608 398.48 301.097 398.48 300.465C398.48 299.834 397.97 299.323 397.339 299.323Z" fill="white"/>
<path d="M386.375 293.974H384.297C383.667 293.974 383.156 294.486 383.156 295.117C383.156 295.748 383.667 296.26 384.297 296.26H386.375C387.005 296.26 387.516 295.748 387.516 295.117C387.516 294.486 387.005 293.974 386.375 293.974Z" fill="white"/>
<path d="M410.142 293.974H408.064C407.434 293.974 406.923 294.486 406.923 295.117C406.923 295.748 407.434 296.26 408.064 296.26H410.142C410.772 296.26 411.283 295.748 411.283 295.117C411.283 294.486 410.772 293.974 410.142 293.974Z" fill="white"/>
<path d="M416.877 293.974H414.798C414.168 293.974 413.658 294.486 413.658 295.117C413.658 295.748 414.168 296.26 414.798 296.26H416.877C417.507 296.26 418.017 295.748 418.017 295.117C418.017 294.486 417.507 293.974 416.877 293.974Z" fill="white"/>
<path d="M403.678 294.165H390.762C390.132 294.165 389.621 294.676 389.621 295.307C389.621 295.939 390.132 296.45 390.762 296.45H403.678C404.308 296.45 404.818 295.939 404.818 295.307C404.818 294.676 404.308 294.165 403.678 294.165Z" fill="white"/>
<path d="M392.713 288.816H390.635C390.005 288.816 389.494 289.328 389.494 289.959C389.494 290.59 390.005 291.102 390.635 291.102H392.713C393.343 291.102 393.854 290.59 393.854 289.959C393.854 289.328 393.343 288.816 392.713 288.816Z" fill="white"/>
<path d="M416.48 288.816H414.402C413.772 288.816 413.261 289.328 413.261 289.959C413.261 290.59 413.772 291.102 414.402 291.102H416.48C417.11 291.102 417.621 290.59 417.621 289.959C417.621 289.328 417.11 288.816 416.48 288.816Z" fill="white"/>
<path d="M423.214 288.816H421.136C420.506 288.816 419.995 289.328 419.995 289.959C419.995 290.59 420.506 291.102 421.136 291.102H423.214C423.845 291.102 424.355 290.59 424.355 289.959C424.355 289.328 423.845 288.816 423.214 288.816Z" fill="white"/>
<path d="M410.016 289.007H397.1C396.469 289.007 395.959 289.518 395.959 290.15C395.959 290.781 396.469 291.292 397.1 291.292H410.016C410.646 291.292 411.156 290.781 411.156 290.15C411.156 289.518 410.646 289.007 410.016 289.007Z" fill="white"/>
<path d="M399.051 283.658H396.973C396.343 283.658 395.832 284.17 395.832 284.801C395.832 285.432 396.343 285.944 396.973 285.944H399.051C399.681 285.944 400.192 285.432 400.192 284.801C400.192 284.17 399.681 283.658 399.051 283.658Z" fill="white"/>
<path d="M422.818 283.658H420.74C420.11 283.658 419.599 284.17 419.599 284.801C419.599 285.432 420.11 285.944 420.74 285.944H422.818C423.448 285.944 423.959 285.432 423.959 284.801C423.959 284.17 423.448 283.658 422.818 283.658Z" fill="white"/>
<path d="M429.552 283.658H427.474C426.844 283.658 426.333 284.17 426.333 284.801C426.333 285.432 426.844 285.944 427.474 285.944H429.552C430.183 285.944 430.693 285.432 430.693 284.801C430.693 284.17 430.183 283.658 429.552 283.658Z" fill="white"/>
<path d="M416.354 283.849H403.438C402.807 283.849 402.297 284.36 402.297 284.991C402.297 285.622 402.807 286.134 403.438 286.134H416.354C416.984 286.134 417.494 285.622 417.494 284.991C417.494 284.36 416.984 283.849 416.354 283.849Z" fill="white"/>
<path d="M368.988 359.582L359.233 344.136L389.854 319.686L402.493 305.661C404.136 303.838 406.226 302.48 408.557 301.721C410.887 300.961 413.376 300.828 415.774 301.334C418.172 301.84 420.396 302.967 422.223 304.603C424.049 306.24 425.415 308.328 426.184 310.658C427.323 314.112 427.079 317.875 425.501 321.151C423.923 324.428 421.137 326.962 417.729 328.219L397.743 335.594L368.988 359.582Z" fill="#FFB6B6"/>
<path d="M140.085 247.589V322.661H192.592V247.589C192.593 247.049 192.421 246.523 192.102 246.088C191.782 245.653 191.332 245.333 190.817 245.173C190.574 245.093 190.319 245.053 190.064 245.056H142.621C142.288 245.055 141.959 245.12 141.651 245.247C141.344 245.374 141.064 245.561 140.829 245.796C140.593 246.031 140.407 246.311 140.279 246.618C140.151 246.926 140.085 247.256 140.085 247.589ZM160.576 273.384C160.59 271.904 161.187 270.489 162.236 269.447C163.286 268.406 164.704 267.821 166.182 267.821C167.659 267.821 169.077 268.406 170.127 269.447C171.176 270.489 171.773 271.904 171.787 273.384V282.094C171.779 283.578 171.185 284.999 170.135 286.046C169.085 287.092 167.663 287.68 166.182 287.68C164.7 287.68 163.279 287.092 162.228 286.046C161.178 284.999 160.584 283.578 160.576 282.094V273.384Z" fill="#1F2850"/>
<path d="M139.924 320.26V327.499C139.925 327.874 140.074 328.233 140.338 328.499C140.602 328.765 140.96 328.916 141.335 328.919H191.343C191.717 328.917 192.076 328.767 192.341 328.501C192.605 328.235 192.753 327.874 192.753 327.499V320.26H139.924Z" fill="#2B376C"/>
<path d="M57.4839 134.483V271.554C57.4853 273.3 58.1787 274.975 59.4118 276.21C60.6449 277.446 62.3171 278.14 64.061 278.141H266.855C268.599 278.14 270.271 277.446 271.504 276.21C272.738 274.975 273.431 273.3 273.432 271.554V134.483C273.428 132.738 272.734 131.065 271.501 129.832C270.268 128.599 268.598 127.905 266.855 127.903H64.061C62.3186 127.905 60.6481 128.599 59.4153 129.832C58.1825 131.065 57.488 132.738 57.4839 134.483Z" fill="#2B376C"/>
<path d="M62.2413 136.189V269.863C62.2429 270.796 62.6138 271.691 63.2726 272.351C63.9315 273.011 64.8247 273.382 65.7564 273.384H265.167C266.099 273.382 266.992 273.011 267.651 272.351C268.31 271.691 268.681 270.796 268.682 269.863V136.189C268.682 135.254 268.312 134.358 267.653 133.696C266.994 133.035 266.1 132.662 265.167 132.66H65.7564C64.8235 132.662 63.9295 133.035 63.2705 133.696C62.6116 134.358 62.2414 135.254 62.2413 136.189Z" fill="white"/>
<path d="M99.2485 328.429C99.4515 328.683 99.7095 328.889 100.003 329.03C100.297 329.17 100.618 329.243 100.944 329.241H219.58C219.905 329.241 220.225 329.168 220.518 329.028C220.811 328.888 221.069 328.684 221.273 328.432C221.477 328.18 221.623 327.885 221.699 327.569C221.776 327.253 221.781 326.924 221.714 326.606L219.873 317.844C219.796 317.487 219.632 317.154 219.395 316.877C219.157 316.599 218.854 316.386 218.513 316.256C218.267 316.159 218.004 316.109 217.739 316.109H102.778C102.513 316.109 102.25 316.159 102.004 316.256C101.663 316.386 101.36 316.599 101.122 316.877C100.885 317.154 100.721 317.487 100.644 317.844L98.8027 326.606C98.7372 326.924 98.7432 327.252 98.8203 327.568C98.8975 327.883 99.0437 328.177 99.2485 328.429Z" fill="#1F2850"/>
<path d="M258.696 151.075H72.1078C71.9138 151.07 71.7293 150.99 71.5937 150.851C71.458 150.712 71.3821 150.526 71.3821 150.331C71.3821 150.137 71.458 149.95 71.5937 149.812C71.7293 149.673 71.9138 149.592 72.1078 149.588H258.696C258.889 149.592 259.074 149.673 259.21 149.812C259.345 149.95 259.421 150.137 259.421 150.331C259.421 150.526 259.345 150.712 259.21 150.851C259.074 150.99 258.889 151.07 258.696 151.075Z" fill="#2B376C"/>
<path d="M84.8091 145.794C87.2107 145.794 89.1576 143.8 89.1576 141.341C89.1576 138.882 87.2107 136.888 84.8091 136.888C82.4075 136.888 80.4606 138.882 80.4606 141.341C80.4606 143.8 82.4075 145.794 84.8091 145.794Z" fill="#2B376C"/>
<path d="M99.8312 145.794C102.233 145.794 104.18 143.8 104.18 141.341C104.18 138.882 102.233 136.888 99.8312 136.888C97.4296 136.888 95.4827 138.882 95.4827 141.341C95.4827 143.8 97.4296 145.794 99.8312 145.794Z" fill="#2B376C"/>
<path d="M114.853 145.794C117.255 145.794 119.202 143.8 119.202 141.341C119.202 138.882 117.255 136.888 114.853 136.888C112.452 136.888 110.505 138.882 110.505 141.341C110.505 143.8 112.452 145.794 114.853 145.794Z" fill="#2B376C"/>
<path d="M249.65 137.989H238.98C238.769 137.994 238.569 138.082 238.421 138.233C238.274 138.384 238.191 138.587 238.191 138.798C238.191 139.009 238.274 139.212 238.421 139.363C238.569 139.515 238.769 139.602 238.98 139.607H249.65C249.862 139.604 250.064 139.517 250.213 139.366C250.362 139.215 250.446 139.011 250.446 138.798C250.446 138.586 250.362 138.382 250.213 138.23C250.064 138.079 249.862 137.992 249.65 137.989Z" fill="#2B376C"/>
<path d="M249.65 141.027H238.98C238.769 141.032 238.568 141.119 238.421 141.27C238.273 141.421 238.19 141.624 238.19 141.836C238.19 142.047 238.273 142.25 238.421 142.402C238.568 142.553 238.769 142.64 238.98 142.645H249.65C249.862 142.642 250.065 142.556 250.214 142.404C250.364 142.253 250.448 142.049 250.448 141.836C250.448 141.623 250.364 141.419 250.214 141.267C250.065 141.116 249.862 141.03 249.65 141.027Z" fill="#2B376C"/>
<path d="M249.65 144.065H238.98C238.769 144.07 238.569 144.157 238.421 144.308C238.274 144.459 238.191 144.662 238.191 144.874C238.191 145.085 238.274 145.288 238.421 145.439C238.569 145.59 238.769 145.677 238.98 145.682H249.65C249.862 145.679 250.064 145.593 250.213 145.441C250.362 145.29 250.446 145.086 250.446 144.874C250.446 144.661 250.362 144.457 250.213 144.306C250.064 144.154 249.862 144.068 249.65 144.065Z" fill="#2B376C"/>
<path d="M506.873 323.437C507.195 324.376 507.805 325.188 508.617 325.758C509.429 326.328 510.4 326.625 511.391 326.607L530.751 326.108C531.749 326.089 532.715 325.746 533.503 325.132C534.29 324.517 534.858 323.664 535.122 322.699L537.862 293.356C538.834 293.797 539.892 294.015 540.959 293.994C541.886 293.97 542.799 293.764 543.646 293.388C544.494 293.011 545.259 292.47 545.898 291.797C546.537 291.124 547.037 290.332 547.37 289.465C547.703 288.599 547.863 287.675 547.84 286.746C547.816 285.818 547.611 284.903 547.235 284.054C546.858 283.206 546.319 282.439 545.647 281.799C544.975 281.159 544.184 280.658 543.319 280.324C542.454 279.991 541.531 279.831 540.604 279.854C540.178 279.853 539.752 279.897 539.335 279.986C538.882 279.495 538.331 279.104 537.717 278.839C537.104 278.574 536.442 278.44 535.774 278.447L505.994 279.217C505.747 279.226 505.501 279.257 505.259 279.309C504.606 279.431 503.986 279.691 503.442 280.073C502.898 280.455 502.442 280.949 502.105 281.522C501.767 282.095 501.556 282.734 501.486 283.396C501.416 284.058 501.488 284.727 501.698 285.358L506.873 323.437ZM538.423 291.364L540.373 284.371C540.595 283.564 540.6 282.712 540.388 281.901C540.482 281.901 540.566 281.856 540.66 281.856C541.997 281.828 543.29 282.333 544.256 283.258C545.222 284.184 545.782 285.456 545.814 286.795C545.845 288.134 545.345 289.43 544.423 290.4C543.502 291.37 542.233 291.935 540.897 291.97C540.033 291.997 539.178 291.787 538.423 291.364Z" fill="#1F2850"/>
<path d="M505.259 279.309C505.893 282.942 513.027 285.497 521.604 285.053C529.491 284.689 535.94 281.915 537.121 278.627C536.684 278.497 536.229 278.437 535.774 278.447L505.994 279.217C505.747 279.226 505.501 279.257 505.259 279.309Z" fill="#2B376C"/>
<path d="M523.176 307.313C523.215 307.303 523.252 307.286 523.286 307.264L527.49 304.508C527.541 304.474 527.583 304.429 527.612 304.376C527.641 304.322 527.656 304.262 527.656 304.202C527.656 304.141 527.641 304.081 527.612 304.028C527.583 303.974 527.541 303.929 527.49 303.895L523.121 301.029C523.08 301.002 523.035 300.984 522.988 300.974C522.941 300.965 522.892 300.966 522.845 300.975C522.798 300.985 522.754 301.004 522.714 301.031C522.674 301.058 522.64 301.093 522.614 301.133C522.587 301.173 522.569 301.218 522.56 301.266C522.551 301.313 522.552 301.362 522.562 301.409C522.571 301.456 522.591 301.501 522.618 301.54C522.645 301.58 522.68 301.614 522.72 301.64L526.623 304.201L522.886 306.652C522.814 306.699 522.76 306.771 522.736 306.854C522.711 306.937 522.717 307.026 522.751 307.105C522.786 307.184 522.848 307.249 522.925 307.287C523.003 307.325 523.092 307.334 523.176 307.313Z" fill="#EF4C43"/>
<path d="M516.535 307.619C516.606 307.601 516.669 307.563 516.718 307.508C516.766 307.454 516.798 307.386 516.807 307.314C516.817 307.242 516.805 307.168 516.773 307.103C516.741 307.038 516.69 306.983 516.627 306.947L512.752 304.721L516.498 301.935C516.536 301.906 516.569 301.87 516.593 301.829C516.618 301.788 516.634 301.742 516.641 301.694C516.648 301.647 516.646 301.599 516.634 301.552C516.622 301.505 516.601 301.462 516.573 301.423C516.544 301.384 516.508 301.352 516.467 301.327C516.426 301.303 516.38 301.286 516.333 301.279C516.286 301.272 516.237 301.275 516.191 301.286C516.144 301.298 516.101 301.319 516.062 301.348L511.868 304.468C511.82 304.504 511.781 304.552 511.755 304.607C511.729 304.662 511.718 304.722 511.721 304.783C511.725 304.844 511.743 304.902 511.775 304.954C511.807 305.006 511.852 305.049 511.904 305.079L516.264 307.582C516.346 307.629 516.443 307.643 516.535 307.619Z" fill="#EF4C43"/>
<path d="M522.757 309.728C522.793 309.719 522.827 309.705 522.858 309.686C522.899 309.661 522.934 309.628 522.963 309.589C522.991 309.55 523.011 309.506 523.023 309.46C523.034 309.413 523.036 309.364 523.029 309.317C523.022 309.269 523.005 309.224 522.98 309.183L517.02 299.368C516.969 299.285 516.888 299.226 516.794 299.203C516.7 299.18 516.601 299.196 516.518 299.246C516.435 299.297 516.376 299.378 516.353 299.472C516.33 299.567 516.345 299.666 516.396 299.749L522.356 309.564C522.396 309.63 522.457 309.682 522.529 309.712C522.602 309.742 522.682 309.747 522.757 309.728Z" fill="#EF4C43"/>
<path d="M187.696 191.48H155.402C154.084 191.48 153.016 192.549 153.016 193.869V197.029C153.016 198.349 154.084 199.419 155.402 199.419H187.696C189.013 199.419 190.081 198.349 190.081 197.029V193.869C190.081 192.549 189.013 191.48 187.696 191.48Z" fill="#EF4C43"/>
<path d="M206.52 207.357H136.577C135.26 207.357 134.192 208.427 134.192 209.747V212.907C134.192 214.227 135.26 215.296 136.577 215.296H206.52C207.837 215.296 208.905 214.227 208.905 212.907V209.747C208.905 208.427 207.837 207.357 206.52 207.357Z" fill="#E6E6E6"/>
<path d="M206.52 223.235H136.577C135.26 223.235 134.192 224.305 134.192 225.624V228.785C134.192 230.104 135.26 231.174 136.577 231.174H206.52C207.837 231.174 208.905 230.104 208.905 228.785V225.624C208.905 224.305 207.837 223.235 206.52 223.235Z" fill="#E6E6E6"/>
<path d="M212.449 276.403L212.607 276.904L212.615 276.921L217.384 291.442L222.869 308.176L233.19 339.622L233.29 344.507V344.524L234.057 383.82L231.931 389.147L234.324 397.882C234.324 397.882 233.224 384.679 227.321 392.261C223.978 396.57 220.068 400.978 216.859 405.112C221.536 407.007 226.288 408.722 231.114 410.256C232.157 410.59 233.207 410.907 234.257 411.224C234.482 411.291 234.707 411.358 234.933 411.425C250.933 416.164 267.475 418.827 284.152 419.349C285.019 419.374 285.869 419.391 286.695 419.407C286.986 419.416 287.27 419.424 287.553 419.424C288.487 419.432 289.412 419.441 290.346 419.441C292.23 419.441 294.106 419.413 295.973 419.357C309.795 418.967 323.536 417.106 336.964 413.804C336.873 408.251 336.622 401.763 336.264 394.833C336.097 391.434 332.354 387.752 332.129 384.195C331.971 381.523 335.33 379.009 335.155 376.295C334.021 359.587 332.604 366.001 331.554 354.168C331.445 353.008 331.345 351.897 331.254 350.837C330.578 343.238 330.112 338.487 330.112 338.487L334.597 310.171L341.641 265.715L341.099 264.821L340.491 264.521L303.334 246.1L301.317 240.923C300.729 239.432 299.709 238.15 298.389 237.244C297.068 236.338 295.507 235.848 293.906 235.838L269.429 235.738C268.159 235.732 266.906 236.03 265.774 236.606C264.641 237.183 263.662 238.021 262.919 239.053L256.291 248.246L212.449 276.403Z" fill="#F4B210"/>
<path d="M238.834 332.625L233.29 344.507L229.506 352.624L222.995 386.768L219.735 390.233L216.942 377.965L187.712 384.466C186.754 379.13 187.456 384.647 186.864 378.793C187.031 378.626 187.206 378.459 187.381 378.292C187.847 377.858 188.239 377.449 188.231 377.056C187.898 356.866 188.898 322.504 197.251 301.687C198.559 298.289 200.284 295.066 202.387 292.093C202.553 291.868 202.712 291.642 202.87 291.417C206.722 286.014 209.156 280.695 212.607 276.912V276.904C212.629 276.887 212.648 276.867 212.666 276.846C212.678 276.839 212.689 276.831 212.699 276.821L236.408 264.229L237.425 292.853L238.151 313.428L238.834 332.625Z" fill="#F4B210"/>
<path d="M324.326 336L331.25 350.841L333.668 356.009L340.177 390.15L343.425 393.607L346.225 381.342L347.54 381.072L371.26 376.151L378.174 398.145C379.732 395.544 380.346 392.484 379.912 389.483C379.478 386.481 378.022 383.722 375.791 381.671C375.319 381.243 374.925 380.826 374.936 380.432C375.33 356.685 373.88 313.322 360.783 295.474C356.623 289.811 354.128 284.169 350.497 280.228C350.485 280.217 350.485 280.206 350.474 280.206L341.638 265.714L341.098 264.824L340.491 264.52L324.326 336Z" fill="#F4B210"/>
<path d="M282.375 228.761C300.359 228.761 314.937 214.158 314.937 196.145C314.937 178.132 300.359 163.529 282.375 163.529C264.391 163.529 249.812 178.132 249.812 196.145C249.812 214.158 264.391 228.761 282.375 228.761Z" fill="#FFB6B6"/>
<path d="M326.387 173.363C326.135 173.093 325.83 172.876 325.493 172.727C325.155 172.577 324.79 172.497 324.421 172.492L324.911 171.13C325.071 170.701 325.114 170.238 325.036 169.787C324.958 169.336 324.761 168.914 324.467 168.563C324.173 168.213 323.79 167.948 323.36 167.795C322.929 167.641 322.466 167.605 322.017 167.69L320.234 168.034L320.402 166.841C320.466 166.396 320.414 165.943 320.25 165.525C320.087 165.107 319.817 164.739 319.469 164.457C319.12 164.174 318.704 163.988 318.261 163.916C317.819 163.844 317.365 163.888 316.945 164.045C316.563 164.195 316.152 164.258 315.742 164.229C315.332 164.2 314.934 164.08 314.577 163.876C314.219 163.679 313.907 163.406 313.665 163.076C313.423 162.746 313.255 162.367 313.174 161.966L312.553 158.965L312.487 158.804C309.462 153.753 303.645 150.078 296.527 148.732C290.191 147.524 283.694 148.139 277.431 148.717C274.947 148.951 272.14 149.215 269.802 150.649C267.814 151.879 266.133 154.339 266.477 156.82C260.302 154.924 253.681 158.709 250.399 163.481C246.512 169.161 245.876 176.276 245.774 181.839C245.496 195 248.207 205.768 253.812 213.849C254.221 214.434 254.324 215.657 255.135 216.067L254.967 215.796C255.873 216.25 256.794 216.981 256.45 217.765C255.464 220.019 262.019 225.004 266.638 226.651C275.064 229.659 286.267 229.403 294.144 228.32L294.422 226.453C297.265 226.065 299.267 225.326 299.83 224.17C300.824 223.32 301.672 222.559 302.41 221.856L302.417 221.849C302.432 221.835 302.461 221.813 302.475 221.798C306.034 218.38 306.86 216.433 307.233 213.468C307.591 210.562 306.955 207.612 306.305 204.955C320 207.078 300.912 190.345 313.671 187.109C313.818 187.064 313.966 187.028 314.117 187C314.49 186.912 314.862 186.824 315.22 186.721C316.947 186.252 318.599 185.545 320.131 184.621C323.698 182.447 324.874 179.563 326.716 176.313C326.982 175.85 327.093 175.314 327.034 174.784C326.975 174.253 326.748 173.755 326.387 173.363Z" fill="#1F2850"/>
<path d="M397.544 338.322C397.537 339.603 397.522 341.396 397.464 343.614C397.456 343.922 397.449 344.236 397.442 344.559C397.347 348.636 397.252 352.054 397.098 355.853C397.091 356.117 397.084 356.373 397.069 356.636C396.864 361.936 396.543 368.106 395.987 377.878C394.957 395.929 393.159 380.36 391.354 386.691C391.267 387.006 391.172 387.379 391.084 387.819C390.811 389.412 390.349 390.967 389.71 392.452C388.753 393.023 387.766 393.572 386.794 394.121C384.024 395.665 381.211 397.151 378.375 398.564C376.782 399.355 375.182 400.13 373.574 400.877C373.318 400.994 373.07 401.111 372.821 401.221C364.588 405.035 356.104 408.278 347.426 410.927C345.731 411.44 344.043 411.937 342.333 412.398C340.55 412.896 338.767 413.365 336.962 413.804C323.533 417.106 309.793 418.968 295.972 419.36C294.108 419.418 292.23 419.44 290.345 419.44C289.409 419.44 288.488 419.433 287.553 419.426C287.268 419.426 286.983 419.418 286.698 419.411C285.872 419.389 285.017 419.374 284.155 419.352C267.477 418.831 250.936 416.167 234.936 411.425L234.256 411.227C233.204 410.905 232.159 410.59 231.114 410.254C226.291 408.724 221.538 407.011 216.856 405.115C213.283 403.673 209.751 402.126 206.26 400.475C206.228 400.466 206.198 400.451 206.172 400.431C205.441 400.094 204.703 399.743 203.972 399.384C203.877 399.333 203.775 399.281 203.673 399.23C200.947 397.898 198.25 396.502 195.583 395.043C193.339 389.883 190.182 388.895 188.224 384.356C187.654 383.008 187.242 381.598 186.996 380.155C186.996 380.14 186.989 380.125 186.989 380.104C187.194 382.826 186.119 375.272 186.982 380.074C186.974 379.986 186.967 379.891 186.96 379.781C186.938 379.518 186.909 379.196 186.865 378.793C184.358 354.279 184.519 326.244 183.43 303.143C183.357 301.65 183.281 300.22 183.203 298.854C183.182 298.4 183.152 297.953 183.123 297.514C183.174 297.382 183.233 297.243 183.298 297.112C183.312 297.074 183.33 297.037 183.35 297.002C183.371 296.956 183.396 296.912 183.423 296.87C183.437 296.848 183.459 296.819 183.474 296.797C183.485 296.772 183.497 296.747 183.51 296.724C183.576 296.621 183.649 296.511 183.73 296.409C183.766 296.365 183.795 296.328 183.832 296.292C183.857 296.254 183.887 296.22 183.92 296.189C183.942 296.154 183.969 296.122 184 296.094C184.029 296.065 184.058 296.028 184.095 295.992C184.111 295.969 184.13 295.949 184.153 295.933C184.211 295.867 184.275 295.805 184.343 295.75C184.604 295.51 184.883 295.29 185.177 295.091C185.279 295.025 185.388 294.96 185.491 294.886C186.227 294.445 187.003 294.073 187.807 293.774C188.085 293.671 188.363 293.576 188.662 293.474C188.772 293.444 188.874 293.408 188.984 293.371C189.145 293.32 189.306 293.269 189.474 293.232C190.307 292.983 191.206 292.771 192.178 292.573C192.294 292.551 192.419 292.529 192.543 292.5C192.718 292.464 192.901 292.434 193.084 292.405C193.332 292.361 193.588 292.317 193.844 292.273C196.014 291.929 198.477 291.673 201.195 291.505C201.451 291.49 201.707 291.475 201.963 291.461C202.262 291.446 202.562 291.431 202.869 291.417C203.125 291.402 203.388 291.395 203.651 291.388C203.907 291.373 204.17 291.366 204.44 291.358C205.178 291.336 205.938 291.314 206.713 291.3C208.92 291.256 211.244 291.27 213.685 291.322C214.817 291.351 215.972 291.38 217.156 291.431C217.236 291.431 217.309 291.439 217.382 291.439C218.413 291.475 219.451 291.519 220.518 291.578C221.263 291.614 222.016 291.651 222.768 291.695C223.477 291.739 224.193 291.783 224.917 291.834C225.48 291.863 226.042 291.907 226.612 291.944C227.095 291.98 227.577 292.017 228.059 292.046L228.717 292.09C229.075 292.12 229.433 292.141 229.799 292.178C230.602 292.244 231.406 292.31 232.225 292.376C233.036 292.449 233.862 292.522 234.688 292.595C235.513 292.668 236.346 292.749 237.18 292.83C237.267 292.837 237.348 292.844 237.428 292.851C238.188 292.932 238.948 293.005 239.715 293.086C239.891 293.1 240.073 293.115 240.249 293.137C240.98 293.211 241.726 293.297 242.465 293.375C242.691 293.4 242.917 293.424 243.144 293.448C243.722 293.512 244.292 293.566 244.875 293.635C245.642 293.723 246.424 293.803 247.184 293.906C247.776 293.971 248.368 294.037 248.96 294.111C249.888 294.22 250.831 294.337 251.773 294.462C252.131 294.506 252.49 294.55 252.848 294.601C255.537 294.938 258.255 295.311 261.018 295.699C265.205 296.292 269.458 296.936 273.741 297.631C278.031 298.327 282.345 299.061 286.683 299.835C287.779 300.032 288.876 300.23 289.979 300.435C290.476 300.53 290.973 300.625 291.47 300.72C292.318 300.874 293.165 301.035 294.013 301.196C294.861 301.357 295.708 301.518 296.556 301.686C297.565 301.884 298.58 302.082 299.589 302.279C306.232 303.597 312.838 305.002 319.284 306.474C320.343 306.715 321.403 306.964 322.455 307.206C324.56 307.696 326.645 308.194 328.711 308.699C329.281 308.831 329.844 308.97 330.406 309.109C331.809 309.46 333.213 309.811 334.594 310.17L334.835 310.236C335.851 310.485 336.845 310.741 337.838 311.005C340.184 311.619 342.491 312.242 344.759 312.871C346.264 313.288 347.753 313.71 349.224 314.137C351.424 314.774 353.58 315.418 355.677 316.07C356.196 316.231 356.715 316.392 357.226 316.546C358.761 317.021 360.274 317.505 361.743 317.988C362.912 318.368 364.052 318.756 365.177 319.144C366.303 319.532 367.406 319.92 368.488 320.308C369.182 320.557 369.869 320.82 370.556 321.069C371.542 321.435 372.514 321.801 373.464 322.167C373.757 322.277 374.042 322.394 374.327 322.504C374.509 322.584 374.685 322.65 374.86 322.724C375.204 322.863 375.555 322.994 375.891 323.133C376.234 323.265 376.57 323.404 376.906 323.551C377.235 323.682 377.571 323.822 377.893 323.961C378.222 324.092 378.543 324.231 378.865 324.378C379.135 324.488 379.398 324.605 379.654 324.722C380.173 324.949 380.692 325.176 381.196 325.41C381.445 325.527 381.693 325.637 381.942 325.754L382.512 326.017C382.592 326.061 382.672 326.098 382.753 326.135C382.935 326.222 383.125 326.318 383.308 326.405C383.732 326.603 384.149 326.815 384.558 327.013C385.106 327.291 385.639 327.569 386.151 327.84C386.67 328.118 387.174 328.396 387.656 328.667C387.737 328.711 387.81 328.755 387.89 328.799C388 328.858 388.109 328.923 388.219 328.982C388.592 329.194 388.95 329.414 389.308 329.626C390.01 330.058 390.675 330.483 391.296 330.907C391.435 331.002 391.566 331.097 391.705 331.185C392.165 331.515 392.604 331.837 393.013 332.166C393.013 332.173 393.013 332.173 393.02 332.173C393.159 332.276 393.291 332.386 393.422 332.488C393.532 332.591 393.649 332.678 393.758 332.781C394.138 333.11 394.489 333.425 394.811 333.747C394.919 333.847 395.021 333.952 395.118 334.062C395.16 334.097 395.199 334.136 395.235 334.179C395.381 334.325 395.512 334.472 395.637 334.618C395.656 334.638 395.673 334.66 395.688 334.684C395.863 334.889 396.024 335.094 396.177 335.299C396.25 335.401 396.331 335.504 396.397 335.606C396.484 335.731 396.572 335.863 396.645 335.987C396.711 336.09 396.769 336.199 396.828 336.302C396.983 336.566 397.115 336.842 397.222 337.129C397.305 337.323 397.371 337.524 397.42 337.729C397.475 337.924 397.517 338.122 397.544 338.322Z" fill="#1F2850"/>
<path opacity="0.2" d="M397.544 338.322C397.537 339.603 397.522 341.396 397.464 343.614C397.456 343.922 397.442 344.236 397.434 344.559C397.361 347.669 397.252 351.512 397.098 355.853C397.091 356.116 397.084 356.373 397.069 356.636C396.864 361.936 396.543 368.106 395.987 377.878C394.957 395.929 393.159 380.36 391.354 386.691C386.341 383.602 380.845 380.367 374.97 377.044C373.91 376.444 372.841 375.841 371.762 375.236C360.011 368.67 346.886 361.789 333.183 354.975C332.643 354.704 332.094 354.433 331.554 354.169C300.166 338.629 265.907 323.514 238.151 313.427C232.795 311.48 227.679 309.724 222.871 308.179C212.742 304.936 203.987 302.667 197.249 301.686C190.233 300.662 185.388 301.028 183.43 303.143C183.357 301.65 183.281 300.22 183.203 298.854C183.174 298.4 183.145 297.953 183.116 297.514C183.161 297.394 183.219 297.279 183.276 297.163C183.284 297.146 183.29 297.128 183.298 297.112C183.312 297.074 183.329 297.037 183.349 297.002C183.371 296.956 183.395 296.912 183.423 296.87C183.446 296.818 183.476 296.769 183.51 296.724C183.576 296.621 183.649 296.511 183.729 296.409C183.789 296.332 183.852 296.259 183.919 296.189C183.942 296.154 183.969 296.122 184 296.094C184.029 296.065 184.058 296.028 184.095 295.992C184.11 295.969 184.13 295.949 184.153 295.933C184.211 295.867 184.275 295.805 184.343 295.75C184.604 295.51 184.883 295.29 185.176 295.091C185.279 295.025 185.388 294.96 185.491 294.886C186.227 294.445 187.003 294.073 187.807 293.774C188.085 293.671 188.363 293.576 188.662 293.474C188.772 293.444 188.874 293.408 188.984 293.371C189.145 293.32 189.305 293.269 189.473 293.232C190.307 292.983 191.205 292.771 192.177 292.573C192.47 292.515 192.777 292.456 193.084 292.405C193.332 292.361 193.588 292.317 193.844 292.273C196.014 291.929 198.477 291.673 201.195 291.505C201.451 291.49 201.707 291.475 201.963 291.461C202.262 291.446 202.562 291.431 202.869 291.417C203.125 291.402 203.388 291.395 203.651 291.387C203.907 291.373 204.17 291.366 204.44 291.358C205.178 291.336 205.938 291.314 206.713 291.3C208.92 291.263 211.244 291.278 213.685 291.329C214.817 291.351 215.972 291.387 217.156 291.439C217.229 291.439 217.309 291.446 217.382 291.446C218.413 291.475 219.458 291.527 220.517 291.578C221.263 291.614 222.016 291.651 222.768 291.695C223.477 291.739 224.193 291.783 224.917 291.834C225.479 291.863 226.042 291.907 226.612 291.944C227.094 291.98 227.577 292.017 228.059 292.046C228.636 292.09 229.214 292.134 229.798 292.178C230.602 292.244 231.406 292.31 232.225 292.376C233.036 292.449 233.862 292.522 234.687 292.595C235.513 292.668 236.346 292.749 237.179 292.829C237.267 292.837 237.347 292.844 237.428 292.851C238.188 292.932 238.948 293.005 239.715 293.086C243.968 293.518 248.346 294.023 252.848 294.601C255.537 294.945 258.26 295.313 261.018 295.706C265.205 296.299 269.458 296.943 273.741 297.631C278.031 298.327 282.345 299.061 286.683 299.835C287.779 300.032 288.875 300.23 289.979 300.435C291.324 300.684 292.668 300.937 294.013 301.196C294.861 301.357 295.708 301.518 296.556 301.686C297.565 301.884 298.58 302.082 299.589 302.279C306.232 303.597 312.838 305.002 319.284 306.474C320.343 306.715 321.403 306.964 322.455 307.206C324.56 307.696 326.645 308.194 328.711 308.699C329.281 308.838 329.844 308.977 330.406 309.116C331.817 309.467 333.212 309.819 334.594 310.17V310.177C334.674 310.192 334.754 310.214 334.835 310.236C335.843 310.492 336.845 310.748 337.838 311.012C340.184 311.627 342.491 312.246 344.759 312.871C346.264 313.296 347.755 313.713 349.224 314.137C351.424 314.782 353.58 315.426 355.677 316.07C356.196 316.231 356.715 316.392 357.226 316.546C358.761 317.029 360.266 317.509 361.743 317.988C362.912 318.368 364.052 318.756 365.177 319.144C366.303 319.532 367.406 319.92 368.488 320.308C369.189 320.557 369.876 320.813 370.556 321.062C371.55 321.428 372.514 321.794 373.464 322.167C373.757 322.277 374.042 322.394 374.327 322.504C374.86 322.709 375.379 322.921 375.891 323.133C376.234 323.265 376.57 323.404 376.906 323.551C377.235 323.682 377.571 323.822 377.893 323.961C378.222 324.092 378.543 324.231 378.865 324.378C379.135 324.488 379.398 324.605 379.654 324.722C380.173 324.949 380.692 325.176 381.196 325.41C381.445 325.527 381.693 325.637 381.942 325.754L382.512 326.017C382.592 326.061 382.672 326.098 382.753 326.135C383.374 326.427 383.973 326.72 384.558 327.013C385.106 327.291 385.639 327.569 386.151 327.84C386.757 328.162 387.335 328.477 387.89 328.799C388 328.857 388.109 328.923 388.219 328.982C388.592 329.194 388.95 329.414 389.308 329.626C390.009 330.058 390.674 330.482 391.296 330.907C391.91 331.332 392.48 331.749 393.013 332.166C393.013 332.173 393.013 332.173 393.02 332.173C393.276 332.378 393.525 332.583 393.758 332.781C394.138 333.11 394.489 333.425 394.811 333.747C394.919 333.847 395.021 333.952 395.118 334.062C395.16 334.097 395.199 334.136 395.235 334.179C395.388 334.347 395.542 334.516 395.688 334.684C395.863 334.889 396.024 335.094 396.177 335.299C396.25 335.401 396.331 335.504 396.397 335.606C396.484 335.731 396.572 335.863 396.645 335.987C396.711 336.089 396.769 336.199 396.828 336.302C396.983 336.566 397.115 336.842 397.222 337.129C397.302 337.324 397.368 337.525 397.42 337.729C397.475 337.924 397.517 338.122 397.544 338.322Z" fill="black"/>
</g>
<defs>
<clipPath id="clip0_722_956">
<rect width="575" height="418.881" fill="white" transform="translate(0 0.559326)"/>
</clipPath>
</defs>
</svg>
