<svg width="50" height="50" viewBox="0 0 50 50" fill="none" xmlns="http://www.w3.org/2000/svg">
<g clip-path="url(#clip0_754_1234)">
<path d="M7.40234 0.146538C5.08789 0.585991 2.90039 2.01177 1.5625 3.95513C1.11328 4.61919 0.517578 5.93755 0.273438 6.80669C-0.0292969 7.91021 -0.0292969 10.1661 0.273438 11.2794C0.712891 12.9004 1.60156 14.3946 2.79297 15.5372C3.62305 16.3282 4.16016 16.6895 5.19531 17.1876C8.07617 18.5645 11.4648 18.2911 14.1602 16.4747C14.8047 16.0352 15.8789 14.9805 16.3672 14.2969C16.9238 13.5157 17.5293 12.2461 17.793 11.2794C17.9688 10.6348 18.0078 10.2344 18.0078 9.03326C18.0078 7.33404 17.832 6.55279 17.1875 5.1856C16.6797 4.12115 16.1035 3.33013 15.2734 2.52935C13.584 0.927788 11.6797 0.127007 9.32617 0.0488815C8.55469 0.0195847 7.90039 0.0488815 7.40234 0.146538ZM10.4297 2.10943C12.9688 2.63677 14.9121 4.37505 15.791 6.88482C16.0352 7.59771 16.0547 7.79302 16.0547 9.03326C16.0547 10.2735 16.0352 10.4688 15.791 11.1817C15.6348 11.6114 15.332 12.2657 15.1172 12.6465C14.6387 13.4571 13.457 14.6583 12.666 15.127C10.8105 16.2208 8.4375 16.4063 6.45508 15.6153C1.69922 13.711 0.439453 7.6563 4.04297 4.04302C5.74219 2.3438 8.10547 1.63091 10.4297 2.10943Z" fill="#EF4C43"/>
<path d="M8.63281 3.41797C8.125 3.62305 8.10547 3.74023 8.10547 6.72852V9.50195L9.07227 10.459C10 11.3965 10.0391 11.4258 10.4688 11.4258C10.8105 11.4258 10.9668 11.3672 11.1621 11.1816C11.6797 10.6543 11.5527 10.127 10.6934 9.27734L10.0586 8.65234V6.46484C10.0586 4.13086 10 3.78906 9.56055 3.47656C9.31641 3.31055 8.96484 3.28125 8.63281 3.41797Z" fill="#EF4C43"/>
<path d="M30.2148 13.5253C27.7637 14.0527 25.8008 15.9277 25.1953 18.3202C25.0195 18.9843 25 19.4042 25 21.8261C25 24.248 25.0195 24.6679 25.1953 25.332C25.498 26.5136 25.9961 27.3632 26.9531 28.33L27.793 29.1699L25.4199 29.707L23.0469 30.2343V26.1034C23.0469 21.6113 23.0371 21.5527 22.5098 21.3085C22.1484 21.1425 15.3516 21.1425 14.9902 21.3085C14.5312 21.5136 14.3359 22.1093 14.5703 22.6074C14.8047 23.1152 14.9707 23.1445 18.1641 23.1445H21.0938V29.9804V36.8163H17.7832H14.4629L14.4336 34.0038L14.4043 31.2011L14.1309 30.6445C13.6133 29.5995 12.7344 29.0624 11.5234 29.0527C10.918 29.0527 10.6934 29.1015 10.2344 29.3261C9.60938 29.6386 9.15039 30.1074 8.84766 30.7519C8.65234 31.1718 8.64258 31.3964 8.61328 34.0038L8.58398 36.8163H5.26367H1.95312V29.9804V23.1445H4.88281C8.07617 23.1445 8.24219 23.1152 8.47656 22.6074C8.62305 22.2851 8.62305 22.0507 8.47656 21.7284C8.24219 21.2109 8.125 21.1913 4.29688 21.1913C0.46875 21.1913 0.351562 21.2109 0.117188 21.7284C0.0292969 21.914 0 23.9843 0 29.9902C0 38.6816 -0.0195312 38.3984 0.537109 38.6523C0.722656 38.7402 1.875 38.7695 4.6875 38.7695H8.59375V39.6874V40.5956L8.0957 40.664C6.67969 40.8495 5.61523 42.0019 5.49805 43.4667L5.43945 44.1406H3.10547C0.566406 44.1406 0.341797 44.1796 0.117188 44.6777C-0.0488281 45.0292 -0.0488281 49.1113 0.117188 49.4628C0.380859 50.039 -1.36719 49.9999 25 49.9999C51.3672 49.9999 49.6191 50.039 49.8828 49.4628C49.9707 49.2773 50 47.207 50 41.2011C50 32.5097 50.0195 32.7929 49.4629 32.539C49.2871 32.4511 48.3105 32.4218 46.1328 32.4218H43.0566L42.5488 31.8652C41.9629 31.2304 41.1328 30.664 40.3516 30.371C40.0488 30.2538 38.7793 29.9413 37.5195 29.6679L35.2441 29.1699L35.5664 28.9159C36.9434 27.8808 37.8516 26.2695 38.0859 24.4726C38.2617 23.2031 38.1641 19.082 37.9492 18.3105C37.002 14.9023 33.584 12.7929 30.2148 13.5253ZM32.6465 15.4785C33.9648 15.8202 35.1074 16.7187 35.6934 17.8906C35.9961 18.496 36.2207 19.3749 36.1133 19.4921C36.084 19.5117 35.5371 19.2284 34.9023 18.8476C33.4082 17.9687 33.2031 17.9589 32.5 18.662C31.875 19.2968 31.1523 19.7656 30.4199 20.039C29.9414 20.2148 29.5703 20.2636 28.3984 20.2929L26.9531 20.332V19.8046C26.9629 17.871 28.4277 16.0156 30.3809 15.4882C31.0742 15.3027 31.9531 15.2929 32.6465 15.4785ZM34.9707 21.1523L36.2305 21.8945V22.832C36.2305 24.1601 36.084 24.9413 35.6934 25.7421C35.3027 26.5429 34.3945 27.4706 33.6523 27.8222C31.2695 28.9843 28.5059 28.0077 27.3633 25.6152C27.0215 24.8827 27.002 24.8144 26.9727 23.5742L26.9336 22.2851L28.5254 22.2363C30.2832 22.1874 30.7324 22.0898 31.8652 21.5234C32.2363 21.3378 32.7637 21.0156 33.0371 20.8007C33.3203 20.5859 33.584 20.4101 33.6328 20.4101C33.6719 20.4101 34.2773 20.7421 34.9707 21.1523ZM33.0078 30.2734C33.0078 30.4101 31.6016 34.082 31.543 34.082C31.4941 34.082 30.0781 30.3906 30.0781 30.2636C30.0781 30.205 33.0078 30.2148 33.0078 30.2734ZM12.002 31.0937C12.4902 31.3574 12.5 31.4159 12.5 36.1816V40.6249H11.5234H10.5469V36.1523C10.5566 31.3769 10.5566 31.3671 11.0449 31.0937C11.3477 30.9277 11.6699 30.9277 12.002 31.0937ZM29.3848 34.0527C30 35.7128 30.5762 37.2167 30.6738 37.412C30.9375 37.9492 31.4844 38.1249 32.0215 37.8417C32.3535 37.6757 32.373 37.6367 33.75 33.9355C34.3262 32.373 34.8047 31.0937 34.8047 31.0839C34.834 31.0253 39.3945 32.0898 39.6973 32.2265L40.0879 32.4023L38.2031 32.412C36.1523 32.4218 35.8789 32.4804 35.6641 32.9589C35.5762 33.1445 35.5469 34.6484 35.5469 38.6718V44.1406H28.2715H20.9961V41.455V38.7695H21.6309C22.3633 38.7695 22.7637 38.6034 22.9297 38.2324C23.0078 38.0566 23.0469 37.1386 23.0469 35.1659V32.3437L23.3594 32.2167C23.5742 32.1288 27.4414 31.2109 28.2227 31.0644C28.252 31.0546 28.7793 32.4023 29.3848 34.0527ZM48.0469 35.3515V36.3281H42.7734H37.5V35.3515V34.3749H42.7734H48.0469V35.3515ZM48.0469 39.2577V40.2343H42.7734H37.5V39.2577V38.2812H42.7734H48.0469V39.2577ZM19.043 41.455V44.1406H18.3203H17.6074L17.5586 43.5253C17.4316 42.0117 16.377 40.8593 14.9219 40.664L14.4531 40.5956V39.6874V38.7695H16.748H19.043V41.455ZM48.0469 43.164V44.1406H42.7734H37.5V43.164V42.1874H42.7734H48.0469V43.164ZM15.0391 42.7245C15.3906 42.9101 15.625 43.33 15.625 43.7988V44.1406H11.5234H7.42188V43.7988C7.42188 43.3398 7.64648 42.9101 7.98828 42.7343C8.38867 42.5097 14.6191 42.5097 15.0391 42.7245ZM48.0469 47.0702V48.0468H25H1.95312V47.0702V46.0937H25H48.0469V47.0702Z" fill="#EF4C43"/>
<path d="M11.045 21.3281C10.1954 21.7969 10.5568 23.1445 11.5236 23.1445C12.0216 23.1445 12.5001 22.666 12.5001 22.1777C12.5001 21.4453 11.6896 20.9668 11.045 21.3281Z" fill="#EF4C43"/>
</g>
<defs>
<clipPath id="clip0_754_1234">
<rect width="50" height="50" fill="white"/>
</clipPath>
</defs>
</svg>
