<svg width="203" height="194" viewBox="0 0 203 194" fill="none" xmlns="http://www.w3.org/2000/svg">
<g clip-path="url(#clip0_1026_1540)">
<path d="M174.087 72.6019C163.522 31.1552 127.014 1.23654 84.163 0.0365231C61.5087 -0.597893 37.67 6.89758 20.3137 33.1269C-10.7125 80.0148 22.2204 112.416 45.1803 127.812C56.2727 135.265 66.2676 144.227 74.8755 154.438C90.3842 172.798 120.219 195.612 155.752 159.865C181.506 133.956 181.125 100.209 174.087 72.6019Z" fill="#F2F2F2"/>
<path d="M202.765 164.902C202.765 175.076 158.263 194 102.206 194C46.1488 194 0 176.249 0 166.075C0 155.902 46.1488 157.158 102.206 157.158C158.263 157.158 202.765 154.728 202.765 164.902Z" fill="#2B376C"/>
<path opacity="0.1" d="M202.765 164.902C202.765 175.076 158.263 194 102.206 194C46.1488 194 0 176.249 0 166.075C0 155.902 46.1488 157.158 102.206 157.158C158.263 157.158 202.765 154.728 202.765 164.902Z" fill="black"/>
<path d="M101.5 184.378C157.557 184.378 203 176.131 203 165.957C203 155.784 157.557 147.536 101.5 147.536C45.4431 147.536 0 155.784 0 165.957C0 176.131 45.4431 184.378 101.5 184.378Z" fill="#2B376C"/>
<path d="M139.926 103.308V152.574L148.187 166.004L148.815 167.025H181.409L182.067 103.308H139.926Z" fill="#1F2850"/>
<path opacity="0.1" d="M139.926 103.308V152.574L148.187 166.004L148.694 103.308H139.926Z" fill="black"/>
<path d="M61.2406 101.994V151.26L52.9801 164.69L52.3514 165.712H19.7575L19.0991 101.994H61.2406Z" fill="#1F2850"/>
<path opacity="0.1" d="M61.2407 101.994V151.26L52.9803 164.69L52.4731 101.994H61.2407Z" fill="black"/>
<path d="M191.944 101.008V103.964H14.8193V99.6947L31.2807 91.1553H177.458L191.944 101.008Z" fill="#1F2850"/>
<path opacity="0.1" d="M191.944 101.009V103.965H14.8193V99.6953L191.944 101.009Z" fill="black"/>
<path opacity="0.1" d="M40.1698 115.788H32.2683L28.9761 113.489H43.7913L40.1698 115.788Z" fill="black"/>
<path opacity="0.1" d="M40.1698 125.314H32.2683L28.9761 123.015H43.7913L40.1698 125.314Z" fill="black"/>
<path opacity="0.1" d="M40.1698 138.78H32.2683L28.9761 136.48H43.7913L40.1698 138.78Z" fill="black"/>
<path opacity="0.1" d="M40.1698 152.245H32.2683L28.9761 149.946H43.7913L40.1698 152.245Z" fill="black"/>
<path opacity="0.1" d="M160.997 117.103H168.898L172.19 114.804H157.375L160.997 117.103Z" fill="black"/>
<path opacity="0.1" d="M160.997 126.627H168.898L172.19 124.328H157.375L160.997 126.627Z" fill="black"/>
<path opacity="0.1" d="M160.997 140.093H168.898L172.19 137.794H157.375L160.997 140.093Z" fill="black"/>
<path opacity="0.1" d="M160.997 153.56H168.898L172.19 151.261H157.375L160.997 153.56Z" fill="black"/>
<path d="M125.261 82.936L124.163 89.9308C124.163 89.9308 118.757 92.7961 122.558 92.8804C126.36 92.9646 144.269 92.8804 144.269 92.8804C144.269 92.8804 147.732 92.8804 142.241 89.8465L141.143 82.5146L125.261 82.936Z" fill="#2B376C"/>
<path opacity="0.1" d="M121.794 92.8045C122.532 92.209 123.325 91.685 124.163 91.2396L125.262 84.2448L141.143 84.2597L142.241 91.1553C143.144 91.6199 143.994 92.1783 144.779 92.8212C145.484 92.6606 146.255 92.0641 142.241 89.8465L141.143 82.5146L125.262 82.936L124.163 89.9308C124.163 89.9308 119.62 92.3388 121.794 92.8045Z" fill="black"/>
<path d="M166.378 34.1836H99.858C98.4686 34.1836 97.3423 35.3072 97.3423 36.6933V81.3956C97.3423 82.7817 98.4686 83.9053 99.858 83.9053H166.378C167.767 83.9053 168.893 82.7817 168.893 81.3956V36.6933C168.893 35.3072 167.767 34.1836 166.378 34.1836Z" fill="#2B376C"/>
<path d="M166.486 36.8389H99.7498V74.088H166.486V36.8389Z" fill="#F2F2F2"/>
<path d="M133.118 36.08C133.351 36.08 133.54 35.8914 133.54 35.6587C133.54 35.426 133.351 35.2373 133.118 35.2373C132.884 35.2373 132.695 35.426 132.695 35.6587C132.695 35.8914 132.884 36.08 133.118 36.08Z" fill="#F2F2F2"/>
<path d="M168.893 77.0371V81.3958C168.893 81.7253 168.828 82.0517 168.702 82.3562C168.576 82.6607 168.39 82.9374 168.157 83.1705C167.923 83.4035 167.646 83.5884 167.34 83.7145C167.035 83.8406 166.708 83.9055 166.378 83.9054H99.858C99.5276 83.9055 99.2005 83.8406 98.8952 83.7145C98.59 83.5884 98.3126 83.4035 98.079 83.1705C97.8454 82.9374 97.6601 82.6607 97.5337 82.3562C97.4073 82.0517 97.3422 81.7253 97.3423 81.3958V77.0371H168.893Z" fill="#2B376C"/>
<path d="M133.118 82.094C134.004 82.094 134.723 81.3771 134.723 80.4928C134.723 79.6085 134.004 78.8916 133.118 78.8916C132.231 78.8916 131.513 79.6085 131.513 80.4928C131.513 81.3771 132.231 82.094 133.118 82.094Z" fill="#F2F2F2"/>
<path d="M130.616 97.4312V98.2741H85.1685V97.5999L85.231 97.4312L86.3512 94.3975H129.687L130.616 97.4312Z" fill="#2B376C"/>
<path d="M148.106 96.6069C148.024 96.96 147.711 97.3325 147.005 97.6847C144.471 98.9488 139.318 97.3476 139.318 97.3476C139.318 97.3476 135.347 96.6734 135.347 94.9037C135.459 94.8275 135.575 94.7586 135.695 94.6972C136.761 94.1349 140.293 92.7472 146.557 94.756C147.019 94.9005 147.431 95.17 147.748 95.5344C147.889 95.6722 147.994 95.8412 148.057 96.0276C148.119 96.2141 148.136 96.4126 148.106 96.6069Z" fill="#2B376C"/>
<path opacity="0.1" d="M148.107 96.6069C145.005 97.7926 142.24 97.8811 139.402 95.915C137.971 94.9239 136.671 94.6787 135.695 94.6972C136.761 94.1349 140.294 92.7472 146.558 94.756C147.019 94.9005 147.431 95.17 147.748 95.5344C147.889 95.6722 147.994 95.8412 148.057 96.0276C148.119 96.2141 148.136 96.4126 148.107 96.6069Z" fill="black"/>
<path d="M144.217 95.9144C144.824 95.9144 145.316 95.7635 145.316 95.5773C145.316 95.3912 144.824 95.2402 144.217 95.2402C143.611 95.2402 143.119 95.3912 143.119 95.5773C143.119 95.7635 143.611 95.9144 144.217 95.9144Z" fill="#F2F2F2"/>
<path opacity="0.1" d="M130.616 97.4316V98.2745H85.1685V97.6004L85.231 97.4316H130.616Z" fill="black"/>
<path d="M156.588 54.4303C156.23 54.0725 151.628 48.2894 150.851 47.3355C150.014 46.3816 149.656 46.5605 149.118 46.6201C148.58 46.6797 142.783 47.6932 142.126 47.7529C141.468 47.8721 141.05 48.1106 141.468 48.7068C141.827 49.2433 145.652 54.6091 146.488 55.8611L131.249 59.4979L119.177 39.2869C118.699 38.5714 118.579 38.333 117.504 38.3926C116.428 38.4522 108.001 39.1676 107.404 39.1676C106.806 39.2272 106.149 39.4657 106.746 40.8966C107.344 42.3275 116.906 62.8366 117.145 63.4328C117.384 64.029 118.101 64.9829 119.715 64.6252C121.388 64.2079 127.125 62.7174 130.293 61.8827C131.966 64.8637 135.313 70.9449 135.97 71.8392C136.807 73.0316 137.405 72.7931 138.66 72.4354C139.676 72.1373 154.317 66.8908 154.975 66.5927C155.632 66.2946 156.05 66.1157 155.572 65.4599C155.214 64.9829 151.389 59.796 149.357 57.1131C150.732 56.7554 155.692 55.4438 156.23 55.2649C156.827 55.0861 156.947 54.788 156.588 54.4303ZM128.918 60.0941C128.739 60.1538 120.193 62.1808 119.775 62.3001C119.297 62.4193 119.297 62.3597 119.297 62.1808C119.177 62.002 109.137 41.2543 108.958 41.0158C108.838 40.7774 108.838 40.5389 108.958 40.5389C109.077 40.5389 117.026 39.8234 117.265 39.8234C117.563 39.8234 117.504 39.8831 117.623 40.0619C117.623 40.0619 128.799 59.3191 128.978 59.6172C129.217 59.9153 129.098 60.0345 128.918 60.0941ZM152.943 64.5656C153.062 64.8041 153.242 64.9233 152.764 65.0426C152.345 65.2214 138.361 69.9314 138.062 70.0506C137.763 70.1699 137.584 70.2295 137.225 69.6929C136.867 69.1563 132.325 61.3461 132.325 61.3461L147.206 57.4709C147.564 57.3516 147.684 57.292 147.923 57.6497C148.162 58.0671 152.823 64.3868 152.943 64.5656ZM153.899 54.0726C153.54 54.1322 148.102 55.5034 148.102 55.5034L143.62 49.4222C143.5 49.2434 143.381 49.0645 143.68 49.0049C143.978 48.9453 149.058 48.051 149.297 47.9913C149.536 47.9317 149.716 47.8721 150.014 48.2894C150.313 48.6472 154.138 53.536 154.317 53.7148C154.497 53.8937 154.258 54.0129 153.899 54.0726Z" fill="#F4B210"/>
<path d="M92.8294 45.5577C97.7981 45.5577 101.826 41.5394 101.826 36.5825C101.826 31.6257 97.7981 27.6074 92.8294 27.6074C87.8607 27.6074 83.8328 31.6257 83.8328 36.5825C83.8328 41.5394 87.8607 45.5577 92.8294 45.5577Z" fill="#FFB9B9"/>
<path d="M86.2002 41.0706V55.2418H100.879C100.879 55.2418 98.9849 43.4325 99.9319 39.8896L86.2002 41.0706Z" fill="#FFB9B9"/>
<path d="M115.321 60.2013C115.321 60.2013 101.353 53.3518 101.353 52.8794C101.353 52.4071 99.932 49.3366 98.985 49.3366C98.038 49.3366 89.9884 46.7386 85.4901 50.5176L85.0166 53.588L67.7336 64.925L72.4687 82.1667C72.4687 82.1667 75.5465 85.4733 74.5995 87.8352C73.6525 90.197 75.3097 102.243 75.3097 102.243L112.48 101.062V85.0009C112.48 85.0009 113.664 81.2219 114.374 80.041C115.084 78.86 114.374 75.3172 114.374 75.3172L120.056 68.2316C120.056 68.2316 119.346 61.6184 115.321 60.2013Z" fill="#D0CDE1"/>
<path opacity="0.1" d="M68.3254 70.7124L69.3908 64.9258C69.3908 64.9258 63.2352 91.6149 63.9455 94.6854C64.6557 97.7558 69.8643 102.48 70.5746 102.716C71.2848 102.952 77.9139 82.4036 77.9139 82.4036L68.3254 70.7124Z" fill="black"/>
<path d="M71.7584 64.2168L67.7336 64.9254C67.7336 64.9254 61.578 91.6145 62.2883 94.6849C62.9985 97.7554 68.2071 102.479 68.9173 102.715C69.6276 102.951 76.2567 82.4032 76.2567 82.4032L71.7584 64.2168Z" fill="#D0CDE1"/>
<path opacity="0.1" d="M116.623 72.1285L118.635 68.2314C118.635 68.2314 121.476 94.9206 119.582 97.5187C117.688 100.117 110.196 101.089 110.196 101.089L110.112 81.6941L116.623 72.1285Z" fill="black"/>
<path d="M116.978 65.1611L120.056 68.2316C120.056 68.2316 122.897 94.9207 121.003 97.5188C119.109 100.117 111.617 101.089 111.617 101.089L111.533 81.6943L116.978 65.1611Z" fill="#D0CDE1"/>
<path d="M71.048 105.786C71.048 105.786 64.1822 103.187 62.9984 108.147C61.8147 113.107 65.8395 135.309 65.8395 135.309C65.8395 135.309 68.4437 152.078 70.101 152.551C71.7583 153.023 79.0976 153.259 80.2814 151.133C81.4652 149.008 76.7301 127.279 76.7301 127.279L104.193 126.806C104.193 126.806 102.536 145.701 101.589 147.354C100.642 149.008 100.642 154.676 101.589 154.676C102.536 154.676 112.953 154.204 113.664 152.787C114.374 151.37 118.399 119.484 118.399 119.484C118.399 119.484 121.713 108.384 117.925 109.092C114.137 109.801 71.048 105.786 71.048 105.786Z" fill="#2B376C"/>
<path d="M111.533 151.842C111.533 151.842 113.9 150.189 115.084 151.842C116.268 153.496 116.741 155.385 111.533 158.219C106.324 161.054 102.3 160.345 102.3 159.873V153.023L111.533 151.842Z" fill="#1F2850"/>
<path d="M70.5746 151.133C70.5746 151.133 68.207 149.48 67.0233 151.133C65.8395 152.787 65.366 154.676 70.5746 157.51C75.7831 160.345 79.8079 159.636 79.8079 159.164V152.314L70.5746 151.133Z" fill="#1F2850"/>
<path d="M92.8877 25.2663C91.9916 25.2352 91.097 25.3624 90.2453 25.642C89.5848 25.9069 88.9539 26.2399 88.3629 26.6356L84.391 29.0996C84.0538 29.2452 83.7673 29.4872 83.5678 29.795C83.3683 30.1027 83.2646 30.4626 83.2698 30.8291L82.7735 34.5372C82.6483 35.473 82.5328 36.4737 82.9527 37.3198C83.3032 38.026 83.9716 38.5092 84.5212 39.0752C85.4006 39.9847 85.9926 41.1322 86.2234 42.3748C86.5075 43.923 86.3256 45.7874 87.5537 46.7754C88.2187 47.3104 89.1251 47.4116 89.9779 47.4613C92.3099 47.5971 94.6496 47.5073 96.9643 47.193C97.3323 47.1655 97.6911 47.0652 98.0199 46.898C98.4374 46.6516 98.7002 46.2167 98.9459 45.7994C99.8329 44.2929 100.747 42.6904 100.737 40.9433C100.733 40.079 100.511 39.1507 100.927 38.3926C101.147 38.0703 101.385 37.7612 101.641 37.4668C102.157 36.7448 102.257 35.8171 102.341 34.9348C102.609 32.1168 102.329 29.9724 100.247 27.9873C98.3033 26.1343 95.5381 25.2834 92.8877 25.2663Z" fill="#1F2850"/>
<path d="M70.7882 133.688L62.8867 173.759H66.8373L74.4097 134.346L70.7882 133.688Z" fill="#1F2850"/>
<path d="M96.1387 136.973L101.077 182.955H104.369L101.406 135.659L96.1387 136.973Z" fill="#1F2850"/>
<path d="M109.637 135.66L116.551 166.205H119.843L113.259 135.003L109.637 135.66Z" fill="#1F2850"/>
<path d="M83.299 135.659L82.3113 159.964H84.9451L86.9205 135.659H83.299Z" fill="#1F2850"/>
<path d="M65.1913 129.419C65.1913 129.419 59.9236 94.2758 74.7389 93.2905C89.5542 92.3051 110.625 93.2905 110.625 93.2905C110.625 93.2905 122.806 92.3051 119.185 129.419C119.185 129.419 122.477 140.258 92.8465 139.272C63.2159 138.287 65.1913 129.419 65.1913 129.419Z" fill="#EF4C43"/>
<path d="M200.177 143.77C200.177 149.899 196.525 152.038 192.021 152.038C187.516 152.038 183.864 149.899 183.864 143.77C183.864 137.642 192.021 129.846 192.021 129.846C192.021 129.846 200.177 137.642 200.177 143.77Z" fill="#EF4C43"/>
<path d="M191.807 145.972L195.283 139.627L191.82 145.167L191.857 142.861L194.254 138.271L191.867 142.251L191.935 138.103L194.501 134.449L191.945 137.451L191.988 129.846L191.734 139.483L189.136 135.515L191.702 140.296L191.459 144.928L191.452 144.805L188.445 140.613L191.443 145.239L191.413 145.819L191.407 145.827L191.41 145.875L190.793 152.057H191.617L191.716 151.557L194.707 146.942L191.723 151.101L191.807 145.972Z" fill="#2B376C"/>
<path d="M197.23 165.333H187.505L184.992 151.162H199.197L197.23 165.333Z" fill="#1F2850"/>
<path d="M54.3371 69.5312H34.1077V93.1918H54.3371V69.5312Z" fill="#2B376C"/>
<path d="M51.1982 73.2021H37.2468V89.5198H51.1982V73.2021Z" fill="#F2F2F2"/>
<path d="M45.6208 76.668L44.204 79.1159L42.7872 76.668H38.0696L44.204 87.2678L50.3384 76.668H45.6208Z" fill="#4DBA87"/>
<path d="M45.6206 76.668L44.2038 79.1159L42.787 76.668H40.5232L44.2038 83.0276L47.8845 76.668H45.6206Z" fill="#435466"/>
</g>
<defs>
<clipPath id="clip0_1026_1540">
<rect width="203" height="194" fill="white"/>
</clipPath>
</defs>
</svg>
