<svg width="201" height="200" viewBox="0 0 201 200" fill="none" xmlns="http://www.w3.org/2000/svg">
<g clip-path="url(#clip0_1026_1615)">
<path d="M200.5 100C200.512 110.935 198.728 121.797 195.219 132.154C195.018 132.746 194.812 133.335 194.601 133.923C190.884 144.2 185.511 153.8 178.692 162.34C176.657 164.894 174.5 167.341 172.222 169.683C169.944 172.03 167.552 174.261 165.047 176.379C151.075 188.228 134.102 195.988 116 198.805H115.997C113.689 199.163 111.359 199.442 109.006 199.642C106.204 199.879 103.369 199.998 100.5 200C87.159 200.017 73.9501 197.357 61.6562 192.176C49.3623 186.994 38.2334 179.398 28.929 169.837C28.2752 169.169 27.6312 168.49 26.9971 167.802C25.4172 166.089 23.8975 164.322 22.4379 162.503C21.6184 161.479 20.8186 160.44 20.0385 159.385C15.2335 152.893 11.2357 145.841 8.13316 138.385C6.81009 135.209 5.65466 131.966 4.67163 128.669C4.60063 128.435 4.53257 128.201 4.46453 127.967C4.3166 127.465 4.1736 126.959 4.03554 126.45C1.68203 117.83 0.49296 108.935 0.500031 100C0.500031 44.7722 45.2722 0 100.5 0C155.728 0 200.5 44.7722 200.5 100Z" fill="#F2F2F2"/>
<path d="M127.817 189.651L125.793 196.773C122.565 197.613 119.296 198.292 116 198.805H115.997C113.689 199.163 111.359 199.442 109.006 199.642L115.589 190.237L116.524 190.154L127.817 189.651Z" fill="#2F2E41"/>
<path d="M178.692 162.34C176.657 164.893 174.5 167.341 172.222 169.683L164.417 169.689L122.444 169.736L114.888 169.745L109.864 169.751L102.391 169.757L96.6421 169.763L86.0238 169.775L79.7605 169.784L66.5711 169.795L60.2753 169.804L42.8285 169.822L31.8699 169.834L28.9291 169.837C28.2753 169.168 27.6313 168.49 26.9972 167.801C25.4173 166.088 23.8976 164.322 22.438 162.503L28.5268 162.497L32.6747 162.494L42.2782 162.482L60.8108 162.464L67.0741 162.458L69.6066 162.455H69.6155L71.6037 162.452L72.4942 162.449L74.7753 162.446H75.7398L82.5031 162.44L97.0918 162.423L103.512 162.417L109.66 162.411L115.423 162.405L123.692 162.396L167.858 162.352L178.692 162.34Z" fill="#CCCCCC"/>
<path d="M72.6953 167.251C75.9849 167.251 78.6516 166.4 78.6516 165.35C78.6516 164.3 75.9849 163.449 72.6953 163.449C69.4057 163.449 66.739 164.3 66.739 165.35C66.739 166.4 69.4057 167.251 72.6953 167.251Z" fill="#3F3D56"/>
<path d="M72.6953 165.984C75.9849 165.984 78.6516 165.132 78.6516 164.083C78.6516 163.033 75.9849 162.182 72.6953 162.182C69.4057 162.182 66.739 163.033 66.739 164.083C66.739 165.132 69.4057 165.984 72.6953 165.984Z" fill="#3F3D56"/>
<path d="M71.6479 165.356L72.5355 165.343L72.2906 148.769C72.255 146.065 72.9294 143.399 74.2464 141.037C75.5635 138.675 77.4771 136.699 79.7963 135.308L96.7369 125.182L96.2816 124.42L79.3409 134.546C76.8882 136.018 74.8644 138.107 73.4715 140.605C72.0786 143.103 71.3654 145.923 71.403 148.783L71.6479 165.356Z" fill="#3F3D56"/>
<path d="M94.1428 130.499C94.1428 131.689 95.1074 132.653 96.2972 132.653C97.4871 132.653 98.4517 131.689 98.4517 130.499V117.066C98.4517 115.876 97.4871 114.911 96.2972 114.911C95.1074 114.911 94.1428 115.876 94.1428 117.066V130.499Z" fill="#EF4C43"/>
<path d="M96.2219 93.8115L119.454 121.265L139.262 129.745L144.542 119.482C139.698 113.719 123.894 106.802 123.894 106.802L102.434 87.5539C102.396 87.4123 102.354 87.2708 102.303 87.1304C102.002 86.3068 101.494 85.5747 100.827 85.0049C100.16 84.4352 99.3582 84.047 98.4977 83.8779C97.6372 83.7088 96.7477 83.7645 95.9151 84.0397C95.0825 84.3149 94.3349 84.8001 93.7446 85.4486C93.1543 86.0972 92.7413 86.887 92.5455 87.7417C92.3497 88.5965 92.3776 89.4874 92.6267 90.3282C92.8758 91.169 93.3375 91.9313 93.9673 92.5415C94.5971 93.1517 95.3736 93.5891 96.2219 93.8115Z" fill="#FFB9B9"/>
<path d="M142.471 116.363L137.347 129.483L137.352 129.534C137.863 134.574 145.737 139.242 152.253 142.269C154.402 143.266 156.85 143.409 159.101 142.67C161.352 141.931 163.238 140.365 164.379 138.288C165.21 136.751 165.594 135.012 165.488 133.267C165.383 131.523 164.791 129.843 163.78 128.417L158.607 121.172L142.471 116.363Z" fill="#EF4C43"/>
<path d="M172.175 141.21L169.45 151.018L167.858 162.352L167.367 165.837L167.355 165.911L164.328 168.787L164.417 169.69L164.654 172.095L165.047 176.379C151.073 188.225 134.101 195.985 116 198.805C115.997 198.808 115.997 198.805 115.997 198.805C113.58 198.113 111.683 197.361 110.92 196.814C110.618 196.601 110.482 196.411 110.488 196.219C110.521 194.938 114.157 190.34 114.707 189.651L116.151 183.675L119.098 182.503L118.37 178.299L122.311 174.139L122.423 169.858L122.444 169.737L123.692 162.397L126.183 147.778L126.438 146.281L126.207 134.737L126.139 131.24L126.059 127.252C126.038 126.226 126.114 125.201 126.284 124.19C126.41 123.428 126.592 122.676 126.828 121.941C127.485 119.894 128.539 117.996 129.93 116.357C131.321 114.717 133.022 113.369 134.935 112.388C135.086 112.311 135.237 112.237 135.391 112.163C135.391 112.163 135.391 112.16 135.394 112.163C136.577 111.604 137.824 111.189 139.107 110.929L139.479 110.266L143.13 103.781L154.32 104.068L160.994 114.515L166.565 120.045C169.294 122.758 171.251 126.148 172.237 129.868C173.223 133.587 173.201 137.502 172.175 141.21Z" fill="#EF4C43"/>
<path d="M147.748 100.578C155.935 100.578 162.572 93.941 162.572 85.7542C162.572 77.5674 155.935 70.9307 147.748 70.9307C139.562 70.9307 132.925 77.5674 132.925 85.7542C132.925 93.941 139.562 100.578 147.748 100.578Z" fill="#FFB9B9"/>
<path d="M145.94 100.777C148.235 100.812 150.53 100.652 152.798 100.297C155.046 99.8401 160.076 96.1544 161.478 93.9364C162.52 92.2885 163.186 89.7152 163.561 87.8468C164.067 85.3742 164.048 82.8231 163.505 80.3585C162.962 77.8939 161.907 75.5708 160.409 73.5396C159.834 72.6901 159.039 72.0119 158.11 71.5768C158.027 71.5446 157.943 71.5161 157.857 71.4917C156.503 71.1353 155.286 70.3823 154.362 69.3293C154.183 69.1163 153.989 68.9165 153.781 68.7314C152.738 67.8507 151.501 67.2295 150.171 66.9186C148.025 66.3442 144.919 66.9143 140.94 68.6148C138.941 69.4692 136.754 69.16 135.072 68.7951C134.978 68.7769 134.88 68.7837 134.789 68.8148C134.699 68.846 134.617 68.9004 134.554 68.9726C133.838 69.6444 132.895 70.0205 131.914 70.0252C131.312 70.0516 130.682 70.884 129.919 71.9695C129.746 72.2159 129.544 72.5035 129.399 72.6784L129.379 72.3424L129.039 72.7172C128.505 73.3064 128.128 74.0213 127.944 74.7953C127.76 75.5693 127.775 76.3773 127.988 77.144C128.2 77.9106 128.603 78.611 129.159 79.18C129.715 79.749 130.406 80.168 131.168 80.398C131.772 80.5589 132.392 80.6577 133.017 80.6927C133.395 80.7268 133.787 80.762 134.162 80.8271C135.366 81.0736 136.485 81.6282 137.411 82.4366C138.337 83.245 139.037 84.2797 139.444 85.4395C139.54 85.7076 139.696 85.9501 139.901 86.1481C140.106 86.3461 140.353 86.4945 140.624 86.5817C140.895 86.6689 141.183 86.6927 141.465 86.6511C141.747 86.6095 142.015 86.5038 142.249 86.342C142.64 86.0377 143.099 85.8324 143.586 85.7437C144.073 85.6549 144.575 85.6854 145.048 85.8324C145.457 86.0597 145.775 86.4206 145.949 86.8546C146.161 87.3381 146.512 87.7476 146.957 88.0308C148.481 88.8163 148.586 92.2962 148.039 95.1971C147.511 97.9934 146.469 100.016 145.503 100.116C144.76 100.193 144.675 100.246 144.621 100.377L144.573 100.495L144.657 100.605C145.067 100.754 145.505 100.812 145.94 100.777Z" fill="#2F2E41"/>
<path d="M136.338 141.753L130.623 130.357C122.327 130.924 105.861 140.516 105.861 140.516L74.7075 147.122C73.7846 146.767 72.7845 146.661 71.808 146.816C70.8314 146.971 69.9128 147.38 69.1446 148.002C68.3765 148.625 67.7858 149.439 67.4322 150.362C67.0785 151.285 66.9743 152.285 67.1301 153.262C67.2859 154.238 67.6961 155.156 68.3195 155.924C68.9429 156.691 69.7575 157.281 70.6812 157.633C71.6049 157.986 72.6053 158.089 73.5814 157.932C74.5576 157.775 75.4752 157.364 76.2419 156.739L115.871 153.899L136.338 141.753Z" fill="#FFB9B9"/>
<path d="M134.033 143.623L148.96 132.53L151.589 123.055C152.099 121.193 152.077 119.225 151.527 117.375C150.977 115.524 149.92 113.865 148.477 112.583C146.508 110.859 143.958 109.947 141.342 110.032C138.726 110.116 136.24 111.191 134.387 113.038C128.769 118.645 122.362 126.467 123.739 131.891L123.753 131.946L134.033 143.623Z" fill="#EF4C43"/>
<path d="M26.0858 129.026C26.0681 129.053 26.0503 129.079 26.0296 129.109C25.4385 129.071 24.8457 129.07 24.2545 129.106C23.9172 129.127 23.5799 129.159 23.2426 129.204C22.8189 129.263 22.423 129.449 22.1068 129.737C21.7905 130.025 21.5686 130.402 21.4701 130.818C21.3716 131.235 21.4011 131.671 21.5548 132.07C21.7085 132.469 21.9792 132.813 22.3314 133.056L22.3669 133.079C22.3935 133.097 22.4142 133.112 22.4409 133.13C18.5048 136.623 13.3943 138.5 8.13316 138.384C6.81009 135.208 5.65466 131.965 4.67163 128.668C6.27991 127.159 8.24924 126.088 10.3906 125.559C14.6805 124.523 19.4675 125.692 23.7604 125.266C25.8255 125.062 27.2604 127.313 26.0858 129.026Z" fill="#F4B210"/>
<path d="M29.8401 96.0618C29.8283 96.0944 29.8165 96.1299 29.8017 96.1654C29.4644 96.1861 29.1271 96.2216 28.7898 96.266C28.3663 96.3249 27.9705 96.5105 27.6543 96.7983C27.338 97.0861 27.1161 97.4627 27.0176 97.8788C26.9191 98.2949 26.9486 98.7311 27.1022 99.1301C27.2559 99.5292 27.5265 99.8725 27.8786 100.115L27.9141 100.142C27.356 101.054 26.7289 101.923 26.0384 102.739C24.0853 105.011 21.6841 106.854 18.9853 108.154C16.2865 109.453 13.3483 110.182 10.3549 110.293C10.1597 110.299 9.9703 110.304 9.778 110.304C9.27957 114.767 8.20145 119.145 6.5709 123.328C5.95239 124.911 5.24921 126.46 4.46439 127.967C4.31646 127.464 4.17347 126.958 4.0354 126.449C4.0709 126.381 4.10345 126.316 4.13599 126.248C4.91764 124.634 5.60808 122.978 6.20404 121.287C6.69219 119.899 7.11823 118.494 7.48214 117.071C9.44861 109.342 9.55406 101.257 7.78984 93.479C6.19403 91.2474 5.32048 88.5803 5.28687 85.837C5.2726 84.8493 5.40115 83.8648 5.66853 82.9139C5.89634 83.0648 6.13599 83.2068 6.37268 83.3399C6.44664 83.3814 6.52356 83.4228 6.60048 83.4642L6.62711 83.479C6.88998 83.6212 7.18838 83.6844 7.48633 83.6609C7.78429 83.6374 8.0691 83.5282 8.30643 83.3466C8.54376 83.1649 8.72348 82.9185 8.82395 82.637C8.92442 82.3555 8.94134 82.0509 8.87267 81.7601C8.83125 81.5796 8.78687 81.3991 8.74545 81.2186C8.68037 80.9405 8.61232 80.6624 8.55019 80.3843C8.53956 80.3565 8.53164 80.3278 8.52652 80.2985C8.45256 79.982 8.37563 79.6683 8.30167 79.3518C8.89151 78.9914 9.55685 78.7727 10.2455 78.7127C12.6153 78.5234 14.8046 80.5086 15.3283 82.8252C15.8608 85.1447 14.9762 87.6121 13.5029 89.476C12.2395 91.0707 10.5798 92.2926 8.85197 93.3814C8.89043 93.5589 8.93481 93.7334 8.97327 93.908C9.66362 97.151 10.0362 100.454 10.0857 103.769C11.1389 100.627 13.42 97.334 15.4851 95.4967C17.8372 93.405 20.9378 92.1831 23.8253 90.7867C27.2898 89.1092 31.1301 92.4317 29.8401 96.0618Z" fill="#F4B210"/>
<path d="M188.938 141.855C189.432 142.482 189.944 143.107 190.456 143.734C188.693 147.354 186.711 150.864 184.521 154.243C184.358 154.127 184.195 154.012 184.033 153.897C184.007 153.883 183.982 153.867 183.959 153.849C183.352 153.417 182.743 152.991 182.136 152.559V152.556C181.636 150.854 181.356 149.094 181.305 147.32C181.618 147.248 181.901 147.082 182.116 146.844C182.331 146.605 182.468 146.307 182.507 145.988C182.547 145.67 182.488 145.347 182.338 145.063C182.188 144.78 181.954 144.549 181.669 144.402C181.589 144.263 181.532 144.163 181.453 144.021C181.456 143.985 181.461 143.947 181.464 143.911C181.929 140.216 186.639 138.926 188.938 141.855Z" fill="#F4B210"/>
<path d="M194.248 129.192C194.603 130.169 194.927 131.156 195.219 132.154C195.018 132.746 194.812 133.335 194.6 133.923C194.521 133.613 194.438 133.302 194.352 132.991C193.871 131.264 193.293 129.565 192.621 127.903C192.071 126.539 191.461 125.203 190.793 123.897C187.157 116.798 181.888 110.663 175.42 105.997C172.747 105.379 170.327 103.956 168.488 101.92C167.825 101.189 167.27 100.366 166.84 99.4765C167.112 99.438 167.384 99.3848 167.651 99.3286C167.734 99.3108 167.819 99.2901 167.902 99.2724L167.935 99.2664C168.226 99.1989 168.491 99.0488 168.699 98.834C168.907 98.6193 169.048 98.349 169.106 98.0559C169.164 97.7627 169.136 97.4591 169.025 97.1815C168.914 96.9039 168.726 96.6643 168.482 96.4913C168.331 96.3818 168.177 96.2753 168.027 96.1688C167.796 96.0002 167.562 95.8404 167.328 95.6747C167.304 95.6594 167.28 95.6426 167.257 95.6244C166.991 95.4351 166.725 95.2516 166.461 95.0593C166.666 94.4001 167.019 93.7967 167.494 93.296C169.148 91.5889 172.1 91.6274 174.029 93.0179C175.961 94.4085 176.932 96.8434 177.056 99.2161C177.166 101.249 176.728 103.261 176.151 105.222C176.296 105.329 176.447 105.429 176.592 105.539C179.255 107.513 181.719 109.743 183.947 112.198C182.66 109.145 182.192 105.163 182.527 102.42C182.908 99.296 184.426 96.3286 185.669 93.373C187.157 89.8227 192.234 89.7753 193.666 93.3493C193.68 93.3848 193.695 93.4173 193.707 93.4528C193.467 93.6925 193.237 93.941 193.015 94.1984C192.736 94.5227 192.562 94.9236 192.515 95.3486C192.468 95.7736 192.551 96.2028 192.752 96.5801C192.953 96.9574 193.263 97.2652 193.642 97.4632C194.021 97.6611 194.451 97.74 194.876 97.6895L194.92 97.6836C195.105 98.7383 195.209 99.8054 195.234 100.876C195.27 103.871 194.688 106.841 193.523 109.6C192.358 112.36 190.636 114.849 188.464 116.911C188.322 117.045 188.183 117.175 188.038 117.302C189.409 119.251 190.64 121.295 191.722 123.417C192.682 125.288 193.526 127.217 194.248 129.192Z" fill="#F4B210"/>
</g>
<defs>
<clipPath id="clip0_1026_1615">
<rect width="200" height="200" fill="white" transform="translate(0.5)"/>
</clipPath>
</defs>
</svg>
