<svg width="16" height="16" viewBox="0 0 16 16" fill="none" xmlns="http://www.w3.org/2000/svg">
<g clip-path="url(#clip0_611_1563)">
<path d="M3.1249 1.5C3.5066 1.74155 3.8076 2.05557 4.1249 2.375C4.25413 2.50001 4.38354 2.62483 4.51309 2.74951C4.64949 2.88231 4.78572 3.01529 4.92178 3.14844C4.98731 3.21229 5.05284 3.27614 5.12036 3.34192C5.59045 3.81132 5.8698 4.10961 5.88272 4.78125C5.66872 5.53652 5.14334 6.01512 4.5624 6.52344C4.50053 6.5982 4.43865 6.67297 4.3749 6.75C4.53924 8.31651 6.13499 9.65187 7.2499 10.625C8.15852 11.3508 8.15852 11.3508 9.2499 11.625C9.50118 11.4064 9.69995 11.2035 9.91397 10.9531C10.649 10.1575 10.649 10.1575 11.1718 10.0781C11.8768 10.1511 12.2826 10.501 12.7714 10.9927C12.8647 11.0862 12.958 11.1798 13.0541 11.2761C13.1497 11.3732 13.2452 11.4703 13.3437 11.5703C13.4411 11.6679 13.5386 11.7654 13.6391 11.866C14.4848 12.7184 14.4848 12.7184 14.539 13.2813C14.4557 14.2803 13.6083 15.002 12.8749 15.625C11.9193 16.2067 10.8402 16.1273 9.78115 15.8989C6.066 14.7616 2.92138 11.8371 1.08193 8.47363C0.276535 6.94803 -0.379308 5.36495 0.0687514 3.60449C0.620748 2.5005 1.83714 1.30684 3.1249 1.5Z" fill="#EF4C43"/>
<path d="M8.12496 -3.56557e-06C9.93104 -0.0763166 11.703 0.886475 13.0312 2.04687C13.2313 2.23735 13.4293 2.43 13.625 2.625C13.7123 2.70943 13.7996 2.79386 13.8896 2.88086C14.9933 4.02314 15.9403 5.72086 16.0234 7.32812C16.0157 7.42609 16.0079 7.52406 16 7.625C15.3812 7.68687 15.3812 7.68687 14.75 7.75C14.6881 7.53343 14.6881 7.53343 14.625 7.3125C13.9001 5.16836 12.6802 3.32381 10.6679 2.1875C9.85064 1.79294 9.01006 1.56499 8.12496 1.375C7.97871 0.885326 8.03798 0.502548 8.12496 -3.56557e-06Z" fill="#EF4C43"/>
<path d="M8 3.125C9.68562 3.35971 10.9277 4.05571 11.9824 5.42725C12.4515 6.15764 12.6919 6.90536 12.875 7.75C11.7719 8.06254 11.7719 8.06253 11.375 7.875C11.252 7.60156 11.252 7.60156 11.1562 7.25C10.808 6.21077 10.2103 5.51192 9.23438 5.00781C8.79041 4.80913 8.34271 4.63539 7.875 4.5C7.91625 4.04625 7.9575 3.5925 8 3.125Z" fill="#EF4C43"/>
</g>
<defs>
<clipPath id="clip0_611_1563">
<rect width="16" height="16" fill="white"/>
</clipPath>
</defs>
</svg>
