<svg width="50" height="50" viewBox="0 0 50 50" fill="none" xmlns="http://www.w3.org/2000/svg">
<g clip-path="url(#clip0_754_1289)">
<path d="M32.3325 5.54144C32.425 5.60205 32.425 5.60205 32.5194 5.66389C32.5872 5.70531 32.6549 5.74672 32.7247 5.78939C33.4052 6.24691 33.89 6.91222 34.0819 7.71467C34.1155 7.94238 34.1483 8.17023 34.1796 8.39827C34.3326 8.55127 34.5119 8.54082 34.7228 8.57527C35.6106 8.74751 36.3224 9.16451 36.8834 9.88752C37.2862 10.4851 37.4479 11.1017 37.4022 11.8162C37.4778 11.8258 37.5533 11.8354 37.6311 11.8452C38.5213 11.973 39.3198 12.1967 39.9413 12.8905C40.4481 13.6142 40.7585 14.2386 40.7226 15.1365C40.8494 15.1446 40.9763 15.1527 41.1071 15.161C41.9403 15.2551 42.7907 15.6547 43.3261 16.3122C43.4806 16.5333 43.6181 16.7568 43.7499 16.992C43.8001 17.0806 43.8001 17.0806 43.8514 17.1709C44.2192 17.9599 44.1544 18.9921 43.9025 19.8057C43.6467 20.4089 43.2336 20.8326 42.7733 21.2889C42.6601 21.4033 42.5469 21.5177 42.4338 21.6322C42.1258 21.943 41.8154 22.2512 41.5038 22.5584C41.5421 22.6732 41.5803 22.788 41.6198 22.9063C41.6594 23.0262 41.6594 23.0262 41.6999 23.1486C41.7711 23.3609 41.8441 23.5727 41.9181 23.7841C42.5238 25.5267 42.5238 25.5267 42.4523 26.2665C42.4157 26.8787 42.4884 27.2706 42.8701 27.7467C43.285 28.2126 43.7357 28.6415 44.1863 29.0724C44.3504 29.2339 44.5143 29.3957 44.6778 29.5578C45.1072 29.9818 45.5403 30.4019 45.9743 30.8213C46.4166 31.25 46.8557 31.682 47.2949 32.1139C47.7878 32.5984 48.281 33.0826 48.777 33.564C48.852 33.637 48.927 33.7099 49.0043 33.7851C49.1448 33.9216 49.2855 34.0578 49.4264 34.1939C49.488 34.2538 49.5496 34.3137 49.6131 34.3755C49.6669 34.4275 49.7207 34.4796 49.7761 34.5332C50.055 34.8309 50.0316 35.1321 50.0285 35.5211C49.9866 35.845 49.8427 36.0106 49.6093 36.2303C49.2857 36.3921 48.98 36.399 48.6327 36.328C47.7937 35.7915 47.0867 34.8902 46.3866 34.1856C46.2538 34.0523 46.1209 33.9189 45.988 33.7856C45.6649 33.4615 45.3421 33.137 45.0194 32.8123C44.9114 32.904 44.8034 32.9958 44.6956 33.0877C44.6354 33.1389 44.5753 33.19 44.5134 33.2427C44.4021 33.3402 44.2934 33.4406 44.1886 33.5451C43.9216 33.8012 43.7174 33.9217 43.3532 33.9415C42.9334 33.8815 42.7721 33.7965 42.4804 33.4959C42.3068 33.1487 42.3076 32.7988 42.3827 32.4217C42.5753 32.1222 42.8085 31.8845 43.0663 31.6405C43.1641 31.5429 43.2618 31.4453 43.3593 31.3475C43.2169 31.019 43.0359 30.8059 42.7817 30.5556C42.6703 30.4451 42.6703 30.4451 42.5567 30.3324C42.4791 30.2565 42.4016 30.1806 42.3217 30.1024C42.2434 30.0249 42.1651 29.9475 42.0844 29.8678C41.8913 29.677 41.6978 29.4866 41.5038 29.2967C41.0049 29.7143 40.5379 30.1514 40.0792 30.6125C40.0086 30.6831 39.9381 30.7537 39.8653 30.8264C39.6342 31.0576 39.4034 31.2891 39.1726 31.5207C39.0116 31.6819 38.8506 31.8431 38.6895 32.0042C38.2672 32.4269 37.8452 32.8498 37.4233 33.2728C36.9921 33.7051 36.5606 34.137 36.1291 34.569C35.2837 35.4155 34.4386 36.2622 33.5937 37.1092C33.6874 37.2191 33.7813 37.329 33.8752 37.4389C33.9274 37.5001 33.9797 37.5613 34.0335 37.6243C34.1877 37.8022 34.3472 37.9717 34.5145 38.1373C34.5976 38.2199 34.5976 38.2199 34.6824 38.3042C34.738 38.359 34.7936 38.4138 34.851 38.4703C34.9089 38.5278 34.9668 38.5852 35.0265 38.6444C35.1671 38.784 35.3081 38.9232 35.4491 39.0623C35.7622 38.9227 35.9897 38.7494 36.2426 38.5191C36.5528 38.2375 36.7077 38.0983 37.1337 38.0491C37.6164 38.0974 37.7478 38.236 38.0858 38.574C38.2283 38.859 38.2105 39.0813 38.1759 39.3946C37.9897 39.9191 37.5199 40.2678 37.1093 40.6248C37.5178 41.1124 37.9436 41.57 38.3951 42.0179C38.4962 42.1187 38.4962 42.1187 38.5994 42.2217C38.7445 42.3665 38.8899 42.5112 39.0353 42.6558C39.2653 42.8846 39.4951 43.1137 39.7247 43.3429C40.2117 43.8288 40.699 44.3142 41.1864 44.7996C41.7527 45.3636 42.3188 45.9278 42.8846 46.4923C43.111 46.7181 43.3378 46.9437 43.5646 47.1692C43.7029 47.3072 43.8412 47.4451 43.9795 47.5831C44.0427 47.6458 44.1059 47.7085 44.171 47.7731C44.2288 47.8309 44.2865 47.8887 44.346 47.9482C44.3962 47.9981 44.4464 48.0481 44.4981 48.0996C44.8525 48.4858 44.8735 48.7699 44.8596 49.272C44.8241 49.5115 44.8241 49.5115 44.641 49.8167C44.1928 50.0856 43.8662 50.1252 43.3593 49.9998C43.1378 49.8428 43.1378 49.8428 42.9146 49.6324C42.787 49.5123 42.787 49.5123 42.6568 49.3897C42.2097 48.9512 41.7699 48.5064 41.3343 48.0565C41.0977 47.8123 40.8605 47.5687 40.6233 47.3251C40.4958 47.1942 40.3684 47.0632 40.241 46.9323C39.4219 46.0905 38.5977 45.2538 37.7736 44.4169C36.9729 43.6038 36.174 42.7891 35.3803 41.9692C34.7475 41.3154 34.1111 40.6654 33.4702 40.0195C33.1321 39.6784 32.796 39.3358 32.4642 38.9886C31.026 37.3238 31.026 37.3238 29.088 36.5433C28.7614 36.5615 28.4536 36.6117 28.1351 36.6846C26.6677 36.9271 24.9135 35.747 23.7746 34.9425C23.6968 34.8882 23.6189 34.834 23.5387 34.7781C23.3838 34.6694 23.2301 34.559 23.0778 34.4467C23.0064 34.3967 22.935 34.3466 22.8614 34.2951C22.7983 34.2493 22.7351 34.2036 22.6701 34.1564C22.3479 34.0416 22.1854 34.1412 21.8749 34.2772C21.6361 34.4619 21.4285 34.6733 21.2176 34.8888C21.154 34.9523 21.0903 35.0157 21.0248 35.0811C20.812 35.2937 20.6006 35.5076 20.3892 35.7216C20.2369 35.8744 20.0844 36.0271 19.9319 36.1797C19.6038 36.5084 19.2763 36.8377 18.9493 37.1675C18.4324 37.6887 17.9142 38.2085 17.3957 38.7281C16.6693 39.4566 15.9434 40.1856 15.2182 40.9152C15.1492 40.9846 15.1492 40.9846 15.0788 41.0554C15.0327 41.1017 14.9866 41.1481 14.9392 41.1958C14.2859 41.8529 13.6325 42.5098 12.9788 43.1665C12.9328 43.2127 12.8868 43.2589 12.8394 43.3066C12.0726 44.077 11.3053 44.8469 10.5378 45.6167C10.0224 46.1338 9.50758 46.6514 8.99316 47.1694C8.67345 47.4912 8.35335 47.8126 8.03315 48.1339C7.88448 48.2832 7.73598 48.4327 7.58767 48.5824C7.38558 48.7864 7.1829 48.9897 6.98006 49.1929C6.92119 49.2526 6.86231 49.3123 6.80164 49.3738C6.74714 49.4282 6.69263 49.4825 6.63648 49.5385C6.58978 49.5855 6.54307 49.6325 6.49496 49.6809C6.21605 49.9148 5.98859 49.9957 5.62734 50.0426C5.16399 49.9866 4.99347 49.8613 4.6874 49.5115C4.59145 49.2457 4.55096 49.0108 4.58974 48.7303C4.79081 48.3496 5.03302 48.0675 5.33688 47.7644C5.38219 47.7189 5.4275 47.6734 5.47419 47.6265C5.62532 47.4751 5.77714 47.3243 5.92896 47.1736C6.03777 47.0648 6.14653 46.9561 6.25525 46.8472C6.54998 46.5524 6.8453 46.2583 7.14073 45.9642C7.44958 45.6566 7.75788 45.3484 8.06624 45.0403C8.64999 44.4571 9.23425 43.8745 9.81868 43.292C10.4841 42.6287 11.149 41.9649 11.8138 41.3011C13.1812 39.9357 14.5493 38.5711 15.9179 37.2069C15.5313 36.7438 15.1284 36.306 14.7006 35.8809C14.6406 35.8208 14.5805 35.7607 14.5185 35.6988C14.3222 35.5025 14.1256 35.3066 13.9289 35.1107C13.7918 34.9737 13.6547 34.8368 13.5176 34.6998C13.1585 34.3411 12.7991 33.9827 12.4397 33.6243C12.0723 33.2579 11.7051 32.8912 11.3379 32.5245C10.6188 31.8064 9.89927 31.0886 9.17959 30.3709C8.69863 30.7742 8.24628 31.1933 7.80448 31.6388C7.73913 31.7043 7.67378 31.7698 7.60645 31.8373C7.46578 31.9783 7.32522 32.1195 7.18477 32.2607C6.96253 32.4842 6.73998 32.7074 6.51735 32.9305C6.04544 33.4035 5.57391 33.877 5.10244 34.3504C4.55459 34.9006 4.00658 35.4506 3.45816 36.0002C3.23882 36.2201 3.01977 36.4404 2.80073 36.6607C2.66672 36.795 2.53271 36.9294 2.39867 37.0637C2.33779 37.1251 2.27691 37.1865 2.21419 37.2497C2.13002 37.3339 2.13002 37.3339 2.04415 37.4198C1.99562 37.4685 1.94709 37.5173 1.89708 37.5675C1.53013 37.9035 1.27763 37.9318 0.803272 37.9225C0.483067 37.8753 0.315559 37.7315 0.0975534 37.4998C-0.0570607 37.1906 -0.0629684 36.8578 -0.000102893 36.5233C0.244302 36.1242 0.51089 35.7927 0.841604 35.4628C0.931706 35.3724 1.02181 35.282 1.11464 35.1889C1.21375 35.0905 1.31287 34.9921 1.412 34.8937C1.51697 34.7888 1.6219 34.6838 1.72679 34.5788C2.01061 34.2949 2.29503 34.0116 2.57957 33.7285C2.87721 33.4321 3.1743 33.1351 3.47144 32.8382C4.03375 32.2765 4.59656 31.7153 5.15954 31.1542C5.80066 30.5153 6.44121 29.8758 7.08172 29.2363C8.39888 27.9212 9.71674 26.6068 11.0351 25.2928C10.8482 24.8788 10.5569 24.6213 10.2294 24.3162C9.42253 23.5401 8.88511 22.6738 8.8561 21.5269C8.86646 20.5818 9.19196 19.7183 9.86318 19.0428C10.6994 18.3592 10.6994 18.3592 11.1327 18.3592C11.0864 18.2565 11.0401 18.1538 10.9923 18.0479C10.6105 17.1438 10.6567 16.2446 10.9904 15.3284C11.4354 14.423 12.2103 13.785 13.1469 13.4459C13.4629 13.3815 13.741 13.3631 14.0624 13.3787C14.0638 13.3196 14.0652 13.2604 14.0666 13.1994C14.1223 12.2209 14.4927 11.4825 15.2118 10.816C15.8818 10.288 16.5353 10.0783 17.3827 10.0584C17.3841 9.99926 17.3855 9.94009 17.3869 9.87913C17.4427 8.89946 17.8141 8.16566 18.5302 7.49571C19.3714 6.83851 20.2423 6.66214 21.289 6.73811C22.4783 6.9445 23.2063 7.74802 24.0233 8.58137C24.1083 8.66722 24.1933 8.75308 24.2808 8.84153C24.4884 9.05141 24.6955 9.26173 24.9022 9.47248C25.2098 9.3366 25.4136 9.17882 25.6475 8.93847C25.7493 8.83481 25.7493 8.83481 25.8531 8.72905C25.9255 8.65438 25.998 8.57972 26.0726 8.50279C26.2279 8.34496 26.3833 8.18716 26.5387 8.02938C26.7826 7.78074 27.026 7.53181 27.269 7.28232C27.5041 7.0413 27.7404 6.80153 27.9769 6.56187C28.0485 6.4876 28.1202 6.41333 28.194 6.33681C29.2301 5.29081 30.9601 4.78108 32.3325 5.54144ZM29.8976 7.62486C29.8305 7.68689 29.7634 7.74892 29.6943 7.81283C29.5942 7.90926 29.5942 7.90926 29.4921 8.00764C29.4309 8.06649 29.3697 8.12534 29.3067 8.18597C29.1206 8.36791 28.9368 8.55188 28.7536 8.73663C28.6544 8.83597 28.6544 8.83597 28.5533 8.93732C28.3452 9.14599 28.1374 9.35501 27.9296 9.56404C27.7873 9.70679 27.645 9.84953 27.5027 9.99224C27.1565 10.3396 26.8105 10.6872 26.4647 11.035C26.5044 11.0866 26.5441 11.1383 26.585 11.1915C26.6373 11.2603 26.6897 11.3291 26.7436 11.4001C26.8212 11.5017 26.8212 11.5017 26.9005 11.6054C27.4719 12.4074 27.6097 13.186 27.539 14.16C27.3788 15.0831 26.8983 15.787 26.1771 16.3752C25.6144 16.7357 24.9703 16.895 24.3163 16.992C24.302 17.0735 24.2876 17.1549 24.2728 17.2388C24.0462 18.3758 23.605 19.1426 22.6561 19.824C22.1274 20.108 21.5821 20.2121 20.996 20.3123C20.9805 20.3949 20.965 20.4775 20.9491 20.5626C20.7338 21.609 20.4145 22.2731 19.5971 22.9723C19.1282 23.2811 18.6077 23.4067 18.0663 23.535C17.9894 23.5542 17.9125 23.5735 17.8332 23.5933C17.7812 23.6063 17.7292 23.6193 17.6757 23.6326C17.6672 23.6918 17.6588 23.751 17.6501 23.8119C17.4831 24.8079 17.1098 25.6307 16.3085 26.2694C16.0851 26.4161 15.8636 26.5382 15.6249 26.66C16.1555 27.3056 16.7445 27.8897 17.3362 28.4785C17.4448 28.5869 17.5535 28.6954 17.6621 28.8039C17.946 29.0875 18.2303 29.3708 18.5146 29.654C18.8054 29.9438 19.096 30.234 19.3866 30.5241C19.9553 31.0918 20.5244 31.6592 21.0936 32.2264C21.1512 32.2071 21.2087 32.1878 21.268 32.1679C22.3164 31.8171 23.2554 31.6012 24.3651 31.5489C29.2222 31.2547 32.3268 28.8207 35.6578 25.4912C35.835 25.3142 36.0123 25.1373 36.1895 24.9604C36.5583 24.5922 36.9269 24.2238 37.2953 23.8553C37.7206 23.4299 38.1465 23.0051 38.5726 22.5805C38.9849 22.1696 39.3967 21.7582 39.8083 21.3466C39.9826 21.1723 40.1572 20.9982 40.3319 20.8243C40.575 20.5822 40.8174 20.3395 41.0597 20.0966C41.1318 20.025 41.204 19.9533 41.2784 19.8795C41.3442 19.8133 41.41 19.7471 41.4778 19.6789C41.535 19.6217 41.5923 19.5645 41.6512 19.5056C41.9633 19.1415 42.0308 18.838 42.0165 18.355C41.9653 17.9538 41.7567 17.7332 41.4794 17.4559C41.1396 17.2397 40.931 17.1873 40.5272 17.1873C39.86 17.4045 39.4197 17.8615 38.9495 18.3603C38.7999 18.5144 38.6502 18.6685 38.5005 18.8225C38.2678 19.0643 38.0357 19.3066 37.8044 19.5497C37.5792 19.7854 37.352 20.019 37.1245 20.2524C37.0221 20.362 37.0221 20.362 36.9176 20.4738C36.6009 20.7968 36.3672 21.0299 35.9086 21.0954C35.5389 21.0935 35.2902 21.067 34.9608 20.8983C34.8754 20.7396 34.8754 20.7396 34.8632 20.5076C34.8471 20.3868 34.831 20.2659 34.8144 20.1414C34.8188 19.7774 34.9197 19.619 35.1642 19.3538C35.2265 19.2859 35.2887 19.2181 35.3529 19.1481C35.6463 18.8409 35.9443 18.5393 36.2475 18.2417C36.3779 18.1125 36.5083 17.9833 36.6387 17.8541C36.8415 17.6538 37.0444 17.4536 37.2476 17.2537C37.4457 17.0586 37.6431 16.8628 37.8406 16.667C37.9015 16.6074 37.9624 16.5478 38.0252 16.4863C38.0816 16.4302 38.1381 16.3741 38.1962 16.3163C38.2458 16.2675 38.2953 16.2187 38.3464 16.1684C38.6619 15.7975 38.7258 15.4479 38.7156 14.9725C38.6372 14.5675 38.3945 14.3217 38.0858 14.0623C37.788 13.8791 37.6246 13.867 37.2741 13.867C36.4958 14.0781 35.9442 14.7172 35.4037 15.288C35.2679 15.4281 35.1321 15.5682 34.9961 15.7082C34.7852 15.9263 34.575 16.145 34.3662 16.3653C34.1625 16.5797 33.9563 16.7915 33.7497 17.0031C33.6883 17.0691 33.6269 17.1351 33.5637 17.2031C33.1712 17.6002 32.8837 17.7533 32.3236 17.7928C32.0084 17.7612 31.8484 17.61 31.6405 17.3826C31.4887 17.079 31.5149 16.8394 31.5429 16.5037C31.8422 15.969 32.2597 15.5678 32.6945 15.1411C32.7674 15.0687 32.8404 14.9963 32.9155 14.9217C33.1472 14.6917 33.3795 14.4624 33.612 14.2332C33.8454 14.0025 34.0786 13.7717 34.3116 13.5406C34.4563 13.397 34.6013 13.2538 34.7465 13.1108C34.8443 13.014 34.8443 13.014 34.9441 12.9152C35.0017 12.8584 35.0593 12.8016 35.1186 12.7431C35.4133 12.4257 35.3962 12.0963 35.3908 11.6808C35.3241 11.2481 35.113 10.9973 34.7655 10.742C34.5027 10.6093 34.2795 10.5332 33.9843 10.5467C33.4598 10.7346 33.1468 10.9469 32.7529 11.3527C32.6806 11.4262 32.6806 11.4262 32.6069 11.5012C32.4547 11.6561 32.3039 11.8124 32.1532 11.9688C32.0009 12.1253 31.8483 12.2815 31.6954 12.4375C31.5575 12.5785 31.4203 12.7203 31.2832 12.8621C30.9717 13.1669 30.7674 13.3112 30.3344 13.3238C29.9913 13.3137 29.8858 13.283 29.5836 13.0919C29.3683 12.7515 29.2973 12.5502 29.3254 12.1508C29.4754 11.6359 29.896 11.2982 30.2733 10.9373C30.4894 10.7306 30.705 10.5235 30.9194 10.315C31.0682 10.1706 31.2185 10.0277 31.3704 9.88657C31.8311 9.44213 32.0536 9.13864 32.1288 8.49592C32.0056 8.04166 31.8171 7.69719 31.4319 7.4114C30.8788 7.14588 30.3424 7.20983 29.8976 7.62486ZM19.5922 9.45417C19.4016 9.82796 19.3743 10.0344 19.4335 10.449C19.7506 11.0143 20.2036 11.4428 20.6603 11.8971C20.7816 12.0187 20.7816 12.0187 20.9054 12.1428C21.0759 12.3134 21.2466 12.4838 21.4176 12.6539C21.6794 12.9147 21.9401 13.1764 22.2007 13.4382C22.3667 13.6041 22.5327 13.7699 22.6989 13.9357C22.7768 14.014 22.8547 14.0923 22.935 14.173C23.008 14.2454 23.081 14.3178 23.1563 14.3924C23.2201 14.4561 23.284 14.5198 23.3498 14.5855C23.6481 14.8438 23.862 14.9342 24.2553 14.9779C24.8018 14.9213 25.0713 14.6872 25.4332 14.2882C25.6425 13.8445 25.6384 13.5486 25.4882 13.0858C25.3566 12.8935 25.3566 12.8935 25.1876 12.7166C25.126 12.6491 25.0643 12.5815 25.0007 12.5119C24.6807 12.1735 24.3571 11.8392 24.0287 11.5088C23.9571 11.4366 23.8855 11.3645 23.8118 11.2902C23.6617 11.1392 23.5116 10.9884 23.3612 10.8377C23.1315 10.607 22.9028 10.3753 22.6741 10.1435C22.5275 9.99631 22.3809 9.84918 22.2342 9.70213C22.1663 9.63296 22.0983 9.56379 22.0283 9.49253C21.6122 9.0783 21.3061 8.82848 20.7091 8.75227C20.1972 8.81495 19.9179 9.06845 19.5922 9.45417ZM16.3268 12.6707C16.1586 12.9895 16.0839 13.3143 16.1132 13.6717C16.3452 14.2864 16.7939 14.6877 17.2507 15.1411C17.3337 15.2244 17.4166 15.3076 17.5021 15.3934C17.6773 15.5687 17.8528 15.7437 18.0286 15.9183C18.2976 16.1857 18.565 16.4547 18.8323 16.7238C19.0028 16.8942 19.1735 17.0645 19.3442 17.2346C19.4241 17.3151 19.504 17.3956 19.5863 17.4785C19.6615 17.5528 19.7368 17.6271 19.8143 17.7037C19.88 17.7692 19.9457 17.8347 20.0134 17.9021C20.3184 18.1507 20.6023 18.2487 20.9899 18.2982C21.5018 18.2355 21.7811 17.982 22.1068 17.5963C22.2974 17.2225 22.3248 17.016 22.2655 16.6014C21.9485 16.0362 21.4954 15.6077 21.0387 15.1533C20.9578 15.0723 20.8769 14.9912 20.7936 14.9076C20.6231 14.737 20.4524 14.5666 20.2814 14.3965C20.0196 14.1358 19.759 13.874 19.4983 13.6122C19.3323 13.4463 19.1663 13.2805 19.0001 13.1148C18.9222 13.0364 18.8443 12.9581 18.764 12.8774C18.691 12.805 18.618 12.7326 18.5428 12.658C18.4789 12.5943 18.415 12.5306 18.3492 12.4649C18.051 12.2066 17.837 12.1163 17.4437 12.0726C16.948 12.1239 16.6789 12.3308 16.3268 12.6707ZM13.0065 15.991C12.8382 16.3098 12.7636 16.6346 12.7929 16.992C13.0249 17.6067 13.4736 18.008 13.9304 18.4614C14.0134 18.5447 14.0963 18.6279 14.1818 18.7137C14.357 18.889 14.5325 19.064 14.7083 19.2386C14.9773 19.5061 15.2447 19.775 15.512 20.0442C15.6825 20.2145 15.8532 20.3848 16.0239 20.5549C16.1038 20.6354 16.1837 20.7159 16.2659 20.7988C16.3412 20.8731 16.4165 20.9475 16.494 21.0241C16.5597 21.0895 16.6254 21.155 16.6931 21.2224C17.0479 21.5117 17.3106 21.583 17.7672 21.5758C18.2778 21.4947 18.5794 21.2284 18.8842 20.8128C19.0158 20.3652 18.9969 20.0306 18.7968 19.609C18.521 19.1488 18.1468 18.7883 17.768 18.4126C17.6919 18.3362 17.6158 18.2599 17.5374 18.1812C17.3771 18.0206 17.2163 17.8604 17.0553 17.7006C16.8094 17.4563 16.5652 17.2105 16.3211 16.9646C16.1646 16.8083 16.0081 16.6522 15.8515 16.4961C15.7788 16.4229 15.7062 16.3496 15.6313 16.2742C15.1681 15.8171 14.7793 15.4703 14.1112 15.3868C13.6255 15.4475 13.3527 15.6568 13.0065 15.991ZM11.2304 20.6053C10.9876 20.9421 10.9118 21.2102 10.9252 21.6185C10.9857 21.9715 11.0837 22.1656 11.325 22.4287C11.3865 22.4961 11.4481 22.5634 11.5115 22.6328C11.8894 23.0316 12.2712 23.426 12.6586 23.8157C12.7399 23.8991 12.8212 23.9824 12.905 24.0683C12.9841 24.1478 13.0631 24.2274 13.1446 24.3094C13.2154 24.3811 13.2862 24.4528 13.3592 24.5268C13.7196 24.8288 13.9777 24.9035 14.4469 24.8961C14.9573 24.815 15.2531 24.5489 15.5639 24.1392C15.6618 23.7965 15.6958 23.4922 15.6249 23.1444C15.2397 22.4546 14.6052 21.9001 14.0502 21.3499C13.963 21.2619 13.8757 21.1739 13.7858 21.0833C13.7016 20.9993 13.6174 20.9153 13.5306 20.8288C13.4546 20.753 13.3785 20.6772 13.3002 20.5991C12.8921 20.2391 12.5685 20.1701 12.036 20.1842C11.6856 20.2328 11.4898 20.3706 11.2304 20.6053ZM39.5395 24.4153C39.4473 24.5081 39.3553 24.6013 39.2636 24.6946C39.2133 24.7452 39.1631 24.7959 39.1114 24.8481C39.0018 24.9588 38.8922 25.0696 38.7828 25.1805C38.6083 25.357 38.4335 25.5332 38.2586 25.7093C37.7609 26.2102 37.2636 26.7115 36.7675 27.2139C36.4641 27.521 36.1599 27.8273 35.8553 28.1333C35.7403 28.249 35.6256 28.3651 35.5112 28.4814C34.4913 29.5179 33.4067 30.4708 32.1532 31.2193C32.0799 31.2633 32.0067 31.3074 31.9312 31.3527C29.9227 32.5323 27.7688 33.1067 25.4882 33.4959C26.7002 34.5028 28.0433 34.7494 29.5897 34.6678C29.769 34.6449 29.9481 34.6206 30.1269 34.5946C30.5095 34.5515 30.7568 34.6019 31.0866 34.825C31.3903 35.0775 31.6656 35.3545 31.9335 35.6444C32.234 35.5099 32.4439 35.3554 32.6788 35.1257C32.7475 35.059 32.8163 34.9922 32.8871 34.9234C32.9615 34.8501 33.0359 34.7769 33.1125 34.7014C33.1916 34.6242 33.2708 34.547 33.3523 34.4675C33.6139 34.2117 33.8747 33.955 34.1353 33.6981C34.2244 33.6103 34.3135 33.5225 34.4052 33.4321C34.7795 33.0629 35.1535 32.6935 35.5267 32.3233C36.0603 31.7939 36.5958 31.2666 37.134 30.742C37.5588 30.3276 37.9803 29.91 38.4007 29.4912C38.5796 29.314 38.7595 29.1378 38.9404 28.9626C39.1937 28.7169 39.443 28.4678 39.6917 28.2176C39.7669 28.1463 39.8421 28.075 39.9195 28.0016C40.3224 27.5875 40.4745 27.317 40.4806 26.7307C40.452 26.2541 40.3759 25.8006 40.2465 25.3416C40.2295 25.2757 40.2125 25.2097 40.195 25.1417C40.1081 24.8149 40.0106 24.5134 39.8437 24.2186C39.7103 24.2074 39.7103 24.2074 39.5395 24.4153ZM12.3961 26.9369C12.3153 27.0188 12.2345 27.1006 12.1512 27.1849C12.0637 27.273 11.9763 27.3611 11.8861 27.4519C11.7937 27.546 11.7012 27.6401 11.6088 27.7342C11.5156 27.8283 11.4224 27.9224 11.3292 28.0165C11.1005 28.2475 10.8723 28.4789 10.6444 28.7108C11.0336 29.1772 11.4398 29.6176 11.8706 30.0457C11.9317 30.1068 11.9927 30.1678 12.0556 30.2307C12.2551 30.4301 12.4549 30.6292 12.6548 30.8283C12.7941 30.9674 12.9334 31.1066 13.0726 31.2458C13.4375 31.6102 13.8026 31.9744 14.1679 32.3386C14.5412 32.7109 14.9142 33.0835 15.2873 33.4561C16.018 34.1858 16.7491 34.9152 17.4804 35.6444C17.5901 35.5508 17.6998 35.4571 17.8095 35.3634C17.8706 35.3112 17.9316 35.2591 17.9946 35.2053C18.1803 35.0442 18.3568 34.8768 18.5298 34.7021C18.5893 34.6423 18.6488 34.5825 18.71 34.5209C18.7695 34.4606 18.829 34.4003 18.8903 34.3382C18.9524 34.2756 19.0145 34.2131 19.0785 34.1486C19.2296 33.9964 19.3805 33.8439 19.5311 33.6912C19.4064 33.4181 19.2772 33.2175 19.0653 33.0052C19.0102 32.9496 18.9552 32.8941 18.8985 32.8368C18.8383 32.777 18.7781 32.7172 18.7161 32.6556C18.6208 32.5598 18.6208 32.5598 18.5236 32.4621C18.3137 32.2513 18.103 32.0412 17.8924 31.8312C17.7464 31.6851 17.6004 31.5389 17.4545 31.3928C17.1488 31.0868 16.8427 30.7811 16.5364 30.4757C16.1429 30.0834 15.7504 29.6902 15.3581 29.2967C15.057 28.9949 14.7555 28.6936 14.4538 28.3925C14.3088 28.2476 14.164 28.1026 14.0193 27.9574C13.8175 27.7552 13.6151 27.5535 13.4126 27.3521C13.3524 27.2915 13.2922 27.2309 13.2302 27.1685C12.8465 26.7245 12.8465 26.7245 12.3961 26.9369Z" fill="#EF4C43"/>
<path d="M47.6562 1.65998C47.9461 1.83513 48.1859 2.03586 48.3398 2.34358C48.3843 2.66159 48.4048 2.91259 48.242 3.19954C47.7961 3.78411 47.2909 4.29958 46.7704 4.81779C46.6758 4.91251 46.5813 5.00726 46.4867 5.10205C46.2899 5.29917 46.0927 5.49593 45.8953 5.69245C45.6426 5.94396 45.3909 6.19635 45.1394 6.449C44.9449 6.64422 44.7499 6.83897 44.5548 7.03359C44.4167 7.17149 44.279 7.30978 44.1413 7.44808C44.0152 7.57331 44.0152 7.57331 43.8865 7.70108C43.8128 7.77462 43.7391 7.84817 43.6631 7.92394C43.3543 8.19563 43.1464 8.29171 42.7368 8.33723C42.3178 8.29389 42.118 8.17762 41.7968 7.90998C41.679 7.55653 41.6676 7.30526 41.6992 6.93342C42.0359 6.3075 42.5728 5.83614 43.0721 5.33926C43.1689 5.2423 43.2657 5.14531 43.3625 5.0483C43.5646 4.84582 43.7672 4.6437 43.97 4.44183C44.2292 4.18375 44.4875 3.9248 44.7455 3.66558C44.945 3.46541 45.1449 3.26571 45.345 3.06615C45.4404 2.97087 45.5357 2.87544 45.6308 2.77987C45.7639 2.64621 45.8978 2.51325 46.0317 2.38032C46.1075 2.30467 46.1833 2.22901 46.2614 2.15107C46.7125 1.75016 47.0438 1.57403 47.6562 1.65998Z" fill="#EF4C43"/>
<path d="M3.02734 1.66018C3.71407 2.04971 4.26665 2.67579 4.81796 3.22955C4.91269 3.32414 5.00744 3.4187 5.10222 3.51324C5.29934 3.71007 5.49611 3.90725 5.69263 4.10469C5.94414 4.35732 6.19652 4.60905 6.44918 4.86054C6.6444 5.05505 6.83915 5.25003 7.03376 5.44515C7.17166 5.58324 7.30996 5.72094 7.44825 5.85864C7.57349 5.9848 7.57349 5.9848 7.70125 6.1135C7.7748 6.1872 7.84834 6.2609 7.92411 6.33683C8.19944 6.64982 8.29343 6.85278 8.3313 7.26931C8.29858 7.64227 8.2399 7.81538 8.00781 8.10549C7.67095 8.35814 7.34208 8.35527 6.93359 8.3008C6.25791 7.91106 5.71289 7.30383 5.16777 6.75623C5.07547 6.66406 4.98314 6.57193 4.89078 6.47981C4.69867 6.28799 4.50691 6.09582 4.3154 5.90339C4.07068 5.65755 3.8251 5.41261 3.57924 5.16792C3.3433 4.93286 3.10811 4.69705 2.87285 4.46131C2.78496 4.37382 2.69707 4.28632 2.60652 4.19618C2.48422 4.07296 2.48422 4.07296 2.35946 3.94726C2.28787 3.87551 2.21628 3.80376 2.14252 3.72984C1.84796 3.39671 1.67574 3.13454 1.61133 2.69167C1.67615 2.22983 1.82195 2.08432 2.14844 1.75784C2.46239 1.60086 2.67872 1.62082 3.02734 1.66018Z" fill="#EF4C43"/>
<path d="M38.3267 -0.0615234C38.6986 0.0307352 38.8287 0.185472 39.0626 0.488174C39.1335 0.811849 39.1287 1.12833 39.124 1.45863C39.1242 1.55216 39.1244 1.64568 39.1247 1.74204C39.1246 1.93937 39.1233 2.1367 39.1208 2.33401C39.1175 2.63562 39.1188 2.93695 39.1207 3.23857C39.1201 3.43058 39.1191 3.62259 39.1179 3.81459C39.1184 3.90453 39.1188 3.99446 39.1193 4.08713C39.1118 4.49996 39.0984 4.72706 38.8771 5.08488C38.5881 5.35036 38.3864 5.36322 38.0063 5.38319C37.6888 5.36502 37.5367 5.29631 37.3047 5.07802C37.0461 4.57731 36.969 4.16555 36.9763 3.60059C36.9762 3.52708 36.9762 3.45357 36.9762 3.37783C36.9764 3.22346 36.9773 3.06909 36.9789 2.91473C36.9813 2.67964 36.981 2.44466 36.9803 2.20956C36.9808 2.05881 36.9815 1.90807 36.9824 1.75732C36.9823 1.68773 36.9822 1.61813 36.9821 1.54643C36.9895 1.02431 37.0735 0.602056 37.3536 0.158585C37.6813 -0.0544696 37.9426 -0.051431 38.3267 -0.0615234Z" fill="#EF4C43"/>
<path d="M12.1699 -0.0474506C12.5329 0.0270467 12.6842 0.188965 12.8905 0.488514C13.0062 0.903335 13.0055 1.32049 13.008 1.74813C13.0086 1.82168 13.0091 1.89523 13.0097 1.97102C13.0106 2.12614 13.0113 2.28127 13.0117 2.43639C13.0126 2.67214 13.0156 2.90781 13.0187 3.14354C13.0193 3.29486 13.0199 3.44618 13.0202 3.59749C13.0214 3.6672 13.0226 3.7369 13.0239 3.80872C13.0217 4.31 12.9217 4.64089 12.6952 5.07836C12.4633 5.29665 12.3112 5.36536 11.9937 5.38353C11.6136 5.36356 11.4119 5.3507 11.1229 5.08522C10.8607 4.6614 10.8795 4.3043 10.8821 3.81493C10.8815 3.72141 10.8809 3.62788 10.8803 3.53152C10.8796 3.3342 10.8799 3.13687 10.8811 2.93955C10.8825 2.63793 10.8791 2.33659 10.8754 2.03499C10.8753 1.84299 10.8755 1.65098 10.876 1.45897C10.8741 1.32407 10.8741 1.32407 10.8721 1.18644C10.8785 0.741921 10.8903 0.549335 11.1701 0.187773C11.5238 -0.0717691 11.7444 -0.0696456 12.1699 -0.0474506Z" fill="#EF4C43"/>
<path d="M45.6349 10.9074C45.7193 10.9058 45.8037 10.9042 45.8907 10.9026C45.9816 10.9021 46.0726 10.9016 46.1663 10.901C46.2601 10.9002 46.3539 10.8993 46.4505 10.8984C46.649 10.897 46.8475 10.8961 47.046 10.8957C47.3493 10.8946 47.6525 10.8898 47.9558 10.8848C48.1487 10.8839 48.3416 10.8832 48.5345 10.8827C48.625 10.8808 48.7156 10.8789 48.8088 10.877C49.2556 10.8801 49.4491 10.8889 49.813 11.1696C50.0157 11.4469 50.0664 11.5745 50.0611 11.9138C50.0624 11.9944 50.0636 12.075 50.0649 12.158C49.9673 12.5254 49.8122 12.658 49.5118 12.8904C49.1881 12.9614 48.8716 12.9566 48.5413 12.9518C48.401 12.9522 48.401 12.9522 48.2579 12.9525C48.0606 12.9524 47.8633 12.9511 47.6659 12.9487C47.3643 12.9454 47.063 12.9467 46.7614 12.9486C46.5694 12.9479 46.3774 12.947 46.1854 12.9457C46.0954 12.9462 46.0055 12.9467 45.9128 12.9472C45.5 12.9396 45.2729 12.9263 44.9151 12.705C44.6497 12.416 44.6377 12.2141 44.6152 11.8345C44.6346 11.5328 44.7278 11.3613 44.9219 11.1326C45.2235 10.9316 45.2928 10.9122 45.6349 10.9074Z" fill="#EF4C43"/>
<path d="M1.45865 10.8762C1.59894 10.8758 1.59894 10.8758 1.74206 10.8755C1.93938 10.8756 2.13671 10.8769 2.33403 10.8793C2.63564 10.8827 2.93697 10.8813 3.23859 10.8794C3.43059 10.8801 3.6226 10.881 3.81461 10.8823C3.90454 10.8818 3.99448 10.8813 4.08714 10.8808C4.49998 10.8884 4.72708 10.9017 5.0849 11.123C5.35031 11.412 5.36226 11.6139 5.38474 11.9935C5.36534 12.2952 5.27212 12.4667 5.07803 12.6954C4.77647 12.8965 4.70718 12.9159 4.36511 12.9206C4.28069 12.9222 4.19626 12.9238 4.10927 12.9254C4.01833 12.9259 3.92738 12.9264 3.83368 12.927C3.69298 12.9283 3.69298 12.9283 3.54943 12.9296C3.35095 12.9311 3.15245 12.9319 2.95396 12.9323C2.65063 12.9334 2.34749 12.9382 2.0442 12.9432C1.85131 12.9441 1.65841 12.9448 1.46552 12.9453C1.37497 12.9472 1.28442 12.9491 1.19112 12.9511C0.74432 12.9479 0.550871 12.9391 0.187019 12.6584C-0.0156901 12.3811 -0.0664286 12.2535 -0.0611267 11.9142C-0.0623856 11.8336 -0.0636444 11.753 -0.0649414 11.67C0.146238 10.875 0.767161 10.8662 1.45865 10.8762Z" fill="#EF4C43"/>
<path d="M40.8203 35.0587C41.1273 35.3197 41.1985 35.5007 41.3025 35.8888C41.3109 36.3612 41.1638 36.5597 40.8508 36.8959C40.5192 37.0662 40.2041 37.0784 39.8438 37.0119C39.5693 36.8367 39.4034 36.7171 39.2578 36.4259C39.2167 36.1272 39.2104 35.8452 39.2578 35.547C39.7274 34.9538 40.1089 34.8765 40.8203 35.0587Z" fill="#EF4C43"/>
</g>
<defs>
<clipPath id="clip0_754_1289">
<rect width="50" height="50" fill="white"/>
</clipPath>
</defs>
</svg>
