<svg width="80" height="80" viewBox="0 0 80 80" fill="none" xmlns="http://www.w3.org/2000/svg">
<g clip-path="url(#clip0_763_5863)">
<path d="M5.87497 1.18736C3.06247 2.87486 2.43747 5.06236 2.62497 12.2499C2.81247 17.9374 2.93747 18.4374 4.06247 18.4374C5.18747 18.4374 5.31247 17.9374 5.62497 11.6874C5.87497 5.87486 6.12497 4.74986 7.12497 3.99986C8.12497 3.31236 12.5 3.12486 31.0625 3.12486H53.75V8.74986C53.75 16.1874 54.375 16.8749 60.9375 16.8749H65.625V34.0624C65.625 43.4999 65.4375 51.2499 65.1875 51.2499C64.9375 51.2499 62.4375 48.9999 59.625 46.1874L54.5625 41.1874L55.8125 37.6249C59.125 27.8124 54.0625 16.5624 44.3125 12.1874C40.8125 10.6249 39.9375 10.4999 35.0625 10.7499C28.5625 11.0624 24.75 12.8124 20.75 17.1249C16.6875 21.5624 15.4375 24.9374 15.4375 31.2499C15.4375 37.5624 16.6875 40.9374 20.75 45.3749C24.6875 49.6249 28.5625 51.3749 34.875 51.7499C38.8125 51.9374 40.6875 51.7499 42.875 50.9374L45.75 49.8124L55.6875 59.7499C64.3125 68.3124 65.625 69.9374 65.625 71.6249C65.625 72.6874 65.0625 74.3124 64.3125 75.2499L63.0625 76.8749H35.6875C13.0625 76.8749 8.12497 76.7499 7.12497 75.9999C5.99997 75.1249 5.93747 73.9374 5.62497 52.6874C5.31247 30.8124 5.31247 30.3124 4.06247 30.3124C2.81247 30.3124 2.81247 30.8124 2.62497 52.3749C2.43747 76.6249 2.56247 77.1249 6.24997 79.0624C8.93747 80.4374 62.25 80.4999 64.9375 79.0624C66.5625 78.2499 68.75 74.8749 68.75 73.1874C68.75 72.8124 69.4375 72.6874 70.5 72.8749C72.625 73.2499 76.0625 71.2499 76.875 68.9999C78.1875 65.6874 77.6875 64.4374 73.125 59.7499L68.75 55.1874V34.9374L68.6875 14.6874L62.375 7.31236L56.125 -0.000137329H31.9375C9.43747 -0.000137329 7.68747 0.0623627 5.87497 1.18736ZM63.125 13.2499C63.125 13.5624 61.75 13.7499 60 13.7499H56.875V9.81236L56.9375 5.93736L60 9.37486C61.6875 11.2499 63.125 12.9999 63.125 13.2499ZM43.4375 15.2499C52.25 19.3124 56.125 30.3124 51.875 39.0624L50.5 41.8749L47.5 38.7499C45.8125 36.9999 44.25 35.6249 43.9375 35.6249C43.6875 35.6249 43.0625 35.3749 42.625 35.0624C41.9375 34.6874 42.125 34.0624 43.375 32.1874C47.375 26.3749 43 18.1249 36 18.1249C28.3125 18.1249 23.8125 26.6874 28.1875 32.7499C29.25 34.1874 29.375 34.6249 28.6875 35.0624C28.1875 35.3749 27.625 35.6249 27.375 35.6249C27.1875 35.6249 25.75 36.9374 24.1875 38.4999L21.3125 41.3749L19.875 38.6249C17.75 34.6249 17.875 27.7499 20.125 23.3749C22.0625 19.7499 25.3125 16.6249 29 14.9374C32.8125 13.1874 39.4375 13.3749 43.4375 15.2499ZM40.0625 23.0624C42.5 25.5624 42.5625 28.6249 40.125 31.3124C37.25 34.4999 32.3125 33.8124 30.25 29.9374C27.125 23.8749 35.1875 18.1874 40.0625 23.0624ZM41.6875 38.1874C44.75 39.6874 47.8125 43.2499 47.25 44.6874C47.0625 45.2499 45.4375 46.3749 43.625 47.1874C38.9375 49.3749 32.75 49.3749 28.3125 47.1874C23.5625 44.8124 23.3125 44.2499 25.6875 41.5624C29.8125 36.8749 36.1875 35.4999 41.6875 38.1874ZM58.125 49.6874C58.125 50.0624 57.25 51.1874 56.25 52.1874L54.3125 53.9999L51.4375 51.0624L48.5 48.1249L50.625 45.9374L52.75 43.7499L55.4375 46.3749C56.9375 47.8124 58.125 49.3124 58.125 49.6874ZM74.375 66.3749C74.375 67.6249 72.25 69.9999 71.125 69.9999C70.75 69.9999 67.3125 66.9374 63.5 63.1249L56.5625 56.3124L58.75 54.0624L60.875 51.8749L67.625 58.5624C71.3125 62.2499 74.375 65.8124 74.375 66.3749Z" fill="white"/>
<path d="M2.68754 24.1251C2.18754 25.5001 3.81254 26.4376 4.93754 25.3751C5.37504 24.8751 5.56254 24.1876 5.37504 23.8126C4.75004 22.8126 3.12504 23.0001 2.68754 24.1251Z" fill="white"/>
<path d="M26.0625 57.875C25.8125 58.125 25.625 58.875 25.625 59.5C25.625 60.5625 26.375 60.625 36 60.625H46.3125L46.125 59.1875C45.9375 57.8125 45.75 57.8125 36.1875 57.625C30.875 57.5625 26.3125 57.6875 26.0625 57.875Z" fill="white"/>
<path d="M19 66.5626C18.3125 68.3751 19.6875 68.8126 25.0625 68.6251C29.8125 68.4376 30.3125 68.3126 30.3125 67.1876C30.3125 66.0626 29.8125 65.9376 24.8125 65.7501C20.25 65.6251 19.3125 65.7501 19 66.5626Z" fill="white"/>
<path d="M34.6249 66.5621C34.3749 67.1246 34.4999 67.8746 34.8749 68.2496C35.8124 69.1871 37.6249 68.3121 37.3749 67.0621C37.1249 65.6246 35.1249 65.2496 34.6249 66.5621Z" fill="white"/>
<path d="M41.875 66.5622C40.4375 68.2497 42 68.8122 47.5625 68.6247C52.3125 68.4372 52.8125 68.3122 52.8125 67.1872C52.8125 66.0622 52.3125 65.9372 47.75 65.7497C43.75 65.6247 42.5 65.8122 41.875 66.5622Z" fill="white"/>
</g>
<defs>
<clipPath id="clip0_763_5863">
<rect width="80" height="80" fill="white"/>
</clipPath>
</defs>
</svg>
