<svg width="80" height="80" viewBox="0 0 80 80" fill="none" xmlns="http://www.w3.org/2000/svg">
<path d="M36.9375 3.25C35.8125 4 33.25 4.875 31.3125 5.25C28.125 5.9375 27.8125 6.125 27.625 7.75C27.25 10.75 29.3125 18.4375 31.4375 21.9375C33.5625 25.4375 38.0625 29.375 40 29.375C41.9375 29.375 46.4375 25.4375 48.5625 21.9375C50.6875 18.4375 52.75 10.75 52.375 7.75C52.1875 6.125 51.875 5.9375 48.6875 5.25C46.6875 4.875 44.125 3.9375 42.8125 3.25C40.0625 1.625 39.6875 1.625 36.9375 3.25ZM43.4375 6.1875C45.125 6.875 47.375 7.625 48.3125 7.8125C50 8.125 50.0625 8.25 49.625 11.125C48.875 16.4375 46.875 20.75 43.75 23.875C42.125 25.5625 40.5 26.875 40.0625 26.875C38.75 26.875 34.25 22.25 32.8125 19.375C32 17.8125 31 14.75 30.5625 12.5625C29.75 8.3125 30.0625 7.5625 32.8125 7.5C33.5 7.5 35.1875 6.9375 36.5625 6.3125C39.75 4.75 39.6875 4.75 43.4375 6.1875Z" fill="white"/>
<path d="M41 14.3125C39.5 15.875 39.0625 16.0625 38.0625 15.4375C37.1875 14.875 36.75 14.875 36.125 15.5C35.5625 16.0625 35.6875 16.5625 36.875 17.8125C37.6875 18.6875 38.6875 19.375 39.125 19.375C40.25 19.375 44.5625 13.9375 44.0625 13.125C43.4375 12.125 42.875 12.375 41 14.3125Z" fill="white"/>
<path d="M11.8751 27.8125C11.8751 28.3125 13.3751 29.5 15.1876 30.375C16.9376 31.3125 18.5001 32.125 18.6251 32.1875C18.8751 32.375 10.1251 51.3125 9.62506 51.8125C9.50006 52 8.06256 51.5 6.56256 50.75C5.00006 50 3.18756 49.375 2.50006 49.375C0.187559 49.375 1.25006 51 4.68756 52.6875C8.31256 54.4375 10.3126 54.8125 10.9376 53.75C11.6876 52.5625 13.9376 54.875 15.1251 57.9375C16.0626 60.375 16.1251 61.25 15.5001 62.9375C14.8751 64.75 14.9376 65.1875 16.0626 66.6875C16.7501 67.6875 18.0001 68.5625 18.8126 68.625C19.6251 68.75 20.9376 69.5625 21.6876 70.375C22.4376 71.1875 23.6876 71.875 24.4376 71.875C25.1251 71.875 26.3126 72.625 27.0626 73.5C28.1251 74.875 28.6876 75.0625 30.6876 74.8125C32.3751 74.625 33.3126 74.8125 33.8751 75.4375C34.3751 76.0625 35.3751 76.25 37.1251 76.0625C38.9376 75.875 40.3126 76.1875 41.6876 77C44.6876 78.75 47.5001 78.3125 49.0626 75.8125C49.8126 74.625 50.8751 73.8125 51.5626 73.75C53.5626 73.75 55.5001 72.0625 55.9376 70C56.1876 68.9375 56.6876 68.125 57.1251 68.125C58.1876 68.125 59.7501 66.3125 60.3126 64.4375C60.5626 63.625 61.5626 62.25 62.5626 61.375C63.8751 60.3125 64.3751 59.3125 64.3751 57.875C64.3751 56.25 64.7501 55.75 66.4376 55C67.5001 54.5625 69.1251 54.25 70.0001 54.3125C71.9376 54.5 78.7501 51.3125 78.7501 50.1875C78.7501 49 76.6251 49.1875 73.4376 50.75C71.9376 51.5 70.5001 52 70.3751 51.8125C69.8751 51.3125 61.1251 32.375 61.3751 32.1875C61.5001 32.125 63.0626 31.3125 64.8751 30.375C68.0626 28.75 69.2501 26.875 67.0626 26.875C65.2501 26.9375 59.7501 30.1875 59.0626 31.6875C58.2501 33.5625 56.0001 33.875 46.8751 33.375C40.3751 33 38.6876 33.125 37.1251 33.9375C35.8751 34.5625 34.9376 34.6875 34.3126 34.3125C33.8126 34 30.6876 33.75 27.3751 33.75C21.8126 33.75 21.2501 33.625 21.2501 32.625C21.2501 31.1875 19.8751 29.9375 16.4376 28.1875C13.3126 26.625 11.8751 26.5 11.8751 27.8125ZM61.3126 38.5625C62.2501 40.5625 64.0001 44.375 65.1876 47L67.4376 51.875L65.6251 52.8125C63.0001 54.1875 62.1876 54 58.1251 51.5625C55.3751 49.875 53.8751 49.375 51.5626 49.375C47.0626 49.375 43.9376 48.1875 40.5626 45.125C37.6251 42.5 37.3751 42.375 35.5626 43.125C34.5001 43.5625 33.0001 44.875 32.1251 45.9375C30.3126 48.3125 28.6251 48.9375 27.0626 47.8125C26.0626 47.0625 26.1251 46.8125 28.0626 43.9375C29.5626 41.6875 31.3751 40.1875 34.8751 38.1875L39.5626 35.5L47.7501 35.9375C52.8751 36.1875 56.5001 36.125 57.5001 35.6875C58.3751 35.375 59.1876 35.0625 59.3751 35.0625C59.5626 35 60.4376 36.625 61.3126 38.5625ZM32.2501 36.4375C32.4376 36.5625 31.5626 37.3125 30.3751 38C29.1876 38.6875 27.1876 40.875 25.8751 42.75C23.1251 46.9375 23.2501 49 26.5626 50.375C29.2501 51.5 31.0001 50.875 33.6251 47.875C34.6876 46.625 35.8751 45.625 36.1876 45.625C36.5626 45.625 38.3126 46.6875 40.0626 48.0625C43.6876 50.8125 46.6876 51.875 51.0001 51.9375C55.1251 51.9375 61.5626 55.75 61.5626 58.125C61.5626 60.4375 59.3126 60.4375 55.5626 58.125C53.8751 57.0625 52.1876 56.375 51.8126 56.5625C50.6251 57.3125 51.3126 58.5625 53.7501 59.9375C57.4376 62 58.2501 63 57.5001 64.4375C56.5626 66.0625 55.3751 65.9375 51.5001 63.6875C48.3751 61.9375 46.8751 61.75 46.8751 63.125C46.8751 63.5 48.0626 64.5 49.5626 65.4375C53.1251 67.75 53.8751 68.625 53.0626 70.0625C52.2501 71.625 50.8126 71.5 47.8126 69.6875C43.5001 67 42.0626 68.25 45.7501 71.375C47.5001 72.75 47.6876 73.25 47.1251 74.1875C46.1876 75.75 44.3751 75.875 42.5626 74.5C41.1876 73.375 41.1251 73.25 42.1251 71.375C42.6876 70.3125 43.1251 69.0625 43.1251 68.5625C43.1251 67.0625 40.6251 64.375 39.2501 64.375C38.5626 64.375 37.3126 63.6875 36.5001 62.8125C35.6876 61.9375 34.4376 61.25 33.6876 61.25C33.0001 61.25 31.8126 60.5625 31.1251 59.6875C30.4376 58.8125 29.3126 58.125 28.6251 58.125C27.9376 58.125 26.6876 57.4375 25.8751 56.5625C24.0001 54.5 21.5001 54.5625 19.3126 56.625L17.6251 58.25L17.1876 56.3125C17.0001 55.3125 15.9376 53.625 14.9376 52.625L13.0001 50.75L15.3126 45.875C16.6251 43.125 18.1251 39.8125 18.7501 38.4375L19.9376 35.9375L25.9376 36C29.2501 36.0625 32.0626 36.25 32.2501 36.4375ZM24.2501 58.8125C24.5626 60.5 20.6876 66.25 19.3126 66.25C17.2501 66.25 17.3126 64.6875 19.4376 61C21.0001 58.1875 21.6876 57.5 22.7501 57.625C23.4376 57.75 24.1251 58.25 24.2501 58.8125ZM29.6251 61.625C30.1876 63 26.2501 69.375 24.8126 69.375C23.0001 69.375 22.8751 67.5625 24.3751 64.8125C25.1876 63.375 26.0626 61.8125 26.4376 61.375C27.2501 60.3125 29.1876 60.4375 29.6251 61.625ZM34.8751 65.3125C35.0626 67.125 31.5001 72.5 30.0626 72.5C29.3751 72.5 28.7501 72.125 28.5626 71.6875C28.2501 70.8125 30.2501 66.5 31.7501 64.8125C33.0001 63.4375 34.6251 63.6875 34.8751 65.3125ZM40.2501 67.875C40.8751 69.5 38.1251 73.8125 36.6251 73.625C34.8126 73.375 34.6876 71.625 36.2501 69.0625C37.6876 66.75 39.6251 66.1875 40.2501 67.875Z" fill="white"/>
</svg>
