<svg width="543" height="487" viewBox="0 0 543 487" fill="none" xmlns="http://www.w3.org/2000/svg">
<path d="M543 243.5C543.056 277.421 535.899 310.976 521.994 341.993C521.545 342.995 521.09 343.991 520.629 344.981C520.401 345.479 520.167 345.97 519.934 346.468C519.7 346.96 519.466 347.458 519.227 347.95C518.919 348.588 518.612 349.219 518.298 349.851C517.911 350.646 517.517 351.435 517.111 352.225C517.062 352.334 517.007 352.444 516.945 352.553C516.607 353.221 516.269 353.889 515.918 354.557C515.844 354.702 515.771 354.848 515.691 354.988C515.291 355.765 514.879 356.542 514.461 357.314V357.32C514.018 358.139 513.573 358.957 513.126 359.773C512.02 361.789 510.882 363.787 509.714 365.766C509.363 366.355 509.019 366.944 508.662 367.527C508.336 368.074 508.01 368.614 507.678 369.155C507.451 369.531 507.223 369.901 506.989 370.272C506.62 370.873 506.245 371.474 505.864 372.075C505.858 372.081 505.858 372.081 505.858 372.087C505.016 373.423 504.155 374.753 503.288 376.071H503.281C502.882 376.684 502.476 377.291 502.07 377.899V377.905C500.846 379.726 499.598 381.53 498.325 383.315V383.321C498.32 383.322 498.316 383.324 498.313 383.327V383.333L498.3 383.346C497.292 384.773 496.263 386.187 495.214 387.59V387.596C494.543 388.495 493.867 389.394 493.184 390.28C492.625 391.009 492.059 391.735 491.487 392.46C491.37 392.618 491.247 392.77 491.118 392.928V392.934C490.964 393.134 490.811 393.328 490.645 393.529V393.535C488.216 396.601 485.713 399.607 483.136 402.552H483.13C482.995 402.716 482.853 402.874 482.712 403.032C482.577 403.19 482.429 403.348 482.288 403.512H482.282C482.066 403.761 481.845 404.01 481.624 404.259C481.408 404.508 481.181 404.757 480.953 405.005V405.012C467.523 419.975 452.282 433.251 435.571 444.542C433.345 446.054 431.091 447.526 428.807 448.957C428.241 449.315 427.676 449.667 427.104 450.02C426.932 450.135 426.759 450.238 426.587 450.341C426.286 450.53 425.979 450.718 425.671 450.906C425.37 451.088 425.062 451.277 424.755 451.459C423.531 452.2 422.295 452.928 421.059 453.645C420.752 453.827 420.438 454.003 420.124 454.185C419.817 454.361 419.503 454.537 419.19 454.714C419.186 454.72 419.18 454.725 419.174 454.729C419.167 454.734 419.16 454.736 419.153 454.738L419.141 454.744L419.128 454.756H419.122C417.572 455.637 416.017 456.505 414.442 457.343C411.626 458.861 408.781 460.324 405.907 461.733C405.194 462.085 404.474 462.431 403.755 462.778C403.158 463.063 402.556 463.348 401.959 463.628C401.793 463.707 401.633 463.786 401.467 463.858C400.969 464.089 400.471 464.32 399.973 464.545C399.432 464.8 398.885 465.043 398.344 465.285C397.735 465.559 397.132 465.826 396.523 466.093C394.236 467.101 391.924 468.073 389.605 469.008C381.323 472.357 372.859 475.247 364.252 477.667C363.852 477.782 363.446 477.898 363.04 478.007C359.357 479.027 355.647 479.96 351.91 480.806C345.386 482.288 338.802 483.504 332.159 484.456C332.146 484.456 332.128 484.462 332.116 484.462C331.322 484.577 330.523 484.686 329.73 484.796C329.662 484.808 329.588 484.82 329.514 484.826C329.508 484.832 329.502 484.832 329.49 484.826C329.49 484.826 329.49 484.832 329.484 484.826C328.604 484.942 327.725 485.057 326.839 485.166C326.778 485.178 326.716 485.184 326.655 485.19C325.831 485.288 325.001 485.385 324.171 485.476C323.279 485.573 322.387 485.664 321.49 485.755C320.807 485.822 320.124 485.889 319.442 485.95C319.381 485.962 319.319 485.968 319.257 485.968C318.636 486.022 318.015 486.077 317.394 486.126C317.37 486.126 317.339 486.132 317.314 486.132C316.773 486.18 316.232 486.217 315.691 486.259C309.326 486.757 302.9 487.004 296.413 487C289.372 487 282.403 486.711 275.505 486.132C275.48 486.132 275.456 486.126 275.431 486.126C273.962 486.004 272.494 485.871 271.028 485.725C270.641 485.688 270.26 485.646 269.872 485.609C269.799 485.603 269.725 485.597 269.651 485.585C269.534 485.573 269.417 485.561 269.294 485.549C269.233 485.543 269.165 485.537 269.104 485.524C268.593 485.47 268.083 485.415 267.566 485.354C266.994 485.288 266.416 485.221 265.845 485.148C265.273 485.081 264.695 485.008 264.123 484.929C264 484.917 263.871 484.905 263.748 484.881C263.329 484.832 262.911 484.778 262.499 484.717C262.296 484.693 262.1 484.662 261.903 484.632C261.503 484.577 261.11 484.523 260.71 484.462C260.698 484.462 260.679 484.456 260.667 484.456C248.11 482.665 235.714 479.906 223.593 476.203H223.586C222.929 476.003 222.271 475.797 221.613 475.59C221.416 475.536 221.219 475.475 221.022 475.408C219.313 474.868 217.613 474.309 215.924 473.732C213.594 472.943 211.28 472.117 208.982 471.255C208.355 471.018 207.734 470.781 207.106 470.544C205.858 470.058 204.616 469.572 203.38 469.075C201.271 468.224 199.176 467.348 197.095 466.445H197.089V466.439C195.146 465.595 193.217 464.725 191.303 463.828C191.246 463.811 191.192 463.787 191.143 463.755C191.137 463.755 191.137 463.749 191.13 463.749C190.706 463.555 190.282 463.354 189.858 463.154L189.845 463.148C179.298 458.155 169.127 452.42 159.412 445.988C156.295 443.929 153.23 441.802 150.219 439.606C147.79 437.839 145.396 436.027 143.037 434.171C131.285 424.947 120.409 414.685 110.544 403.512H110.538V403.506C109.843 402.722 109.166 401.945 108.478 401.156V401.15C108.379 401.04 108.287 400.931 108.195 400.822C107.758 400.318 107.334 399.82 106.91 399.31V399.304C106.332 398.63 105.766 397.953 105.212 397.275C105.089 397.13 104.973 396.99 104.856 396.844H104.85V396.838C104.395 396.292 103.946 395.739 103.503 395.187C103.275 394.913 103.054 394.634 102.833 394.355H102.826V394.349C101.486 392.679 100.172 390.993 98.8848 389.29V389.284C98.5281 388.817 98.1776 388.349 97.8333 387.875H97.8271C96.1791 385.677 94.5741 383.453 93.0122 381.202V381.196C92.4219 380.352 91.8377 379.502 91.2597 378.646C90.6816 377.789 90.1097 376.931 89.544 376.071H89.5378C88.9537 375.184 88.3757 374.294 87.8038 373.399C87.773 373.35 87.7423 373.308 87.7177 373.266C87.1519 372.385 86.5944 371.498 86.0451 370.606C85.6023 369.895 85.1657 369.191 84.7414 368.48C84.4463 368.001 84.1572 367.527 83.8744 367.041C83.7698 366.877 83.6776 366.713 83.5854 366.556C82.9335 365.456 82.294 364.357 81.6545 363.252C80.9104 361.953 80.1725 360.641 79.453 359.33C79.1579 358.789 78.8627 358.243 78.5737 357.696C78.4691 357.52 78.3769 357.344 78.2847 357.162C77.9403 356.518 77.5959 355.874 77.2577 355.225C76.9195 354.581 76.5813 353.931 76.2492 353.281C75.9172 352.632 75.5851 351.982 75.2592 351.326C75.0132 350.834 74.7673 350.336 74.5274 349.845C74.5025 349.803 74.4799 349.761 74.4598 349.717C74.3491 349.486 74.2323 349.262 74.1277 349.031C74.1032 348.996 74.0845 348.957 74.0724 348.915C73.8203 348.405 73.5743 347.901 73.3345 347.391C73.0147 346.736 72.7072 346.074 72.3998 345.412C72.1784 344.95 71.9693 344.483 71.7541 344.015C71.4466 343.359 71.1453 342.697 70.8502 342.029C70.5365 341.343 70.2352 340.651 69.9339 339.959C69.854 339.783 69.7801 339.613 69.7063 339.437C69.5649 339.121 69.4296 338.805 69.2943 338.489C68.9315 337.651 68.5749 336.801 68.2244 335.957C67.8247 335.004 67.4352 334.048 67.056 333.091C66.6932 332.198 66.3406 331.304 65.9983 330.407L65.8692 330.079V330.073C60.5261 316.206 56.4833 301.884 53.7919 287.288V287.281C52.2573 278.948 51.1654 270.54 50.5206 262.093C50.4837 261.632 50.4529 261.17 50.4222 260.709C50.0163 254.995 49.8175 249.259 49.8257 243.5C49.8257 240.944 49.8667 238.399 49.9487 235.867C51.543 182.928 70.6536 131.962 104.358 90.763C105.84 88.9473 107.348 87.154 108.884 85.3829C154.106 33.1245 221.342 0 296.413 0C384.182 0 461.245 45.2813 504.936 113.48C507.211 117.014 509.388 120.612 511.466 124.276C532.205 160.67 543.068 201.739 543 243.5Z" fill="#F2F2F2"/>
<path d="M28.2578 270.272C7.23312 251.587 -5.49753 221.873 2.3261 195.031C19.982 219.904 45.9782 237.808 75.7153 245.576C87.1947 248.531 100.274 250.637 107.258 260.106C111.604 265.998 112.613 273.784 111.584 281.001C110.555 288.219 107.68 295.036 104.831 301.76L104.982 303.574C77.2168 298.239 49.2826 288.957 28.2578 270.272Z" fill="#E6E6E6"/>
<path d="M2.91349 195.116C8.25709 217.375 20.8367 238.093 38.4879 252.961C42.3041 256.176 46.4586 259.109 51.1188 261.005C55.6757 262.819 60.6413 263.394 65.4997 262.672C70.0434 262.089 74.6227 260.972 79.2309 261.49C84.0881 262.035 88.1461 264.723 90.981 268.593C94.4495 273.328 95.9883 279.011 97.2975 284.62C98.7511 290.849 100.161 297.34 104.325 302.431C104.83 303.047 103.831 303.784 103.327 303.169C96.0824 294.312 97.0734 282.054 91.8264 272.268C89.3781 267.701 85.5213 263.836 80.2093 262.876C75.5642 262.038 70.8411 263.185 66.2457 263.815C61.4204 264.477 56.752 264.317 52.1228 262.702C47.3873 261.05 43.1079 258.272 39.2253 255.168C30.4741 248.064 22.9083 239.646 16.8053 230.221C9.77948 219.503 4.66215 207.678 1.67468 195.256C1.49009 194.487 2.73011 194.352 2.91349 195.116Z" fill="white"/>
<path d="M32.4923 248.428C29.5213 251.019 25.7141 252.484 21.7507 252.559C17.7873 252.635 13.9258 251.317 10.8557 248.84C10.2362 248.337 10.9989 247.363 11.6192 247.867C14.4738 250.178 18.0709 251.405 21.7615 251.328C25.4521 251.25 28.9929 249.872 31.745 247.442C32.3437 246.915 33.0875 247.903 32.4923 248.428Z" fill="white"/>
<path d="M63.2351 263.268C63.8085 255.286 61.3141 247.384 56.2493 241.137C55.747 240.519 56.7455 239.781 57.2472 240.399C62.5054 246.909 65.0842 255.138 64.4691 263.443C64.4099 264.234 63.1763 264.055 63.2351 263.268Z" fill="white"/>
<path d="M11.4096 219.234C12.7707 218.468 13.9178 217.38 14.7479 216.067C15.578 214.755 16.065 213.26 16.1653 211.716C16.2143 210.924 17.448 211.104 17.3993 211.891C17.2805 213.596 16.7406 215.247 15.8267 216.699C14.9129 218.15 13.6529 219.359 12.1569 220.219C12.0227 220.312 11.8579 220.351 11.6958 220.328C11.5337 220.305 11.3866 220.222 11.2843 220.095C11.186 219.965 11.144 219.801 11.1675 219.639C11.191 219.478 11.278 219.332 11.4096 219.234Z" fill="white"/>
<path d="M90.1298 157.269C90.1135 157.764 90.0971 158.26 90.0891 158.761C89.9043 165.422 90.2677 172.086 91.1757 178.689C91.2377 179.2 91.3083 179.718 91.3851 180.226C93.7446 196.11 99.0698 211.423 107.09 225.387C110.287 230.941 113.907 236.246 117.918 241.258C123.459 248.178 130.025 255.246 132.844 263.332C133.147 264.173 133.398 265.031 133.594 265.902L107.211 303.251C107.107 303.306 107.013 303.368 106.909 303.424L105.925 304.962C105.7 304.718 105.471 304.46 105.246 304.216C105.115 304.075 104.99 303.925 104.858 303.784C104.773 303.688 104.687 303.59 104.605 303.508C104.576 303.476 104.548 303.443 104.528 303.417C104.445 303.335 104.377 303.25 104.302 303.173C103.023 301.734 101.751 300.284 100.487 298.822C100.478 298.816 100.478 298.816 100.476 298.802C90.8748 287.641 82.1333 275.59 75.522 262.612C75.3233 262.221 75.1156 261.825 74.9288 261.417C71.9816 255.551 69.5249 249.457 67.5832 243.195C66.5311 239.763 65.6557 236.281 64.9602 232.762C63.1809 223.665 62.8617 214.348 64.0144 205.153C66.3148 186.823 74.5261 169.424 89.0144 158.122C89.3851 157.833 89.7503 157.552 90.1298 157.269Z" fill="#E6E6E6"/>
<path d="M90.5505 157.684C81.2455 178.633 78.658 202.654 83.6863 225.02C84.7734 229.856 86.3024 234.667 88.8672 238.952C91.3997 243.109 95.0134 246.521 99.3329 248.833C103.317 251.069 107.654 252.9 111.017 256.053C114.563 259.376 116.165 263.934 116.069 268.71C115.951 274.552 113.715 280.005 111.34 285.262C108.703 291.099 105.871 297.121 106.092 303.661C106.119 304.453 104.872 304.448 104.845 303.657C104.46 292.278 112.726 283.08 114.503 272.146C115.332 267.045 114.61 261.666 110.953 257.742C107.756 254.31 103.285 252.418 99.2317 250.189C94.9757 247.849 91.3458 244.945 88.634 240.904C85.86 236.77 84.1373 232.007 82.9298 227.22C80.2735 216.345 79.3653 205.126 80.2385 193.972C81.1635 181.238 84.2878 168.753 89.4761 157.059C89.7975 156.335 90.8699 156.965 90.5505 157.684Z" fill="white"/>
<path d="M81.6634 217.835C77.7112 218.138 73.7786 217.044 70.568 214.748C67.3573 212.452 65.0777 209.104 64.1363 205.301C63.9485 204.531 65.1514 204.207 65.3395 204.978C66.2096 208.52 68.3333 211.639 71.3275 213.771C74.3216 215.903 77.989 216.908 81.6675 216.604C82.467 216.539 82.4584 217.771 81.6634 217.835Z" fill="white"/>
<path d="M97.162 247.962C102.486 241.93 105.313 234.138 105.077 226.139C105.053 225.346 106.3 225.351 106.324 226.143C106.553 234.467 103.595 242.57 98.0406 248.836C97.5108 249.432 96.635 248.556 97.162 247.962Z" fill="white"/>
<path d="M82.6298 181.992C84.1837 182.189 85.763 182.002 87.2258 181.448C88.6886 180.894 89.9891 179.99 91.0105 178.817C91.5325 178.213 92.4077 179.091 91.8891 179.69C90.7545 180.981 89.317 181.978 87.7022 182.594C86.0874 183.21 84.3445 183.425 82.6257 183.223C82.462 183.217 82.3067 183.15 82.1913 183.035C82.0759 182.921 82.0091 182.767 82.0044 182.605C82.0058 182.442 82.0722 182.286 82.1893 182.171C82.3064 182.057 82.4647 181.992 82.6298 181.992Z" fill="white"/>
<path d="M331.153 159.76C334.818 139.742 328.727 117.028 312.099 105.021C313.168 127.117 306.288 148.874 292.676 166.443C287.401 173.2 280.822 180.173 281.078 188.7C281.238 194.006 284.173 198.933 288.025 202.636C291.878 206.338 296.612 208.996 301.289 211.613L302.021 212.723C315.597 197.423 327.487 179.777 331.153 159.76Z" fill="#E6E6E6"/>
<path d="M311.799 105.328C318.846 120.66 320.821 137.795 317.445 154.299C316.781 157.865 315.553 161.305 313.805 164.493C312.001 167.544 309.402 170.063 306.279 171.787C303.4 173.452 300.259 174.826 297.84 177.153C296.619 178.363 295.671 179.813 295.058 181.41C294.445 183.007 294.181 184.713 294.283 186.418C294.424 190.671 296.105 194.621 297.885 198.427C299.861 202.653 301.982 207.012 301.883 211.776C301.872 212.353 302.779 212.338 302.791 211.762C302.962 203.472 296.855 196.851 295.456 188.906C294.803 185.198 295.278 181.274 297.903 178.383C300.198 175.854 303.435 174.434 306.366 172.773C309.438 171.135 312.057 168.78 313.994 165.912C315.901 162.822 317.261 159.435 318.016 155.894C319.846 147.95 320.4 139.771 319.657 131.658C318.861 122.393 316.466 113.33 312.576 104.863C312.335 104.339 311.56 104.807 311.799 105.328Z" fill="white"/>
<path d="M318.848 149.048C321.729 149.232 324.583 148.398 326.899 146.696C329.215 144.994 330.842 142.535 331.492 139.757C331.621 139.194 330.742 138.969 330.612 139.532C330.013 142.12 328.496 144.411 326.336 145.992C324.176 147.573 321.515 148.339 318.834 148.152C318.251 148.112 318.269 149.009 318.848 149.048Z" fill="white"/>
<path d="M307.852 171.132C303.916 166.789 301.783 161.141 301.878 155.314C301.888 154.737 300.98 154.752 300.97 155.329C300.883 161.393 303.115 167.266 307.22 171.776C307.612 172.206 308.241 171.56 307.852 171.132Z" fill="white"/>
<path d="M317.801 122.956C316.671 123.114 315.519 122.993 314.449 122.603C313.378 122.213 312.422 121.567 311.667 120.722C311.281 120.288 310.653 120.935 311.036 121.366C311.875 122.296 312.931 123.008 314.113 123.442C315.295 123.875 316.566 124.016 317.816 123.852C317.935 123.846 318.047 123.796 318.13 123.712C318.213 123.627 318.26 123.514 318.262 123.397C318.26 123.278 318.21 123.165 318.123 123.082C318.037 123 317.921 122.954 317.801 122.956Z" fill="white"/>
<path d="M244.492 121.951C244.725 122.229 244.958 122.507 245.19 122.792C248.304 126.545 251.105 130.542 253.564 134.743C253.76 135.065 253.953 135.394 254.138 135.721C259.954 145.905 263.804 157.066 265.494 168.638C266.162 173.243 266.474 177.892 266.428 182.544C266.363 188.969 265.776 195.93 267.805 201.827C268.01 202.444 268.253 203.049 268.533 203.636L300.593 213.52C300.677 213.506 300.759 213.5 300.844 213.486L302.106 213.939C302.125 213.699 302.14 213.45 302.159 213.21C302.171 213.071 302.176 212.93 302.188 212.791C302.193 212.697 302.198 212.604 302.209 212.52C302.211 212.489 302.212 212.457 302.212 212.434C302.223 212.35 302.223 212.271 302.232 212.194C302.319 210.802 302.396 209.407 302.463 208.008C302.465 208.001 302.465 208.001 302.461 207.992C302.947 197.337 302.537 186.549 300.481 176.166C300.419 175.853 300.36 175.534 300.283 175.217C299.331 170.542 297.993 165.951 296.282 161.491C295.338 159.052 294.269 156.661 293.08 154.329C289.996 148.308 285.971 142.803 281.155 138.017C271.552 128.477 258.966 122.077 245.52 121.95C245.176 121.947 244.838 121.946 244.492 121.951Z" fill="#E6E6E6"/>
<path d="M244.437 122.375C259.412 130.427 271.436 142.934 278.802 158.119C280.447 161.36 281.564 164.837 282.112 168.422C282.532 171.931 281.992 175.487 280.549 178.72C279.266 181.761 277.596 184.726 277.083 188.023C276.846 189.714 276.974 191.436 277.458 193.075C277.942 194.714 278.771 196.234 279.892 197.534C282.598 200.846 286.349 203.001 290.09 204.981C294.245 207.181 298.595 209.4 301.422 213.263C301.764 213.731 302.479 213.179 302.137 212.711C297.22 205.991 288.306 204.335 282.345 198.823C279.564 196.252 277.55 192.836 277.883 188.967C278.174 185.583 279.893 182.525 281.22 179.456C282.674 176.322 283.329 172.884 283.128 169.443C282.766 165.842 281.787 162.329 280.232 159.052C276.849 151.622 272.305 144.762 266.764 138.726C260.48 131.801 253.043 125.989 244.774 121.542C244.262 121.267 243.929 122.101 244.437 122.375Z" fill="white"/>
<path d="M276.722 153.092C279.134 151.525 280.904 149.163 281.715 146.427C282.527 143.691 282.327 140.76 281.152 138.156C280.912 137.63 280.073 137.973 280.313 138.5C281.412 140.922 281.598 143.653 280.837 146.199C280.076 148.746 278.419 150.939 276.164 152.385C275.674 152.699 276.235 153.404 276.722 153.092Z" fill="white"/>
<path d="M281.406 177.262C275.616 176.134 270.469 172.893 266.992 168.184C266.648 167.717 265.933 168.269 266.276 168.735C269.904 173.629 275.267 176.991 281.295 178.152C281.869 178.262 281.978 177.372 281.406 177.262Z" fill="white"/>
<path d="M259.977 132.881C259.171 133.679 258.178 134.267 257.085 134.592C255.993 134.917 254.835 134.97 253.717 134.744C253.144 134.627 253.037 135.517 253.606 135.634C254.842 135.877 256.12 135.818 257.328 135.462C258.536 135.105 259.637 134.462 260.535 133.588C260.627 133.513 260.686 133.406 260.7 133.289C260.715 133.172 260.684 133.054 260.614 132.959C260.539 132.866 260.431 132.805 260.311 132.791C260.192 132.776 260.072 132.808 259.977 132.881Z" fill="white"/>
<path d="M80.7247 229.544C85.1631 229.544 89.4198 231.285 92.5583 234.385C95.6967 237.484 97.4599 241.687 97.4599 246.07C97.4592 249.904 96.1092 253.618 93.6409 256.577C91.1726 259.535 87.7395 261.555 83.9293 262.29V289.318H73.2473V229.544H80.7247Z" fill="#2B376C"/>
<path d="M490.646 387.873V393.532C488.217 396.599 485.714 399.605 483.138 402.55C482.861 402.872 482.578 403.187 482.289 403.509C481.853 404.013 481.404 404.511 480.955 405.009V387.873H490.646Z" fill="#CACACA"/>
<path d="M462.212 376.068C460.07 376.071 458.016 376.912 456.501 378.408C454.986 379.904 454.134 381.932 454.132 384.047V395.53C454.134 397.646 454.986 399.674 456.501 401.169C458.016 402.665 460.07 403.507 462.212 403.509H482.289C482.578 403.187 482.861 402.872 483.138 402.55C485.714 399.605 488.217 396.599 490.646 393.532C490.806 393.332 490.966 393.132 491.12 392.931C492.509 391.176 493.875 389.391 495.215 387.594C496.26 386.185 497.3 384.764 498.314 383.331C498.321 383.325 498.327 383.325 498.327 383.319C500.024 380.938 501.678 378.522 503.289 376.068H462.212Z" fill="#2B376C"/>
<path d="M513.909 277.782C512.675 277.361 511.378 277.148 510.072 277.15H506.77C505.567 277.151 504.371 277.329 503.221 277.679C500.797 278.431 498.678 279.927 497.173 281.949C495.668 283.972 494.855 286.415 494.852 288.925V384.715C494.852 385.074 494.871 385.426 494.901 385.772C494.955 386.387 495.06 386.996 495.215 387.594C496.261 386.185 497.3 384.764 498.314 383.331C498.321 383.325 498.327 383.325 498.327 383.319C500.024 380.938 501.678 378.522 503.289 376.069C504.156 374.751 505.017 373.421 505.86 372.085C511.947 362.44 517.339 352.384 521.995 341.991V288.925C521.993 286.467 521.212 284.071 519.762 282.073C518.312 280.075 516.265 278.574 513.909 277.782Z" fill="#2B376C"/>
<path d="M106.911 387.873V399.307C104.144 396.04 101.469 392.701 98.8863 389.288C98.5296 388.82 98.1791 388.347 97.8286 387.873H106.911Z" fill="#CACACA"/>
<path d="M125.654 376.068H89.5393C90.6769 377.799 91.835 379.509 93.0137 381.199C94.5756 383.452 96.1805 385.677 97.8286 387.873C98.1791 388.347 98.5296 388.82 98.8862 389.288C101.475 392.7 104.15 396.04 106.911 399.307C107.428 399.927 107.95 400.54 108.479 401.153C109.156 401.943 109.842 402.728 110.539 403.509H125.654C127.796 403.506 129.849 402.665 131.362 401.169C132.876 399.673 133.727 397.645 133.728 395.53V384.047C133.727 381.933 132.876 379.905 131.363 378.409C129.849 376.913 127.796 376.071 125.654 376.068Z" fill="#2B376C"/>
<path d="M86.5999 278.48C84.8974 277.608 83.008 277.152 81.0901 277.15H77.7941C76.2345 277.148 74.6899 277.452 73.2498 278.043C71.068 278.933 69.2024 280.442 67.889 282.379C66.5755 284.316 65.8731 286.594 65.8706 288.925V330.077C72.0796 346.196 80.0141 361.614 89.5393 376.068C90.6769 377.799 91.835 379.509 93.0136 381.2V288.925C93.012 286.771 92.4134 284.66 91.2828 282.819C90.1522 280.977 88.5327 279.477 86.5999 278.48Z" fill="#2B376C"/>
<path d="M220.94 456.328L231.773 453.874L227.342 411.445L211.354 415.068L220.94 456.328Z" fill="#FFB6B6"/>
<path d="M230.795 419.516C230.573 418.768 230.423 418.002 230.346 417.227C230.256 416.311 230.075 415.405 229.805 414.525C229.497 413.723 229.116 412.951 228.667 412.217C228.452 411.828 228.225 411.44 228.022 411.045C227.817 410.651 227.641 410.243 227.493 409.825C221.153 391.334 212.304 366.207 206.167 351.5C202.557 342.847 180.358 339.969 159.414 339.234C156.862 339.143 154.328 339.082 151.85 339.052C150.996 339.04 150.147 339.027 149.304 339.021C147.152 339.009 145.055 339.009 143.038 339.033C142.774 339.033 142.509 339.033 142.245 339.04C140.775 339.052 139.351 339.072 137.971 339.1C128.489 339.282 121.522 339.707 120.28 339.786L109.217 332.919L107.059 331.577L106.831 332.919L105.091 343.157L102.121 360.627L109.568 362.691L114.401 364.027L143.038 371.958L149.126 373.646L149.163 373.658L159.414 373.64L187.442 373.591L188.795 377.131C188.309 377.876 187.99 378.715 187.858 379.591C187.726 380.468 187.784 381.362 188.029 382.214C188.274 383.067 188.7 383.858 189.278 384.535C189.857 385.212 190.575 385.76 191.384 386.143L192.436 386.634L205.245 420.105C205.284 423.133 206.241 426.079 207.993 428.564C208.209 428.873 208.442 429.177 208.688 429.475L208.971 429.809L213.897 439.324L216.83 438.656L229.313 435.832L229.375 435.711C229.381 435.693 229.541 435.359 229.774 434.776V434.757C230.752 432.347 232.917 425.758 230.795 419.516Z" fill="#1F2850"/>
<path d="M261.228 459.15C260.761 457.11 259.891 455.182 258.667 453.476C257.443 451.769 255.889 450.319 254.095 449.209C252.301 448.098 250.302 447.348 248.213 447.004C246.125 446.659 243.988 446.726 241.925 447.2L233.273 443.344L230.85 445.026L220.802 451.985L219.972 452.173L217.279 452.78L220.999 468.793L261.351 459.654L261.228 459.15Z" fill="#1F2850"/>
<path d="M207.704 434.46L204.046 463.753L203.923 464.712L203.381 469.078C201.272 468.228 199.169 467.348 197.091 466.443C195.148 465.599 193.219 464.728 191.304 463.832V434.466L207.704 434.46Z" fill="#FFB6B6"/>
<path d="M128.308 233.082C140.559 233.082 150.49 223.275 150.49 211.177C150.49 199.08 140.559 189.272 128.308 189.272C116.057 189.272 106.125 199.08 106.125 211.177C106.125 223.275 116.057 233.082 128.308 233.082Z" fill="#FFB6B6"/>
<path d="M210.06 445.639C209.445 444.807 208.805 443.939 208.768 443.107C208.627 440.174 208.479 437.271 208.326 434.43C208.215 432.444 208.104 430.482 207.993 428.564C207.981 428.321 207.963 428.078 207.95 427.841C207.76 424.665 208.713 421.313 209.629 418.065C209.93 417.002 210.232 415.927 210.502 414.852C211.179 412.457 211.463 409.971 211.345 407.487C209.771 387.818 202.736 369.322 199.581 366.207C194.785 361.471 173.096 350.528 159.414 343.873C156.985 342.689 154.808 341.644 153.025 340.794C151.444 340.035 150.172 339.434 149.304 339.021C148.64 338.712 148.21 338.511 148.062 338.438L147.989 338.402L143.038 338.948L142.245 339.039L137.879 339.525L109.475 342.671L105.091 343.156L98.8864 343.849L93.2843 344.468L93.0753 344.486L93.0384 344.693C93.0384 344.699 93.0261 344.741 93.0138 344.82C92.0504 350.823 92.0504 356.938 93.0138 362.94C93.7394 367.015 95.1107 371.156 97.5458 374.641C97.8779 375.115 98.2222 375.571 98.5912 376.008C98.6037 376.031 98.6203 376.051 98.6404 376.068C98.7203 376.166 98.8003 376.263 98.8864 376.36V376.366C101.672 379.565 105.411 381.812 109.568 382.784C110.183 382.948 110.81 383.082 111.456 383.191C118.337 384.394 126.109 385.499 133.728 386.47C136.883 386.871 140.013 387.248 143.038 387.6C149.095 388.304 154.753 388.899 159.414 389.373C165.945 390.029 170.532 390.436 171.553 390.521L182.96 443.07C182.064 444.565 181.707 446.315 181.946 448.036C182.185 449.757 183.006 451.347 184.276 452.549L185.21 453.442L186.293 458.446L189.859 463.158L190.308 463.753H206.044L206.13 463.65C206.186 463.577 211.72 456.557 211.345 448.195C211.308 447.333 210.699 446.513 210.06 445.639Z" fill="#1F2850"/>
<path d="M209.63 269.52C208.438 269.199 207.19 269.139 205.972 269.345C204.755 269.552 203.598 270.019 202.583 270.715C201.568 271.41 200.72 272.317 200.098 273.372C199.477 274.426 199.097 275.602 198.986 276.817L180.555 282.505L181.324 294.409L207.237 286.015C209.317 286.064 211.342 285.359 212.93 284.032C214.518 282.706 215.558 280.85 215.853 278.817C216.148 276.784 215.677 274.714 214.53 273.001C213.383 271.288 211.64 270.049 209.63 269.52Z" fill="#FFB6B6"/>
<path d="M197.604 289.218L183.829 294.367L183.477 295.042C183.059 295.843 182.485 296.554 181.788 297.137C181.092 297.719 180.286 298.159 179.416 298.434C178.547 298.708 177.632 298.811 176.722 298.736C175.813 298.661 174.927 298.41 174.116 297.997L143.154 309.569C143.154 309.569 129.327 295.906 119.482 283.712L122.838 263.333C123.615 258.605 125.266 254.059 127.71 249.921C147.899 254.293 159.488 282.162 159.488 282.162L195.873 275.306L197.604 289.218Z" fill="#EF4C43"/>
<path d="M125.156 231.911C119.602 233.392 113.48 231.423 109.146 227.688C104.812 223.953 102.101 218.66 100.539 213.194C99.3952 209.19 98.8528 204.745 100.658 200.986C102.463 197.228 107.322 194.692 111.071 196.59C108.758 193.93 109.914 189.53 112.614 187.254C115.315 184.978 119.024 184.325 122.556 183.969C127.682 183.451 132.977 183.393 137.854 185.033C142.732 186.673 147.164 190.258 148.691 195.118C150.25 195.835 152.006 196.021 153.684 195.647C155.361 195.273 156.866 194.36 157.962 193.051C158.244 194.554 158.017 196.107 157.316 197.47C156.615 198.833 155.478 199.93 154.082 200.591L161.555 198.198C162.841 200.885 160.589 204.21 157.709 205.07C154.828 205.931 151.72 204.99 148.986 203.747C146.253 202.504 143.605 200.933 140.636 200.448C137.668 199.963 134.18 200.905 132.807 203.549C132.088 204.934 132.051 206.556 131.633 208.056C131.215 209.557 130.158 211.113 128.587 211.236C127.594 211.313 126.622 210.791 125.632 210.898C125.025 211.016 124.465 211.306 124.023 211.734C123.58 212.161 123.273 212.706 123.139 213.303C122.893 214.501 122.89 215.736 123.13 216.935L125.029 231.264L125.156 231.911Z" fill="#1F2850"/>
<path d="M153.025 340.794L151.85 339.052L143.278 326.354L143.106 326.105L145.756 312.528L146.58 308.289L148.382 299.065L147.859 277.952L147.484 263.014L147.429 260.67L145.529 254.95C144.628 252.275 143.181 249.811 141.277 247.711C139.373 245.61 137.053 243.918 134.46 242.739L121.67 236.958C120.164 236.281 118.448 236.223 116.9 236.795C115.351 237.368 114.095 238.524 113.41 240.011C113.353 240.135 113.3 240.261 113.251 240.389C111.499 240.625 103.892 241.888 97.4413 246.831C92.9223 250.227 89.7676 255.093 88.5371 260.567C88.5248 260.609 88.5187 260.652 88.5064 260.694C87.6516 264.465 87.0121 270.416 86.6001 278.48C86.3233 283.812 86.1491 290.058 86.0774 297.219C85.9626 309.156 86.6426 321.088 88.1128 332.937C88.2542 334.066 88.4018 335.19 88.5555 336.319C88.6847 337.266 89.6071 338.171 90.4987 339.039C91.3166 339.835 92.159 340.661 92.2759 341.408C92.3804 342.063 91.9561 342.75 91.4519 343.466C91.3904 343.557 91.3227 343.648 91.2612 343.739C90.634 344.62 89.9883 345.537 90.1544 346.502C90.5418 348.676 90.7693 350.887 90.9845 353.024C91.2249 355.967 91.6562 358.892 92.2759 361.78C92.4911 362.667 92.7371 363.56 93.0138 364.452C93.6595 366.547 94.4404 368.636 95.2029 370.676C95.8609 372.449 96.5435 374.271 97.1215 376.068C97.2322 376.402 97.3367 376.73 97.4351 377.058L97.4843 377.228L97.6627 377.259H97.675C97.9172 376.832 98.2059 376.433 98.5359 376.068C98.5508 376.045 98.5695 376.025 98.5912 376.008C98.6773 375.905 98.7757 375.795 98.8864 375.68C100.233 374.229 103.16 371.624 109.568 367.233C111.001 366.256 112.605 365.193 114.401 364.027C120.987 359.77 130.186 354.226 143.038 347.067C146.261 345.27 149.719 343.369 153.412 341.365L153.025 340.794Z" fill="#EF4C43"/>
<path d="M222.001 474.373C220.508 472.892 218.732 471.718 216.776 470.919C214.82 470.119 212.723 469.71 210.607 469.716L203.922 464.712L203.043 464.05L197.091 466.443C199.169 467.348 201.272 468.228 203.381 469.078C209.98 471.738 216.717 474.114 223.594 476.207C223.111 475.557 222.578 474.944 222.001 474.373Z" fill="#1F2850"/>
<path d="M370.465 455.914L362.093 451.961L373.593 417.406L385.949 423.242L370.465 455.914Z" fill="#FFB6B6"/>
<path d="M426.589 450.345C424.154 451.845 421.688 453.303 419.191 454.717V454.736L419.154 454.742L419.142 454.748L418.195 454.979L416.836 451.432L413.7 443.253L405.152 420.968L418.441 417.731L419.191 420.737L424.812 443.247L426.423 449.683L426.589 450.345Z" fill="#FFB6B6"/>
<path d="M392.697 305.726C393.891 307.641 395.796 309.019 398.005 309.566C400.214 310.114 402.552 309.787 404.52 308.655C404.916 308.419 405.291 308.15 405.642 307.852L432.109 322.851L430.959 307.454L406.002 295.572C404.644 294.225 402.872 293.361 400.963 293.115C399.054 292.87 397.117 293.257 395.455 294.215C393.552 295.343 392.181 297.172 391.644 299.298C391.106 301.424 391.446 303.674 392.589 305.553C392.624 305.611 392.66 305.669 392.697 305.726Z" fill="#FFB6B6"/>
<path d="M420.73 317.203L425.408 320.018L446.42 332.671C447.799 333.523 449.335 334.099 450.939 334.365C452.544 334.631 454.186 334.582 455.771 334.222C457.357 333.861 458.855 333.196 460.18 332.264C461.505 331.331 462.631 330.151 463.494 328.789L463.501 328.778C465.056 326.247 465.607 323.236 465.046 320.328L455.707 274.255C455.362 272.446 454.626 270.733 453.548 269.231C452.471 267.729 451.078 266.475 449.464 265.554C447.85 264.633 446.054 264.066 444.199 263.894C442.343 263.721 440.472 263.946 438.713 264.554C435.755 265.58 433.305 267.68 431.86 270.427C430.415 273.174 430.085 276.361 430.935 279.34L440.701 312.037L425.732 305.146L420.73 317.203Z" fill="#F4B210"/>
<path d="M506.886 362.631C506.88 362.612 506.868 362.546 506.849 362.442L506.831 362.376C506.788 362.157 506.739 361.914 506.683 361.647C505.429 355.494 503.817 349.418 501.856 343.448C500.695 339.792 499.155 336.264 497.263 332.919C497.201 332.809 497.134 332.7 497.066 332.591L496.838 332.227L494.926 332.919L494.852 332.943L465.778 343.466L457.372 346.509L457.108 346.606L455.675 352.375L435.573 349.806L419.191 347.711L414.487 347.11C412.448 346.847 410.376 346.988 408.392 347.524C406.408 348.06 404.552 348.98 402.932 350.231C401.242 351.525 399.829 353.139 398.776 354.978C397.724 356.817 397.052 358.845 396.801 360.943C396.74 361.404 396.703 361.872 396.685 362.333L395.264 414.658V414.725L395.922 416.025L409.666 443.253H419.191L424.812 443.247H429.381L419.88 419.51L420.095 419.188C420.989 417.835 421.552 416.295 421.741 414.691C421.93 413.086 421.739 411.46 421.183 409.94L422.253 406.88C424.473 400.558 423.422 397.522 422.094 393.684C420.901 390.564 420.2 387.281 420.015 383.951L419.794 379.621C425.371 380.587 430.567 381.661 435.573 382.742C437.245 383.1 438.902 383.463 440.541 383.829C445.209 384.855 449.716 385.845 454.131 386.671C463.073 388.353 471.639 389.379 480.438 388.742C480.61 388.729 480.783 388.717 480.955 388.699C483.095 388.529 485.247 388.256 487.424 387.873C488.648 387.655 489.877 387.406 491.12 387.114C491.464 387.029 491.814 386.944 492.159 386.859C493.115 386.61 494.036 386.245 494.901 385.772C496.132 385.094 497.278 384.274 498.314 383.331C498.32 383.325 498.327 383.325 498.327 383.319C500.024 380.939 501.678 378.522 503.289 376.069C504.156 374.751 505.017 373.421 505.859 372.085C507.089 368.752 507.557 365.387 506.886 362.631Z" fill="#1F2850"/>
<path d="M507.089 352.799C506.997 352.411 506.88 352.016 506.757 351.634C505.781 348.736 504.644 345.894 503.351 343.12C501.899 339.963 500.159 336.58 498.087 332.919C497.084 331.146 496.006 329.302 494.852 327.387C494.274 326.427 493.674 325.45 493.05 324.454C493.026 324.408 492.999 324.363 492.971 324.32L492.792 324.029L464.026 327.83L453.314 329.245L452.674 334.516L452.52 335.821C452.514 335.821 452.514 335.821 452.52 335.827L452.09 339.386V339.392L451.518 344.092L451.469 344.086L435.573 342.051L419.191 339.957L410.392 338.833C408.352 338.571 406.28 338.711 404.297 339.247C402.313 339.783 400.457 340.703 398.837 341.954C397.146 343.249 395.734 344.862 394.681 346.701C393.628 348.54 392.957 350.568 392.706 352.666C392.651 353.091 392.614 353.528 392.595 353.959L384.294 373.385C379.326 385.002 376.163 397.293 374.91 409.843L368.822 429.062L369.689 429.141L382.591 430.325L385.997 430.641L393.499 419.826C394.354 418.593 395.166 417.324 395.922 416.024C397.168 413.902 398.275 411.704 399.237 409.442L415.465 371.308C416.719 371.521 417.961 371.723 419.191 371.915C424.879 372.826 430.34 373.569 435.573 374.144C452.588 376.02 467.322 376.166 480.438 374.575C484.122 374.132 487.682 373.549 491.12 372.826C492.38 372.565 493.624 372.283 494.852 371.982C495.141 371.915 495.424 371.848 495.707 371.775C498.248 371.128 500.585 369.862 502.502 368.092C504.42 366.323 505.858 364.107 506.684 361.647C507.67 358.796 507.81 355.727 507.089 352.799Z" fill="#1F2850"/>
<path d="M445.919 238.112C456.908 238.112 465.817 229.119 465.817 218.025C465.817 206.931 456.908 197.938 445.919 197.938C434.929 197.938 426.021 206.931 426.021 218.025C426.021 229.119 434.929 238.112 445.919 238.112Z" fill="#FFB6B6"/>
<path d="M493.167 325.128C493.136 324.903 493.1 324.679 493.05 324.454C492.577 321.989 491.347 319.572 490.16 317.228C489.029 314.993 487.953 312.88 487.51 310.779C487.073 308.708 487.332 306.632 487.584 304.628C487.854 302.454 488.137 300.207 487.504 298.027C484.291 286.894 479.88 276.133 474.344 265.929C472.948 261.442 470.27 257.448 466.633 254.426C462.995 251.404 458.552 249.482 453.836 248.89C454.387 247.875 454.616 246.72 454.494 245.575C454.417 244.834 454.192 244.117 453.832 243.463C453.472 242.81 452.985 242.233 452.397 241.767C451.833 241.318 451.185 240.984 450.489 240.784C449.794 240.584 449.065 240.522 448.345 240.601L439.096 241.628C437.614 241.811 436.264 242.566 435.342 243.727C434.42 244.888 433.999 246.362 434.171 247.827C434.223 248.279 434.326 248.723 434.478 249.151C425.894 259.948 421.485 269.785 421.079 279.088V279.094C421.03 280.168 421.036 281.244 421.097 282.318C421.292 285.791 422.056 289.21 423.36 292.441C424.9 296.173 426.962 299.675 429.485 302.843C430.002 303.486 430.537 304.118 431.09 304.737C431.607 305.344 432.185 305.982 432.824 306.65L434.441 309.152L435.948 311.49L444.004 329.846L448.105 329.713L448.677 333.751L448.812 334.692L451.469 344.086L451.666 344.79L455.3 343.084L476.982 332.919L493.192 325.316L493.167 325.128Z" fill="#F4B210"/>
<path opacity="0.2" d="M423.604 292.343C425.453 296.815 428.052 300.947 431.292 304.565C431.847 305.22 432.433 305.863 433.046 306.506L436.194 311.384C447.797 302.795 457.198 268.979 457.198 268.979L444.106 266.464L423.604 292.343Z" fill="black"/>
<path d="M415.678 239.988C416.824 241.933 417.157 244.243 416.606 246.426C416.054 248.609 414.661 250.493 412.724 251.678C412.327 251.913 411.91 252.114 411.479 252.281L412.405 282.402L399.196 274.191L400.341 246.847C399.779 245.027 399.843 243.075 400.523 241.295C401.202 239.515 402.46 238.007 404.099 237.007C405.993 235.875 408.265 235.533 410.415 236.055C412.565 236.578 414.416 237.922 415.562 239.793C415.602 239.858 415.64 239.923 415.678 239.988Z" fill="#FFB6B6"/>
<path d="M413.566 271.032L399.04 273.072L399.665 302.776C399.701 304.895 400.285 306.97 401.362 308.803C402.439 310.637 403.973 312.168 405.818 313.251C408.072 314.56 410.696 315.111 413.294 314.819C415.892 314.528 418.324 313.411 420.223 311.635L454.518 279.062C456.931 276.802 458.375 273.714 458.553 270.434C458.731 267.155 457.63 263.933 455.476 261.43C453.366 258.963 450.349 257.425 447.09 257.154C443.831 256.883 440.596 257.902 438.098 259.987C438 260.068 437.904 260.151 437.808 260.236C437.47 260.535 437.147 260.852 436.843 261.185L414.198 286.91L413.566 271.032Z" fill="#F4B210"/>
<path d="M426.958 449.586L426.423 449.683L419.191 451.001L416.836 451.432L413.128 452.106L414.444 457.346C416.024 456.502 417.586 455.634 419.142 454.747L419.154 454.741L419.191 454.735V454.717C421.688 453.308 424.154 451.851 426.589 450.345C426.761 450.242 426.933 450.139 427.105 450.023L426.958 449.586Z" fill="#1F2850"/>
<path d="M373.139 450.273L364.081 445.986L362.661 445.312L360.392 450.813L344.551 454.256C343.768 454.426 343.06 454.838 342.531 455.433C342.002 456.028 341.68 456.775 341.611 457.564C341.542 458.352 341.731 459.142 342.149 459.818C342.568 460.493 343.194 461.019 343.936 461.318L359.414 467.554L364.327 463.188L363.122 469.048L368.951 471.398L375.341 451.317L373.139 450.273Z" fill="#1F2850"/>
<path d="M499.164 209.314C495.782 205.419 494.174 200.251 491.47 195.828C488.766 191.405 484.061 187.447 479.09 188.476C475.664 189.186 473.015 192.172 471.675 195.5C470.334 198.829 470.083 202.5 469.848 206.097C469.931 198.706 465 191.541 458.208 189.183C451.416 186.825 443.287 189.455 439.019 195.393C437.156 193.688 434.725 192.717 432.186 192.665C429.647 192.612 427.177 193.481 425.243 195.107C421.426 198.477 420.581 204.89 423.388 209.187C426.196 213.485 432.277 215.086 436.738 212.702L438.316 214.135C437.428 217.202 439.15 220.824 442.044 221.979C444.391 222.915 447.705 222.759 448.583 225.191C449.197 226.891 448.05 228.705 446.829 230.011C445.609 231.317 444.16 232.665 444.014 234.473C443.793 237.199 446.646 239.109 449.24 239.685C455.495 241.072 462.435 238.212 466.04 232.761C466.109 232.656 466.185 232.551 466.266 232.445C468.289 229.891 469.763 226.956 470.598 223.821C471.434 220.685 471.613 217.414 471.125 214.208C470.922 212.948 471.126 212.011 472.006 211.713C475.808 210.423 486.459 213.13 489.683 215.576C492.907 218.022 495.488 221.259 498.593 223.863C501.699 226.467 505.656 228.476 509.598 227.767C512.756 227.199 515.442 224.935 517.249 222.205C519.056 219.474 520.096 216.291 521.027 213.128C514.045 217.111 504.488 215.444 499.164 209.314Z" fill="#1F2850"/>
<path d="M435.57 329.048V444.544C433.344 446.056 431.09 447.527 428.806 448.958V336.705C428.806 333.451 427.699 330.809 426.34 330.803H323.961C322.595 330.809 321.495 333.451 321.489 336.705V485.756C320.123 485.89 318.758 486.018 317.393 486.127C316.827 486.175 316.256 486.218 315.69 486.26C315.364 485.665 315.044 485.064 314.724 484.457V329.048C314.724 328.149 314.761 327.245 314.823 326.352C315.376 318.774 318.125 313.236 321.341 313.224H428.954C429.343 313.226 429.728 313.307 430.085 313.46C432.779 314.59 434.906 319.545 435.441 325.951C435.527 326.971 435.577 328.01 435.57 329.048Z" fill="#E4E4E4"/>
<path d="M271.304 329.048V485.295C271.212 485.441 271.12 485.58 271.027 485.726C268.715 485.495 266.413 485.23 264.122 484.931V336.705C264.122 333.451 262.947 330.809 261.502 330.803H152.838C151.393 330.809 150.218 333.451 150.218 336.705V439.607C147.789 437.84 145.395 436.028 143.036 434.172V329.048C143.036 328.149 143.073 327.245 143.14 326.352C143.725 318.774 146.646 313.236 150.065 313.224H264.276C264.687 313.225 265.094 313.305 265.475 313.46C268.334 314.59 270.597 319.545 271.169 325.951C271.261 326.971 271.304 328.01 271.304 329.048Z" fill="#E4E4E4"/>
<path d="M234.887 277.124L242.009 308.065L246.559 312.988H249.843L236.312 256.73L235.643 266.287V266.294L234.887 277.124Z" fill="#2B376C"/>
<path d="M258.602 314.568C258.581 314.52 258.555 314.475 258.522 314.434C258.457 314.288 258.363 314.156 258.245 314.046L257.415 313.226L253.049 308.909C252.729 308.599 252.299 308.425 251.85 308.423H251.832L248.751 308.441L246.101 308.459L242.399 308.484L217.186 308.641L200.614 308.745C200.165 308.75 199.737 308.93 199.42 309.244C199.104 309.559 198.925 309.983 198.923 310.427C198.926 310.672 198.98 310.914 199.083 311.137L199.403 311.811L200.073 313.226L200.946 315.078L201.377 315.989C201.514 316.279 201.732 316.524 202.005 316.696C202.279 316.868 202.596 316.96 202.92 316.961H257.04C257.325 316.955 257.604 316.881 257.853 316.744C258.101 316.607 258.312 316.412 258.467 316.175C258.621 315.939 258.714 315.669 258.738 315.388C258.761 315.108 258.715 314.826 258.602 314.568Z" fill="#2B376C"/>
<path opacity="0.17" d="M200.947 315.077L201.375 315.991C201.514 316.28 201.732 316.524 202.006 316.696C202.279 316.868 202.596 316.96 202.92 316.962H257.042C257.327 316.956 257.606 316.882 257.854 316.745C258.103 316.609 258.314 316.413 258.468 316.177C258.622 315.941 258.715 315.671 258.738 315.39C258.762 315.11 258.715 314.829 258.602 314.571C258.583 314.522 258.556 314.477 258.523 314.437L200.947 315.077Z" fill="black"/>
<path opacity="0.17" d="M235.643 266.287V266.294L247.229 312.988H249.843L236.312 256.73L235.643 266.287Z" fill="black"/>
<path d="M253.818 135.617L252.121 135.392C251.655 135.332 251.184 135.457 250.811 135.738L249.796 136.509L238.5 150.464C238.127 150.748 237.884 151.168 237.824 151.63L237.19 156.378L221.423 274.843C221.367 275.282 221.479 275.726 221.737 276.088L229.165 296.309L229.387 296.624L229.866 297.298C230.113 297.641 230.475 297.886 230.887 297.991L231.963 298.258C232.208 298.318 232.462 298.327 232.71 298.283C232.959 298.239 233.194 298.143 233.402 298.003C233.611 297.864 233.787 297.683 233.919 297.471C234.05 297.26 234.134 297.023 234.165 296.776L236.089 282.336V282.33L237.319 273.064L238.359 265.249V265.243L255.355 137.584C255.417 137.123 255.29 136.657 255.003 136.288C254.717 135.92 254.293 135.679 253.827 135.618L253.818 135.617Z" fill="#2B376C"/>
<path opacity="0.17" d="M249.794 136.51L229.164 296.311L229.388 296.624L229.866 297.296C230.113 297.639 230.475 297.884 230.887 297.989L231.965 298.256C232.209 298.316 232.463 298.324 232.71 298.28C232.958 298.237 233.193 298.142 233.401 298.002C233.609 297.862 233.784 297.681 233.916 297.47C234.048 297.258 234.133 297.022 234.166 296.776L255.354 137.586C255.415 137.124 255.288 136.656 255 136.287C254.713 135.917 254.288 135.675 253.82 135.614L252.119 135.393C251.888 135.362 251.653 135.377 251.428 135.437C251.203 135.497 250.993 135.6 250.808 135.741L249.794 136.51Z" fill="black"/>
<path d="M249.186 141.08L238.238 156.51L225.226 254.275L232.281 268.095L249.186 141.08Z" fill="white"/>
<path d="M355.826 277.124L348.705 308.065L344.154 312.988H340.871L354.402 256.73L355.071 266.287V266.294L355.826 277.124Z" fill="#2B376C"/>
<path d="M390.099 308.745L348.321 308.484L344.613 308.459L341.968 308.441L338.888 308.423H338.863C338.416 308.424 337.987 308.598 337.67 308.909L332.468 314.046C332.352 314.158 332.259 314.29 332.191 314.434C332.158 314.475 332.132 314.52 332.111 314.568C331.998 314.826 331.952 315.108 331.975 315.388C331.999 315.669 332.092 315.939 332.246 316.175C332.401 316.412 332.612 316.607 332.86 316.744C333.109 316.881 333.388 316.955 333.673 316.961H387.793C388.118 316.959 388.436 316.868 388.71 316.696C388.984 316.524 389.203 316.279 389.343 315.989L389.767 315.078L390.64 313.226L391.63 311.137C391.736 310.915 391.79 310.672 391.79 310.427C391.788 309.983 391.609 309.559 391.293 309.244C390.976 308.93 390.548 308.75 390.099 308.745Z" fill="#2B376C"/>
<path opacity="0.17" d="M389.767 315.077L389.339 315.991C389.2 316.28 388.982 316.524 388.708 316.696C388.435 316.868 388.118 316.96 387.794 316.962H333.672C333.387 316.956 333.108 316.882 332.86 316.745C332.611 316.609 332.4 316.413 332.246 316.177C332.092 315.941 331.999 315.671 331.976 315.39C331.952 315.11 331.999 314.829 332.112 314.571C332.131 314.522 332.158 314.477 332.191 314.437L389.767 315.077Z" fill="black"/>
<path opacity="0.17" d="M355.071 266.287V266.294L343.485 312.988H340.871L354.402 256.73L355.071 266.287Z" fill="black"/>
<path d="M369.29 274.843L352.89 151.63C352.829 151.168 352.586 150.749 352.213 150.464L340.923 136.51L339.908 135.738C339.533 135.457 339.06 135.333 338.592 135.392L336.895 135.617C336.427 135.677 336.002 135.917 335.714 136.286C335.426 136.655 335.298 137.122 335.358 137.584L352.355 265.249V265.255L353.394 273.064L354.63 282.336V282.349L356.548 296.776C356.579 297.024 356.663 297.261 356.796 297.473C356.929 297.685 357.107 297.866 357.317 298.003C357.524 298.144 357.759 298.239 358.006 298.283C358.253 298.327 358.506 298.318 358.75 298.258L359.826 297.991C360.238 297.886 360.6 297.641 360.847 297.299L361.326 296.625L361.548 296.309L368.976 276.088C369.237 275.727 369.349 275.282 369.29 274.843Z" fill="#2B376C"/>
<path opacity="0.17" d="M340.92 136.51L361.55 296.312L361.325 296.624L360.847 297.296C360.601 297.639 360.239 297.885 359.826 297.989L358.749 298.257C358.505 298.316 358.251 298.325 358.003 298.281C357.756 298.237 357.521 298.142 357.313 298.002C357.105 297.863 356.93 297.681 356.798 297.47C356.666 297.259 356.581 297.022 356.548 296.776L335.36 137.587C335.299 137.124 335.426 136.657 335.714 136.287C336.001 135.917 336.425 135.675 336.893 135.614L338.595 135.394C338.826 135.363 339.061 135.378 339.286 135.437C339.511 135.497 339.721 135.6 339.905 135.741L340.92 136.51Z" fill="black"/>
<path d="M341.528 141.08L352.476 156.51L365.488 254.275L358.433 268.095L341.528 141.08Z" fill="white"/>
<path d="M138.051 338.19C138.053 338.495 138.026 338.8 137.971 339.101C137.947 339.246 137.916 339.386 137.879 339.526C137.579 340.655 136.909 341.654 135.974 342.367C135.038 343.08 133.889 343.467 132.707 343.467H109.568V397.966C109.569 399.117 109.186 400.238 108.479 401.154C107.95 400.54 107.428 399.927 106.911 399.308C104.144 396.041 101.469 392.701 98.8862 389.288V343.467H88.5554C87.1779 343.466 85.854 342.939 84.8602 341.997C83.8665 341.055 83.2798 339.771 83.2226 338.411C83.1655 337.052 83.6423 335.724 84.5536 334.704C85.4648 333.684 86.7399 333.051 88.1126 332.937C88.2602 332.925 88.4078 332.919 88.5554 332.919H132.707C134.124 332.918 135.482 333.473 136.484 334.462C137.486 335.45 138.05 336.791 138.051 338.19Z" fill="#2B376C"/>
<path d="M506.782 338.19C506.782 339.258 506.454 340.301 505.842 341.181C505.229 342.062 504.36 342.738 503.351 343.12C502.871 343.302 502.368 343.412 501.856 343.448C501.721 343.461 501.58 343.467 501.444 343.467H491.12V392.932C490.966 393.132 490.806 393.332 490.646 393.533C488.217 396.599 485.714 399.605 483.138 402.55C482.315 402.093 481.631 401.426 481.157 400.62C480.682 399.814 480.434 398.898 480.438 397.966V343.467H457.292C456.609 343.469 455.932 343.339 455.3 343.084C454.503 342.77 453.795 342.27 453.236 341.627C452.677 340.984 452.284 340.217 452.09 339.392V339.386C451.803 338.187 451.956 336.926 452.52 335.828C452.514 335.822 452.514 335.822 452.52 335.822C452.765 335.338 453.084 334.895 453.467 334.51C453.965 334.006 454.56 333.606 455.217 333.333C455.874 333.06 456.579 332.919 457.292 332.919H501.444C502.86 332.919 504.217 333.474 505.218 334.462C506.219 335.45 506.782 336.79 506.782 338.188L506.782 338.19Z" fill="#2B376C"/>
<path d="M506.429 236.577C504.231 236.577 502.055 237.004 500.024 237.835C497.994 238.665 496.149 239.882 494.595 241.417C493.041 242.951 491.808 244.773 490.967 246.778C490.126 248.783 489.693 250.932 489.693 253.102C489.694 256.936 491.044 260.65 493.512 263.609C495.981 266.568 499.414 268.587 503.224 269.322V296.35H513.906V236.577H506.429Z" fill="#2B376C"/>
<path d="M214.245 296.92C213.179 296.302 211.99 295.923 210.76 295.808C209.53 295.694 208.29 295.847 207.126 296.257C205.963 296.667 204.904 297.324 204.026 298.182C203.147 299.04 202.47 300.077 202.041 301.221L182.746 301.964L180.146 310.84L207.577 312.226C209.572 312.81 211.713 312.651 213.597 311.779C215.48 310.908 216.974 309.384 217.796 307.497C218.618 305.611 218.71 303.492 218.056 301.542C217.401 299.593 216.045 297.948 214.245 296.92Z" fill="#FFB6B6"/>
<path d="M198.395 313.184L178.574 312.94L176.065 312.906L135.74 312.404C135.74 312.404 124.789 302.088 115.254 291.466L116.59 281.92C117.894 272.552 122.6 263.971 129.833 257.773C143.49 266.784 151.41 284.621 151.41 284.621L164.689 290.489C174.035 290.901 183.141 293.535 191.236 298.166L195.603 300.664L198.395 313.184Z" fill="#EF4C43"/>
<path d="M260.668 484.459H332.16C327.284 485.164 322.362 485.72 317.396 486.129H275.433C270.464 485.722 265.543 485.166 260.668 484.459Z" fill="#CCCCCC"/>
<path d="M275.042 448.919C276.426 436.588 283.988 424.356 295.823 420.193C291.305 432.926 291.495 446.826 296.357 459.435C298.25 464.29 300.867 469.497 299.216 474.438C298.188 477.512 295.604 479.888 292.7 481.391C289.796 482.893 286.56 483.634 283.365 484.36L282.741 484.883C277.501 473.608 273.658 461.25 275.042 448.919Z" fill="#CCCCCC"/>
<path d="M295.944 420.424C289.124 428.176 284.951 437.853 284.017 448.081C283.777 450.279 283.889 452.501 284.349 454.665C284.866 456.759 285.942 458.677 287.464 460.221C288.854 461.69 290.447 463.032 291.452 464.808C291.952 465.725 292.251 466.736 292.328 467.774C292.405 468.813 292.259 469.856 291.899 470.835C291.067 473.297 289.388 475.317 287.678 477.237C285.778 479.367 283.771 481.551 282.989 484.353C282.894 484.693 282.366 484.528 282.461 484.189C283.821 479.313 288.558 476.492 290.775 472.088C291.81 470.033 292.224 467.657 291.198 465.516C290.302 463.644 288.66 462.258 287.239 460.783C285.732 459.298 284.616 457.471 283.989 455.462C283.418 453.329 283.22 451.115 283.402 448.915C283.732 443.957 284.849 439.081 286.712 434.465C288.81 429.186 291.806 424.3 295.572 420.019C295.805 419.754 296.176 420.161 295.944 420.424Z" fill="white"/>
<path d="M284.121 444.77C282.405 444.383 280.884 443.405 279.83 442.013C278.776 440.62 278.258 438.902 278.368 437.167C278.373 437.096 278.405 437.03 278.459 436.983C278.512 436.936 278.582 436.911 278.654 436.913C278.726 436.916 278.794 436.946 278.843 436.997C278.893 437.048 278.921 437.116 278.921 437.187C278.816 438.803 279.299 440.402 280.283 441.697C281.267 442.992 282.688 443.897 284.288 444.249C284.636 444.326 284.467 444.847 284.121 444.77Z" fill="white"/>
<path d="M286.66 459.569C289.725 457.706 291.967 454.771 292.938 451.349C293.034 451.009 293.562 451.174 293.466 451.513C292.449 455.073 290.11 458.123 286.915 460.054C286.611 460.238 286.357 459.752 286.66 459.569Z" fill="white"/>
<path d="M289.33 429.697C289.963 429.984 290.658 430.111 291.352 430.067C292.047 430.023 292.719 429.809 293.309 429.445C293.611 429.258 293.865 429.744 293.565 429.93C292.911 430.329 292.168 430.565 291.401 430.615C290.633 430.665 289.865 430.529 289.164 430.219C289.095 430.195 289.038 430.146 289.005 430.083C288.971 430.019 288.963 429.945 288.983 429.876C289.005 429.807 289.054 429.749 289.12 429.716C289.185 429.683 289.26 429.676 289.33 429.697Z" fill="white"/>
<path d="M332.361 441.703C332.176 441.825 331.991 441.948 331.805 442.075C329.323 443.734 326.982 445.589 324.804 447.622C324.634 447.777 324.463 447.936 324.297 448.095C319.103 453.049 314.886 458.913 311.86 465.387C310.658 467.964 309.657 470.628 308.864 473.356C307.77 477.122 306.887 481.292 304.663 484.391C304.434 484.717 304.185 485.028 303.918 485.324L283.436 485.594C283.389 485.572 283.342 485.554 283.295 485.531L282.478 485.579C282.509 485.436 282.544 485.287 282.575 485.144C282.593 485.061 282.615 484.977 282.632 484.894C282.646 484.838 282.659 484.783 282.668 484.732C282.672 484.714 282.676 484.695 282.681 484.681C282.69 484.63 282.703 484.584 282.712 484.538C282.906 483.709 283.107 482.88 283.314 482.051C283.314 482.047 283.314 482.047 283.318 482.042C284.833 475.711 287.104 469.58 290.082 463.778C290.173 463.606 290.264 463.429 290.364 463.257C291.745 460.687 293.336 458.234 295.121 455.92C296.103 454.657 297.149 453.443 298.255 452.284C301.118 449.294 304.441 446.767 308.099 444.797C315.393 440.87 323.878 439.29 331.761 441.526C331.962 441.583 332.16 441.641 332.361 441.703Z" fill="#CCCCCC"/>
<path d="M332.319 441.96C322.146 444.095 312.914 449.341 305.933 456.952C304.401 458.564 303.135 460.405 302.184 462.406C301.32 464.385 301.009 466.556 301.283 468.694C301.498 470.693 301.952 472.713 301.671 474.728C301.511 475.757 301.133 476.742 300.562 477.617C299.99 478.492 299.237 479.238 298.353 479.806C296.188 481.277 293.616 481.892 291.08 482.407C288.264 482.979 285.329 483.529 282.997 485.302C282.714 485.516 282.393 485.071 282.675 484.856C286.734 481.773 292.236 482.336 296.692 480.138C298.771 479.112 300.55 477.462 301.037 475.142C301.463 473.114 300.996 471.031 300.761 469.01C300.463 466.928 300.686 464.806 301.41 462.828C302.256 460.786 303.447 458.9 304.933 457.252C308.22 453.489 312.085 450.26 316.387 447.683C321.28 444.715 326.651 442.595 332.269 441.415C332.616 441.343 332.664 441.888 332.319 441.96Z" fill="white"/>
<path d="M308.035 454.37C306.901 453.041 306.282 451.356 306.29 449.617C306.297 447.878 306.931 446.199 308.077 444.879C308.309 444.612 308.739 444.957 308.506 445.224C307.437 446.451 306.847 448.016 306.844 449.635C306.84 451.254 307.422 452.821 308.486 454.053C308.717 454.321 308.264 454.637 308.035 454.37Z" fill="white"/>
<path d="M301.039 467.695C304.622 468.03 308.202 467.019 311.064 464.864C311.347 464.65 311.668 465.096 311.385 465.31C308.403 467.547 304.675 468.591 300.947 468.234C300.592 468.2 300.685 467.661 301.039 467.695Z" fill="white"/>
<path d="M321.384 445.433C321.714 446.037 322.191 446.552 322.773 446.93C323.354 447.307 324.021 447.537 324.715 447.597C325.07 447.627 324.976 448.166 324.623 448.136C323.857 448.066 323.121 447.812 322.478 447.396C321.834 446.98 321.304 446.415 320.933 445.75C320.893 445.69 320.877 445.617 320.889 445.547C320.901 445.476 320.94 445.412 320.998 445.369C321.058 445.327 321.132 445.31 321.204 445.322C321.276 445.334 321.341 445.374 321.384 445.433Z" fill="white"/>
<path d="M306.208 84.2243C267.891 94.1769 225.437 100.231 182.269 101.889C175.942 102.229 169.601 102.186 163.28 101.761C149.388 100.607 137.489 96.2961 124.238 93.9401C117.867 92.8106 110.771 91.9848 104.357 90.7642C105.839 88.9486 107.348 87.1553 108.883 85.3842C122.713 86.5379 136.758 90.3149 150.753 92.0698C174.545 95.0574 201.202 91.7237 219.238 83.5017C227.989 79.5122 234.691 74.5329 243.411 70.5252C244.597 69.924 245.882 69.5354 247.205 69.3775C249.966 69.1286 252.389 70.2277 254.363 71.2114C268.992 78.5042 290.232 84.4308 309.947 81.17C311.416 82.3055 308.624 83.5989 306.208 84.2243Z" fill="white"/>
<path d="M393.448 109.889C393.628 109.857 393.809 109.831 393.989 109.8C393.231 109.337 392.518 108.806 391.858 108.215L393.448 109.889Z" fill="white"/>
<path d="M511.465 124.277C503.231 124.927 494.954 125.411 486.634 125.729C480.308 126.066 473.967 126.023 467.645 125.601C453.754 124.441 441.855 120.136 428.603 117.78C416.459 115.624 401.7 114.586 393.989 109.801C413.919 106.394 434.568 113.329 455.119 115.91C471.743 117.928 488.594 117.107 504.935 113.481C507.21 117.015 509.387 120.614 511.465 124.277Z" fill="white"/>
<path d="M326.112 215.365C306.822 149.985 295.469 82.574 295.469 14.4759V9.54053H289.06V14.4758C289.06 82.574 277.706 149.985 258.417 215.365C257.484 218.53 257.012 221.81 257.014 225.106C257.014 226.353 257.262 227.587 257.745 228.739C258.229 229.891 258.937 230.938 259.829 231.819C260.722 232.701 261.782 233.4 262.948 233.877C264.115 234.354 265.365 234.6 266.627 234.6H279.446C279.446 236.262 279.777 237.908 280.422 239.444C281.066 240.979 282.01 242.375 283.2 243.55C284.391 244.726 285.804 245.658 287.359 246.294C288.914 246.93 290.581 247.258 292.264 247.258C293.948 247.258 295.614 246.93 297.17 246.294C298.725 245.658 300.138 244.726 301.328 243.55C302.519 242.375 303.463 240.979 304.107 239.444C304.751 237.908 305.083 236.262 305.083 234.6H315.057V261.882C313.65 261.922 312.312 262.493 311.318 263.477C310.324 264.461 309.749 265.783 309.711 267.173C309.673 268.562 310.175 269.913 311.114 270.949C312.053 271.984 313.358 272.625 314.76 272.741C316.163 272.856 317.558 272.437 318.657 271.569C319.757 270.701 320.478 269.451 320.674 268.074C320.869 266.698 320.523 265.3 319.708 264.167C318.892 263.034 317.668 262.253 316.287 261.983V234.6H317.901C320.451 234.6 322.896 233.599 324.699 231.819C326.502 230.039 327.515 227.624 327.515 225.106C327.517 221.81 327.045 218.53 326.112 215.365Z" fill="white"/>
</svg>
